<?xml version="1.0" encoding="utf-8" standalone="no"?>
<!DOCTYPE svg PUBLIC "-//W3C//DTD SVG 1.1//EN"
  "http://www.w3.org/Graphics/SVG/1.1/DTD/svg11.dtd">
<!-- Created with matplotlib (http://matplotlib.org/) -->
<svg height="345pt" version="1.1" viewBox="0 0 460 345" width="460pt" xmlns="http://www.w3.org/2000/svg" xmlns:xlink="http://www.w3.org/1999/xlink">
 <defs>
  <style type="text/css">
*{stroke-linecap:butt;stroke-linejoin:round;}
  </style>
 </defs>
 <g id="figure_1">
  <g id="patch_1">
   <path d="M 0 345.6 
L 460.8 345.6 
L 460.8 0 
L 0 0 
z
" style="fill:#ffffff;"/>
  </g>
  <g id="axes_1">
   <g id="patch_2">
    <path d="M 47.81 303.64 
L 447.48 303.64 
L 447.48 13.32 
L 47.81 13.32 
z
" style="fill:#ffffff;"/>
   </g>
   <g id="matplotlib.axis_1">
    <g id="xtick_1">
     <g id="line2d_1">
      <defs>
       <path d="M 0 0 
L 0 3.5 
" id="m387739ee6f" style="stroke:#000000;stroke-width:0.8;"/>
      </defs>
      <g>
       <use style="stroke:#000000;stroke-width:0.8;" x="65.976818" xlink:href="#m387739ee6f" y="303.64"/>
      </g>
     </g>
     <g id="text_1">
      <!-- 0 -->
      <defs>
       <path d="M 31.78125 66.40625 
Q 24.171875 66.40625 20.328125 58.90625 
Q 16.5 51.421875 16.5 36.375 
Q 16.5 21.390625 20.328125 13.890625 
Q 24.171875 6.390625 31.78125 6.390625 
Q 39.453125 6.390625 43.28125 13.890625 
Q 47.125 21.390625 47.125 36.375 
Q 47.125 51.421875 43.28125 58.90625 
Q 39.453125 66.40625 31.78125 66.40625 
M 31.78125 74.21875 
Q 44.046875 74.21875 50.515625 64.515625 
Q 56.984375 54.828125 56.984375 36.375 
Q 56.984375 17.96875 50.515625 8.265625 
Q 44.046875 -1.421875 31.78125 -1.421875 
Q 19.53125 -1.421875 13.0625 8.265625 
Q 6.59375 17.96875 6.59375 36.375 
Q 6.59375 54.828125 13.0625 64.515625 
Q 19.53125 74.21875 31.78125 74.21875 
" id="DejaVuSans-30"/>
      </defs>
      <g transform="translate(62.795568 318.238437)scale(0.1 -0.1)">
       <use xlink:href="#DejaVuSans-30"/>
      </g>
     </g>
    </g>
    <g id="xtick_2">
     <g id="line2d_2">
      <g>
       <use style="stroke:#000000;stroke-width:0.8;" x="138.644091" xlink:href="#m387739ee6f" y="303.64"/>
      </g>
     </g>
     <g id="text_2">
      <!-- 10 -->
      <defs>
       <path d="M 12.40625 8.296875 
L 28.515625 8.296875 
L 28.515625 63.921875 
L 10.984375 60.40625 
L 10.984375 69.390625 
L 28.421875 72.90625 
L 38.28125 72.90625 
L 38.28125 8.296875 
L 54.390625 8.296875 
L 54.390625 0 
L 12.40625 0 
z
" id="DejaVuSans-31"/>
      </defs>
      <g transform="translate(132.281591 318.238437)scale(0.1 -0.1)">
       <use xlink:href="#DejaVuSans-31"/>
       <use x="63.623047" xlink:href="#DejaVuSans-30"/>
      </g>
     </g>
    </g>
    <g id="xtick_3">
     <g id="line2d_3">
      <g>
       <use style="stroke:#000000;stroke-width:0.8;" x="211.311364" xlink:href="#m387739ee6f" y="303.64"/>
      </g>
     </g>
     <g id="text_3">
      <!-- 20 -->
      <defs>
       <path d="M 19.1875 8.296875 
L 53.609375 8.296875 
L 53.609375 0 
L 7.328125 0 
L 7.328125 8.296875 
Q 12.9375 14.109375 22.625 23.890625 
Q 32.328125 33.6875 34.8125 36.53125 
Q 39.546875 41.84375 41.421875 45.53125 
Q 43.3125 49.21875 43.3125 52.78125 
Q 43.3125 58.59375 39.234375 62.25 
Q 35.15625 65.921875 28.609375 65.921875 
Q 23.96875 65.921875 18.8125 64.3125 
Q 13.671875 62.703125 7.8125 59.421875 
L 7.8125 69.390625 
Q 13.765625 71.78125 18.9375 73 
Q 24.125 74.21875 28.421875 74.21875 
Q 39.75 74.21875 46.484375 68.546875 
Q 53.21875 62.890625 53.21875 53.421875 
Q 53.21875 48.921875 51.53125 44.890625 
Q 49.859375 40.875 45.40625 35.40625 
Q 44.1875 33.984375 37.640625 27.21875 
Q 31.109375 20.453125 19.1875 8.296875 
" id="DejaVuSans-32"/>
      </defs>
      <g transform="translate(204.948864 318.238437)scale(0.1 -0.1)">
       <use xlink:href="#DejaVuSans-32"/>
       <use x="63.623047" xlink:href="#DejaVuSans-30"/>
      </g>
     </g>
    </g>
    <g id="xtick_4">
     <g id="line2d_4">
      <g>
       <use style="stroke:#000000;stroke-width:0.8;" x="283.978636" xlink:href="#m387739ee6f" y="303.64"/>
      </g>
     </g>
     <g id="text_4">
      <!-- 30 -->
      <defs>
       <path d="M 40.578125 39.3125 
Q 47.65625 37.796875 51.625 33 
Q 55.609375 28.21875 55.609375 21.1875 
Q 55.609375 10.40625 48.1875 4.484375 
Q 40.765625 -1.421875 27.09375 -1.421875 
Q 22.515625 -1.421875 17.65625 -0.515625 
Q 12.796875 0.390625 7.625 2.203125 
L 7.625 11.71875 
Q 11.71875 9.328125 16.59375 8.109375 
Q 21.484375 6.890625 26.8125 6.890625 
Q 36.078125 6.890625 40.9375 10.546875 
Q 45.796875 14.203125 45.796875 21.1875 
Q 45.796875 27.640625 41.28125 31.265625 
Q 36.765625 34.90625 28.71875 34.90625 
L 20.21875 34.90625 
L 20.21875 43.015625 
L 29.109375 43.015625 
Q 36.375 43.015625 40.234375 45.921875 
Q 44.09375 48.828125 44.09375 54.296875 
Q 44.09375 59.90625 40.109375 62.90625 
Q 36.140625 65.921875 28.71875 65.921875 
Q 24.65625 65.921875 20.015625 65.03125 
Q 15.375 64.15625 9.8125 62.3125 
L 9.8125 71.09375 
Q 15.4375 72.65625 20.34375 73.4375 
Q 25.25 74.21875 29.59375 74.21875 
Q 40.828125 74.21875 47.359375 69.109375 
Q 53.90625 64.015625 53.90625 55.328125 
Q 53.90625 49.265625 50.4375 45.09375 
Q 46.96875 40.921875 40.578125 39.3125 
" id="DejaVuSans-33"/>
      </defs>
      <g transform="translate(277.616136 318.238437)scale(0.1 -0.1)">
       <use xlink:href="#DejaVuSans-33"/>
       <use x="63.623047" xlink:href="#DejaVuSans-30"/>
      </g>
     </g>
    </g>
    <g id="xtick_5">
     <g id="line2d_5">
      <g>
       <use style="stroke:#000000;stroke-width:0.8;" x="356.645909" xlink:href="#m387739ee6f" y="303.64"/>
      </g>
     </g>
     <g id="text_5">
      <!-- 40 -->
      <defs>
       <path d="M 37.796875 64.3125 
L 12.890625 25.390625 
L 37.796875 25.390625 
z
M 35.203125 72.90625 
L 47.609375 72.90625 
L 47.609375 25.390625 
L 58.015625 25.390625 
L 58.015625 17.1875 
L 47.609375 17.1875 
L 47.609375 0 
L 37.796875 0 
L 37.796875 17.1875 
L 4.890625 17.1875 
L 4.890625 26.703125 
z
" id="DejaVuSans-34"/>
      </defs>
      <g transform="translate(350.283409 318.238437)scale(0.1 -0.1)">
       <use xlink:href="#DejaVuSans-34"/>
       <use x="63.623047" xlink:href="#DejaVuSans-30"/>
      </g>
     </g>
    </g>
    <g id="xtick_6">
     <g id="line2d_6">
      <g>
       <use style="stroke:#000000;stroke-width:0.8;" x="429.313182" xlink:href="#m387739ee6f" y="303.64"/>
      </g>
     </g>
     <g id="text_6">
      <!-- 50 -->
      <defs>
       <path d="M 10.796875 72.90625 
L 49.515625 72.90625 
L 49.515625 64.59375 
L 19.828125 64.59375 
L 19.828125 46.734375 
Q 21.96875 47.46875 24.109375 47.828125 
Q 26.265625 48.1875 28.421875 48.1875 
Q 40.625 48.1875 47.75 41.5 
Q 54.890625 34.8125 54.890625 23.390625 
Q 54.890625 11.625 47.5625 5.09375 
Q 40.234375 -1.421875 26.90625 -1.421875 
Q 22.3125 -1.421875 17.546875 -0.640625 
Q 12.796875 0.140625 7.71875 1.703125 
L 7.71875 11.625 
Q 12.109375 9.234375 16.796875 8.0625 
Q 21.484375 6.890625 26.703125 6.890625 
Q 35.15625 6.890625 40.078125 11.328125 
Q 45.015625 15.765625 45.015625 23.390625 
Q 45.015625 31 40.078125 35.4375 
Q 35.15625 39.890625 26.703125 39.890625 
Q 22.75 39.890625 18.8125 39.015625 
Q 14.890625 38.140625 10.796875 36.28125 
z
" id="DejaVuSans-35"/>
      </defs>
      <g transform="translate(422.950682 318.238437)scale(0.1 -0.1)">
       <use xlink:href="#DejaVuSans-35"/>
       <use x="63.623047" xlink:href="#DejaVuSans-30"/>
      </g>
     </g>
    </g>
    <g id="text_7">
     <!-- Time -->
     <defs>
      <path d="M -0.296875 72.90625 
L 61.375 72.90625 
L 61.375 64.59375 
L 35.5 64.59375 
L 35.5 0 
L 25.59375 0 
L 25.59375 64.59375 
L -0.296875 64.59375 
z
" id="DejaVuSans-54"/>
      <path d="M 9.421875 54.6875 
L 18.40625 54.6875 
L 18.40625 0 
L 9.421875 0 
z
M 9.421875 75.984375 
L 18.40625 75.984375 
L 18.40625 64.59375 
L 9.421875 64.59375 
z
" id="DejaVuSans-69"/>
      <path d="M 52 44.1875 
Q 55.375 50.25 60.0625 53.125 
Q 64.75 56 71.09375 56 
Q 79.640625 56 84.28125 50.015625 
Q 88.921875 44.046875 88.921875 33.015625 
L 88.921875 0 
L 79.890625 0 
L 79.890625 32.71875 
Q 79.890625 40.578125 77.09375 44.375 
Q 74.3125 48.1875 68.609375 48.1875 
Q 61.625 48.1875 57.5625 43.546875 
Q 53.515625 38.921875 53.515625 30.90625 
L 53.515625 0 
L 44.484375 0 
L 44.484375 32.71875 
Q 44.484375 40.625 41.703125 44.40625 
Q 38.921875 48.1875 33.109375 48.1875 
Q 26.21875 48.1875 22.15625 43.53125 
Q 18.109375 38.875 18.109375 30.90625 
L 18.109375 0 
L 9.078125 0 
L 9.078125 54.6875 
L 18.109375 54.6875 
L 18.109375 46.1875 
Q 21.1875 51.21875 25.484375 53.609375 
Q 29.78125 56 35.6875 56 
Q 41.65625 56 45.828125 52.96875 
Q 50 49.953125 52 44.1875 
" id="DejaVuSans-6d"/>
      <path d="M 56.203125 29.59375 
L 56.203125 25.203125 
L 14.890625 25.203125 
Q 15.484375 15.921875 20.484375 11.0625 
Q 25.484375 6.203125 34.421875 6.203125 
Q 39.59375 6.203125 44.453125 7.46875 
Q 49.3125 8.734375 54.109375 11.28125 
L 54.109375 2.78125 
Q 49.265625 0.734375 44.1875 -0.34375 
Q 39.109375 -1.421875 33.890625 -1.421875 
Q 20.796875 -1.421875 13.15625 6.1875 
Q 5.515625 13.8125 5.515625 26.8125 
Q 5.515625 40.234375 12.765625 48.109375 
Q 20.015625 56 32.328125 56 
Q 43.359375 56 49.78125 48.890625 
Q 56.203125 41.796875 56.203125 29.59375 
M 47.21875 32.234375 
Q 47.125 39.59375 43.09375 43.984375 
Q 39.0625 48.390625 32.421875 48.390625 
Q 24.90625 48.390625 20.390625 44.140625 
Q 15.875 39.890625 15.1875 32.171875 
z
" id="DejaVuSans-65"/>
     </defs>
     <g transform="translate(235.2575 331.916562)scale(0.1 -0.1)">
      <use xlink:href="#DejaVuSans-54"/>
      <use x="61.037109" xlink:href="#DejaVuSans-69"/>
      <use x="88.820312" xlink:href="#DejaVuSans-6d"/>
      <use x="186.232422" xlink:href="#DejaVuSans-65"/>
     </g>
    </g>
   </g>
   <g id="matplotlib.axis_2">
    <g id="ytick_1">
     <g id="line2d_7">
      <defs>
       <path d="M 0 0 
L -3.5 0 
" id="mcbb1d9dabb" style="stroke:#000000;stroke-width:0.8;"/>
      </defs>
      <g>
       <use style="stroke:#000000;stroke-width:0.8;" x="47.81" xlink:href="#mcbb1d9dabb" y="290.443636"/>
      </g>
     </g>
     <g id="text_8">
      <!-- 0.0 -->
      <defs>
       <path d="M 10.6875 12.40625 
L 21 12.40625 
L 21 0 
L 10.6875 0 
z
" id="DejaVuSans-2e"/>
      </defs>
      <g transform="translate(24.906875 294.242855)scale(0.1 -0.1)">
       <use xlink:href="#DejaVuSans-30"/>
       <use x="63.623047" xlink:href="#DejaVuSans-2e"/>
       <use x="95.410156" xlink:href="#DejaVuSans-30"/>
      </g>
     </g>
    </g>
    <g id="ytick_2">
     <g id="line2d_8">
      <g>
       <use style="stroke:#000000;stroke-width:0.8;" x="47.81" xlink:href="#mcbb1d9dabb" y="236.742872"/>
      </g>
     </g>
     <g id="text_9">
      <!-- 0.2 -->
      <g transform="translate(24.906875 240.542091)scale(0.1 -0.1)">
       <use xlink:href="#DejaVuSans-30"/>
       <use x="63.623047" xlink:href="#DejaVuSans-2e"/>
       <use x="95.410156" xlink:href="#DejaVuSans-32"/>
      </g>
     </g>
    </g>
    <g id="ytick_3">
     <g id="line2d_9">
      <g>
       <use style="stroke:#000000;stroke-width:0.8;" x="47.81" xlink:href="#mcbb1d9dabb" y="183.042108"/>
      </g>
     </g>
     <g id="text_10">
      <!-- 0.4 -->
      <g transform="translate(24.906875 186.841327)scale(0.1 -0.1)">
       <use xlink:href="#DejaVuSans-30"/>
       <use x="63.623047" xlink:href="#DejaVuSans-2e"/>
       <use x="95.410156" xlink:href="#DejaVuSans-34"/>
      </g>
     </g>
    </g>
    <g id="ytick_4">
     <g id="line2d_10">
      <g>
       <use style="stroke:#000000;stroke-width:0.8;" x="47.81" xlink:href="#mcbb1d9dabb" y="129.341344"/>
      </g>
     </g>
     <g id="text_11">
      <!-- 0.6 -->
      <defs>
       <path d="M 33.015625 40.375 
Q 26.375 40.375 22.484375 35.828125 
Q 18.609375 31.296875 18.609375 23.390625 
Q 18.609375 15.53125 22.484375 10.953125 
Q 26.375 6.390625 33.015625 6.390625 
Q 39.65625 6.390625 43.53125 10.953125 
Q 47.40625 15.53125 47.40625 23.390625 
Q 47.40625 31.296875 43.53125 35.828125 
Q 39.65625 40.375 33.015625 40.375 
M 52.59375 71.296875 
L 52.59375 62.3125 
Q 48.875 64.0625 45.09375 64.984375 
Q 41.3125 65.921875 37.59375 65.921875 
Q 27.828125 65.921875 22.671875 59.328125 
Q 17.53125 52.734375 16.796875 39.40625 
Q 19.671875 43.65625 24.015625 45.921875 
Q 28.375 48.1875 33.59375 48.1875 
Q 44.578125 48.1875 50.953125 41.515625 
Q 57.328125 34.859375 57.328125 23.390625 
Q 57.328125 12.15625 50.6875 5.359375 
Q 44.046875 -1.421875 33.015625 -1.421875 
Q 20.359375 -1.421875 13.671875 8.265625 
Q 6.984375 17.96875 6.984375 36.375 
Q 6.984375 53.65625 15.1875 63.9375 
Q 23.390625 74.21875 37.203125 74.21875 
Q 40.921875 74.21875 44.703125 73.484375 
Q 48.484375 72.75 52.59375 71.296875 
" id="DejaVuSans-36"/>
      </defs>
      <g transform="translate(24.906875 133.140563)scale(0.1 -0.1)">
       <use xlink:href="#DejaVuSans-30"/>
       <use x="63.623047" xlink:href="#DejaVuSans-2e"/>
       <use x="95.410156" xlink:href="#DejaVuSans-36"/>
      </g>
     </g>
    </g>
    <g id="ytick_5">
     <g id="line2d_11">
      <g>
       <use style="stroke:#000000;stroke-width:0.8;" x="47.81" xlink:href="#mcbb1d9dabb" y="75.64058"/>
      </g>
     </g>
     <g id="text_12">
      <!-- 0.8 -->
      <defs>
       <path d="M 31.78125 34.625 
Q 24.75 34.625 20.71875 30.859375 
Q 16.703125 27.09375 16.703125 20.515625 
Q 16.703125 13.921875 20.71875 10.15625 
Q 24.75 6.390625 31.78125 6.390625 
Q 38.8125 6.390625 42.859375 10.171875 
Q 46.921875 13.96875 46.921875 20.515625 
Q 46.921875 27.09375 42.890625 30.859375 
Q 38.875 34.625 31.78125 34.625 
M 21.921875 38.8125 
Q 15.578125 40.375 12.03125 44.71875 
Q 8.5 49.078125 8.5 55.328125 
Q 8.5 64.0625 14.71875 69.140625 
Q 20.953125 74.21875 31.78125 74.21875 
Q 42.671875 74.21875 48.875 69.140625 
Q 55.078125 64.0625 55.078125 55.328125 
Q 55.078125 49.078125 51.53125 44.71875 
Q 48 40.375 41.703125 38.8125 
Q 48.828125 37.15625 52.796875 32.3125 
Q 56.78125 27.484375 56.78125 20.515625 
Q 56.78125 9.90625 50.3125 4.234375 
Q 43.84375 -1.421875 31.78125 -1.421875 
Q 19.734375 -1.421875 13.25 4.234375 
Q 6.78125 9.90625 6.78125 20.515625 
Q 6.78125 27.484375 10.78125 32.3125 
Q 14.796875 37.15625 21.921875 38.8125 
M 18.3125 54.390625 
Q 18.3125 48.734375 21.84375 45.5625 
Q 25.390625 42.390625 31.78125 42.390625 
Q 38.140625 42.390625 41.71875 45.5625 
Q 45.3125 48.734375 45.3125 54.390625 
Q 45.3125 60.0625 41.71875 63.234375 
Q 38.140625 66.40625 31.78125 66.40625 
Q 25.390625 66.40625 21.84375 63.234375 
Q 18.3125 60.0625 18.3125 54.390625 
" id="DejaVuSans-38"/>
      </defs>
      <g transform="translate(24.906875 79.439798)scale(0.1 -0.1)">
       <use xlink:href="#DejaVuSans-30"/>
       <use x="63.623047" xlink:href="#DejaVuSans-2e"/>
       <use x="95.410156" xlink:href="#DejaVuSans-38"/>
      </g>
     </g>
    </g>
    <g id="ytick_6">
     <g id="line2d_12">
      <g>
       <use style="stroke:#000000;stroke-width:0.8;" x="47.81" xlink:href="#mcbb1d9dabb" y="21.939816"/>
      </g>
     </g>
     <g id="text_13">
      <!-- 1.0 -->
      <g transform="translate(24.906875 25.739034)scale(0.1 -0.1)">
       <use xlink:href="#DejaVuSans-31"/>
       <use x="63.623047" xlink:href="#DejaVuSans-2e"/>
       <use x="95.410156" xlink:href="#DejaVuSans-30"/>
      </g>
     </g>
    </g>
    <g id="text_14">
     <!-- Spin excitation -->
     <defs>
      <path d="M 53.515625 70.515625 
L 53.515625 60.890625 
Q 47.90625 63.578125 42.921875 64.890625 
Q 37.9375 66.21875 33.296875 66.21875 
Q 25.25 66.21875 20.875 63.09375 
Q 16.5 59.96875 16.5 54.203125 
Q 16.5 49.359375 19.40625 46.890625 
Q 22.3125 44.4375 30.421875 42.921875 
L 36.375 41.703125 
Q 47.40625 39.59375 52.65625 34.296875 
Q 57.90625 29 57.90625 20.125 
Q 57.90625 9.515625 50.796875 4.046875 
Q 43.703125 -1.421875 29.984375 -1.421875 
Q 24.8125 -1.421875 18.96875 -0.25 
Q 13.140625 0.921875 6.890625 3.21875 
L 6.890625 13.375 
Q 12.890625 10.015625 18.65625 8.296875 
Q 24.421875 6.59375 29.984375 6.59375 
Q 38.421875 6.59375 43.015625 9.90625 
Q 47.609375 13.234375 47.609375 19.390625 
Q 47.609375 24.75 44.3125 27.78125 
Q 41.015625 30.8125 33.5 32.328125 
L 27.484375 33.5 
Q 16.453125 35.6875 11.515625 40.375 
Q 6.59375 45.0625 6.59375 53.421875 
Q 6.59375 63.09375 13.40625 68.65625 
Q 20.21875 74.21875 32.171875 74.21875 
Q 37.3125 74.21875 42.625 73.28125 
Q 47.953125 72.359375 53.515625 70.515625 
" id="DejaVuSans-53"/>
      <path d="M 18.109375 8.203125 
L 18.109375 -20.796875 
L 9.078125 -20.796875 
L 9.078125 54.6875 
L 18.109375 54.6875 
L 18.109375 46.390625 
Q 20.953125 51.265625 25.265625 53.625 
Q 29.59375 56 35.59375 56 
Q 45.5625 56 51.78125 48.09375 
Q 58.015625 40.1875 58.015625 27.296875 
Q 58.015625 14.40625 51.78125 6.484375 
Q 45.5625 -1.421875 35.59375 -1.421875 
Q 29.59375 -1.421875 25.265625 0.953125 
Q 20.953125 3.328125 18.109375 8.203125 
M 48.6875 27.296875 
Q 48.6875 37.203125 44.609375 42.84375 
Q 40.53125 48.484375 33.40625 48.484375 
Q 26.265625 48.484375 22.1875 42.84375 
Q 18.109375 37.203125 18.109375 27.296875 
Q 18.109375 17.390625 22.1875 11.75 
Q 26.265625 6.109375 33.40625 6.109375 
Q 40.53125 6.109375 44.609375 11.75 
Q 48.6875 17.390625 48.6875 27.296875 
" id="DejaVuSans-70"/>
      <path d="M 54.890625 33.015625 
L 54.890625 0 
L 45.90625 0 
L 45.90625 32.71875 
Q 45.90625 40.484375 42.875 44.328125 
Q 39.84375 48.1875 33.796875 48.1875 
Q 26.515625 48.1875 22.3125 43.546875 
Q 18.109375 38.921875 18.109375 30.90625 
L 18.109375 0 
L 9.078125 0 
L 9.078125 54.6875 
L 18.109375 54.6875 
L 18.109375 46.1875 
Q 21.34375 51.125 25.703125 53.5625 
Q 30.078125 56 35.796875 56 
Q 45.21875 56 50.046875 50.171875 
Q 54.890625 44.34375 54.890625 33.015625 
" id="DejaVuSans-6e"/>
      <path id="DejaVuSans-20"/>
      <path d="M 54.890625 54.6875 
L 35.109375 28.078125 
L 55.90625 0 
L 45.3125 0 
L 29.390625 21.484375 
L 13.484375 0 
L 2.875 0 
L 24.125 28.609375 
L 4.6875 54.6875 
L 15.28125 54.6875 
L 29.78125 35.203125 
L 44.28125 54.6875 
z
" id="DejaVuSans-78"/>
      <path d="M 48.78125 52.59375 
L 48.78125 44.1875 
Q 44.96875 46.296875 41.140625 47.34375 
Q 37.3125 48.390625 33.40625 48.390625 
Q 24.65625 48.390625 19.8125 42.84375 
Q 14.984375 37.3125 14.984375 27.296875 
Q 14.984375 17.28125 19.8125 11.734375 
Q 24.65625 6.203125 33.40625 6.203125 
Q 37.3125 6.203125 41.140625 7.25 
Q 44.96875 8.296875 48.78125 10.40625 
L 48.78125 2.09375 
Q 45.015625 0.34375 40.984375 -0.53125 
Q 36.96875 -1.421875 32.421875 -1.421875 
Q 20.0625 -1.421875 12.78125 6.34375 
Q 5.515625 14.109375 5.515625 27.296875 
Q 5.515625 40.671875 12.859375 48.328125 
Q 20.21875 56 33.015625 56 
Q 37.15625 56 41.109375 55.140625 
Q 45.0625 54.296875 48.78125 52.59375 
" id="DejaVuSans-63"/>
      <path d="M 18.3125 70.21875 
L 18.3125 54.6875 
L 36.8125 54.6875 
L 36.8125 47.703125 
L 18.3125 47.703125 
L 18.3125 18.015625 
Q 18.3125 11.328125 20.140625 9.421875 
Q 21.96875 7.515625 27.59375 7.515625 
L 36.8125 7.515625 
L 36.8125 0 
L 27.59375 0 
Q 17.1875 0 13.234375 3.875 
Q 9.28125 7.765625 9.28125 18.015625 
L 9.28125 47.703125 
L 2.6875 47.703125 
L 2.6875 54.6875 
L 9.28125 54.6875 
L 9.28125 70.21875 
z
" id="DejaVuSans-74"/>
      <path d="M 34.28125 27.484375 
Q 23.390625 27.484375 19.1875 25 
Q 14.984375 22.515625 14.984375 16.5 
Q 14.984375 11.71875 18.140625 8.90625 
Q 21.296875 6.109375 26.703125 6.109375 
Q 34.1875 6.109375 38.703125 11.40625 
Q 43.21875 16.703125 43.21875 25.484375 
L 43.21875 27.484375 
z
M 52.203125 31.203125 
L 52.203125 0 
L 43.21875 0 
L 43.21875 8.296875 
Q 40.140625 3.328125 35.546875 0.953125 
Q 30.953125 -1.421875 24.3125 -1.421875 
Q 15.921875 -1.421875 10.953125 3.296875 
Q 6 8.015625 6 15.921875 
Q 6 25.140625 12.171875 29.828125 
Q 18.359375 34.515625 30.609375 34.515625 
L 43.21875 34.515625 
L 43.21875 35.40625 
Q 43.21875 41.609375 39.140625 45 
Q 35.0625 48.390625 27.6875 48.390625 
Q 23 48.390625 18.546875 47.265625 
Q 14.109375 46.140625 10.015625 43.890625 
L 10.015625 52.203125 
Q 14.9375 54.109375 19.578125 55.046875 
Q 24.21875 56 28.609375 56 
Q 40.484375 56 46.34375 49.84375 
Q 52.203125 43.703125 52.203125 31.203125 
" id="DejaVuSans-61"/>
      <path d="M 30.609375 48.390625 
Q 23.390625 48.390625 19.1875 42.75 
Q 14.984375 37.109375 14.984375 27.296875 
Q 14.984375 17.484375 19.15625 11.84375 
Q 23.34375 6.203125 30.609375 6.203125 
Q 37.796875 6.203125 41.984375 11.859375 
Q 46.1875 17.53125 46.1875 27.296875 
Q 46.1875 37.015625 41.984375 42.703125 
Q 37.796875 48.390625 30.609375 48.390625 
M 30.609375 56 
Q 42.328125 56 49.015625 48.375 
Q 55.71875 40.765625 55.71875 27.296875 
Q 55.71875 13.875 49.015625 6.21875 
Q 42.328125 -1.421875 30.609375 -1.421875 
Q 18.84375 -1.421875 12.171875 6.21875 
Q 5.515625 13.875 5.515625 27.296875 
Q 5.515625 40.765625 12.171875 48.375 
Q 18.84375 56 30.609375 56 
" id="DejaVuSans-6f"/>
     </defs>
     <g transform="translate(18.827188 195.749531)rotate(-90)scale(0.1 -0.1)">
      <use xlink:href="#DejaVuSans-53"/>
      <use x="63.476562" xlink:href="#DejaVuSans-70"/>
      <use x="126.953125" xlink:href="#DejaVuSans-69"/>
      <use x="154.736328" xlink:href="#DejaVuSans-6e"/>
      <use x="218.115234" xlink:href="#DejaVuSans-20"/>
      <use x="249.902344" xlink:href="#DejaVuSans-65"/>
      <use x="311.410156" xlink:href="#DejaVuSans-78"/>
      <use x="370.574219" xlink:href="#DejaVuSans-63"/>
      <use x="425.554688" xlink:href="#DejaVuSans-69"/>
      <use x="453.337891" xlink:href="#DejaVuSans-74"/>
      <use x="492.546875" xlink:href="#DejaVuSans-61"/>
      <use x="553.826172" xlink:href="#DejaVuSans-74"/>
      <use x="593.035156" xlink:href="#DejaVuSans-69"/>
      <use x="620.818359" xlink:href="#DejaVuSans-6f"/>
      <use x="682" xlink:href="#DejaVuSans-6e"/>
     </g>
    </g>
   </g>
   <g id="line2d_13">
    <path clip-path="url(#p5129b27edb)" d="M 65.976818 290.443636 
L 66.049485 289.478214 
L 66.19482 281.840235 
L 66.485489 245.871875 
L 67.066827 126.846513 
L 67.575498 41.901256 
L 67.7935 27.6119 
L 67.866167 26.516364 
L 67.938835 27.288477 
L 68.084169 34.324397 
L 68.374838 68.123541 
L 68.956176 179.643015 
L 69.464847 258.578836 
L 69.682849 271.955617 
L 69.755516 273.072816 
L 69.828184 272.499695 
L 69.973518 266.410257 
L 70.264187 236.647648 
L 70.845525 138.910854 
L 71.354196 70.461087 
L 71.572198 58.855513 
L 71.644865 57.837618 
L 71.717533 58.251151 
L 71.862867 63.239849 
L 72.153536 87.862061 
L 72.807542 178.040389 
L 73.243545 223.396221 
L 73.461547 232.697776 
L 73.534215 233.52095 
L 73.606882 233.209709 
L 73.752216 229.310911 
L 74.042885 210.123191 
L 75.350896 99.914833 
L 75.423564 99.331119 
L 75.496231 99.588701 
L 75.641565 102.515638 
L 75.932235 116.636447 
L 77.167578 194.033651 
L 77.312913 195.3372 
L 77.38558 195.106879 
L 77.530915 192.986837 
L 77.821584 183.152073 
L 78.98426 132.622638 
L 79.202262 130.93424 
L 79.274929 131.142423 
L 79.420264 132.625338 
L 79.710933 139.117543 
L 80.873609 170.607697 
L 81.091611 171.481161 
L 81.236945 170.903855 
L 81.454947 168.56079 
L 81.890951 160.591942 
L 82.544956 149.53315 
L 82.835625 147.615365 
L 82.98096 147.504514 
L 83.126295 147.913872 
L 83.416964 149.993582 
L 84.57964 160.521365 
L 84.797642 160.863975 
L 84.942976 160.723009 
L 85.160978 160.047588 
L 85.596982 157.687344 
L 86.17832 154.67715 
L 86.468989 153.951786 
L 86.686991 153.833897 
L 86.904993 154.041757 
L 87.268329 154.892711 
L 88.067669 156.979414 
L 88.358338 157.28748 
L 88.649007 157.283738 
L 89.012344 156.946747 
L 90.029685 155.761151 
L 90.393022 155.684186 
L 90.829025 155.839957 
L 91.991702 156.400574 
L 92.57304 156.363069 
L 94.17172 156.107887 
L 97.514415 156.180188 
L 135.882735 156.19395 
L 252.513707 156.112756 
L 253.676384 156.022952 
L 254.693725 156.187161 
L 256.219738 156.452694 
L 257.019078 156.326131 
L 258.981095 155.845637 
L 259.6351 156.006559 
L 261.524449 156.692055 
L 262.105787 156.534215 
L 262.905127 156.022923 
L 263.704467 155.571377 
L 264.213138 155.536721 
L 264.721809 155.763537 
L 265.448482 156.408741 
L 266.247822 157.037415 
L 266.683825 157.106748 
L 267.119829 156.909389 
L 267.6285 156.386666 
L 268.791176 155.070069 
L 269.154513 154.979843 
L 269.517849 155.142176 
L 269.953853 155.649367 
L 271.479865 157.786704 
L 271.770535 157.767509 
L 272.061204 157.52802 
L 272.497207 156.804319 
L 273.805218 154.220903 
L 274.095887 154.108494 
L 274.386556 154.286284 
L 274.749893 154.903422 
L 275.331231 156.521463 
L 276.057904 158.463752 
L 276.42124 158.873582 
L 276.639242 158.847066 
L 276.857244 158.603296 
L 277.22058 157.748099 
L 277.801918 155.610738 
L 278.455924 153.360857 
L 278.81926 152.802629 
L 279.037262 152.819531 
L 279.255264 153.118353 
L 279.545933 153.931384 
L 280.054604 156.190572 
L 280.853944 159.790424 
L 281.144613 160.413894 
L 281.362615 160.491895 
L 281.580616 160.209124 
L 281.871285 159.288965 
L 282.307289 156.987495 
L 283.251964 151.608035 
L 283.542633 150.904621 
L 283.687967 150.83831 
L 283.833302 150.975525 
L 284.051304 151.561947 
L 284.41464 153.453116 
L 285.867985 162.701866 
L 286.01332 162.806677 
L 286.158655 162.656257 
L 286.376656 161.952405 
L 286.739993 159.629803 
L 288.193338 148.24837 
L 288.338673 148.141067 
L 288.484007 148.351513 
L 288.702009 149.259642 
L 289.065345 152.182142 
L 290.446024 165.696478 
L 290.591358 165.933301 
L 290.736693 165.781703 
L 290.954695 164.822119 
L 291.245364 162.28122 
L 291.826702 154.395523 
L 292.480707 146.254412 
L 292.771376 144.680506 
L 292.916711 144.568201 
L 293.062045 144.932987 
L 293.280047 146.361711 
L 293.643384 150.800963 
L 294.951395 169.579858 
L 295.169396 169.976549 
L 295.314731 169.524772 
L 295.532733 167.786834 
L 295.896069 162.432457 
L 297.131413 140.813058 
L 297.349415 139.998781 
L 297.422082 140.065416 
L 297.567416 140.715633 
L 297.785418 142.945912 
L 298.148755 149.515969 
L 299.311431 173.81802 
L 299.529433 175.019808 
L 299.6021 175.023534 
L 299.747435 174.419441 
L 299.965436 172.01801 
L 300.328773 164.573567 
L 301.564116 135.296691 
L 301.782118 134.480017 
L 301.927453 135.12078 
L 302.145455 137.83694 
L 302.508791 146.407743 
L 303.744135 180.157582 
L 303.962136 181.01272 
L 304.107471 180.203822 
L 304.325473 176.959977 
L 304.688809 166.923629 
L 305.851485 129.625163 
L 306.069487 128.049115 
L 306.142155 128.152364 
L 306.287489 129.317344 
L 306.505491 133.37716 
L 306.868827 145.296824 
L 307.958836 185.574411 
L 308.176838 187.784864 
L 308.249505 187.809168 
L 308.39484 186.762746 
L 308.612842 182.531389 
L 308.976178 169.467103 
L 310.066187 123.716464 
L 310.284189 121.031848 
L 310.356856 120.941357 
L 310.502191 122.000133 
L 310.720193 126.607283 
L 311.083529 141.1198 
L 312.173538 192.197436 
L 312.39154 195.110097 
L 312.464207 195.175369 
L 312.609542 193.914083 
L 312.827544 188.644763 
L 313.19088 172.286238 
L 314.280889 116.23163 
L 314.498891 113.436775 
L 314.571558 113.520962 
L 314.716893 115.237806 
L 314.934895 121.535361 
L 315.298231 140.208162 
L 316.315573 198.723384 
L 316.533575 202.594175 
L 316.606242 202.773053 
L 316.751576 201.418279 
L 316.969578 195.226773 
L 317.332915 175.591374 
L 318.422924 108.791373 
L 318.640925 105.876468 
L 318.713593 106.142131 
L 318.858927 108.54361 
L 319.076929 116.594242 
L 319.440265 139.534736 
L 320.38494 204.497331 
L 320.602942 209.728309 
L 320.675609 210.15581 
L 320.748276 209.903079 
L 320.893611 207.363287 
L 321.111613 198.717264 
L 321.474949 173.983319 
L 322.419624 104.451674 
L 322.637625 99.114364 
L 322.710293 98.763143 
L 322.78296 99.147159 
L 322.928295 102.106448 
L 323.218964 116.166594 
L 323.727635 158.392579 
L 324.38164 208.698367 
L 324.672309 216.739508 
L 324.744976 216.840368 
L 324.890311 214.681804 
L 325.108313 205.777418 
L 325.471649 178.627678 
L 326.416324 99.34782 
L 326.634325 93.007576 
L 326.706993 92.51961 
L 326.77966 92.869697 
L 326.924995 96.067881 
L 327.142996 106.76193 
L 327.579 144.128908 
L 328.37834 214.391138 
L 328.669009 222.499229 
L 328.741676 222.363895 
L 328.887011 219.448489 
L 329.105013 208.797234 
L 329.468349 177.77723 
L 330.340356 96.408257 
L 330.631025 87.624651 
L 330.703693 87.693797 
L 330.849027 90.606633 
L 331.067029 101.564814 
L 331.430365 133.742487 
L 332.302373 217.945025 
L 332.520375 225.92365 
L 332.593042 226.717149 
L 332.665709 226.544625 
L 332.811044 223.314452 
L 333.029045 211.650391 
L 333.392382 177.985277 
L 334.264389 92.156007 
L 334.482391 84.695379 
L 334.555058 84.155414 
L 334.627725 84.616208 
L 334.77306 88.508665 
L 335.063729 107.195293 
L 335.5724 162.249125 
L 336.153738 218.747629 
L 336.444407 229.098847 
L 336.517075 229.184835 
L 336.662409 226.285104 
L 336.880411 214.645349 
L 337.243747 179.950247 
L 338.115755 90.624011 
L 338.333756 83.041498 
L 338.406424 82.562277 
L 338.479091 83.132824 
L 338.624425 87.379995 
L 338.915095 107.182874 
L 339.496433 173.048522 
L 340.005104 220.904055 
L 340.223105 229.219254 
L 340.295773 229.923936 
L 340.36844 229.564466 
L 340.513775 225.686738 
L 340.731776 212.495553 
L 341.16778 166.961421 
L 341.821785 96.891769 
L 342.112455 83.603462 
L 342.185122 82.848367 
L 342.257789 83.165408 
L 342.403124 86.982021 
L 342.621125 100.133027 
L 343.057129 145.653498 
L 343.711135 215.288976 
L 344.001804 228.130713 
L 344.074471 228.760013 
L 344.147138 228.315588 
L 344.292473 224.249469 
L 344.583142 204.57686 
L 345.16448 138.927393 
L 345.673151 92.508692 
L 345.891153 85.226173 
L 345.96382 84.894311 
L 346.109155 87.422049 
L 346.327156 98.777703 
L 346.690493 133.394958 
L 347.489833 215.96601 
L 347.780502 225.812853 
L 347.853169 225.686705 
L 347.998504 222.296619 
L 348.216505 209.888678 
L 348.652509 166.22728 
L 349.306515 100.170512 
L 349.597184 88.84512 
L 349.669851 88.533896 
L 349.815185 91.010869 
L 350.033187 102.046051 
L 350.396524 135.454494 
L 351.195864 213.303726 
L 351.413865 220.981167 
L 351.486533 221.559737 
L 351.5592 221.12389 
L 351.704535 217.261087 
L 351.995204 198.780378 
L 352.649209 131.039697 
L 353.085213 98.430503 
L 353.303215 93.466856 
L 353.375882 93.767112 
L 353.521216 97.278315 
L 353.739218 109.259149 
L 354.175222 149.869255 
L 354.829227 207.951526 
L 355.047229 215.447886 
L 355.119896 216.092572 
L 355.192564 215.785789 
L 355.337898 212.364683 
L 355.5559 200.773186 
L 355.991904 161.712221 
L 356.573242 110.534275 
L 356.863911 99.805811 
L 356.936578 99.331117 
L 357.009245 99.769632 
L 357.15458 103.329942 
L 357.445249 120.010159 
L 358.680593 209.662139 
L 358.75326 209.857322 
L 358.898595 207.651855 
L 359.116596 198.277976 
L 359.479933 170.603088 
L 360.206605 113.283091 
L 360.424607 106.481805 
L 360.497275 105.825223 
L 360.569942 105.996713 
L 360.715276 108.783666 
L 360.933278 118.579309 
L 361.369282 151.836204 
L 361.95062 194.731368 
L 362.241289 203.071569 
L 362.313956 203.250707 
L 362.459291 201.284026 
L 362.677293 192.917749 
L 363.113296 162.530851 
L 363.767302 118.356267 
L 363.985304 112.862005 
L 364.057971 112.469202 
L 364.130638 112.81003 
L 364.275973 115.641217 
L 364.566642 128.893912 
L 365.729318 196.108964 
L 365.801985 196.597597 
L 365.874653 196.400569 
L 366.019987 193.990985 
L 366.237989 185.784685 
L 366.673993 158.523382 
L 367.255331 124.74674 
L 367.473333 119.559965 
L 367.546 119.073192 
L 367.618667 119.223507 
L 367.764002 121.397749 
L 367.982004 128.928095 
L 368.418007 154.057918 
L 368.999345 185.086283 
L 369.217347 189.759984 
L 369.290015 190.167225 
L 369.362682 189.985773 
L 369.508016 187.895911 
L 369.798685 177.617445 
L 370.961362 125.55342 
L 371.034029 125.284299 
L 371.106696 125.555819 
L 371.252031 127.676371 
L 371.5427 137.425395 
L 372.632709 183.493961 
L 372.778044 184.169857 
L 372.923378 182.88321 
L 373.14138 177.573641 
L 373.577384 158.789225 
L 374.158722 134.989326 
L 374.376724 131.3325 
L 374.449391 130.994041 
L 374.522058 131.106301 
L 374.667393 132.651912 
L 374.885395 137.957181 
L 375.394065 158.587851 
L 375.902736 176.044542 
L 376.120738 178.713218 
L 376.193405 178.795804 
L 376.33874 177.752166 
L 376.556742 173.409566 
L 376.992745 158.086389 
L 377.574084 138.990026 
L 377.792085 136.225589 
L 377.864753 136.026869 
L 377.93742 136.195457 
L 378.082755 137.60203 
L 378.373424 144.12154 
L 379.390765 173.272507 
L 379.5361 174.106022 
L 379.608767 174.028712 
L 379.754102 172.90897 
L 380.044771 167.295293 
L 381.13478 140.646489 
L 381.207447 140.387278 
L 381.280115 140.422571 
L 381.425449 141.356756 
L 381.643451 144.706834 
L 382.152122 157.823157 
L 382.660793 168.642986 
L 382.878795 170.11236 
L 382.951462 170.082618 
L 383.096796 169.256465 
L 383.314798 166.289763 
L 383.823469 154.704947 
L 384.33214 145.244885 
L 384.550142 144.014806 
L 384.622809 144.064538 
L 384.768144 144.839155 
L 385.058813 148.735755 
L 386.076155 166.395156 
L 386.221489 166.833073 
L 386.294156 166.747347 
L 386.439491 165.986358 
L 386.73016 162.441102 
L 387.747502 147.252012 
L 387.892836 146.978994 
L 388.038171 147.411037 
L 388.256173 149.25888 
L 388.692176 155.716153 
L 389.200847 162.721421 
L 389.491516 164.163271 
L 389.564184 164.140537 
L 389.709518 163.641326 
L 389.92752 161.878498 
L 390.436191 155.132589 
L 390.872195 150.333465 
L 391.090196 149.396708 
L 391.162864 149.351112 
L 391.308198 149.65887 
L 391.5262 151.029005 
L 391.962204 155.851648 
L 392.470875 161.044964 
L 392.688876 161.983699 
L 392.834211 162.035666 
L 392.979545 161.632766 
L 393.270215 159.667335 
L 394.214889 151.510202 
L 394.432891 151.206556 
L 394.578225 151.498239 
L 394.796227 152.593417 
L 395.304898 156.855564 
L 395.740902 159.86785 
L 395.958904 160.431644 
L 396.104238 160.381655 
L 396.32224 159.701804 
L 396.685576 157.392084 
L 397.339582 153.138077 
L 397.557584 152.637031 
L 397.702918 152.665843 
L 397.92092 153.226564 
L 398.284256 155.172162 
L 398.938262 158.779076 
L 399.156264 159.203832 
L 399.301598 159.178742 
L 399.5196 158.702065 
L 399.882936 157.053396 
L 400.536942 154.021702 
L 400.754944 153.676098 
L 400.900278 153.70675 
L 401.11828 154.122192 
L 401.481616 155.52459 
L 402.135622 158.047562 
L 402.353624 158.316562 
L 402.498958 158.275882 
L 402.71696 157.907058 
L 403.152964 156.434299 
L 403.661635 154.780704 
L 403.952304 154.448542 
L 404.170305 154.58228 
L 404.460975 155.194971 
L 405.405649 157.599891 
L 405.623651 157.635286 
L 405.841653 157.40534 
L 406.204989 156.599693 
L 406.858995 155.145394 
L 407.149664 154.998706 
L 407.367665 155.152392 
L 407.731002 155.786384 
L 408.457675 157.106229 
L 408.748344 157.185872 
L 409.039013 156.943756 
L 409.620351 155.963505 
L 410.056355 155.447931 
L 410.347024 155.424888 
L 410.637693 155.657973 
L 411.727702 156.849426 
L 412.018371 156.768757 
L 412.454375 156.334711 
L 413.10838 155.704347 
L 413.399049 155.67012 
L 413.762385 155.87112 
L 414.779727 156.644942 
L 415.143064 156.57552 
L 415.797069 156.100585 
L 416.30574 155.865762 
L 416.741744 155.946192 
L 417.977087 156.460755 
L 418.485758 156.290448 
L 419.357765 155.97216 
L 419.866436 156.069343 
L 420.956445 156.405152 
L 421.537784 156.286692 
L 422.482458 156.066192 
L 423.209131 156.18263 
L 424.081138 156.279545 
L 426.115822 156.208101 
L 427.133164 156.303786 
L 429.313182 156.177888 
L 429.313182 156.177888 
" style="fill:none;stroke:#1f77b4;stroke-linecap:square;stroke-width:1.5;"/>
   </g>
   <g id="patch_3">
    <path d="M 47.81 303.64 
L 47.81 13.32 
" style="fill:none;stroke:#000000;stroke-linecap:square;stroke-linejoin:miter;stroke-width:0.8;"/>
   </g>
   <g id="patch_4">
    <path d="M 447.48 303.64 
L 447.48 13.32 
" style="fill:none;stroke:#000000;stroke-linecap:square;stroke-linejoin:miter;stroke-width:0.8;"/>
   </g>
   <g id="patch_5">
    <path d="M 47.81 303.64 
L 447.48 303.64 
" style="fill:none;stroke:#000000;stroke-linecap:square;stroke-linejoin:miter;stroke-width:0.8;"/>
   </g>
   <g id="patch_6">
    <path d="M 47.81 13.32 
L 447.48 13.32 
" style="fill:none;stroke:#000000;stroke-linecap:square;stroke-linejoin:miter;stroke-width:0.8;"/>
   </g>
  </g>
 </g>
 <defs>
  <clipPath id="p5129b27edb">
   <rect height="290.32" width="399.67" x="47.81" y="13.32"/>
  </clipPath>
 </defs>
</svg>
