<?xml version="1.0" encoding="utf-8" standalone="no"?>
<!DOCTYPE svg PUBLIC "-//W3C//DTD SVG 1.1//EN"
  "http://www.w3.org/Graphics/SVG/1.1/DTD/svg11.dtd">
<!-- Created with matplotlib (http://matplotlib.org/) -->
<svg height="345pt" version="1.1" viewBox="0 0 460 345" width="460pt" xmlns="http://www.w3.org/2000/svg" xmlns:xlink="http://www.w3.org/1999/xlink">
 <defs>
  <style type="text/css">
*{stroke-linecap:butt;stroke-linejoin:round;}
  </style>
 </defs>
 <g id="figure_1">
  <g id="patch_1">
   <path d="M 0 345.6 
L 460.8 345.6 
L 460.8 0 
L 0 0 
z
" style="fill:#ffffff;"/>
  </g>
  <g id="axes_1">
   <g id="patch_2">
    <path d="M 47.765 303.64 
L 448.74 303.64 
L 448.74 12.06 
L 47.765 12.06 
z
" style="fill:#ffffff;"/>
   </g>
   <g id="matplotlib.axis_1">
    <g id="xtick_1">
     <g id="line2d_1">
      <defs>
       <path d="M 0 0 
L 0 3.5 
" id="m0b2f706839" style="stroke:#000000;stroke-width:0.8;"/>
      </defs>
      <g>
       <use style="stroke:#000000;stroke-width:0.8;" x="65.991136" xlink:href="#m0b2f706839" y="303.64"/>
      </g>
     </g>
     <g id="text_1">
      <!-- 0 -->
      <defs>
       <path d="M 31.78125 66.40625 
Q 24.171875 66.40625 20.328125 58.90625 
Q 16.5 51.421875 16.5 36.375 
Q 16.5 21.390625 20.328125 13.890625 
Q 24.171875 6.390625 31.78125 6.390625 
Q 39.453125 6.390625 43.28125 13.890625 
Q 47.125 21.390625 47.125 36.375 
Q 47.125 51.421875 43.28125 58.90625 
Q 39.453125 66.40625 31.78125 66.40625 
M 31.78125 74.21875 
Q 44.046875 74.21875 50.515625 64.515625 
Q 56.984375 54.828125 56.984375 36.375 
Q 56.984375 17.96875 50.515625 8.265625 
Q 44.046875 -1.421875 31.78125 -1.421875 
Q 19.53125 -1.421875 13.0625 8.265625 
Q 6.59375 17.96875 6.59375 36.375 
Q 6.59375 54.828125 13.0625 64.515625 
Q 19.53125 74.21875 31.78125 74.21875 
" id="DejaVuSans-30"/>
      </defs>
      <g transform="translate(62.809886 318.238437)scale(0.1 -0.1)">
       <use xlink:href="#DejaVuSans-30"/>
      </g>
     </g>
    </g>
    <g id="xtick_2">
     <g id="line2d_2">
      <g>
       <use style="stroke:#000000;stroke-width:0.8;" x="138.895682" xlink:href="#m0b2f706839" y="303.64"/>
      </g>
     </g>
     <g id="text_2">
      <!-- 10 -->
      <defs>
       <path d="M 12.40625 8.296875 
L 28.515625 8.296875 
L 28.515625 63.921875 
L 10.984375 60.40625 
L 10.984375 69.390625 
L 28.421875 72.90625 
L 38.28125 72.90625 
L 38.28125 8.296875 
L 54.390625 8.296875 
L 54.390625 0 
L 12.40625 0 
z
" id="DejaVuSans-31"/>
      </defs>
      <g transform="translate(132.533182 318.238437)scale(0.1 -0.1)">
       <use xlink:href="#DejaVuSans-31"/>
       <use x="63.623047" xlink:href="#DejaVuSans-30"/>
      </g>
     </g>
    </g>
    <g id="xtick_3">
     <g id="line2d_3">
      <g>
       <use style="stroke:#000000;stroke-width:0.8;" x="211.800227" xlink:href="#m0b2f706839" y="303.64"/>
      </g>
     </g>
     <g id="text_3">
      <!-- 20 -->
      <defs>
       <path d="M 19.1875 8.296875 
L 53.609375 8.296875 
L 53.609375 0 
L 7.328125 0 
L 7.328125 8.296875 
Q 12.9375 14.109375 22.625 23.890625 
Q 32.328125 33.6875 34.8125 36.53125 
Q 39.546875 41.84375 41.421875 45.53125 
Q 43.3125 49.21875 43.3125 52.78125 
Q 43.3125 58.59375 39.234375 62.25 
Q 35.15625 65.921875 28.609375 65.921875 
Q 23.96875 65.921875 18.8125 64.3125 
Q 13.671875 62.703125 7.8125 59.421875 
L 7.8125 69.390625 
Q 13.765625 71.78125 18.9375 73 
Q 24.125 74.21875 28.421875 74.21875 
Q 39.75 74.21875 46.484375 68.546875 
Q 53.21875 62.890625 53.21875 53.421875 
Q 53.21875 48.921875 51.53125 44.890625 
Q 49.859375 40.875 45.40625 35.40625 
Q 44.1875 33.984375 37.640625 27.21875 
Q 31.109375 20.453125 19.1875 8.296875 
" id="DejaVuSans-32"/>
      </defs>
      <g transform="translate(205.437727 318.238437)scale(0.1 -0.1)">
       <use xlink:href="#DejaVuSans-32"/>
       <use x="63.623047" xlink:href="#DejaVuSans-30"/>
      </g>
     </g>
    </g>
    <g id="xtick_4">
     <g id="line2d_4">
      <g>
       <use style="stroke:#000000;stroke-width:0.8;" x="284.704773" xlink:href="#m0b2f706839" y="303.64"/>
      </g>
     </g>
     <g id="text_4">
      <!-- 30 -->
      <defs>
       <path d="M 40.578125 39.3125 
Q 47.65625 37.796875 51.625 33 
Q 55.609375 28.21875 55.609375 21.1875 
Q 55.609375 10.40625 48.1875 4.484375 
Q 40.765625 -1.421875 27.09375 -1.421875 
Q 22.515625 -1.421875 17.65625 -0.515625 
Q 12.796875 0.390625 7.625 2.203125 
L 7.625 11.71875 
Q 11.71875 9.328125 16.59375 8.109375 
Q 21.484375 6.890625 26.8125 6.890625 
Q 36.078125 6.890625 40.9375 10.546875 
Q 45.796875 14.203125 45.796875 21.1875 
Q 45.796875 27.640625 41.28125 31.265625 
Q 36.765625 34.90625 28.71875 34.90625 
L 20.21875 34.90625 
L 20.21875 43.015625 
L 29.109375 43.015625 
Q 36.375 43.015625 40.234375 45.921875 
Q 44.09375 48.828125 44.09375 54.296875 
Q 44.09375 59.90625 40.109375 62.90625 
Q 36.140625 65.921875 28.71875 65.921875 
Q 24.65625 65.921875 20.015625 65.03125 
Q 15.375 64.15625 9.8125 62.3125 
L 9.8125 71.09375 
Q 15.4375 72.65625 20.34375 73.4375 
Q 25.25 74.21875 29.59375 74.21875 
Q 40.828125 74.21875 47.359375 69.109375 
Q 53.90625 64.015625 53.90625 55.328125 
Q 53.90625 49.265625 50.4375 45.09375 
Q 46.96875 40.921875 40.578125 39.3125 
" id="DejaVuSans-33"/>
      </defs>
      <g transform="translate(278.342273 318.238437)scale(0.1 -0.1)">
       <use xlink:href="#DejaVuSans-33"/>
       <use x="63.623047" xlink:href="#DejaVuSans-30"/>
      </g>
     </g>
    </g>
    <g id="xtick_5">
     <g id="line2d_5">
      <g>
       <use style="stroke:#000000;stroke-width:0.8;" x="357.609318" xlink:href="#m0b2f706839" y="303.64"/>
      </g>
     </g>
     <g id="text_5">
      <!-- 40 -->
      <defs>
       <path d="M 37.796875 64.3125 
L 12.890625 25.390625 
L 37.796875 25.390625 
z
M 35.203125 72.90625 
L 47.609375 72.90625 
L 47.609375 25.390625 
L 58.015625 25.390625 
L 58.015625 17.1875 
L 47.609375 17.1875 
L 47.609375 0 
L 37.796875 0 
L 37.796875 17.1875 
L 4.890625 17.1875 
L 4.890625 26.703125 
z
" id="DejaVuSans-34"/>
      </defs>
      <g transform="translate(351.246818 318.238437)scale(0.1 -0.1)">
       <use xlink:href="#DejaVuSans-34"/>
       <use x="63.623047" xlink:href="#DejaVuSans-30"/>
      </g>
     </g>
    </g>
    <g id="xtick_6">
     <g id="line2d_6">
      <g>
       <use style="stroke:#000000;stroke-width:0.8;" x="430.513864" xlink:href="#m0b2f706839" y="303.64"/>
      </g>
     </g>
     <g id="text_6">
      <!-- 50 -->
      <defs>
       <path d="M 10.796875 72.90625 
L 49.515625 72.90625 
L 49.515625 64.59375 
L 19.828125 64.59375 
L 19.828125 46.734375 
Q 21.96875 47.46875 24.109375 47.828125 
Q 26.265625 48.1875 28.421875 48.1875 
Q 40.625 48.1875 47.75 41.5 
Q 54.890625 34.8125 54.890625 23.390625 
Q 54.890625 11.625 47.5625 5.09375 
Q 40.234375 -1.421875 26.90625 -1.421875 
Q 22.3125 -1.421875 17.546875 -0.640625 
Q 12.796875 0.140625 7.71875 1.703125 
L 7.71875 11.625 
Q 12.109375 9.234375 16.796875 8.0625 
Q 21.484375 6.890625 26.703125 6.890625 
Q 35.15625 6.890625 40.078125 11.328125 
Q 45.015625 15.765625 45.015625 23.390625 
Q 45.015625 31 40.078125 35.4375 
Q 35.15625 39.890625 26.703125 39.890625 
Q 22.75 39.890625 18.8125 39.015625 
Q 14.890625 38.140625 10.796875 36.28125 
z
" id="DejaVuSans-35"/>
      </defs>
      <g transform="translate(424.151364 318.238437)scale(0.1 -0.1)">
       <use xlink:href="#DejaVuSans-35"/>
       <use x="63.623047" xlink:href="#DejaVuSans-30"/>
      </g>
     </g>
    </g>
    <g id="text_7">
     <!-- Time -->
     <defs>
      <path d="M -0.296875 72.90625 
L 61.375 72.90625 
L 61.375 64.59375 
L 35.5 64.59375 
L 35.5 0 
L 25.59375 0 
L 25.59375 64.59375 
L -0.296875 64.59375 
z
" id="DejaVuSans-54"/>
      <path d="M 9.421875 54.6875 
L 18.40625 54.6875 
L 18.40625 0 
L 9.421875 0 
z
M 9.421875 75.984375 
L 18.40625 75.984375 
L 18.40625 64.59375 
L 9.421875 64.59375 
z
" id="DejaVuSans-69"/>
      <path d="M 52 44.1875 
Q 55.375 50.25 60.0625 53.125 
Q 64.75 56 71.09375 56 
Q 79.640625 56 84.28125 50.015625 
Q 88.921875 44.046875 88.921875 33.015625 
L 88.921875 0 
L 79.890625 0 
L 79.890625 32.71875 
Q 79.890625 40.578125 77.09375 44.375 
Q 74.3125 48.1875 68.609375 48.1875 
Q 61.625 48.1875 57.5625 43.546875 
Q 53.515625 38.921875 53.515625 30.90625 
L 53.515625 0 
L 44.484375 0 
L 44.484375 32.71875 
Q 44.484375 40.625 41.703125 44.40625 
Q 38.921875 48.1875 33.109375 48.1875 
Q 26.21875 48.1875 22.15625 43.53125 
Q 18.109375 38.875 18.109375 30.90625 
L 18.109375 0 
L 9.078125 0 
L 9.078125 54.6875 
L 18.109375 54.6875 
L 18.109375 46.1875 
Q 21.1875 51.21875 25.484375 53.609375 
Q 29.78125 56 35.6875 56 
Q 41.65625 56 45.828125 52.96875 
Q 50 49.953125 52 44.1875 
" id="DejaVuSans-6d"/>
      <path d="M 56.203125 29.59375 
L 56.203125 25.203125 
L 14.890625 25.203125 
Q 15.484375 15.921875 20.484375 11.0625 
Q 25.484375 6.203125 34.421875 6.203125 
Q 39.59375 6.203125 44.453125 7.46875 
Q 49.3125 8.734375 54.109375 11.28125 
L 54.109375 2.78125 
Q 49.265625 0.734375 44.1875 -0.34375 
Q 39.109375 -1.421875 33.890625 -1.421875 
Q 20.796875 -1.421875 13.15625 6.1875 
Q 5.515625 13.8125 5.515625 26.8125 
Q 5.515625 40.234375 12.765625 48.109375 
Q 20.015625 56 32.328125 56 
Q 43.359375 56 49.78125 48.890625 
Q 56.203125 41.796875 56.203125 29.59375 
M 47.21875 32.234375 
Q 47.125 39.59375 43.09375 43.984375 
Q 39.0625 48.390625 32.421875 48.390625 
Q 24.90625 48.390625 20.390625 44.140625 
Q 15.875 39.890625 15.1875 32.171875 
z
" id="DejaVuSans-65"/>
     </defs>
     <g transform="translate(235.865 331.916562)scale(0.1 -0.1)">
      <use xlink:href="#DejaVuSans-54"/>
      <use x="61.037109" xlink:href="#DejaVuSans-69"/>
      <use x="88.820312" xlink:href="#DejaVuSans-6d"/>
      <use x="186.232422" xlink:href="#DejaVuSans-65"/>
     </g>
    </g>
   </g>
   <g id="matplotlib.axis_2">
    <g id="ytick_1">
     <g id="line2d_7">
      <defs>
       <path d="M 0 0 
L -3.5 0 
" id="mbc36ff4d90" style="stroke:#000000;stroke-width:0.8;"/>
      </defs>
      <g>
       <use style="stroke:#000000;stroke-width:0.8;" x="47.765" xlink:href="#mbc36ff4d90" y="290.386364"/>
      </g>
     </g>
     <g id="text_8">
      <!-- 0.0 -->
      <defs>
       <path d="M 10.6875 12.40625 
L 21 12.40625 
L 21 0 
L 10.6875 0 
z
" id="DejaVuSans-2e"/>
      </defs>
      <g transform="translate(24.861875 294.185582)scale(0.1 -0.1)">
       <use xlink:href="#DejaVuSans-30"/>
       <use x="63.623047" xlink:href="#DejaVuSans-2e"/>
       <use x="95.410156" xlink:href="#DejaVuSans-30"/>
      </g>
     </g>
    </g>
    <g id="ytick_2">
     <g id="line2d_8">
      <g>
       <use style="stroke:#000000;stroke-width:0.8;" x="47.765" xlink:href="#mbc36ff4d90" y="236.452536"/>
      </g>
     </g>
     <g id="text_9">
      <!-- 0.2 -->
      <g transform="translate(24.861875 240.251755)scale(0.1 -0.1)">
       <use xlink:href="#DejaVuSans-30"/>
       <use x="63.623047" xlink:href="#DejaVuSans-2e"/>
       <use x="95.410156" xlink:href="#DejaVuSans-32"/>
      </g>
     </g>
    </g>
    <g id="ytick_3">
     <g id="line2d_9">
      <g>
       <use style="stroke:#000000;stroke-width:0.8;" x="47.765" xlink:href="#mbc36ff4d90" y="182.518709"/>
      </g>
     </g>
     <g id="text_10">
      <!-- 0.4 -->
      <g transform="translate(24.861875 186.317927)scale(0.1 -0.1)">
       <use xlink:href="#DejaVuSans-30"/>
       <use x="63.623047" xlink:href="#DejaVuSans-2e"/>
       <use x="95.410156" xlink:href="#DejaVuSans-34"/>
      </g>
     </g>
    </g>
    <g id="ytick_4">
     <g id="line2d_10">
      <g>
       <use style="stroke:#000000;stroke-width:0.8;" x="47.765" xlink:href="#mbc36ff4d90" y="128.584881"/>
      </g>
     </g>
     <g id="text_11">
      <!-- 0.6 -->
      <defs>
       <path d="M 33.015625 40.375 
Q 26.375 40.375 22.484375 35.828125 
Q 18.609375 31.296875 18.609375 23.390625 
Q 18.609375 15.53125 22.484375 10.953125 
Q 26.375 6.390625 33.015625 6.390625 
Q 39.65625 6.390625 43.53125 10.953125 
Q 47.40625 15.53125 47.40625 23.390625 
Q 47.40625 31.296875 43.53125 35.828125 
Q 39.65625 40.375 33.015625 40.375 
M 52.59375 71.296875 
L 52.59375 62.3125 
Q 48.875 64.0625 45.09375 64.984375 
Q 41.3125 65.921875 37.59375 65.921875 
Q 27.828125 65.921875 22.671875 59.328125 
Q 17.53125 52.734375 16.796875 39.40625 
Q 19.671875 43.65625 24.015625 45.921875 
Q 28.375 48.1875 33.59375 48.1875 
Q 44.578125 48.1875 50.953125 41.515625 
Q 57.328125 34.859375 57.328125 23.390625 
Q 57.328125 12.15625 50.6875 5.359375 
Q 44.046875 -1.421875 33.015625 -1.421875 
Q 20.359375 -1.421875 13.671875 8.265625 
Q 6.984375 17.96875 6.984375 36.375 
Q 6.984375 53.65625 15.1875 63.9375 
Q 23.390625 74.21875 37.203125 74.21875 
Q 40.921875 74.21875 44.703125 73.484375 
Q 48.484375 72.75 52.59375 71.296875 
" id="DejaVuSans-36"/>
      </defs>
      <g transform="translate(24.861875 132.3841)scale(0.1 -0.1)">
       <use xlink:href="#DejaVuSans-30"/>
       <use x="63.623047" xlink:href="#DejaVuSans-2e"/>
       <use x="95.410156" xlink:href="#DejaVuSans-36"/>
      </g>
     </g>
    </g>
    <g id="ytick_5">
     <g id="line2d_11">
      <g>
       <use style="stroke:#000000;stroke-width:0.8;" x="47.765" xlink:href="#mbc36ff4d90" y="74.651053"/>
      </g>
     </g>
     <g id="text_12">
      <!-- 0.8 -->
      <defs>
       <path d="M 31.78125 34.625 
Q 24.75 34.625 20.71875 30.859375 
Q 16.703125 27.09375 16.703125 20.515625 
Q 16.703125 13.921875 20.71875 10.15625 
Q 24.75 6.390625 31.78125 6.390625 
Q 38.8125 6.390625 42.859375 10.171875 
Q 46.921875 13.96875 46.921875 20.515625 
Q 46.921875 27.09375 42.890625 30.859375 
Q 38.875 34.625 31.78125 34.625 
M 21.921875 38.8125 
Q 15.578125 40.375 12.03125 44.71875 
Q 8.5 49.078125 8.5 55.328125 
Q 8.5 64.0625 14.71875 69.140625 
Q 20.953125 74.21875 31.78125 74.21875 
Q 42.671875 74.21875 48.875 69.140625 
Q 55.078125 64.0625 55.078125 55.328125 
Q 55.078125 49.078125 51.53125 44.71875 
Q 48 40.375 41.703125 38.8125 
Q 48.828125 37.15625 52.796875 32.3125 
Q 56.78125 27.484375 56.78125 20.515625 
Q 56.78125 9.90625 50.3125 4.234375 
Q 43.84375 -1.421875 31.78125 -1.421875 
Q 19.734375 -1.421875 13.25 4.234375 
Q 6.78125 9.90625 6.78125 20.515625 
Q 6.78125 27.484375 10.78125 32.3125 
Q 14.796875 37.15625 21.921875 38.8125 
M 18.3125 54.390625 
Q 18.3125 48.734375 21.84375 45.5625 
Q 25.390625 42.390625 31.78125 42.390625 
Q 38.140625 42.390625 41.71875 45.5625 
Q 45.3125 48.734375 45.3125 54.390625 
Q 45.3125 60.0625 41.71875 63.234375 
Q 38.140625 66.40625 31.78125 66.40625 
Q 25.390625 66.40625 21.84375 63.234375 
Q 18.3125 60.0625 18.3125 54.390625 
" id="DejaVuSans-38"/>
      </defs>
      <g transform="translate(24.861875 78.450272)scale(0.1 -0.1)">
       <use xlink:href="#DejaVuSans-30"/>
       <use x="63.623047" xlink:href="#DejaVuSans-2e"/>
       <use x="95.410156" xlink:href="#DejaVuSans-38"/>
      </g>
     </g>
    </g>
    <g id="ytick_6">
     <g id="line2d_12">
      <g>
       <use style="stroke:#000000;stroke-width:0.8;" x="47.765" xlink:href="#mbc36ff4d90" y="20.717226"/>
      </g>
     </g>
     <g id="text_13">
      <!-- 1.0 -->
      <g transform="translate(24.861875 24.516445)scale(0.1 -0.1)">
       <use xlink:href="#DejaVuSans-31"/>
       <use x="63.623047" xlink:href="#DejaVuSans-2e"/>
       <use x="95.410156" xlink:href="#DejaVuSans-30"/>
      </g>
     </g>
    </g>
    <g id="text_14">
     <!-- Spin excitation -->
     <defs>
      <path d="M 53.515625 70.515625 
L 53.515625 60.890625 
Q 47.90625 63.578125 42.921875 64.890625 
Q 37.9375 66.21875 33.296875 66.21875 
Q 25.25 66.21875 20.875 63.09375 
Q 16.5 59.96875 16.5 54.203125 
Q 16.5 49.359375 19.40625 46.890625 
Q 22.3125 44.4375 30.421875 42.921875 
L 36.375 41.703125 
Q 47.40625 39.59375 52.65625 34.296875 
Q 57.90625 29 57.90625 20.125 
Q 57.90625 9.515625 50.796875 4.046875 
Q 43.703125 -1.421875 29.984375 -1.421875 
Q 24.8125 -1.421875 18.96875 -0.25 
Q 13.140625 0.921875 6.890625 3.21875 
L 6.890625 13.375 
Q 12.890625 10.015625 18.65625 8.296875 
Q 24.421875 6.59375 29.984375 6.59375 
Q 38.421875 6.59375 43.015625 9.90625 
Q 47.609375 13.234375 47.609375 19.390625 
Q 47.609375 24.75 44.3125 27.78125 
Q 41.015625 30.8125 33.5 32.328125 
L 27.484375 33.5 
Q 16.453125 35.6875 11.515625 40.375 
Q 6.59375 45.0625 6.59375 53.421875 
Q 6.59375 63.09375 13.40625 68.65625 
Q 20.21875 74.21875 32.171875 74.21875 
Q 37.3125 74.21875 42.625 73.28125 
Q 47.953125 72.359375 53.515625 70.515625 
" id="DejaVuSans-53"/>
      <path d="M 18.109375 8.203125 
L 18.109375 -20.796875 
L 9.078125 -20.796875 
L 9.078125 54.6875 
L 18.109375 54.6875 
L 18.109375 46.390625 
Q 20.953125 51.265625 25.265625 53.625 
Q 29.59375 56 35.59375 56 
Q 45.5625 56 51.78125 48.09375 
Q 58.015625 40.1875 58.015625 27.296875 
Q 58.015625 14.40625 51.78125 6.484375 
Q 45.5625 -1.421875 35.59375 -1.421875 
Q 29.59375 -1.421875 25.265625 0.953125 
Q 20.953125 3.328125 18.109375 8.203125 
M 48.6875 27.296875 
Q 48.6875 37.203125 44.609375 42.84375 
Q 40.53125 48.484375 33.40625 48.484375 
Q 26.265625 48.484375 22.1875 42.84375 
Q 18.109375 37.203125 18.109375 27.296875 
Q 18.109375 17.390625 22.1875 11.75 
Q 26.265625 6.109375 33.40625 6.109375 
Q 40.53125 6.109375 44.609375 11.75 
Q 48.6875 17.390625 48.6875 27.296875 
" id="DejaVuSans-70"/>
      <path d="M 54.890625 33.015625 
L 54.890625 0 
L 45.90625 0 
L 45.90625 32.71875 
Q 45.90625 40.484375 42.875 44.328125 
Q 39.84375 48.1875 33.796875 48.1875 
Q 26.515625 48.1875 22.3125 43.546875 
Q 18.109375 38.921875 18.109375 30.90625 
L 18.109375 0 
L 9.078125 0 
L 9.078125 54.6875 
L 18.109375 54.6875 
L 18.109375 46.1875 
Q 21.34375 51.125 25.703125 53.5625 
Q 30.078125 56 35.796875 56 
Q 45.21875 56 50.046875 50.171875 
Q 54.890625 44.34375 54.890625 33.015625 
" id="DejaVuSans-6e"/>
      <path id="DejaVuSans-20"/>
      <path d="M 54.890625 54.6875 
L 35.109375 28.078125 
L 55.90625 0 
L 45.3125 0 
L 29.390625 21.484375 
L 13.484375 0 
L 2.875 0 
L 24.125 28.609375 
L 4.6875 54.6875 
L 15.28125 54.6875 
L 29.78125 35.203125 
L 44.28125 54.6875 
z
" id="DejaVuSans-78"/>
      <path d="M 48.78125 52.59375 
L 48.78125 44.1875 
Q 44.96875 46.296875 41.140625 47.34375 
Q 37.3125 48.390625 33.40625 48.390625 
Q 24.65625 48.390625 19.8125 42.84375 
Q 14.984375 37.3125 14.984375 27.296875 
Q 14.984375 17.28125 19.8125 11.734375 
Q 24.65625 6.203125 33.40625 6.203125 
Q 37.3125 6.203125 41.140625 7.25 
Q 44.96875 8.296875 48.78125 10.40625 
L 48.78125 2.09375 
Q 45.015625 0.34375 40.984375 -0.53125 
Q 36.96875 -1.421875 32.421875 -1.421875 
Q 20.0625 -1.421875 12.78125 6.34375 
Q 5.515625 14.109375 5.515625 27.296875 
Q 5.515625 40.671875 12.859375 48.328125 
Q 20.21875 56 33.015625 56 
Q 37.15625 56 41.109375 55.140625 
Q 45.0625 54.296875 48.78125 52.59375 
" id="DejaVuSans-63"/>
      <path d="M 18.3125 70.21875 
L 18.3125 54.6875 
L 36.8125 54.6875 
L 36.8125 47.703125 
L 18.3125 47.703125 
L 18.3125 18.015625 
Q 18.3125 11.328125 20.140625 9.421875 
Q 21.96875 7.515625 27.59375 7.515625 
L 36.8125 7.515625 
L 36.8125 0 
L 27.59375 0 
Q 17.1875 0 13.234375 3.875 
Q 9.28125 7.765625 9.28125 18.015625 
L 9.28125 47.703125 
L 2.6875 47.703125 
L 2.6875 54.6875 
L 9.28125 54.6875 
L 9.28125 70.21875 
z
" id="DejaVuSans-74"/>
      <path d="M 34.28125 27.484375 
Q 23.390625 27.484375 19.1875 25 
Q 14.984375 22.515625 14.984375 16.5 
Q 14.984375 11.71875 18.140625 8.90625 
Q 21.296875 6.109375 26.703125 6.109375 
Q 34.1875 6.109375 38.703125 11.40625 
Q 43.21875 16.703125 43.21875 25.484375 
L 43.21875 27.484375 
z
M 52.203125 31.203125 
L 52.203125 0 
L 43.21875 0 
L 43.21875 8.296875 
Q 40.140625 3.328125 35.546875 0.953125 
Q 30.953125 -1.421875 24.3125 -1.421875 
Q 15.921875 -1.421875 10.953125 3.296875 
Q 6 8.015625 6 15.921875 
Q 6 25.140625 12.171875 29.828125 
Q 18.359375 34.515625 30.609375 34.515625 
L 43.21875 34.515625 
L 43.21875 35.40625 
Q 43.21875 41.609375 39.140625 45 
Q 35.0625 48.390625 27.6875 48.390625 
Q 23 48.390625 18.546875 47.265625 
Q 14.109375 46.140625 10.015625 43.890625 
L 10.015625 52.203125 
Q 14.9375 54.109375 19.578125 55.046875 
Q 24.21875 56 28.609375 56 
Q 40.484375 56 46.34375 49.84375 
Q 52.203125 43.703125 52.203125 31.203125 
" id="DejaVuSans-61"/>
      <path d="M 30.609375 48.390625 
Q 23.390625 48.390625 19.1875 42.75 
Q 14.984375 37.109375 14.984375 27.296875 
Q 14.984375 17.484375 19.15625 11.84375 
Q 23.34375 6.203125 30.609375 6.203125 
Q 37.796875 6.203125 41.984375 11.859375 
Q 46.1875 17.53125 46.1875 27.296875 
Q 46.1875 37.015625 41.984375 42.703125 
Q 37.796875 48.390625 30.609375 48.390625 
M 30.609375 56 
Q 42.328125 56 49.015625 48.375 
Q 55.71875 40.765625 55.71875 27.296875 
Q 55.71875 13.875 49.015625 6.21875 
Q 42.328125 -1.421875 30.609375 -1.421875 
Q 18.84375 -1.421875 12.171875 6.21875 
Q 5.515625 13.875 5.515625 27.296875 
Q 5.515625 40.765625 12.171875 48.375 
Q 18.84375 56 30.609375 56 
" id="DejaVuSans-6f"/>
     </defs>
     <g transform="translate(18.782188 195.119531)rotate(-90)scale(0.1 -0.1)">
      <use xlink:href="#DejaVuSans-53"/>
      <use x="63.476562" xlink:href="#DejaVuSans-70"/>
      <use x="126.953125" xlink:href="#DejaVuSans-69"/>
      <use x="154.736328" xlink:href="#DejaVuSans-6e"/>
      <use x="218.115234" xlink:href="#DejaVuSans-20"/>
      <use x="249.902344" xlink:href="#DejaVuSans-65"/>
      <use x="311.410156" xlink:href="#DejaVuSans-78"/>
      <use x="370.574219" xlink:href="#DejaVuSans-63"/>
      <use x="425.554688" xlink:href="#DejaVuSans-69"/>
      <use x="453.337891" xlink:href="#DejaVuSans-74"/>
      <use x="492.546875" xlink:href="#DejaVuSans-61"/>
      <use x="553.826172" xlink:href="#DejaVuSans-74"/>
      <use x="593.035156" xlink:href="#DejaVuSans-69"/>
      <use x="620.818359" xlink:href="#DejaVuSans-6f"/>
      <use x="682" xlink:href="#DejaVuSans-6e"/>
     </g>
    </g>
   </g>
   <g id="line2d_13">
    <path clip-path="url(#p2d8d70b1e9)" d="M 65.991136 290.386364 
L 66.064041 289.416751 
L 66.20985 281.745623 
L 66.501468 245.621159 
L 67.084705 126.079223 
L 67.595036 40.7653 
L 67.81375 26.413928 
L 67.886655 25.313636 
L 67.959559 26.089101 
L 68.105368 33.155557 
L 68.396986 67.10139 
L 68.980223 179.104863 
L 69.490555 258.383269 
L 69.709268 271.818106 
L 69.782173 272.940153 
L 69.855077 272.364545 
L 70.000886 266.248679 
L 70.292505 236.356898 
L 70.875741 138.195923 
L 71.386073 69.449082 
L 71.604786 57.793139 
L 71.677691 56.770826 
L 71.750595 57.186154 
L 71.896405 62.196503 
L 72.188023 86.925577 
L 72.844164 177.495282 
L 73.281591 223.04796 
L 73.500305 232.389884 
L 73.573209 233.21663 
L 73.646114 232.904039 
L 73.791923 228.988319 
L 74.083541 209.717324 
L 75.395823 99.030658 
L 75.468727 98.44441 
L 75.541632 98.703111 
L 75.687441 101.642751 
L 75.979059 115.824844 
L 77.218436 193.557955 
L 77.364245 194.867162 
L 77.43715 194.635841 
L 77.582959 192.506598 
L 77.874577 182.62915 
L 79.04105 131.880416 
L 79.259764 130.184691 
L 79.332668 130.393776 
L 79.478477 131.883127 
L 79.770095 138.40351 
L 80.936568 170.030332 
L 81.155282 170.907587 
L 81.301091 170.327775 
L 81.519805 167.974541 
L 81.957232 159.971108 
L 82.540468 149.697403 
L 82.832086 147.20429 
L 82.977895 146.813867 
L 83.0508 146.82688 
L 83.196609 147.238015 
L 83.488227 149.326751 
L 84.6547 159.900225 
L 84.873414 160.244322 
L 85.019223 160.102744 
L 85.237936 159.424391 
L 85.675364 157.053903 
L 86.2586 154.030645 
L 86.550218 153.302133 
L 86.768932 153.183733 
L 86.987645 153.392494 
L 87.352168 154.247142 
L 88.154118 156.342902 
L 88.445736 156.652304 
L 88.737355 156.648546 
L 89.101877 156.310092 
L 90.122541 155.119351 
L 90.487064 155.042052 
L 90.924491 155.1985 
L 92.090964 155.76155 
L 92.6742 155.723882 
L 94.2781 155.467592 
L 97.558805 155.540634 
L 114.32685 155.553327 
L 248.179595 155.481529 
L 249.637686 155.53047 
L 251.897727 155.65941 
L 254.959718 155.465397 
L 257.07395 155.801489 
L 257.948805 155.59405 
L 259.406895 155.198901 
L 260.063036 155.289173 
L 260.937891 155.679315 
L 261.88565 156.040773 
L 262.468886 156.005501 
L 263.052123 155.734506 
L 264.583118 154.882373 
L 265.020545 154.932754 
L 265.530877 155.229715 
L 267.207682 156.476488 
L 267.572205 156.40517 
L 268.009632 156.079346 
L 268.738677 155.173397 
L 269.394818 154.471198 
L 269.759341 154.333044 
L 270.123864 154.444595 
L 270.488386 154.804363 
L 271.071623 155.740021 
L 271.873573 156.963511 
L 272.238095 157.169459 
L 272.529714 157.094821 
L 272.894236 156.695244 
L 273.404568 155.687759 
L 274.352327 153.72909 
L 274.71685 153.461076 
L 275.008468 153.565729 
L 275.300086 153.961194 
L 275.737514 155.00714 
L 276.903986 158.061667 
L 277.195605 158.260533 
L 277.414318 158.161205 
L 277.705936 157.693398 
L 278.143364 156.382412 
L 279.309836 152.402906 
L 279.601455 152.122434 
L 279.820168 152.233662 
L 280.111786 152.817554 
L 280.476309 154.155854 
L 281.788591 159.688641 
L 282.007305 159.884299 
L 282.153114 159.816466 
L 282.371827 159.411915 
L 282.663445 158.34359 
L 283.173777 155.432969 
L 283.975727 150.948211 
L 284.267345 150.241744 
L 284.413155 150.175145 
L 284.558964 150.312955 
L 284.777677 150.901922 
L 285.1422 152.8013 
L 286.600291 162.090189 
L 286.7461 162.195455 
L 286.891909 162.044382 
L 287.110623 161.337476 
L 287.475145 159.004793 
L 288.933236 147.573965 
L 289.079045 147.466196 
L 289.224855 147.677555 
L 289.443568 148.589625 
L 289.808091 151.524809 
L 291.193277 165.097798 
L 291.339086 165.335649 
L 291.484895 165.183393 
L 291.703609 164.219644 
L 291.995227 161.667717 
L 292.578464 153.747796 
L 293.234605 145.571353 
L 293.526223 143.990616 
L 293.672032 143.877823 
L 293.817841 144.244192 
L 294.036555 145.679117 
L 294.401077 150.137636 
L 295.713359 168.998032 
L 295.932073 169.396445 
L 296.077882 168.942706 
L 296.296595 167.197226 
L 296.661118 161.819611 
L 297.900495 140.106383 
L 298.119209 139.288572 
L 298.192114 139.355496 
L 298.337923 140.008535 
L 298.556636 142.248494 
L 298.921159 148.847064 
L 300.087632 173.254588 
L 300.306345 174.461591 
L 300.37925 174.465333 
L 300.525059 173.858619 
L 300.743773 171.446765 
L 301.108295 163.970013 
L 302.347673 134.566075 
L 302.566386 133.745856 
L 302.712195 134.389401 
L 302.930909 137.117349 
L 303.295432 145.725348 
L 304.534809 179.621664 
L 304.753523 180.480513 
L 304.899332 179.668105 
L 305.118045 176.41018 
L 305.482568 166.330275 
L 306.649041 128.869932 
L 306.867755 127.287044 
L 306.940659 127.390741 
L 307.086468 128.560777 
L 307.305182 132.638213 
L 307.669705 144.609609 
L 308.763273 185.062002 
L 308.981986 187.282048 
L 309.054891 187.306457 
L 309.2007 186.255494 
L 309.419414 182.005773 
L 309.783936 168.884787 
L 310.877505 122.935589 
L 311.096218 120.239321 
L 311.169123 120.148438 
L 311.314932 121.211809 
L 311.533645 125.838955 
L 311.898168 140.414456 
L 312.991736 191.713771 
L 313.21045 194.639073 
L 313.283355 194.704628 
L 313.429164 193.437868 
L 313.647877 188.145679 
L 314.0124 171.716158 
L 315.105968 115.41827 
L 315.324682 112.611286 
L 315.397586 112.695838 
L 315.543395 114.420134 
L 315.762109 120.74502 
L 316.126632 139.498861 
L 317.147295 198.268042 
L 317.366009 202.155632 
L 317.438914 202.335286 
L 317.584723 200.974633 
L 317.803436 194.756256 
L 318.167959 175.035638 
L 319.261527 107.945722 
L 319.480241 105.018167 
L 319.553145 105.284983 
L 319.698955 107.696884 
L 319.917668 115.782456 
L 320.282191 138.822513 
L 321.22995 204.067048 
L 321.448664 209.320729 
L 321.521568 209.750085 
L 321.594473 209.496257 
L 321.740282 206.945443 
L 321.958995 198.261895 
L 322.323518 173.420604 
L 323.271277 103.587189 
L 323.489991 98.226715 
L 323.562895 97.87397 
L 323.6358 98.259652 
L 323.781609 101.231785 
L 324.000323 110.890361 
L 324.43775 144.393528 
L 325.2397 208.286317 
L 325.531318 216.362357 
L 325.604223 216.463654 
L 325.750032 214.295722 
L 325.968745 205.352691 
L 326.333268 178.08512 
L 327.281027 98.461184 
L 327.499741 92.093423 
L 327.572645 91.60334 
L 327.64555 91.954946 
L 327.791359 95.16701 
L 328.010073 105.907472 
L 328.4475 143.436623 
L 329.24945 214.003794 
L 329.468164 221.395373 
L 329.541068 222.147075 
L 329.613973 222.011154 
L 329.759782 219.083094 
L 329.978495 208.385612 
L 330.343018 177.23098 
L 331.217873 95.508863 
L 331.509491 86.687136 
L 331.582395 86.756582 
L 331.728205 89.68206 
L 331.946918 100.6878 
L 332.311441 133.005125 
L 333.186295 217.573106 
L 333.405009 225.586358 
L 333.477914 226.383301 
L 333.550818 226.210028 
L 333.696627 222.965836 
L 333.915341 211.251153 
L 334.279864 177.439931 
L 335.154718 91.238158 
L 335.373432 83.745151 
L 335.446336 83.202842 
L 335.519241 83.665636 
L 335.66505 87.574987 
L 335.883764 100.419157 
L 336.321191 144.4407 
L 337.050236 218.379193 
L 337.341855 228.775335 
L 337.414759 228.861697 
L 337.560568 225.949381 
L 337.779282 214.259109 
L 338.143805 179.413429 
L 339.018659 89.699513 
L 339.237373 82.084092 
L 339.310277 81.602791 
L 339.383182 82.175814 
L 339.528991 86.441418 
L 339.820609 106.330243 
L 340.403845 172.481749 
L 340.914177 220.544978 
L 341.132891 228.896265 
L 341.205795 229.604005 
L 341.2787 229.242976 
L 341.424509 225.348418 
L 341.643223 212.099983 
L 342.08065 166.36823 
L 342.736791 95.994474 
L 343.028409 82.648495 
L 343.101314 81.890123 
L 343.174218 82.20854 
L 343.320027 86.041717 
L 343.538741 99.249799 
L 343.976168 144.96783 
L 344.632309 214.905529 
L 344.923927 227.802999 
L 344.996832 228.435031 
L 345.069736 227.988677 
L 345.215545 223.904911 
L 345.434259 210.3756 
L 345.871686 164.479765 
L 346.527827 96.016177 
L 346.819445 84.278248 
L 346.89235 83.944947 
L 347.038159 86.483654 
L 347.256873 97.888592 
L 347.621395 132.656088 
L 348.423345 215.585502 
L 348.714964 225.47508 
L 348.787868 225.348384 
L 348.933677 221.943586 
L 349.152391 209.481793 
L 349.589818 165.630903 
L 350.245959 99.287447 
L 350.537577 87.912902 
L 350.610482 87.600327 
L 350.756291 90.08805 
L 350.975005 101.171125 
L 351.339527 134.724562 
L 352.141477 212.911663 
L 352.360191 220.622424 
L 352.433095 221.203506 
L 352.506 220.765766 
L 352.651809 216.886199 
L 352.943427 198.325283 
L 353.599568 130.290605 
L 354.036995 97.539886 
L 354.255709 92.554696 
L 354.328614 92.856256 
L 354.474423 96.382697 
L 354.693136 108.415529 
L 355.130564 149.201884 
L 355.786705 207.536234 
L 356.005418 215.065129 
L 356.078323 215.712613 
L 356.151227 215.404498 
L 356.297036 211.968545 
L 356.51575 200.32674 
L 356.953177 161.096249 
L 357.536414 109.696189 
L 357.828032 98.921163 
L 357.900936 98.444409 
L 357.973841 98.884827 
L 358.11965 102.460589 
L 358.411268 119.213198 
L 359.650645 209.254271 
L 359.72355 209.450301 
L 359.869359 207.235262 
L 360.088073 197.820701 
L 360.452595 170.025703 
L 361.181641 112.456935 
L 361.400355 105.626131 
L 361.473259 104.966699 
L 361.546164 105.138934 
L 361.691973 107.937982 
L 361.910686 117.776138 
L 362.348114 151.17737 
L 362.93135 194.2587 
L 363.222968 202.635098 
L 363.295873 202.815014 
L 363.441682 200.839797 
L 363.660395 192.43721 
L 364.097823 161.918432 
L 364.753964 117.552129 
L 364.972677 112.034021 
L 365.045582 111.639514 
L 365.118486 111.981821 
L 365.264295 114.825295 
L 365.555914 128.135508 
L 366.722386 195.642276 
L 366.795291 196.133029 
L 366.868195 195.935146 
L 367.014005 193.515104 
L 367.232718 185.273188 
L 367.670145 157.89357 
L 368.253382 123.970337 
L 368.472095 118.76105 
L 368.545 118.272165 
L 368.617905 118.423132 
L 368.763714 120.606811 
L 368.982427 128.169839 
L 369.419855 153.408726 
L 370.003091 184.571755 
L 370.221805 189.26574 
L 370.294709 189.674748 
L 370.367614 189.492509 
L 370.513423 187.393577 
L 370.805041 177.070503 
L 371.971514 124.780518 
L 372.044418 124.510229 
L 372.117323 124.782926 
L 372.263132 126.912682 
L 372.55475 136.704017 
L 373.648318 182.972523 
L 373.794127 183.651352 
L 373.939936 182.359121 
L 374.15865 177.026508 
L 374.596077 158.160567 
L 375.179314 134.257376 
L 375.398027 130.584679 
L 375.470932 130.244751 
L 375.543836 130.357498 
L 375.689645 131.909817 
L 375.908359 137.238111 
L 376.418691 157.958319 
L 376.929023 175.490772 
L 377.147736 178.171031 
L 377.220641 178.253975 
L 377.36645 177.205808 
L 377.585164 172.844361 
L 378.022591 157.454681 
L 378.605827 138.275439 
L 378.824541 135.499004 
L 378.897445 135.299422 
L 378.97035 135.468741 
L 379.116159 136.881418 
L 379.407777 143.429224 
L 380.428441 172.706707 
L 380.57425 173.54384 
L 380.647155 173.466194 
L 380.792964 172.341592 
L 381.084582 166.703552 
L 382.17815 139.939091 
L 382.251055 139.678755 
L 382.323959 139.714201 
L 382.469768 140.652441 
L 382.688482 144.017057 
L 383.198814 157.190306 
L 383.709145 168.057094 
L 383.927859 169.532845 
L 384.000764 169.502974 
L 384.146573 168.673235 
L 384.365286 165.693657 
L 384.875618 154.058563 
L 385.313045 145.413474 
L 385.531759 143.504252 
L 385.604664 143.322027 
L 385.677568 143.371974 
L 385.823377 144.149953 
L 386.114995 148.063464 
L 387.135659 165.799508 
L 387.281468 166.239326 
L 387.354373 166.153228 
L 387.500182 165.388936 
L 387.7918 161.828293 
L 388.812464 146.573282 
L 388.958273 146.299079 
L 389.104082 146.732997 
L 389.322795 148.58886 
L 389.760223 155.074158 
L 390.270555 162.109829 
L 390.562173 163.557937 
L 390.635077 163.535104 
L 390.780886 163.033726 
L 390.9996 161.263248 
L 391.509932 154.488061 
L 391.947359 149.668108 
L 392.166073 148.727286 
L 392.238977 148.681492 
L 392.384786 148.990586 
L 392.6035 150.366668 
L 393.040927 155.210241 
L 393.551259 160.426096 
L 393.769973 161.368905 
L 393.915782 161.421098 
L 394.061591 161.016449 
L 394.353209 159.042488 
L 395.300968 150.849953 
L 395.519682 150.544989 
L 395.665491 150.837937 
L 395.884205 151.937869 
L 396.394536 156.218514 
L 396.831964 159.243873 
L 397.050677 159.810114 
L 397.196486 159.759908 
L 397.4152 159.077107 
L 397.779723 156.757362 
L 398.435864 152.484893 
L 398.654577 151.981672 
L 398.800386 152.010609 
L 399.0191 152.573763 
L 399.383623 154.527806 
L 400.039764 158.150374 
L 400.258477 158.576974 
L 400.404286 158.551775 
L 400.623 158.073029 
L 400.987523 156.417205 
L 401.643664 153.372353 
L 401.862377 153.025249 
L 402.008186 153.056034 
L 402.2269 153.473279 
L 402.591423 154.881764 
L 403.247564 157.415685 
L 403.466277 157.685853 
L 403.612086 157.644996 
L 403.8308 157.274571 
L 404.195323 156.076084 
L 404.778559 154.134649 
L 405.070177 153.801046 
L 405.288891 153.935364 
L 405.580509 154.550714 
L 406.528268 156.966072 
L 406.746982 157.00162 
L 406.965695 156.770676 
L 407.330218 155.961532 
L 407.986359 154.500922 
L 408.277977 154.353597 
L 408.496691 154.50795 
L 408.861214 155.144694 
L 409.590259 156.470266 
L 409.881877 156.550256 
L 410.173495 156.307089 
L 410.756732 155.322583 
L 411.194159 154.804771 
L 411.485777 154.781629 
L 411.777395 155.015725 
L 412.870964 156.21235 
L 413.162582 156.13133 
L 413.600009 155.6954 
L 414.25615 155.0623 
L 414.547768 155.027925 
L 414.912291 155.229797 
L 415.932955 156.006978 
L 416.297477 155.937254 
L 416.880714 155.51542 
L 417.391045 155.2371 
L 417.755568 155.250776 
L 418.338805 155.558955 
L 418.922041 155.815744 
L 419.359468 155.774725 
L 420.817559 155.361094 
L 422.494364 155.713289 
L 423.87955 155.439338 
L 425.702164 155.577673 
L 426.722827 155.476611 
L 428.982868 155.577424 
L 430.076436 155.510416 
L 430.513864 155.537897 
L 430.513864 155.537897 
" style="fill:none;stroke:#1f77b4;stroke-linecap:square;stroke-width:1.5;"/>
   </g>
   <g id="patch_3">
    <path d="M 47.765 303.64 
L 47.765 12.06 
" style="fill:none;stroke:#000000;stroke-linecap:square;stroke-linejoin:miter;stroke-width:0.8;"/>
   </g>
   <g id="patch_4">
    <path d="M 448.74 303.64 
L 448.74 12.06 
" style="fill:none;stroke:#000000;stroke-linecap:square;stroke-linejoin:miter;stroke-width:0.8;"/>
   </g>
   <g id="patch_5">
    <path d="M 47.765 303.64 
L 448.74 303.64 
" style="fill:none;stroke:#000000;stroke-linecap:square;stroke-linejoin:miter;stroke-width:0.8;"/>
   </g>
   <g id="patch_6">
    <path d="M 47.765 12.06 
L 448.74 12.06 
" style="fill:none;stroke:#000000;stroke-linecap:square;stroke-linejoin:miter;stroke-width:0.8;"/>
   </g>
  </g>
 </g>
 <defs>
  <clipPath id="p2d8d70b1e9">
   <rect height="291.58" width="400.975" x="47.765" y="12.06"/>
  </clipPath>
 </defs>
</svg>
