<?xml version="1.0" encoding="utf-8" standalone="no"?>
<!DOCTYPE svg PUBLIC "-//W3C//DTD SVG 1.1//EN"
  "http://www.w3.org/Graphics/SVG/1.1/DTD/svg11.dtd">
<!-- Created with matplotlib (http://matplotlib.org/) -->
<svg height="345pt" version="1.1" viewBox="0 0 460 345" width="460pt" xmlns="http://www.w3.org/2000/svg" xmlns:xlink="http://www.w3.org/1999/xlink">
 <defs>
  <style type="text/css">
*{stroke-linecap:butt;stroke-linejoin:round;}
  </style>
 </defs>
 <g id="figure_1">
  <g id="patch_1">
   <path d="M 0 345.6 
L 460.8 345.6 
L 460.8 0 
L 0 0 
z
" style="fill:#ffffff;"/>
  </g>
  <g id="axes_1">
   <g id="patch_2">
    <path d="M 47.765 303.64 
L 448.74 303.64 
L 448.74 12.06 
L 47.765 12.06 
z
" style="fill:#ffffff;"/>
   </g>
   <g id="matplotlib.axis_1">
    <g id="xtick_1">
     <g id="line2d_1">
      <defs>
       <path d="M 0 0 
L 0 3.5 
" id="mc390deafa9" style="stroke:#000000;stroke-width:0.8;"/>
      </defs>
      <g>
       <use style="stroke:#000000;stroke-width:0.8;" x="65.991136" xlink:href="#mc390deafa9" y="303.64"/>
      </g>
     </g>
     <g id="text_1">
      <!-- 0 -->
      <defs>
       <path d="M 31.78125 66.40625 
Q 24.171875 66.40625 20.328125 58.90625 
Q 16.5 51.421875 16.5 36.375 
Q 16.5 21.390625 20.328125 13.890625 
Q 24.171875 6.390625 31.78125 6.390625 
Q 39.453125 6.390625 43.28125 13.890625 
Q 47.125 21.390625 47.125 36.375 
Q 47.125 51.421875 43.28125 58.90625 
Q 39.453125 66.40625 31.78125 66.40625 
M 31.78125 74.21875 
Q 44.046875 74.21875 50.515625 64.515625 
Q 56.984375 54.828125 56.984375 36.375 
Q 56.984375 17.96875 50.515625 8.265625 
Q 44.046875 -1.421875 31.78125 -1.421875 
Q 19.53125 -1.421875 13.0625 8.265625 
Q 6.59375 17.96875 6.59375 36.375 
Q 6.59375 54.828125 13.0625 64.515625 
Q 19.53125 74.21875 31.78125 74.21875 
" id="DejaVuSans-30"/>
      </defs>
      <g transform="translate(62.809886 318.238437)scale(0.1 -0.1)">
       <use xlink:href="#DejaVuSans-30"/>
      </g>
     </g>
    </g>
    <g id="xtick_2">
     <g id="line2d_2">
      <g>
       <use style="stroke:#000000;stroke-width:0.8;" x="138.895682" xlink:href="#mc390deafa9" y="303.64"/>
      </g>
     </g>
     <g id="text_2">
      <!-- 2 -->
      <defs>
       <path d="M 19.1875 8.296875 
L 53.609375 8.296875 
L 53.609375 0 
L 7.328125 0 
L 7.328125 8.296875 
Q 12.9375 14.109375 22.625 23.890625 
Q 32.328125 33.6875 34.8125 36.53125 
Q 39.546875 41.84375 41.421875 45.53125 
Q 43.3125 49.21875 43.3125 52.78125 
Q 43.3125 58.59375 39.234375 62.25 
Q 35.15625 65.921875 28.609375 65.921875 
Q 23.96875 65.921875 18.8125 64.3125 
Q 13.671875 62.703125 7.8125 59.421875 
L 7.8125 69.390625 
Q 13.765625 71.78125 18.9375 73 
Q 24.125 74.21875 28.421875 74.21875 
Q 39.75 74.21875 46.484375 68.546875 
Q 53.21875 62.890625 53.21875 53.421875 
Q 53.21875 48.921875 51.53125 44.890625 
Q 49.859375 40.875 45.40625 35.40625 
Q 44.1875 33.984375 37.640625 27.21875 
Q 31.109375 20.453125 19.1875 8.296875 
" id="DejaVuSans-32"/>
      </defs>
      <g transform="translate(135.714432 318.238437)scale(0.1 -0.1)">
       <use xlink:href="#DejaVuSans-32"/>
      </g>
     </g>
    </g>
    <g id="xtick_3">
     <g id="line2d_3">
      <g>
       <use style="stroke:#000000;stroke-width:0.8;" x="211.800227" xlink:href="#mc390deafa9" y="303.64"/>
      </g>
     </g>
     <g id="text_3">
      <!-- 4 -->
      <defs>
       <path d="M 37.796875 64.3125 
L 12.890625 25.390625 
L 37.796875 25.390625 
z
M 35.203125 72.90625 
L 47.609375 72.90625 
L 47.609375 25.390625 
L 58.015625 25.390625 
L 58.015625 17.1875 
L 47.609375 17.1875 
L 47.609375 0 
L 37.796875 0 
L 37.796875 17.1875 
L 4.890625 17.1875 
L 4.890625 26.703125 
z
" id="DejaVuSans-34"/>
      </defs>
      <g transform="translate(208.618977 318.238437)scale(0.1 -0.1)">
       <use xlink:href="#DejaVuSans-34"/>
      </g>
     </g>
    </g>
    <g id="xtick_4">
     <g id="line2d_4">
      <g>
       <use style="stroke:#000000;stroke-width:0.8;" x="284.704773" xlink:href="#mc390deafa9" y="303.64"/>
      </g>
     </g>
     <g id="text_4">
      <!-- 6 -->
      <defs>
       <path d="M 33.015625 40.375 
Q 26.375 40.375 22.484375 35.828125 
Q 18.609375 31.296875 18.609375 23.390625 
Q 18.609375 15.53125 22.484375 10.953125 
Q 26.375 6.390625 33.015625 6.390625 
Q 39.65625 6.390625 43.53125 10.953125 
Q 47.40625 15.53125 47.40625 23.390625 
Q 47.40625 31.296875 43.53125 35.828125 
Q 39.65625 40.375 33.015625 40.375 
M 52.59375 71.296875 
L 52.59375 62.3125 
Q 48.875 64.0625 45.09375 64.984375 
Q 41.3125 65.921875 37.59375 65.921875 
Q 27.828125 65.921875 22.671875 59.328125 
Q 17.53125 52.734375 16.796875 39.40625 
Q 19.671875 43.65625 24.015625 45.921875 
Q 28.375 48.1875 33.59375 48.1875 
Q 44.578125 48.1875 50.953125 41.515625 
Q 57.328125 34.859375 57.328125 23.390625 
Q 57.328125 12.15625 50.6875 5.359375 
Q 44.046875 -1.421875 33.015625 -1.421875 
Q 20.359375 -1.421875 13.671875 8.265625 
Q 6.984375 17.96875 6.984375 36.375 
Q 6.984375 53.65625 15.1875 63.9375 
Q 23.390625 74.21875 37.203125 74.21875 
Q 40.921875 74.21875 44.703125 73.484375 
Q 48.484375 72.75 52.59375 71.296875 
" id="DejaVuSans-36"/>
      </defs>
      <g transform="translate(281.523523 318.238437)scale(0.1 -0.1)">
       <use xlink:href="#DejaVuSans-36"/>
      </g>
     </g>
    </g>
    <g id="xtick_5">
     <g id="line2d_5">
      <g>
       <use style="stroke:#000000;stroke-width:0.8;" x="357.609318" xlink:href="#mc390deafa9" y="303.64"/>
      </g>
     </g>
     <g id="text_5">
      <!-- 8 -->
      <defs>
       <path d="M 31.78125 34.625 
Q 24.75 34.625 20.71875 30.859375 
Q 16.703125 27.09375 16.703125 20.515625 
Q 16.703125 13.921875 20.71875 10.15625 
Q 24.75 6.390625 31.78125 6.390625 
Q 38.8125 6.390625 42.859375 10.171875 
Q 46.921875 13.96875 46.921875 20.515625 
Q 46.921875 27.09375 42.890625 30.859375 
Q 38.875 34.625 31.78125 34.625 
M 21.921875 38.8125 
Q 15.578125 40.375 12.03125 44.71875 
Q 8.5 49.078125 8.5 55.328125 
Q 8.5 64.0625 14.71875 69.140625 
Q 20.953125 74.21875 31.78125 74.21875 
Q 42.671875 74.21875 48.875 69.140625 
Q 55.078125 64.0625 55.078125 55.328125 
Q 55.078125 49.078125 51.53125 44.71875 
Q 48 40.375 41.703125 38.8125 
Q 48.828125 37.15625 52.796875 32.3125 
Q 56.78125 27.484375 56.78125 20.515625 
Q 56.78125 9.90625 50.3125 4.234375 
Q 43.84375 -1.421875 31.78125 -1.421875 
Q 19.734375 -1.421875 13.25 4.234375 
Q 6.78125 9.90625 6.78125 20.515625 
Q 6.78125 27.484375 10.78125 32.3125 
Q 14.796875 37.15625 21.921875 38.8125 
M 18.3125 54.390625 
Q 18.3125 48.734375 21.84375 45.5625 
Q 25.390625 42.390625 31.78125 42.390625 
Q 38.140625 42.390625 41.71875 45.5625 
Q 45.3125 48.734375 45.3125 54.390625 
Q 45.3125 60.0625 41.71875 63.234375 
Q 38.140625 66.40625 31.78125 66.40625 
Q 25.390625 66.40625 21.84375 63.234375 
Q 18.3125 60.0625 18.3125 54.390625 
" id="DejaVuSans-38"/>
      </defs>
      <g transform="translate(354.428068 318.238437)scale(0.1 -0.1)">
       <use xlink:href="#DejaVuSans-38"/>
      </g>
     </g>
    </g>
    <g id="xtick_6">
     <g id="line2d_6">
      <g>
       <use style="stroke:#000000;stroke-width:0.8;" x="430.513864" xlink:href="#mc390deafa9" y="303.64"/>
      </g>
     </g>
     <g id="text_6">
      <!-- 10 -->
      <defs>
       <path d="M 12.40625 8.296875 
L 28.515625 8.296875 
L 28.515625 63.921875 
L 10.984375 60.40625 
L 10.984375 69.390625 
L 28.421875 72.90625 
L 38.28125 72.90625 
L 38.28125 8.296875 
L 54.390625 8.296875 
L 54.390625 0 
L 12.40625 0 
z
" id="DejaVuSans-31"/>
      </defs>
      <g transform="translate(424.151364 318.238437)scale(0.1 -0.1)">
       <use xlink:href="#DejaVuSans-31"/>
       <use x="63.623047" xlink:href="#DejaVuSans-30"/>
      </g>
     </g>
    </g>
    <g id="text_7">
     <!-- Time -->
     <defs>
      <path d="M -0.296875 72.90625 
L 61.375 72.90625 
L 61.375 64.59375 
L 35.5 64.59375 
L 35.5 0 
L 25.59375 0 
L 25.59375 64.59375 
L -0.296875 64.59375 
z
" id="DejaVuSans-54"/>
      <path d="M 9.421875 54.6875 
L 18.40625 54.6875 
L 18.40625 0 
L 9.421875 0 
z
M 9.421875 75.984375 
L 18.40625 75.984375 
L 18.40625 64.59375 
L 9.421875 64.59375 
z
" id="DejaVuSans-69"/>
      <path d="M 52 44.1875 
Q 55.375 50.25 60.0625 53.125 
Q 64.75 56 71.09375 56 
Q 79.640625 56 84.28125 50.015625 
Q 88.921875 44.046875 88.921875 33.015625 
L 88.921875 0 
L 79.890625 0 
L 79.890625 32.71875 
Q 79.890625 40.578125 77.09375 44.375 
Q 74.3125 48.1875 68.609375 48.1875 
Q 61.625 48.1875 57.5625 43.546875 
Q 53.515625 38.921875 53.515625 30.90625 
L 53.515625 0 
L 44.484375 0 
L 44.484375 32.71875 
Q 44.484375 40.625 41.703125 44.40625 
Q 38.921875 48.1875 33.109375 48.1875 
Q 26.21875 48.1875 22.15625 43.53125 
Q 18.109375 38.875 18.109375 30.90625 
L 18.109375 0 
L 9.078125 0 
L 9.078125 54.6875 
L 18.109375 54.6875 
L 18.109375 46.1875 
Q 21.1875 51.21875 25.484375 53.609375 
Q 29.78125 56 35.6875 56 
Q 41.65625 56 45.828125 52.96875 
Q 50 49.953125 52 44.1875 
" id="DejaVuSans-6d"/>
      <path d="M 56.203125 29.59375 
L 56.203125 25.203125 
L 14.890625 25.203125 
Q 15.484375 15.921875 20.484375 11.0625 
Q 25.484375 6.203125 34.421875 6.203125 
Q 39.59375 6.203125 44.453125 7.46875 
Q 49.3125 8.734375 54.109375 11.28125 
L 54.109375 2.78125 
Q 49.265625 0.734375 44.1875 -0.34375 
Q 39.109375 -1.421875 33.890625 -1.421875 
Q 20.796875 -1.421875 13.15625 6.1875 
Q 5.515625 13.8125 5.515625 26.8125 
Q 5.515625 40.234375 12.765625 48.109375 
Q 20.015625 56 32.328125 56 
Q 43.359375 56 49.78125 48.890625 
Q 56.203125 41.796875 56.203125 29.59375 
M 47.21875 32.234375 
Q 47.125 39.59375 43.09375 43.984375 
Q 39.0625 48.390625 32.421875 48.390625 
Q 24.90625 48.390625 20.390625 44.140625 
Q 15.875 39.890625 15.1875 32.171875 
z
" id="DejaVuSans-65"/>
     </defs>
     <g transform="translate(235.865 331.916562)scale(0.1 -0.1)">
      <use xlink:href="#DejaVuSans-54"/>
      <use x="61.037109" xlink:href="#DejaVuSans-69"/>
      <use x="88.820312" xlink:href="#DejaVuSans-6d"/>
      <use x="186.232422" xlink:href="#DejaVuSans-65"/>
     </g>
    </g>
   </g>
   <g id="matplotlib.axis_2">
    <g id="ytick_1">
     <g id="line2d_7">
      <defs>
       <path d="M 0 0 
L -3.5 0 
" id="m584ea07713" style="stroke:#000000;stroke-width:0.8;"/>
      </defs>
      <g>
       <use style="stroke:#000000;stroke-width:0.8;" x="47.765" xlink:href="#m584ea07713" y="290.386364"/>
      </g>
     </g>
     <g id="text_8">
      <!-- 0.0 -->
      <defs>
       <path d="M 10.6875 12.40625 
L 21 12.40625 
L 21 0 
L 10.6875 0 
z
" id="DejaVuSans-2e"/>
      </defs>
      <g transform="translate(24.861875 294.185582)scale(0.1 -0.1)">
       <use xlink:href="#DejaVuSans-30"/>
       <use x="63.623047" xlink:href="#DejaVuSans-2e"/>
       <use x="95.410156" xlink:href="#DejaVuSans-30"/>
      </g>
     </g>
    </g>
    <g id="ytick_2">
     <g id="line2d_8">
      <g>
       <use style="stroke:#000000;stroke-width:0.8;" x="47.765" xlink:href="#m584ea07713" y="237.371818"/>
      </g>
     </g>
     <g id="text_9">
      <!-- 0.2 -->
      <g transform="translate(24.861875 241.171037)scale(0.1 -0.1)">
       <use xlink:href="#DejaVuSans-30"/>
       <use x="63.623047" xlink:href="#DejaVuSans-2e"/>
       <use x="95.410156" xlink:href="#DejaVuSans-32"/>
      </g>
     </g>
    </g>
    <g id="ytick_3">
     <g id="line2d_9">
      <g>
       <use style="stroke:#000000;stroke-width:0.8;" x="47.765" xlink:href="#m584ea07713" y="184.357273"/>
      </g>
     </g>
     <g id="text_10">
      <!-- 0.4 -->
      <g transform="translate(24.861875 188.156491)scale(0.1 -0.1)">
       <use xlink:href="#DejaVuSans-30"/>
       <use x="63.623047" xlink:href="#DejaVuSans-2e"/>
       <use x="95.410156" xlink:href="#DejaVuSans-34"/>
      </g>
     </g>
    </g>
    <g id="ytick_4">
     <g id="line2d_10">
      <g>
       <use style="stroke:#000000;stroke-width:0.8;" x="47.765" xlink:href="#m584ea07713" y="131.342727"/>
      </g>
     </g>
     <g id="text_11">
      <!-- 0.6 -->
      <g transform="translate(24.861875 135.141946)scale(0.1 -0.1)">
       <use xlink:href="#DejaVuSans-30"/>
       <use x="63.623047" xlink:href="#DejaVuSans-2e"/>
       <use x="95.410156" xlink:href="#DejaVuSans-36"/>
      </g>
     </g>
    </g>
    <g id="ytick_5">
     <g id="line2d_11">
      <g>
       <use style="stroke:#000000;stroke-width:0.8;" x="47.765" xlink:href="#m584ea07713" y="78.328182"/>
      </g>
     </g>
     <g id="text_12">
      <!-- 0.8 -->
      <g transform="translate(24.861875 82.127401)scale(0.1 -0.1)">
       <use xlink:href="#DejaVuSans-30"/>
       <use x="63.623047" xlink:href="#DejaVuSans-2e"/>
       <use x="95.410156" xlink:href="#DejaVuSans-38"/>
      </g>
     </g>
    </g>
    <g id="ytick_6">
     <g id="line2d_12">
      <g>
       <use style="stroke:#000000;stroke-width:0.8;" x="47.765" xlink:href="#m584ea07713" y="25.313636"/>
      </g>
     </g>
     <g id="text_13">
      <!-- 1.0 -->
      <g transform="translate(24.861875 29.112855)scale(0.1 -0.1)">
       <use xlink:href="#DejaVuSans-31"/>
       <use x="63.623047" xlink:href="#DejaVuSans-2e"/>
       <use x="95.410156" xlink:href="#DejaVuSans-30"/>
      </g>
     </g>
    </g>
    <g id="text_14">
     <!-- Probability -->
     <defs>
      <path d="M 19.671875 64.796875 
L 19.671875 37.40625 
L 32.078125 37.40625 
Q 38.96875 37.40625 42.71875 40.96875 
Q 46.484375 44.53125 46.484375 51.125 
Q 46.484375 57.671875 42.71875 61.234375 
Q 38.96875 64.796875 32.078125 64.796875 
z
M 9.8125 72.90625 
L 32.078125 72.90625 
Q 44.34375 72.90625 50.609375 67.359375 
Q 56.890625 61.8125 56.890625 51.125 
Q 56.890625 40.328125 50.609375 34.8125 
Q 44.34375 29.296875 32.078125 29.296875 
L 19.671875 29.296875 
L 19.671875 0 
L 9.8125 0 
z
" id="DejaVuSans-50"/>
      <path d="M 41.109375 46.296875 
Q 39.59375 47.171875 37.8125 47.578125 
Q 36.03125 48 33.890625 48 
Q 26.265625 48 22.1875 43.046875 
Q 18.109375 38.09375 18.109375 28.8125 
L 18.109375 0 
L 9.078125 0 
L 9.078125 54.6875 
L 18.109375 54.6875 
L 18.109375 46.1875 
Q 20.953125 51.171875 25.484375 53.578125 
Q 30.03125 56 36.53125 56 
Q 37.453125 56 38.578125 55.875 
Q 39.703125 55.765625 41.0625 55.515625 
z
" id="DejaVuSans-72"/>
      <path d="M 30.609375 48.390625 
Q 23.390625 48.390625 19.1875 42.75 
Q 14.984375 37.109375 14.984375 27.296875 
Q 14.984375 17.484375 19.15625 11.84375 
Q 23.34375 6.203125 30.609375 6.203125 
Q 37.796875 6.203125 41.984375 11.859375 
Q 46.1875 17.53125 46.1875 27.296875 
Q 46.1875 37.015625 41.984375 42.703125 
Q 37.796875 48.390625 30.609375 48.390625 
M 30.609375 56 
Q 42.328125 56 49.015625 48.375 
Q 55.71875 40.765625 55.71875 27.296875 
Q 55.71875 13.875 49.015625 6.21875 
Q 42.328125 -1.421875 30.609375 -1.421875 
Q 18.84375 -1.421875 12.171875 6.21875 
Q 5.515625 13.875 5.515625 27.296875 
Q 5.515625 40.765625 12.171875 48.375 
Q 18.84375 56 30.609375 56 
" id="DejaVuSans-6f"/>
      <path d="M 48.6875 27.296875 
Q 48.6875 37.203125 44.609375 42.84375 
Q 40.53125 48.484375 33.40625 48.484375 
Q 26.265625 48.484375 22.1875 42.84375 
Q 18.109375 37.203125 18.109375 27.296875 
Q 18.109375 17.390625 22.1875 11.75 
Q 26.265625 6.109375 33.40625 6.109375 
Q 40.53125 6.109375 44.609375 11.75 
Q 48.6875 17.390625 48.6875 27.296875 
M 18.109375 46.390625 
Q 20.953125 51.265625 25.265625 53.625 
Q 29.59375 56 35.59375 56 
Q 45.5625 56 51.78125 48.09375 
Q 58.015625 40.1875 58.015625 27.296875 
Q 58.015625 14.40625 51.78125 6.484375 
Q 45.5625 -1.421875 35.59375 -1.421875 
Q 29.59375 -1.421875 25.265625 0.953125 
Q 20.953125 3.328125 18.109375 8.203125 
L 18.109375 0 
L 9.078125 0 
L 9.078125 75.984375 
L 18.109375 75.984375 
z
" id="DejaVuSans-62"/>
      <path d="M 34.28125 27.484375 
Q 23.390625 27.484375 19.1875 25 
Q 14.984375 22.515625 14.984375 16.5 
Q 14.984375 11.71875 18.140625 8.90625 
Q 21.296875 6.109375 26.703125 6.109375 
Q 34.1875 6.109375 38.703125 11.40625 
Q 43.21875 16.703125 43.21875 25.484375 
L 43.21875 27.484375 
z
M 52.203125 31.203125 
L 52.203125 0 
L 43.21875 0 
L 43.21875 8.296875 
Q 40.140625 3.328125 35.546875 0.953125 
Q 30.953125 -1.421875 24.3125 -1.421875 
Q 15.921875 -1.421875 10.953125 3.296875 
Q 6 8.015625 6 15.921875 
Q 6 25.140625 12.171875 29.828125 
Q 18.359375 34.515625 30.609375 34.515625 
L 43.21875 34.515625 
L 43.21875 35.40625 
Q 43.21875 41.609375 39.140625 45 
Q 35.0625 48.390625 27.6875 48.390625 
Q 23 48.390625 18.546875 47.265625 
Q 14.109375 46.140625 10.015625 43.890625 
L 10.015625 52.203125 
Q 14.9375 54.109375 19.578125 55.046875 
Q 24.21875 56 28.609375 56 
Q 40.484375 56 46.34375 49.84375 
Q 52.203125 43.703125 52.203125 31.203125 
" id="DejaVuSans-61"/>
      <path d="M 9.421875 75.984375 
L 18.40625 75.984375 
L 18.40625 0 
L 9.421875 0 
z
" id="DejaVuSans-6c"/>
      <path d="M 18.3125 70.21875 
L 18.3125 54.6875 
L 36.8125 54.6875 
L 36.8125 47.703125 
L 18.3125 47.703125 
L 18.3125 18.015625 
Q 18.3125 11.328125 20.140625 9.421875 
Q 21.96875 7.515625 27.59375 7.515625 
L 36.8125 7.515625 
L 36.8125 0 
L 27.59375 0 
Q 17.1875 0 13.234375 3.875 
Q 9.28125 7.765625 9.28125 18.015625 
L 9.28125 47.703125 
L 2.6875 47.703125 
L 2.6875 54.6875 
L 9.28125 54.6875 
L 9.28125 70.21875 
z
" id="DejaVuSans-74"/>
      <path d="M 32.171875 -5.078125 
Q 28.375 -14.84375 24.75 -17.8125 
Q 21.140625 -20.796875 15.09375 -20.796875 
L 7.90625 -20.796875 
L 7.90625 -13.28125 
L 13.1875 -13.28125 
Q 16.890625 -13.28125 18.9375 -11.515625 
Q 21 -9.765625 23.484375 -3.21875 
L 25.09375 0.875 
L 2.984375 54.6875 
L 12.5 54.6875 
L 29.59375 11.921875 
L 46.6875 54.6875 
L 56.203125 54.6875 
z
" id="DejaVuSans-79"/>
     </defs>
     <g transform="translate(18.782188 184.476562)rotate(-90)scale(0.1 -0.1)">
      <use xlink:href="#DejaVuSans-50"/>
      <use x="60.287109" xlink:href="#DejaVuSans-72"/>
      <use x="101.369141" xlink:href="#DejaVuSans-6f"/>
      <use x="162.550781" xlink:href="#DejaVuSans-62"/>
      <use x="226.027344" xlink:href="#DejaVuSans-61"/>
      <use x="287.306641" xlink:href="#DejaVuSans-62"/>
      <use x="350.783203" xlink:href="#DejaVuSans-69"/>
      <use x="378.566406" xlink:href="#DejaVuSans-6c"/>
      <use x="406.349609" xlink:href="#DejaVuSans-69"/>
      <use x="434.132812" xlink:href="#DejaVuSans-74"/>
      <use x="473.341797" xlink:href="#DejaVuSans-79"/>
     </g>
    </g>
   </g>
   <g id="line2d_13">
    <path clip-path="url(#pb2820d67cd)" d="M 65.991136 290.386364 
L 66.355659 287.763276 
L 66.720182 280.069586 
L 67.084705 267.702334 
L 67.81375 231.279133 
L 68.907318 158.852465 
L 70.000886 86.108575 
L 70.729932 49.150505 
L 71.094455 36.4381 
L 71.458977 28.361159 
L 71.8235 25.329946 
L 72.188023 27.573217 
L 72.552545 35.112555 
L 72.917068 47.74362 
L 73.646114 86.299062 
L 74.739682 164.509729 
L 75.83325 240.169674 
L 76.562295 274.699163 
L 76.926818 284.899781 
L 77.291341 289.880505 
L 77.655864 289.548376 
L 78.020386 284.02835 
L 78.384909 273.640766 
L 79.113955 240.352538 
L 80.207523 169.984885 
L 81.665614 74.364621 
L 82.394659 41.444493 
L 82.759182 31.284969 
L 83.123705 26.012826 
L 83.488227 25.939445 
L 83.85275 31.179593 
L 84.217273 41.629221 
L 84.946318 76.579828 
L 86.039886 152.532611 
L 87.133455 230.522036 
L 87.8625 268.687197 
L 88.227023 281.07742 
L 88.591545 288.360476 
L 88.956068 290.343386 
L 89.320591 287.058371 
L 89.685114 278.743708 
L 90.049636 265.817805 
L 90.414159 248.850035 
L 90.778682 290.386364 
L 114.472659 290.386364 
L 114.837182 287.787929 
L 115.201705 280.117484 
L 115.566227 267.771212 
L 116.295273 231.380638 
L 117.388841 158.973666 
L 118.482409 86.211107 
L 119.211455 49.220997 
L 119.575977 36.487842 
L 119.9405 28.387814 
L 120.305023 25.331976 
L 120.669545 27.550008 
L 121.034068 35.064523 
L 121.398591 47.672308 
L 122.127636 86.190102 
L 123.221205 164.379704 
L 124.314773 240.068297 
L 125.043818 274.638765 
L 125.408341 284.863559 
L 125.772864 289.869437 
L 126.137386 289.562375 
L 126.501909 284.066345 
L 126.866432 273.700801 
L 127.595477 240.448087 
L 128.689045 170.105619 
L 130.147136 74.45954 
L 130.876182 41.50361 
L 131.240705 31.321937 
L 131.605227 26.025733 
L 131.96975 25.92726 
L 132.334273 31.142276 
L 132.698795 41.567792 
L 133.427841 76.477706 
L 134.521409 152.402486 
L 135.614977 230.413761 
L 136.344023 268.616862 
L 136.708545 281.030463 
L 137.073068 288.338382 
L 137.437591 290.346525 
L 137.802114 287.086085 
L 138.166636 278.79442 
L 138.531159 265.889152 
L 139.260205 228.6338 
L 140.718295 130.358856 
L 141.811864 63.679907 
L 142.540909 35.188231 
L 142.905432 27.711464 
L 143.269955 25.318814 
L 143.634477 28.214897 
L 143.999 36.394423 
L 144.363523 49.624521 
L 145.092568 89.141874 
L 147.644227 261.701531 
L 148.00875 276.222423 
L 148.373273 285.795548 
L 148.737795 290.125087 
L 149.102318 289.145761 
L 149.466841 283.007838 
L 149.831364 272.053778 
L 150.560409 237.857272 
L 151.289455 192.043695 
L 151.653977 290.386364 
L 226.381136 290.386364 
L 226.745659 290.07402 
L 227.110182 285.673932 
L 227.474705 276.320423 
L 228.20375 244.712033 
L 229.297318 175.570092 
L 230.755409 78.838651 
L 231.484455 44.289804 
L 231.848977 33.114503 
L 232.2135 26.734388 
L 232.578023 25.500515 
L 232.942545 29.573042 
L 233.307068 38.897537 
L 233.671591 53.189518 
L 234.400636 94.37988 
L 236.952295 265.314865 
L 237.316818 278.779217 
L 237.681341 287.21019 
L 238.045864 290.363648 
L 238.410386 288.223621 
L 238.774909 280.985109 
L 239.139432 269.029339 
L 239.868477 233.248512 
L 240.962045 161.21687 
L 242.055614 88.119827 
L 242.784659 50.54251 
L 243.149182 37.427482 
L 243.513705 28.901789 
L 243.878227 25.391048 
L 244.24275 27.141968 
L 244.607273 34.196224 
L 244.971795 46.370909 
L 245.700841 84.185136 
L 246.794409 161.970661 
L 247.887977 238.177743 
L 248.617023 273.500854 
L 248.981545 284.17172 
L 249.346068 289.642884 
L 249.710591 289.800361 
L 250.075114 284.749782 
L 250.439636 274.794514 
L 251.168682 242.205212 
L 252.26225 172.338114 
L 253.720341 76.229584 
L 254.449386 42.616017 
L 254.813909 32.026142 
L 255.178432 26.285838 
L 255.542955 25.723342 
L 255.907477 30.472657 
L 256.272 40.450699 
L 257.001045 74.602213 
L 258.094614 149.994556 
L 259.188182 228.395409 
L 259.917227 267.295579 
L 260.28175 280.140428 
L 260.646273 287.907768 
L 261.010795 290.383145 
L 261.375318 287.578608 
L 261.739841 279.71438 
L 262.104364 267.193391 
L 262.833409 230.531494 
L 263.926977 157.961924 
L 265.020545 85.356913 
L 265.749591 48.635318 
L 266.114114 36.075799 
L 266.478636 290.386364 
L 282.153114 290.372892 
L 282.517636 287.378836 
L 282.882159 279.336735 
L 283.246682 266.655661 
L 283.975727 229.745978 
L 285.069295 157.030356 
L 285.433818 290.386364 
L 403.539182 290.386364 
L 403.903705 289.621355 
L 404.268227 284.22879 
L 404.63275 273.958401 
L 405.361795 240.859158 
L 406.455364 170.625577 
L 407.913455 74.869426 
L 408.6425 41.759499 
L 409.007023 31.482481 
L 409.371545 26.08269 
L 409.736068 25.876128 
L 410.100591 30.982814 
L 410.465114 41.304403 
L 411.194159 76.038719 
L 412.287727 151.841852 
L 413.381295 229.946129 
L 414.110341 268.312547 
L 414.474864 280.826824 
L 414.839386 288.241814 
L 415.203909 290.35869 
L 415.568432 287.204204 
L 415.932955 279.01174 
L 416.297477 266.195528 
L 417.026523 229.077296 
L 418.484614 130.870305 
L 419.578182 64.052156 
L 420.307227 35.391588 
L 420.67175 27.814404 
L 421.036273 25.315132 
L 421.400795 28.102438 
L 421.765318 36.175527 
L 422.129841 49.3063 
L 422.858886 88.665027 
L 424.316977 194.289188 
L 425.046023 242.334205 
L 425.775068 275.973788 
L 426.139591 285.651787 
L 426.504114 290.089901 
L 426.868636 289.21826 
L 427.233159 283.182937 
L 427.597682 272.322738 
L 428.326727 238.276125 
L 429.420295 167.381447 
L 430.513864 93.470093 
L 430.513864 93.470093 
" style="fill:none;stroke:#1f77b4;stroke-linecap:square;stroke-width:1.5;"/>
   </g>
   <g id="line2d_14">
    <path clip-path="url(#pb2820d67cd)" d="M 65.991136 290.386364 
L 90.414159 290.386364 
L 90.778682 25.313636 
L 114.472659 25.313636 
L 114.837182 290.386364 
L 151.289455 290.386364 
L 151.653977 25.313636 
L 226.381136 25.313636 
L 226.745659 290.386364 
L 266.114114 290.386364 
L 266.478636 25.313636 
L 281.788591 25.313636 
L 282.153114 290.386364 
L 285.069295 290.386364 
L 285.433818 25.313636 
L 403.539182 25.313636 
L 403.903705 290.386364 
L 430.513864 290.386364 
L 430.513864 290.386364 
" style="fill:none;stroke:#ff7f0e;stroke-linecap:square;stroke-width:1.5;"/>
   </g>
   <g id="line2d_15">
    <path clip-path="url(#pb2820d67cd)" d="M 65.991136 25.313636 
L 66.355659 27.936724 
L 66.720182 35.630414 
L 67.084705 47.997666 
L 67.81375 84.420867 
L 68.907318 156.847535 
L 70.000886 229.591425 
L 70.729932 266.549495 
L 71.094455 279.2619 
L 71.458977 287.338841 
L 71.8235 290.370054 
L 72.188023 288.126783 
L 72.552545 280.587445 
L 72.917068 267.95638 
L 73.646114 229.400938 
L 74.739682 151.190271 
L 75.83325 75.530326 
L 76.562295 41.000837 
L 76.926818 30.800219 
L 77.291341 25.819495 
L 77.655864 26.151624 
L 78.020386 31.67165 
L 78.384909 42.059234 
L 79.113955 75.347462 
L 80.207523 145.715115 
L 81.665614 241.335379 
L 82.394659 274.255507 
L 82.759182 284.415031 
L 83.123705 289.687174 
L 83.488227 289.760555 
L 83.85275 284.520407 
L 84.217273 274.070779 
L 84.946318 239.120172 
L 86.039886 163.167389 
L 87.133455 85.177964 
L 87.8625 47.012803 
L 88.227023 34.62258 
L 88.591545 27.339524 
L 88.956068 25.356614 
L 89.320591 28.641629 
L 89.685114 36.956292 
L 90.049636 49.882195 
L 90.414159 66.849965 
L 90.778682 290.386364 
L 114.472659 290.386364 
L 114.837182 27.912071 
L 115.201705 35.582516 
L 115.566227 47.928788 
L 116.295273 84.319362 
L 117.388841 156.726334 
L 118.482409 229.488893 
L 119.211455 266.479003 
L 119.575977 279.212158 
L 119.9405 287.312186 
L 120.305023 290.368024 
L 120.669545 288.149992 
L 121.034068 280.635477 
L 121.398591 268.027692 
L 122.127636 229.509898 
L 123.221205 151.320296 
L 124.314773 75.631703 
L 125.043818 41.061235 
L 125.408341 30.836441 
L 125.772864 25.830563 
L 126.137386 26.137625 
L 126.501909 31.633655 
L 126.866432 41.999199 
L 127.595477 75.251913 
L 128.689045 145.594381 
L 130.147136 241.24046 
L 130.876182 274.19639 
L 131.240705 284.378063 
L 131.605227 289.674267 
L 131.96975 289.77274 
L 132.334273 284.557724 
L 132.698795 274.132208 
L 133.427841 239.222294 
L 134.521409 163.297514 
L 135.614977 85.286239 
L 136.344023 47.083138 
L 136.708545 34.669537 
L 137.073068 27.361618 
L 137.437591 25.353475 
L 137.802114 28.613915 
L 138.166636 36.90558 
L 138.531159 49.810848 
L 139.260205 87.0662 
L 140.718295 185.341144 
L 141.811864 252.020093 
L 142.540909 280.511769 
L 142.905432 287.988536 
L 143.269955 290.381186 
L 143.634477 287.485103 
L 143.999 279.305577 
L 144.363523 266.075479 
L 145.092568 226.558126 
L 147.644227 53.998469 
L 148.00875 39.477577 
L 148.373273 29.904452 
L 148.737795 25.574913 
L 149.102318 26.554239 
L 149.466841 32.692162 
L 149.831364 43.646222 
L 150.560409 77.842728 
L 151.289455 123.656305 
L 151.653977 290.386364 
L 226.381136 290.386364 
L 226.745659 25.62598 
L 227.110182 30.026068 
L 227.474705 39.379577 
L 228.20375 70.987967 
L 229.297318 140.129908 
L 230.755409 236.861349 
L 231.484455 271.410196 
L 231.848977 282.585497 
L 232.2135 288.965612 
L 232.578023 290.199485 
L 232.942545 286.126958 
L 233.307068 276.802463 
L 233.671591 262.510482 
L 234.400636 221.32012 
L 236.952295 50.385135 
L 237.316818 36.920783 
L 237.681341 28.48981 
L 238.045864 25.336352 
L 238.410386 27.476379 
L 238.774909 34.714891 
L 239.139432 46.670661 
L 239.868477 82.451488 
L 240.962045 154.48313 
L 242.055614 227.580173 
L 242.784659 265.15749 
L 243.149182 278.272518 
L 243.513705 286.798211 
L 243.878227 290.308952 
L 244.24275 288.558032 
L 244.607273 281.503776 
L 244.971795 269.329091 
L 245.700841 231.514864 
L 246.794409 153.729339 
L 247.887977 77.522257 
L 248.617023 42.199146 
L 248.981545 31.52828 
L 249.346068 26.057116 
L 249.710591 25.899639 
L 250.075114 30.950218 
L 250.439636 40.905486 
L 251.168682 73.494788 
L 252.26225 143.361886 
L 253.720341 239.470416 
L 254.449386 273.083983 
L 254.813909 283.673858 
L 255.178432 289.414162 
L 255.542955 289.976658 
L 255.907477 285.227343 
L 256.272 275.249301 
L 257.001045 241.097787 
L 258.094614 165.705444 
L 259.188182 87.304591 
L 259.917227 48.404421 
L 260.28175 35.559572 
L 260.646273 27.792232 
L 261.010795 25.316855 
L 261.375318 28.121392 
L 261.739841 35.98562 
L 262.104364 48.506609 
L 262.833409 85.168506 
L 263.926977 157.738076 
L 265.020545 230.343087 
L 265.749591 267.064682 
L 266.478636 290.386364 
L 281.788591 290.386364 
L 282.153114 25.327108 
L 282.517636 28.321164 
L 282.882159 36.363265 
L 283.246682 49.044339 
L 283.975727 85.954022 
L 285.069295 158.669644 
L 285.433818 290.386364 
L 403.539182 290.386364 
L 403.903705 26.078645 
L 404.268227 31.47121 
L 404.63275 41.741599 
L 405.361795 74.840842 
L 406.455364 145.074423 
L 407.913455 240.830574 
L 408.6425 273.940501 
L 409.007023 284.217519 
L 409.371545 289.61731 
L 409.736068 289.823872 
L 410.100591 284.717186 
L 410.465114 274.395597 
L 411.194159 239.661281 
L 412.287727 163.858148 
L 413.381295 85.753871 
L 414.110341 47.387453 
L 414.474864 34.873176 
L 414.839386 27.458186 
L 415.203909 25.34131 
L 415.568432 28.495796 
L 415.932955 36.68826 
L 416.297477 49.504472 
L 417.026523 86.622704 
L 418.484614 184.829695 
L 419.578182 251.647844 
L 420.307227 280.308412 
L 420.67175 287.885596 
L 421.036273 290.384868 
L 421.400795 287.597562 
L 421.765318 279.524473 
L 422.129841 266.3937 
L 422.858886 227.034973 
L 424.316977 121.410812 
L 425.046023 73.365795 
L 425.775068 39.726212 
L 426.139591 30.048213 
L 426.504114 25.610099 
L 426.868636 26.48174 
L 427.233159 32.517063 
L 427.597682 43.377262 
L 428.326727 77.423875 
L 429.420295 148.318553 
L 430.513864 222.229907 
L 430.513864 222.229907 
" style="fill:none;stroke:#2ca02c;stroke-linecap:square;stroke-width:1.5;"/>
   </g>
   <g id="patch_3">
    <path d="M 47.765 303.64 
L 47.765 12.06 
" style="fill:none;stroke:#000000;stroke-linecap:square;stroke-linejoin:miter;stroke-width:0.8;"/>
   </g>
   <g id="patch_4">
    <path d="M 448.74 303.64 
L 448.74 12.06 
" style="fill:none;stroke:#000000;stroke-linecap:square;stroke-linejoin:miter;stroke-width:0.8;"/>
   </g>
   <g id="patch_5">
    <path d="M 47.765 303.64 
L 448.74 303.64 
" style="fill:none;stroke:#000000;stroke-linecap:square;stroke-linejoin:miter;stroke-width:0.8;"/>
   </g>
   <g id="patch_6">
    <path d="M 47.765 12.06 
L 448.74 12.06 
" style="fill:none;stroke:#000000;stroke-linecap:square;stroke-linejoin:miter;stroke-width:0.8;"/>
   </g>
   <g id="legend_1">
    <g id="patch_7">
     <path d="M 54.765 182 
L 100.465 182 
Q 102.465 182 102.465 180 
L 102.465 135.7 
Q 102.465 133.7 100.465 133.7 
L 54.765 133.7 
Q 52.765 133.7 52.765 135.7 
L 52.765 180 
Q 52.765 182 54.765 182 
z
" style="fill:#ffffff;opacity:0.8;stroke:#cccccc;stroke-linejoin:miter;"/>
    </g>
    <g id="line2d_16">
     <path d="M 56.765 141.9 
L 76.765 141.9 
" style="fill:none;stroke:#1f77b4;stroke-linecap:square;stroke-width:1.5;"/>
    </g>
    <g id="line2d_17"/>
    <g id="text_15">
     <!-- $|3\rangle$ -->
     <defs>
      <path d="M 21 76.421875 
L 21 -23.578125 
L 12.703125 -23.578125 
L 12.703125 76.421875 
z
" id="DejaVuSans-7c"/>
      <path d="M 40.578125 39.3125 
Q 47.65625 37.796875 51.625 33 
Q 55.609375 28.21875 55.609375 21.1875 
Q 55.609375 10.40625 48.1875 4.484375 
Q 40.765625 -1.421875 27.09375 -1.421875 
Q 22.515625 -1.421875 17.65625 -0.515625 
Q 12.796875 0.390625 7.625 2.203125 
L 7.625 11.71875 
Q 11.71875 9.328125 16.59375 8.109375 
Q 21.484375 6.890625 26.8125 6.890625 
Q 36.078125 6.890625 40.9375 10.546875 
Q 45.796875 14.203125 45.796875 21.1875 
Q 45.796875 27.640625 41.28125 31.265625 
Q 36.765625 34.90625 28.71875 34.90625 
L 20.21875 34.90625 
L 20.21875 43.015625 
L 29.109375 43.015625 
Q 36.375 43.015625 40.234375 45.921875 
Q 44.09375 48.828125 44.09375 54.296875 
Q 44.09375 59.90625 40.109375 62.90625 
Q 36.140625 65.921875 28.71875 65.921875 
Q 24.65625 65.921875 20.015625 65.03125 
Q 15.375 64.15625 9.8125 62.3125 
L 9.8125 71.09375 
Q 15.4375 72.65625 20.34375 73.4375 
Q 25.25 74.21875 29.59375 74.21875 
Q 40.828125 74.21875 47.359375 69.109375 
Q 53.90625 64.015625 53.90625 55.328125 
Q 53.90625 49.265625 50.4375 45.09375 
Q 46.96875 40.921875 40.578125 39.3125 
" id="DejaVuSans-33"/>
      <path d="M 30.078125 31.34375 
L 16.3125 -13.1875 
L 8.015625 -13.1875 
L 21.78125 31.34375 
L 8.015625 75.875 
L 16.3125 75.875 
z
" id="DejaVuSans-27e9"/>
     </defs>
     <g transform="translate(84.765 145.4)scale(0.1 -0.1)">
      <use transform="translate(0 0.578125)" xlink:href="#DejaVuSans-7c"/>
      <use transform="translate(33.691406 0.578125)" xlink:href="#DejaVuSans-33"/>
      <use transform="translate(97.314453 0.578125)" xlink:href="#DejaVuSans-27e9"/>
     </g>
    </g>
    <g id="line2d_18">
     <path d="M 56.765 157 
L 76.765 157 
" style="fill:none;stroke:#ff7f0e;stroke-linecap:square;stroke-width:1.5;"/>
    </g>
    <g id="line2d_19"/>
    <g id="text_16">
     <!-- $|2\rangle$ -->
     <g transform="translate(84.765 160.5)scale(0.1 -0.1)">
      <use transform="translate(0 0.578125)" xlink:href="#DejaVuSans-7c"/>
      <use transform="translate(33.691406 0.578125)" xlink:href="#DejaVuSans-32"/>
      <use transform="translate(97.314453 0.578125)" xlink:href="#DejaVuSans-27e9"/>
     </g>
    </g>
    <g id="line2d_20">
     <path d="M 56.765 172.1 
L 76.765 172.1 
" style="fill:none;stroke:#2ca02c;stroke-linecap:square;stroke-width:1.5;"/>
    </g>
    <g id="line2d_21"/>
    <g id="text_17">
     <!-- $|1\rangle$ -->
     <g transform="translate(84.765 175.6)scale(0.1 -0.1)">
      <use transform="translate(0 0.578125)" xlink:href="#DejaVuSans-7c"/>
      <use transform="translate(33.691406 0.578125)" xlink:href="#DejaVuSans-31"/>
      <use transform="translate(97.314453 0.578125)" xlink:href="#DejaVuSans-27e9"/>
     </g>
    </g>
   </g>
  </g>
 </g>
 <defs>
  <clipPath id="pb2820d67cd">
   <rect height="291.58" width="400.975" x="47.765" y="12.06"/>
  </clipPath>
 </defs>
</svg>
