<?xml version="1.0" encoding="utf-8" standalone="no"?>
<!DOCTYPE svg PUBLIC "-//W3C//DTD SVG 1.1//EN"
  "http://www.w3.org/Graphics/SVG/1.1/DTD/svg11.dtd">
<!-- Created with matplotlib (http://matplotlib.org/) -->
<svg height="345pt" version="1.1" viewBox="0 0 460 345" width="460pt" xmlns="http://www.w3.org/2000/svg" xmlns:xlink="http://www.w3.org/1999/xlink">
 <defs>
  <style type="text/css">
*{stroke-linecap:butt;stroke-linejoin:round;}
  </style>
 </defs>
 <g id="figure_1">
  <g id="patch_1">
   <path d="M 0 345.6 
L 460.8 345.6 
L 460.8 0 
L 0 0 
z
" style="fill:#ffffff;"/>
  </g>
  <g id="axes_1">
   <g id="patch_2">
    <path d="M 47.81 303.64 
L 447.48 303.64 
L 447.48 13.32 
L 47.81 13.32 
z
" style="fill:#ffffff;"/>
   </g>
   <g id="matplotlib.axis_1">
    <g id="xtick_1">
     <g id="line2d_1">
      <defs>
       <path d="M 0 0 
L 0 3.5 
" id="m71165d0c1b" style="stroke:#000000;stroke-width:0.8;"/>
      </defs>
      <g>
       <use style="stroke:#000000;stroke-width:0.8;" x="65.976818" xlink:href="#m71165d0c1b" y="303.64"/>
      </g>
     </g>
     <g id="text_1">
      <!-- 0 -->
      <defs>
       <path d="M 31.78125 66.40625 
Q 24.171875 66.40625 20.328125 58.90625 
Q 16.5 51.421875 16.5 36.375 
Q 16.5 21.390625 20.328125 13.890625 
Q 24.171875 6.390625 31.78125 6.390625 
Q 39.453125 6.390625 43.28125 13.890625 
Q 47.125 21.390625 47.125 36.375 
Q 47.125 51.421875 43.28125 58.90625 
Q 39.453125 66.40625 31.78125 66.40625 
M 31.78125 74.21875 
Q 44.046875 74.21875 50.515625 64.515625 
Q 56.984375 54.828125 56.984375 36.375 
Q 56.984375 17.96875 50.515625 8.265625 
Q 44.046875 -1.421875 31.78125 -1.421875 
Q 19.53125 -1.421875 13.0625 8.265625 
Q 6.59375 17.96875 6.59375 36.375 
Q 6.59375 54.828125 13.0625 64.515625 
Q 19.53125 74.21875 31.78125 74.21875 
" id="DejaVuSans-30"/>
      </defs>
      <g transform="translate(62.795568 318.238437)scale(0.1 -0.1)">
       <use xlink:href="#DejaVuSans-30"/>
      </g>
     </g>
    </g>
    <g id="xtick_2">
     <g id="line2d_2">
      <g>
       <use style="stroke:#000000;stroke-width:0.8;" x="138.644091" xlink:href="#m71165d0c1b" y="303.64"/>
      </g>
     </g>
     <g id="text_2">
      <!-- 2 -->
      <defs>
       <path d="M 19.1875 8.296875 
L 53.609375 8.296875 
L 53.609375 0 
L 7.328125 0 
L 7.328125 8.296875 
Q 12.9375 14.109375 22.625 23.890625 
Q 32.328125 33.6875 34.8125 36.53125 
Q 39.546875 41.84375 41.421875 45.53125 
Q 43.3125 49.21875 43.3125 52.78125 
Q 43.3125 58.59375 39.234375 62.25 
Q 35.15625 65.921875 28.609375 65.921875 
Q 23.96875 65.921875 18.8125 64.3125 
Q 13.671875 62.703125 7.8125 59.421875 
L 7.8125 69.390625 
Q 13.765625 71.78125 18.9375 73 
Q 24.125 74.21875 28.421875 74.21875 
Q 39.75 74.21875 46.484375 68.546875 
Q 53.21875 62.890625 53.21875 53.421875 
Q 53.21875 48.921875 51.53125 44.890625 
Q 49.859375 40.875 45.40625 35.40625 
Q 44.1875 33.984375 37.640625 27.21875 
Q 31.109375 20.453125 19.1875 8.296875 
" id="DejaVuSans-32"/>
      </defs>
      <g transform="translate(135.462841 318.238437)scale(0.1 -0.1)">
       <use xlink:href="#DejaVuSans-32"/>
      </g>
     </g>
    </g>
    <g id="xtick_3">
     <g id="line2d_3">
      <g>
       <use style="stroke:#000000;stroke-width:0.8;" x="211.311364" xlink:href="#m71165d0c1b" y="303.64"/>
      </g>
     </g>
     <g id="text_3">
      <!-- 4 -->
      <defs>
       <path d="M 37.796875 64.3125 
L 12.890625 25.390625 
L 37.796875 25.390625 
z
M 35.203125 72.90625 
L 47.609375 72.90625 
L 47.609375 25.390625 
L 58.015625 25.390625 
L 58.015625 17.1875 
L 47.609375 17.1875 
L 47.609375 0 
L 37.796875 0 
L 37.796875 17.1875 
L 4.890625 17.1875 
L 4.890625 26.703125 
z
" id="DejaVuSans-34"/>
      </defs>
      <g transform="translate(208.130114 318.238437)scale(0.1 -0.1)">
       <use xlink:href="#DejaVuSans-34"/>
      </g>
     </g>
    </g>
    <g id="xtick_4">
     <g id="line2d_4">
      <g>
       <use style="stroke:#000000;stroke-width:0.8;" x="283.978636" xlink:href="#m71165d0c1b" y="303.64"/>
      </g>
     </g>
     <g id="text_4">
      <!-- 6 -->
      <defs>
       <path d="M 33.015625 40.375 
Q 26.375 40.375 22.484375 35.828125 
Q 18.609375 31.296875 18.609375 23.390625 
Q 18.609375 15.53125 22.484375 10.953125 
Q 26.375 6.390625 33.015625 6.390625 
Q 39.65625 6.390625 43.53125 10.953125 
Q 47.40625 15.53125 47.40625 23.390625 
Q 47.40625 31.296875 43.53125 35.828125 
Q 39.65625 40.375 33.015625 40.375 
M 52.59375 71.296875 
L 52.59375 62.3125 
Q 48.875 64.0625 45.09375 64.984375 
Q 41.3125 65.921875 37.59375 65.921875 
Q 27.828125 65.921875 22.671875 59.328125 
Q 17.53125 52.734375 16.796875 39.40625 
Q 19.671875 43.65625 24.015625 45.921875 
Q 28.375 48.1875 33.59375 48.1875 
Q 44.578125 48.1875 50.953125 41.515625 
Q 57.328125 34.859375 57.328125 23.390625 
Q 57.328125 12.15625 50.6875 5.359375 
Q 44.046875 -1.421875 33.015625 -1.421875 
Q 20.359375 -1.421875 13.671875 8.265625 
Q 6.984375 17.96875 6.984375 36.375 
Q 6.984375 53.65625 15.1875 63.9375 
Q 23.390625 74.21875 37.203125 74.21875 
Q 40.921875 74.21875 44.703125 73.484375 
Q 48.484375 72.75 52.59375 71.296875 
" id="DejaVuSans-36"/>
      </defs>
      <g transform="translate(280.797386 318.238437)scale(0.1 -0.1)">
       <use xlink:href="#DejaVuSans-36"/>
      </g>
     </g>
    </g>
    <g id="xtick_5">
     <g id="line2d_5">
      <g>
       <use style="stroke:#000000;stroke-width:0.8;" x="356.645909" xlink:href="#m71165d0c1b" y="303.64"/>
      </g>
     </g>
     <g id="text_5">
      <!-- 8 -->
      <defs>
       <path d="M 31.78125 34.625 
Q 24.75 34.625 20.71875 30.859375 
Q 16.703125 27.09375 16.703125 20.515625 
Q 16.703125 13.921875 20.71875 10.15625 
Q 24.75 6.390625 31.78125 6.390625 
Q 38.8125 6.390625 42.859375 10.171875 
Q 46.921875 13.96875 46.921875 20.515625 
Q 46.921875 27.09375 42.890625 30.859375 
Q 38.875 34.625 31.78125 34.625 
M 21.921875 38.8125 
Q 15.578125 40.375 12.03125 44.71875 
Q 8.5 49.078125 8.5 55.328125 
Q 8.5 64.0625 14.71875 69.140625 
Q 20.953125 74.21875 31.78125 74.21875 
Q 42.671875 74.21875 48.875 69.140625 
Q 55.078125 64.0625 55.078125 55.328125 
Q 55.078125 49.078125 51.53125 44.71875 
Q 48 40.375 41.703125 38.8125 
Q 48.828125 37.15625 52.796875 32.3125 
Q 56.78125 27.484375 56.78125 20.515625 
Q 56.78125 9.90625 50.3125 4.234375 
Q 43.84375 -1.421875 31.78125 -1.421875 
Q 19.734375 -1.421875 13.25 4.234375 
Q 6.78125 9.90625 6.78125 20.515625 
Q 6.78125 27.484375 10.78125 32.3125 
Q 14.796875 37.15625 21.921875 38.8125 
M 18.3125 54.390625 
Q 18.3125 48.734375 21.84375 45.5625 
Q 25.390625 42.390625 31.78125 42.390625 
Q 38.140625 42.390625 41.71875 45.5625 
Q 45.3125 48.734375 45.3125 54.390625 
Q 45.3125 60.0625 41.71875 63.234375 
Q 38.140625 66.40625 31.78125 66.40625 
Q 25.390625 66.40625 21.84375 63.234375 
Q 18.3125 60.0625 18.3125 54.390625 
" id="DejaVuSans-38"/>
      </defs>
      <g transform="translate(353.464659 318.238437)scale(0.1 -0.1)">
       <use xlink:href="#DejaVuSans-38"/>
      </g>
     </g>
    </g>
    <g id="xtick_6">
     <g id="line2d_6">
      <g>
       <use style="stroke:#000000;stroke-width:0.8;" x="429.313182" xlink:href="#m71165d0c1b" y="303.64"/>
      </g>
     </g>
     <g id="text_6">
      <!-- 10 -->
      <defs>
       <path d="M 12.40625 8.296875 
L 28.515625 8.296875 
L 28.515625 63.921875 
L 10.984375 60.40625 
L 10.984375 69.390625 
L 28.421875 72.90625 
L 38.28125 72.90625 
L 38.28125 8.296875 
L 54.390625 8.296875 
L 54.390625 0 
L 12.40625 0 
z
" id="DejaVuSans-31"/>
      </defs>
      <g transform="translate(422.950682 318.238437)scale(0.1 -0.1)">
       <use xlink:href="#DejaVuSans-31"/>
       <use x="63.623047" xlink:href="#DejaVuSans-30"/>
      </g>
     </g>
    </g>
    <g id="text_7">
     <!-- Time -->
     <defs>
      <path d="M -0.296875 72.90625 
L 61.375 72.90625 
L 61.375 64.59375 
L 35.5 64.59375 
L 35.5 0 
L 25.59375 0 
L 25.59375 64.59375 
L -0.296875 64.59375 
z
" id="DejaVuSans-54"/>
      <path d="M 9.421875 54.6875 
L 18.40625 54.6875 
L 18.40625 0 
L 9.421875 0 
z
M 9.421875 75.984375 
L 18.40625 75.984375 
L 18.40625 64.59375 
L 9.421875 64.59375 
z
" id="DejaVuSans-69"/>
      <path d="M 52 44.1875 
Q 55.375 50.25 60.0625 53.125 
Q 64.75 56 71.09375 56 
Q 79.640625 56 84.28125 50.015625 
Q 88.921875 44.046875 88.921875 33.015625 
L 88.921875 0 
L 79.890625 0 
L 79.890625 32.71875 
Q 79.890625 40.578125 77.09375 44.375 
Q 74.3125 48.1875 68.609375 48.1875 
Q 61.625 48.1875 57.5625 43.546875 
Q 53.515625 38.921875 53.515625 30.90625 
L 53.515625 0 
L 44.484375 0 
L 44.484375 32.71875 
Q 44.484375 40.625 41.703125 44.40625 
Q 38.921875 48.1875 33.109375 48.1875 
Q 26.21875 48.1875 22.15625 43.53125 
Q 18.109375 38.875 18.109375 30.90625 
L 18.109375 0 
L 9.078125 0 
L 9.078125 54.6875 
L 18.109375 54.6875 
L 18.109375 46.1875 
Q 21.1875 51.21875 25.484375 53.609375 
Q 29.78125 56 35.6875 56 
Q 41.65625 56 45.828125 52.96875 
Q 50 49.953125 52 44.1875 
" id="DejaVuSans-6d"/>
      <path d="M 56.203125 29.59375 
L 56.203125 25.203125 
L 14.890625 25.203125 
Q 15.484375 15.921875 20.484375 11.0625 
Q 25.484375 6.203125 34.421875 6.203125 
Q 39.59375 6.203125 44.453125 7.46875 
Q 49.3125 8.734375 54.109375 11.28125 
L 54.109375 2.78125 
Q 49.265625 0.734375 44.1875 -0.34375 
Q 39.109375 -1.421875 33.890625 -1.421875 
Q 20.796875 -1.421875 13.15625 6.1875 
Q 5.515625 13.8125 5.515625 26.8125 
Q 5.515625 40.234375 12.765625 48.109375 
Q 20.015625 56 32.328125 56 
Q 43.359375 56 49.78125 48.890625 
Q 56.203125 41.796875 56.203125 29.59375 
M 47.21875 32.234375 
Q 47.125 39.59375 43.09375 43.984375 
Q 39.0625 48.390625 32.421875 48.390625 
Q 24.90625 48.390625 20.390625 44.140625 
Q 15.875 39.890625 15.1875 32.171875 
z
" id="DejaVuSans-65"/>
     </defs>
     <g transform="translate(235.2575 331.916562)scale(0.1 -0.1)">
      <use xlink:href="#DejaVuSans-54"/>
      <use x="61.037109" xlink:href="#DejaVuSans-69"/>
      <use x="88.820312" xlink:href="#DejaVuSans-6d"/>
      <use x="186.232422" xlink:href="#DejaVuSans-65"/>
     </g>
    </g>
   </g>
   <g id="matplotlib.axis_2">
    <g id="ytick_1">
     <g id="line2d_7">
      <defs>
       <path d="M 0 0 
L -3.5 0 
" id="m805c671749" style="stroke:#000000;stroke-width:0.8;"/>
      </defs>
      <g>
       <use style="stroke:#000000;stroke-width:0.8;" x="47.81" xlink:href="#m805c671749" y="290.443636"/>
      </g>
     </g>
     <g id="text_8">
      <!-- 0.0 -->
      <defs>
       <path d="M 10.6875 12.40625 
L 21 12.40625 
L 21 0 
L 10.6875 0 
z
" id="DejaVuSans-2e"/>
      </defs>
      <g transform="translate(24.906875 294.242855)scale(0.1 -0.1)">
       <use xlink:href="#DejaVuSans-30"/>
       <use x="63.623047" xlink:href="#DejaVuSans-2e"/>
       <use x="95.410156" xlink:href="#DejaVuSans-30"/>
      </g>
     </g>
    </g>
    <g id="ytick_2">
     <g id="line2d_8">
      <g>
       <use style="stroke:#000000;stroke-width:0.8;" x="47.81" xlink:href="#m805c671749" y="237.658182"/>
      </g>
     </g>
     <g id="text_9">
      <!-- 0.2 -->
      <g transform="translate(24.906875 241.457401)scale(0.1 -0.1)">
       <use xlink:href="#DejaVuSans-30"/>
       <use x="63.623047" xlink:href="#DejaVuSans-2e"/>
       <use x="95.410156" xlink:href="#DejaVuSans-32"/>
      </g>
     </g>
    </g>
    <g id="ytick_3">
     <g id="line2d_9">
      <g>
       <use style="stroke:#000000;stroke-width:0.8;" x="47.81" xlink:href="#m805c671749" y="184.872727"/>
      </g>
     </g>
     <g id="text_10">
      <!-- 0.4 -->
      <g transform="translate(24.906875 188.671946)scale(0.1 -0.1)">
       <use xlink:href="#DejaVuSans-30"/>
       <use x="63.623047" xlink:href="#DejaVuSans-2e"/>
       <use x="95.410156" xlink:href="#DejaVuSans-34"/>
      </g>
     </g>
    </g>
    <g id="ytick_4">
     <g id="line2d_10">
      <g>
       <use style="stroke:#000000;stroke-width:0.8;" x="47.81" xlink:href="#m805c671749" y="132.087273"/>
      </g>
     </g>
     <g id="text_11">
      <!-- 0.6 -->
      <g transform="translate(24.906875 135.886491)scale(0.1 -0.1)">
       <use xlink:href="#DejaVuSans-30"/>
       <use x="63.623047" xlink:href="#DejaVuSans-2e"/>
       <use x="95.410156" xlink:href="#DejaVuSans-36"/>
      </g>
     </g>
    </g>
    <g id="ytick_5">
     <g id="line2d_11">
      <g>
       <use style="stroke:#000000;stroke-width:0.8;" x="47.81" xlink:href="#m805c671749" y="79.301818"/>
      </g>
     </g>
     <g id="text_12">
      <!-- 0.8 -->
      <g transform="translate(24.906875 83.101037)scale(0.1 -0.1)">
       <use xlink:href="#DejaVuSans-30"/>
       <use x="63.623047" xlink:href="#DejaVuSans-2e"/>
       <use x="95.410156" xlink:href="#DejaVuSans-38"/>
      </g>
     </g>
    </g>
    <g id="ytick_6">
     <g id="line2d_12">
      <g>
       <use style="stroke:#000000;stroke-width:0.8;" x="47.81" xlink:href="#m805c671749" y="26.516364"/>
      </g>
     </g>
     <g id="text_13">
      <!-- 1.0 -->
      <g transform="translate(24.906875 30.315582)scale(0.1 -0.1)">
       <use xlink:href="#DejaVuSans-31"/>
       <use x="63.623047" xlink:href="#DejaVuSans-2e"/>
       <use x="95.410156" xlink:href="#DejaVuSans-30"/>
      </g>
     </g>
    </g>
    <g id="text_14">
     <!-- Probability -->
     <defs>
      <path d="M 19.671875 64.796875 
L 19.671875 37.40625 
L 32.078125 37.40625 
Q 38.96875 37.40625 42.71875 40.96875 
Q 46.484375 44.53125 46.484375 51.125 
Q 46.484375 57.671875 42.71875 61.234375 
Q 38.96875 64.796875 32.078125 64.796875 
z
M 9.8125 72.90625 
L 32.078125 72.90625 
Q 44.34375 72.90625 50.609375 67.359375 
Q 56.890625 61.8125 56.890625 51.125 
Q 56.890625 40.328125 50.609375 34.8125 
Q 44.34375 29.296875 32.078125 29.296875 
L 19.671875 29.296875 
L 19.671875 0 
L 9.8125 0 
z
" id="DejaVuSans-50"/>
      <path d="M 41.109375 46.296875 
Q 39.59375 47.171875 37.8125 47.578125 
Q 36.03125 48 33.890625 48 
Q 26.265625 48 22.1875 43.046875 
Q 18.109375 38.09375 18.109375 28.8125 
L 18.109375 0 
L 9.078125 0 
L 9.078125 54.6875 
L 18.109375 54.6875 
L 18.109375 46.1875 
Q 20.953125 51.171875 25.484375 53.578125 
Q 30.03125 56 36.53125 56 
Q 37.453125 56 38.578125 55.875 
Q 39.703125 55.765625 41.0625 55.515625 
z
" id="DejaVuSans-72"/>
      <path d="M 30.609375 48.390625 
Q 23.390625 48.390625 19.1875 42.75 
Q 14.984375 37.109375 14.984375 27.296875 
Q 14.984375 17.484375 19.15625 11.84375 
Q 23.34375 6.203125 30.609375 6.203125 
Q 37.796875 6.203125 41.984375 11.859375 
Q 46.1875 17.53125 46.1875 27.296875 
Q 46.1875 37.015625 41.984375 42.703125 
Q 37.796875 48.390625 30.609375 48.390625 
M 30.609375 56 
Q 42.328125 56 49.015625 48.375 
Q 55.71875 40.765625 55.71875 27.296875 
Q 55.71875 13.875 49.015625 6.21875 
Q 42.328125 -1.421875 30.609375 -1.421875 
Q 18.84375 -1.421875 12.171875 6.21875 
Q 5.515625 13.875 5.515625 27.296875 
Q 5.515625 40.765625 12.171875 48.375 
Q 18.84375 56 30.609375 56 
" id="DejaVuSans-6f"/>
      <path d="M 48.6875 27.296875 
Q 48.6875 37.203125 44.609375 42.84375 
Q 40.53125 48.484375 33.40625 48.484375 
Q 26.265625 48.484375 22.1875 42.84375 
Q 18.109375 37.203125 18.109375 27.296875 
Q 18.109375 17.390625 22.1875 11.75 
Q 26.265625 6.109375 33.40625 6.109375 
Q 40.53125 6.109375 44.609375 11.75 
Q 48.6875 17.390625 48.6875 27.296875 
M 18.109375 46.390625 
Q 20.953125 51.265625 25.265625 53.625 
Q 29.59375 56 35.59375 56 
Q 45.5625 56 51.78125 48.09375 
Q 58.015625 40.1875 58.015625 27.296875 
Q 58.015625 14.40625 51.78125 6.484375 
Q 45.5625 -1.421875 35.59375 -1.421875 
Q 29.59375 -1.421875 25.265625 0.953125 
Q 20.953125 3.328125 18.109375 8.203125 
L 18.109375 0 
L 9.078125 0 
L 9.078125 75.984375 
L 18.109375 75.984375 
z
" id="DejaVuSans-62"/>
      <path d="M 34.28125 27.484375 
Q 23.390625 27.484375 19.1875 25 
Q 14.984375 22.515625 14.984375 16.5 
Q 14.984375 11.71875 18.140625 8.90625 
Q 21.296875 6.109375 26.703125 6.109375 
Q 34.1875 6.109375 38.703125 11.40625 
Q 43.21875 16.703125 43.21875 25.484375 
L 43.21875 27.484375 
z
M 52.203125 31.203125 
L 52.203125 0 
L 43.21875 0 
L 43.21875 8.296875 
Q 40.140625 3.328125 35.546875 0.953125 
Q 30.953125 -1.421875 24.3125 -1.421875 
Q 15.921875 -1.421875 10.953125 3.296875 
Q 6 8.015625 6 15.921875 
Q 6 25.140625 12.171875 29.828125 
Q 18.359375 34.515625 30.609375 34.515625 
L 43.21875 34.515625 
L 43.21875 35.40625 
Q 43.21875 41.609375 39.140625 45 
Q 35.0625 48.390625 27.6875 48.390625 
Q 23 48.390625 18.546875 47.265625 
Q 14.109375 46.140625 10.015625 43.890625 
L 10.015625 52.203125 
Q 14.9375 54.109375 19.578125 55.046875 
Q 24.21875 56 28.609375 56 
Q 40.484375 56 46.34375 49.84375 
Q 52.203125 43.703125 52.203125 31.203125 
" id="DejaVuSans-61"/>
      <path d="M 9.421875 75.984375 
L 18.40625 75.984375 
L 18.40625 0 
L 9.421875 0 
z
" id="DejaVuSans-6c"/>
      <path d="M 18.3125 70.21875 
L 18.3125 54.6875 
L 36.8125 54.6875 
L 36.8125 47.703125 
L 18.3125 47.703125 
L 18.3125 18.015625 
Q 18.3125 11.328125 20.140625 9.421875 
Q 21.96875 7.515625 27.59375 7.515625 
L 36.8125 7.515625 
L 36.8125 0 
L 27.59375 0 
Q 17.1875 0 13.234375 3.875 
Q 9.28125 7.765625 9.28125 18.015625 
L 9.28125 47.703125 
L 2.6875 47.703125 
L 2.6875 54.6875 
L 9.28125 54.6875 
L 9.28125 70.21875 
z
" id="DejaVuSans-74"/>
      <path d="M 32.171875 -5.078125 
Q 28.375 -14.84375 24.75 -17.8125 
Q 21.140625 -20.796875 15.09375 -20.796875 
L 7.90625 -20.796875 
L 7.90625 -13.28125 
L 13.1875 -13.28125 
Q 16.890625 -13.28125 18.9375 -11.515625 
Q 21 -9.765625 23.484375 -3.21875 
L 25.09375 0.875 
L 2.984375 54.6875 
L 12.5 54.6875 
L 29.59375 11.921875 
L 46.6875 54.6875 
L 56.203125 54.6875 
z
" id="DejaVuSans-79"/>
     </defs>
     <g transform="translate(18.827188 185.106562)rotate(-90)scale(0.1 -0.1)">
      <use xlink:href="#DejaVuSans-50"/>
      <use x="60.287109" xlink:href="#DejaVuSans-72"/>
      <use x="101.369141" xlink:href="#DejaVuSans-6f"/>
      <use x="162.550781" xlink:href="#DejaVuSans-62"/>
      <use x="226.027344" xlink:href="#DejaVuSans-61"/>
      <use x="287.306641" xlink:href="#DejaVuSans-62"/>
      <use x="350.783203" xlink:href="#DejaVuSans-69"/>
      <use x="378.566406" xlink:href="#DejaVuSans-6c"/>
      <use x="406.349609" xlink:href="#DejaVuSans-69"/>
      <use x="434.132812" xlink:href="#DejaVuSans-74"/>
      <use x="473.341797" xlink:href="#DejaVuSans-79"/>
     </g>
    </g>
   </g>
   <g id="line2d_13">
    <path clip-path="url(#pe27de1a33f)" d="M 65.976818 290.443636 
L 66.340155 287.831884 
L 66.703491 280.17144 
L 67.066827 267.857631 
L 67.7935 231.591825 
L 68.883509 159.478133 
L 69.973518 87.04859 
L 70.700191 50.250226 
L 71.063527 37.592755 
L 71.426864 29.550717 
L 71.7902 26.532603 
L 72.153536 28.76618 
L 72.516873 36.272938 
L 72.880209 48.849421 
L 73.606882 87.238254 
L 74.696891 165.110951 
L 75.7869 240.443947 
L 76.513573 274.824225 
L 76.876909 284.980763 
L 77.240245 289.939964 
L 77.603582 289.60927 
L 77.966918 284.113097 
L 78.330255 273.770401 
L 79.056927 240.626021 
L 80.146936 170.562447 
L 81.600282 75.355385 
L 82.326955 42.577514 
L 82.690291 32.461892 
L 83.053627 27.212531 
L 83.416964 27.139468 
L 83.7803 32.356972 
L 84.143636 42.761444 
L 84.870309 77.561019 
L 85.960318 153.185589 
L 87.050327 230.838 
L 87.777 268.838238 
L 88.140336 281.174919 
L 88.503673 288.426503 
L 88.867009 290.400845 
L 89.230345 287.130025 
L 89.593682 278.851292 
L 89.957018 265.981246 
L 90.320355 249.086798 
L 90.683691 290.443636 
L 114.300555 290.443636 
L 114.663891 287.856431 
L 115.027227 280.219132 
L 115.390564 267.926211 
L 116.117236 231.692891 
L 117.207245 159.59881 
L 118.297255 87.150679 
L 119.023927 50.320414 
L 119.387264 37.642282 
L 119.7506 29.577257 
L 120.113936 26.534624 
L 120.477273 28.743072 
L 120.840609 36.225114 
L 121.203945 48.778417 
L 121.930618 87.129765 
L 123.020627 164.981488 
L 124.110636 240.343008 
L 124.837309 274.764087 
L 125.200645 284.944697 
L 125.563982 289.928944 
L 125.927318 289.623208 
L 126.290655 284.150928 
L 126.653991 273.830176 
L 127.380664 240.721157 
L 128.470673 170.682659 
L 129.924018 75.449894 
L 130.650691 42.636376 
L 131.014027 32.498701 
L 131.377364 27.225384 
L 131.7407 27.127336 
L 132.104036 32.319816 
L 132.467373 42.70028 
L 133.194045 77.459339 
L 134.284055 153.056027 
L 135.374064 230.730193 
L 136.100736 268.768207 
L 136.464073 281.128165 
L 136.827409 288.404505 
L 137.190745 290.40397 
L 137.554082 287.157619 
L 137.917418 278.901785 
L 138.280755 266.052285 
L 139.007427 228.957923 
L 140.460773 131.107653 
L 141.550782 64.716843 
L 142.277455 36.348287 
L 142.640791 28.90383 
L 143.004127 26.521519 
L 143.367464 29.405087 
L 143.7308 37.549267 
L 144.094136 50.722194 
L 144.820809 90.068782 
L 147.364164 261.882759 
L 147.7275 276.340903 
L 148.090836 285.872659 
L 148.454173 290.183489 
L 148.817509 289.208395 
L 149.180845 283.096995 
L 149.544182 272.190271 
L 150.270855 238.141537 
L 150.997527 192.525935 
L 151.360864 290.443636 
L 225.844818 290.443636 
L 226.208155 290.132642 
L 226.571491 285.751569 
L 226.934827 276.438479 
L 227.6615 244.966678 
L 228.751509 176.123518 
L 230.204855 79.810082 
L 230.931527 45.41053 
L 231.294864 34.283521 
L 231.6582 27.930976 
L 232.021536 26.702435 
L 232.384873 30.757363 
L 232.748209 40.041564 
L 233.111545 54.271785 
L 233.838218 95.284152 
L 236.381573 265.480479 
L 236.744909 278.886647 
L 237.108245 287.281187 
L 237.471582 290.421019 
L 237.834918 288.290239 
L 238.198255 281.083007 
L 238.561591 269.178901 
L 239.288264 233.552693 
L 240.378273 161.832321 
L 241.468282 89.051151 
L 242.194955 51.636216 
L 242.558291 38.577862 
L 242.921627 30.089011 
L 243.284964 26.593441 
L 243.6483 28.336794 
L 244.011636 35.360567 
L 244.374973 47.482642 
L 245.101645 85.133463 
L 246.191655 162.582855 
L 247.281664 238.460624 
L 248.008336 273.631094 
L 248.371673 284.255848 
L 248.735009 289.703369 
L 249.098345 289.860166 
L 249.461682 284.831412 
L 249.825018 274.919163 
L 250.551691 242.470689 
L 251.6417 172.905507 
L 253.095045 77.212289 
L 253.821718 43.743976 
L 254.185055 33.199863 
L 254.548391 27.484364 
L 254.911727 26.924298 
L 255.275064 31.653091 
L 255.6384 41.588015 
L 256.365073 75.59195 
L 257.455082 150.658502 
L 258.545091 228.720562 
L 259.271764 267.452633 
L 259.6351 280.241976 
L 259.998436 287.975752 
L 260.361773 290.440432 
L 260.725109 287.648014 
L 261.088445 279.817769 
L 261.451782 267.350887 
L 262.178455 230.847416 
L 263.268464 158.591441 
L 264.358473 86.300176 
L 265.085145 49.737266 
L 265.448482 37.23202 
L 265.811818 290.443636 
L 281.435282 290.430223 
L 281.798618 287.449105 
L 282.161955 279.441757 
L 282.525291 266.815481 
L 283.251964 230.065295 
L 284.341973 157.663898 
L 284.705309 290.443636 
L 402.426291 290.443636 
L 402.789627 289.681934 
L 403.152964 284.312671 
L 403.5163 274.086664 
L 404.242973 241.130452 
L 405.332982 171.20037 
L 406.786327 75.858008 
L 407.513 42.891159 
L 407.876336 32.658551 
L 408.239673 27.282094 
L 408.603009 27.076424 
L 408.966345 32.161043 
L 409.329682 42.43803 
L 410.056355 77.022249 
L 411.146364 152.497814 
L 412.236373 230.264581 
L 412.963045 268.465207 
L 413.326382 280.925406 
L 413.689718 288.308354 
L 414.053055 290.416083 
L 414.416391 287.275227 
L 414.779727 279.118166 
L 415.143064 266.357336 
L 415.869736 229.399502 
L 417.323082 131.616892 
L 418.413091 65.087484 
L 419.139764 36.550766 
L 419.5031 29.006325 
L 419.866436 26.517853 
L 420.229773 29.293114 
L 420.593109 37.331317 
L 420.956445 50.405348 
L 421.683118 89.593995 
L 423.136464 194.761724 
L 423.863136 242.599125 
L 424.589809 276.093342 
L 424.953145 285.729519 
L 425.316482 290.148455 
L 425.679818 289.28058 
L 426.043155 283.271338 
L 426.406491 272.458069 
L 427.133164 238.558581 
L 428.223173 167.970259 
L 429.313182 94.378297 
L 429.313182 94.378297 
" style="fill:none;stroke:#1f77b4;stroke-linecap:square;stroke-width:1.5;"/>
   </g>
   <g id="line2d_14">
    <path clip-path="url(#pe27de1a33f)" d="M 65.976818 290.443636 
L 90.320355 290.443636 
L 90.683691 26.516364 
L 114.300555 26.516364 
L 114.663891 290.443636 
L 150.997527 290.443636 
L 151.360864 26.516364 
L 225.844818 26.516364 
L 226.208155 290.443636 
L 265.448482 290.443636 
L 265.811818 26.516364 
L 281.071945 26.516364 
L 281.435282 290.443636 
L 284.341973 290.443636 
L 284.705309 26.516364 
L 402.426291 26.516364 
L 402.789627 290.443636 
L 429.313182 290.443636 
L 429.313182 290.443636 
" style="fill:none;stroke:#ff7f0e;stroke-linecap:square;stroke-width:1.5;"/>
   </g>
   <g id="line2d_15">
    <path clip-path="url(#pe27de1a33f)" d="M 65.976818 26.516364 
L 66.340155 29.128116 
L 66.703491 36.78856 
L 67.066827 49.102369 
L 67.7935 85.368175 
L 68.883509 157.481867 
L 69.973518 229.91141 
L 70.700191 266.709774 
L 71.063527 279.367245 
L 71.426864 287.409283 
L 71.7902 290.427397 
L 72.153536 288.19382 
L 72.516873 280.687062 
L 72.880209 268.110579 
L 73.606882 229.721746 
L 74.696891 151.849049 
L 75.7869 76.516053 
L 76.513573 42.135775 
L 76.876909 31.979237 
L 77.240245 27.020036 
L 77.603582 27.35073 
L 77.966918 32.846903 
L 78.330255 43.189599 
L 79.056927 76.333979 
L 80.146936 146.397553 
L 81.600282 241.604615 
L 82.326955 274.382486 
L 82.690291 284.498108 
L 83.053627 289.747469 
L 83.416964 289.820532 
L 83.7803 284.603028 
L 84.143636 274.198556 
L 84.870309 239.398981 
L 85.960318 163.774411 
L 87.050327 86.122 
L 87.777 48.121762 
L 88.140336 35.785081 
L 88.503673 28.533497 
L 88.867009 26.559155 
L 89.230345 29.829975 
L 89.593682 38.108708 
L 89.957018 50.978754 
L 90.320355 67.873202 
L 90.683691 290.443636 
L 114.300555 290.443636 
L 114.663891 29.103569 
L 115.027227 36.740868 
L 115.390564 49.033789 
L 116.117236 85.267109 
L 117.207245 157.36119 
L 118.297255 229.809321 
L 119.023927 266.639586 
L 119.387264 279.317718 
L 119.7506 287.382743 
L 120.113936 290.425376 
L 120.477273 288.216928 
L 120.840609 280.734886 
L 121.203945 268.181583 
L 121.930618 229.830235 
L 123.020627 151.978512 
L 124.110636 76.616992 
L 124.837309 42.195913 
L 125.200645 32.015303 
L 125.563982 27.031056 
L 125.927318 27.336792 
L 126.290655 32.809072 
L 126.653991 43.129824 
L 127.380664 76.238843 
L 128.470673 146.277341 
L 129.924018 241.510106 
L 130.650691 274.323624 
L 131.014027 284.461299 
L 131.377364 289.734616 
L 131.7407 289.832664 
L 132.104036 284.640184 
L 132.467373 274.25972 
L 133.194045 239.500661 
L 134.284055 163.903973 
L 135.374064 86.229807 
L 136.100736 48.191793 
L 136.464073 35.831835 
L 136.827409 28.555495 
L 137.190745 26.55603 
L 137.554082 29.802381 
L 137.917418 38.058215 
L 138.280755 50.907715 
L 139.007427 88.002077 
L 140.460773 185.852347 
L 141.550782 252.243157 
L 142.277455 280.611713 
L 142.640791 288.05617 
L 143.004127 290.438481 
L 143.367464 287.554913 
L 143.7308 279.410733 
L 144.094136 266.237806 
L 144.820809 226.891218 
L 147.364164 55.077241 
L 147.7275 40.619097 
L 148.090836 31.087341 
L 148.454173 26.776511 
L 148.817509 27.751605 
L 149.180845 33.863005 
L 149.544182 44.769729 
L 150.270855 78.818463 
L 150.997527 124.434065 
L 151.360864 290.443636 
L 225.844818 290.443636 
L 226.208155 26.827358 
L 226.571491 31.208431 
L 226.934827 40.521521 
L 227.6615 71.993322 
L 228.751509 140.836482 
L 230.204855 237.149918 
L 230.931527 271.54947 
L 231.294864 282.676479 
L 231.6582 289.029024 
L 232.021536 290.257565 
L 232.384873 286.202637 
L 232.748209 276.918436 
L 233.111545 262.688215 
L 233.838218 221.675848 
L 236.381573 51.479521 
L 236.744909 38.073353 
L 237.108245 29.678813 
L 237.471582 26.538981 
L 237.834918 28.669761 
L 238.198255 35.876993 
L 238.561591 47.781099 
L 239.288264 83.407307 
L 240.378273 155.127679 
L 241.468282 227.908849 
L 242.194955 265.323784 
L 242.558291 278.382138 
L 242.921627 286.870989 
L 243.284964 290.366559 
L 243.6483 288.623206 
L 244.011636 281.599433 
L 244.374973 269.477358 
L 245.101645 231.826537 
L 246.191655 154.377145 
L 247.281664 78.499376 
L 248.008336 43.328906 
L 248.371673 32.704152 
L 248.735009 27.256631 
L 249.098345 27.099834 
L 249.461682 32.128588 
L 249.825018 42.040837 
L 250.551691 74.489311 
L 251.6417 144.054493 
L 253.095045 239.747711 
L 253.821718 273.216024 
L 254.185055 283.760137 
L 254.548391 289.475636 
L 254.911727 290.035702 
L 255.275064 285.306909 
L 255.6384 275.371985 
L 256.365073 241.36805 
L 257.455082 166.301498 
L 258.545091 88.239438 
L 259.271764 49.507367 
L 259.6351 36.718024 
L 259.998436 28.984248 
L 260.361773 26.519568 
L 260.725109 29.311986 
L 261.088445 37.142231 
L 261.451782 49.609113 
L 262.178455 86.112584 
L 263.268464 158.368559 
L 264.358473 230.659824 
L 265.085145 267.222734 
L 265.811818 290.443636 
L 281.071945 290.443636 
L 281.435282 26.529777 
L 281.798618 29.510895 
L 282.161955 37.518243 
L 282.525291 50.144519 
L 283.251964 86.894705 
L 284.341973 159.296102 
L 284.705309 290.443636 
L 402.426291 290.443636 
L 402.789627 27.278066 
L 403.152964 32.647329 
L 403.5163 42.873336 
L 404.242973 75.829548 
L 405.332982 145.75963 
L 406.786327 241.101992 
L 407.513 274.068841 
L 407.876336 284.301449 
L 408.239673 289.677906 
L 408.603009 289.883576 
L 408.966345 284.798957 
L 409.329682 274.52197 
L 410.056355 239.937751 
L 411.146364 164.462186 
L 412.236373 86.695419 
L 412.963045 48.494793 
L 413.326382 36.034594 
L 413.689718 28.651646 
L 414.053055 26.543917 
L 414.416391 29.684773 
L 414.779727 37.841834 
L 415.143064 50.602664 
L 415.869736 87.560498 
L 417.323082 185.343108 
L 418.413091 251.872516 
L 419.139764 280.409234 
L 419.5031 287.953675 
L 419.866436 290.442147 
L 420.229773 287.666886 
L 420.593109 279.628683 
L 420.956445 266.554652 
L 421.683118 227.366005 
L 423.136464 122.198276 
L 423.863136 74.360875 
L 424.589809 40.866658 
L 424.953145 31.230481 
L 425.316482 26.811545 
L 425.679818 27.67942 
L 426.043155 33.688662 
L 426.406491 44.501931 
L 427.133164 78.401419 
L 428.223173 148.989741 
L 429.313182 222.581703 
L 429.313182 222.581703 
" style="fill:none;stroke:#2ca02c;stroke-linecap:square;stroke-width:1.5;"/>
   </g>
   <g id="patch_3">
    <path d="M 47.81 303.64 
L 47.81 13.32 
" style="fill:none;stroke:#000000;stroke-linecap:square;stroke-linejoin:miter;stroke-width:0.8;"/>
   </g>
   <g id="patch_4">
    <path d="M 447.48 303.64 
L 447.48 13.32 
" style="fill:none;stroke:#000000;stroke-linecap:square;stroke-linejoin:miter;stroke-width:0.8;"/>
   </g>
   <g id="patch_5">
    <path d="M 47.81 303.64 
L 447.48 303.64 
" style="fill:none;stroke:#000000;stroke-linecap:square;stroke-linejoin:miter;stroke-width:0.8;"/>
   </g>
   <g id="patch_6">
    <path d="M 47.81 13.32 
L 447.48 13.32 
" style="fill:none;stroke:#000000;stroke-linecap:square;stroke-linejoin:miter;stroke-width:0.8;"/>
   </g>
   <g id="legend_1">
    <g id="patch_7">
     <path d="M 54.81 182.63 
L 100.51 182.63 
Q 102.51 182.63 102.51 180.63 
L 102.51 136.33 
Q 102.51 134.33 100.51 134.33 
L 54.81 134.33 
Q 52.81 134.33 52.81 136.33 
L 52.81 180.63 
Q 52.81 182.63 54.81 182.63 
z
" style="fill:#ffffff;opacity:0.8;stroke:#cccccc;stroke-linejoin:miter;"/>
    </g>
    <g id="line2d_16">
     <path d="M 56.81 142.53 
L 76.81 142.53 
" style="fill:none;stroke:#1f77b4;stroke-linecap:square;stroke-width:1.5;"/>
    </g>
    <g id="line2d_17"/>
    <g id="text_15">
     <!-- $|3\rangle$ -->
     <defs>
      <path d="M 21 76.421875 
L 21 -23.578125 
L 12.703125 -23.578125 
L 12.703125 76.421875 
z
" id="DejaVuSans-7c"/>
      <path d="M 40.578125 39.3125 
Q 47.65625 37.796875 51.625 33 
Q 55.609375 28.21875 55.609375 21.1875 
Q 55.609375 10.40625 48.1875 4.484375 
Q 40.765625 -1.421875 27.09375 -1.421875 
Q 22.515625 -1.421875 17.65625 -0.515625 
Q 12.796875 0.390625 7.625 2.203125 
L 7.625 11.71875 
Q 11.71875 9.328125 16.59375 8.109375 
Q 21.484375 6.890625 26.8125 6.890625 
Q 36.078125 6.890625 40.9375 10.546875 
Q 45.796875 14.203125 45.796875 21.1875 
Q 45.796875 27.640625 41.28125 31.265625 
Q 36.765625 34.90625 28.71875 34.90625 
L 20.21875 34.90625 
L 20.21875 43.015625 
L 29.109375 43.015625 
Q 36.375 43.015625 40.234375 45.921875 
Q 44.09375 48.828125 44.09375 54.296875 
Q 44.09375 59.90625 40.109375 62.90625 
Q 36.140625 65.921875 28.71875 65.921875 
Q 24.65625 65.921875 20.015625 65.03125 
Q 15.375 64.15625 9.8125 62.3125 
L 9.8125 71.09375 
Q 15.4375 72.65625 20.34375 73.4375 
Q 25.25 74.21875 29.59375 74.21875 
Q 40.828125 74.21875 47.359375 69.109375 
Q 53.90625 64.015625 53.90625 55.328125 
Q 53.90625 49.265625 50.4375 45.09375 
Q 46.96875 40.921875 40.578125 39.3125 
" id="DejaVuSans-33"/>
      <path d="M 30.078125 31.34375 
L 16.3125 -13.1875 
L 8.015625 -13.1875 
L 21.78125 31.34375 
L 8.015625 75.875 
L 16.3125 75.875 
z
" id="DejaVuSans-27e9"/>
     </defs>
     <g transform="translate(84.81 146.03)scale(0.1 -0.1)">
      <use transform="translate(0 0.578125)" xlink:href="#DejaVuSans-7c"/>
      <use transform="translate(33.691406 0.578125)" xlink:href="#DejaVuSans-33"/>
      <use transform="translate(97.314453 0.578125)" xlink:href="#DejaVuSans-27e9"/>
     </g>
    </g>
    <g id="line2d_18">
     <path d="M 56.81 157.63 
L 76.81 157.63 
" style="fill:none;stroke:#ff7f0e;stroke-linecap:square;stroke-width:1.5;"/>
    </g>
    <g id="line2d_19"/>
    <g id="text_16">
     <!-- $|2\rangle$ -->
     <g transform="translate(84.81 161.13)scale(0.1 -0.1)">
      <use transform="translate(0 0.578125)" xlink:href="#DejaVuSans-7c"/>
      <use transform="translate(33.691406 0.578125)" xlink:href="#DejaVuSans-32"/>
      <use transform="translate(97.314453 0.578125)" xlink:href="#DejaVuSans-27e9"/>
     </g>
    </g>
    <g id="line2d_20">
     <path d="M 56.81 172.73 
L 76.81 172.73 
" style="fill:none;stroke:#2ca02c;stroke-linecap:square;stroke-width:1.5;"/>
    </g>
    <g id="line2d_21"/>
    <g id="text_17">
     <!-- $|1\rangle$ -->
     <g transform="translate(84.81 176.23)scale(0.1 -0.1)">
      <use transform="translate(0 0.578125)" xlink:href="#DejaVuSans-7c"/>
      <use transform="translate(33.691406 0.578125)" xlink:href="#DejaVuSans-31"/>
      <use transform="translate(97.314453 0.578125)" xlink:href="#DejaVuSans-27e9"/>
     </g>
    </g>
   </g>
  </g>
 </g>
 <defs>
  <clipPath id="pe27de1a33f">
   <rect height="290.32" width="399.67" x="47.81" y="13.32"/>
  </clipPath>
 </defs>
</svg>
