<?xml version="1.0" encoding="utf-8" standalone="no"?>
<!DOCTYPE svg PUBLIC "-//W3C//DTD SVG 1.1//EN"
  "http://www.w3.org/Graphics/SVG/1.1/DTD/svg11.dtd">
<!-- Created with matplotlib (http://matplotlib.org/) -->
<svg height="345pt" version="1.1" viewBox="0 0 460 345" width="460pt" xmlns="http://www.w3.org/2000/svg" xmlns:xlink="http://www.w3.org/1999/xlink">
 <defs>
  <style type="text/css">
*{stroke-linecap:butt;stroke-linejoin:round;}
  </style>
 </defs>
 <g id="figure_1">
  <g id="patch_1">
   <path d="M 0 345.6 
L 460.8 345.6 
L 460.8 0 
L 0 0 
z
" style="fill:#ffffff;"/>
  </g>
  <g id="axes_1">
   <g id="patch_2">
    <path d="M 38.27 303.64 
L 447.48 303.64 
L 447.48 13.32 
L 38.27 13.32 
z
" style="fill:#ffffff;"/>
   </g>
   <g id="PolyCollection_1">
    <path clip-path="url(#p10f91039d2)" d="M 56.870455 26.516364 
L 56.870455 290.443636 
L 58.739847 290.443636 
L 60.609239 290.443636 
L 62.478632 290.443636 
L 64.348024 290.443636 
L 66.217417 290.443636 
L 68.086809 290.443636 
L 69.956201 290.443636 
L 71.825594 290.443636 
L 73.694986 290.443636 
L 75.564379 290.443636 
L 77.433771 290.443636 
L 79.303164 290.443636 
L 81.172556 290.443636 
L 83.041948 290.443636 
L 84.911341 290.443636 
L 86.780733 290.443636 
L 88.650126 290.443636 
L 90.519518 290.443636 
L 92.38891 290.443636 
L 94.258303 290.443636 
L 96.127695 290.443636 
L 97.997088 290.443636 
L 99.86648 290.443636 
L 101.735873 290.443636 
L 103.605265 290.443636 
L 105.474657 290.443636 
L 107.34405 290.443636 
L 109.213442 290.443636 
L 111.082835 290.443636 
L 112.952227 290.443636 
L 114.821619 290.443636 
L 116.691012 290.443636 
L 118.560404 290.443636 
L 120.429797 290.443636 
L 122.299189 290.443636 
L 124.168582 290.443636 
L 126.037974 290.443636 
L 127.907366 290.443636 
L 129.776759 290.443636 
L 131.646151 290.443636 
L 133.515544 290.443636 
L 135.384936 290.443636 
L 137.254328 290.443636 
L 139.123721 290.443636 
L 140.993113 290.443636 
L 142.862506 290.443636 
L 144.731898 290.443636 
L 146.601291 290.443636 
L 148.470683 290.443636 
L 150.340075 290.443636 
L 152.209468 290.443636 
L 154.07886 290.443636 
L 155.948253 290.443636 
L 157.817645 290.443636 
L 159.687037 290.443636 
L 161.55643 290.443636 
L 163.425822 290.443636 
L 165.295215 290.443636 
L 167.164607 290.443636 
L 169.034 290.443636 
L 170.903392 290.443636 
L 172.772784 290.443636 
L 174.642177 290.443636 
L 176.511569 290.443636 
L 178.380962 290.443636 
L 180.250354 290.443636 
L 182.119746 290.443636 
L 183.989139 290.443636 
L 185.858531 290.443636 
L 187.727924 290.443636 
L 189.597316 290.443636 
L 191.466709 290.443636 
L 193.336101 290.443636 
L 195.205493 290.443636 
L 197.074886 290.443636 
L 198.944278 290.443636 
L 200.813671 290.443636 
L 202.683063 290.443636 
L 204.552455 290.443636 
L 206.421848 290.443636 
L 208.29124 290.443636 
L 210.160633 290.443636 
L 212.030025 290.443636 
L 213.899418 290.443636 
L 215.76881 290.443636 
L 217.638202 290.443636 
L 219.507595 290.443636 
L 221.376987 290.443636 
L 223.24638 290.443636 
L 225.115772 290.443636 
L 226.985164 290.443636 
L 228.854557 290.443636 
L 230.723949 290.443636 
L 232.593342 290.443636 
L 234.462734 290.443636 
L 236.332127 290.443636 
L 238.201519 290.443636 
L 240.070911 290.443636 
L 241.940304 290.443636 
L 243.809696 290.443636 
L 245.679089 290.443636 
L 247.548481 290.443636 
L 249.417873 290.443636 
L 251.287266 290.443636 
L 253.156658 290.443636 
L 255.026051 290.443636 
L 256.895443 290.443636 
L 258.764836 290.443636 
L 260.634228 290.443636 
L 262.50362 290.443636 
L 264.373013 290.443636 
L 266.242405 290.443636 
L 268.111798 290.443636 
L 269.98119 290.443636 
L 271.850582 290.443636 
L 273.719975 290.443636 
L 275.589367 290.443636 
L 277.45876 290.443636 
L 279.328152 290.443636 
L 281.197545 290.443636 
L 283.066937 290.443636 
L 284.936329 290.443636 
L 286.805722 290.443636 
L 288.675114 290.443636 
L 290.544507 290.443636 
L 292.413899 290.443636 
L 294.283291 290.443636 
L 296.152684 290.443636 
L 298.022076 290.443636 
L 299.891469 290.443636 
L 301.760861 290.443636 
L 303.630254 290.443636 
L 305.499646 290.443636 
L 307.369038 290.443636 
L 309.238431 290.443636 
L 311.107823 290.443636 
L 312.977216 290.443636 
L 314.846608 290.443636 
L 316.716 290.443636 
L 318.585393 290.443636 
L 320.454785 290.443636 
L 322.324178 290.443636 
L 324.19357 290.443636 
L 326.062963 290.443636 
L 327.932355 290.443636 
L 329.801747 290.443636 
L 331.67114 290.443636 
L 333.540532 290.443636 
L 335.409925 290.443636 
L 337.279317 290.443636 
L 339.148709 290.443636 
L 341.018102 290.443636 
L 342.887494 290.443636 
L 344.756887 290.443636 
L 346.626279 290.443636 
L 348.495672 290.443636 
L 350.365064 290.443636 
L 352.234456 290.443636 
L 354.103849 290.443636 
L 355.973241 290.443636 
L 357.842634 290.443636 
L 359.712026 290.443636 
L 361.581418 290.443636 
L 363.450811 290.443636 
L 365.320203 290.443636 
L 367.189596 290.443636 
L 369.058988 290.443636 
L 370.928381 290.443636 
L 372.797773 290.443636 
L 374.667165 290.443636 
L 376.536558 290.443636 
L 378.40595 290.443636 
L 380.275343 290.443636 
L 382.144735 290.443636 
L 384.014127 290.443636 
L 385.88352 290.443636 
L 387.752912 290.443636 
L 389.622305 290.443636 
L 391.491697 290.443636 
L 393.36109 290.443636 
L 395.230482 290.443636 
L 397.099874 290.443636 
L 398.969267 290.443636 
L 400.838659 290.443636 
L 402.708052 290.443636 
L 404.577444 290.443636 
L 406.446836 290.443636 
L 408.316229 290.443636 
L 410.185621 290.443636 
L 412.055014 290.443636 
L 413.924406 290.443636 
L 415.793799 290.443636 
L 417.663191 290.443636 
L 419.532583 290.443636 
L 421.401976 290.443636 
L 423.271368 290.443636 
L 425.140761 290.443636 
L 427.010153 290.443636 
L 428.879545 290.443636 
L 428.879545 31.768516 
L 428.879545 31.768516 
L 427.010153 36.967884 
L 425.140761 42.114465 
L 423.271368 47.208262 
L 421.401976 52.249273 
L 419.532583 57.237498 
L 417.663191 62.172938 
L 415.793799 67.055593 
L 413.924406 71.885462 
L 412.055014 76.662545 
L 410.185621 81.386844 
L 408.316229 86.058356 
L 406.446836 90.677084 
L 404.577444 95.243025 
L 402.708052 99.756182 
L 400.838659 104.216553 
L 398.969267 108.624138 
L 397.099874 112.978938 
L 395.230482 117.280953 
L 393.36109 121.530182 
L 391.491697 125.726625 
L 389.622305 129.870284 
L 387.752912 133.961156 
L 385.88352 137.999244 
L 384.014127 141.984545 
L 382.144735 145.917062 
L 380.275343 149.796793 
L 378.40595 153.623738 
L 376.536558 157.397898 
L 374.667165 161.119273 
L 372.797773 164.787862 
L 370.928381 168.403665 
L 369.058988 171.966684 
L 367.189596 175.476916 
L 365.320203 178.934364 
L 363.450811 182.339025 
L 361.581418 185.690902 
L 359.712026 188.989993 
L 357.842634 192.236298 
L 355.973241 195.429818 
L 354.103849 198.570553 
L 352.234456 201.658502 
L 350.365064 204.693665 
L 348.495672 207.676044 
L 346.626279 210.605636 
L 344.756887 213.482444 
L 342.887494 216.306465 
L 341.018102 219.077702 
L 339.148709 221.796153 
L 337.279317 224.461818 
L 335.409925 227.074698 
L 333.540532 229.634793 
L 331.67114 232.142102 
L 329.801747 234.596625 
L 327.932355 236.998364 
L 326.062963 239.347316 
L 324.19357 241.643484 
L 322.324178 243.886865 
L 320.454785 246.077462 
L 318.585393 248.215273 
L 316.716 250.300298 
L 314.846608 252.332538 
L 312.977216 254.311993 
L 311.107823 256.238662 
L 309.238431 258.112545 
L 307.369038 259.933644 
L 305.499646 261.701956 
L 303.630254 263.417484 
L 301.760861 265.080225 
L 299.891469 266.690182 
L 298.022076 268.247353 
L 296.152684 269.751738 
L 294.283291 271.203338 
L 292.413899 272.602153 
L 290.544507 273.948182 
L 288.675114 275.241425 
L 286.805722 276.481884 
L 284.936329 277.669556 
L 283.066937 278.804444 
L 281.197545 279.886545 
L 279.328152 280.915862 
L 277.45876 281.892393 
L 275.589367 282.816138 
L 273.719975 283.687098 
L 271.850582 284.505273 
L 269.98119 285.270662 
L 268.111798 285.983265 
L 266.242405 286.643084 
L 264.373013 287.250116 
L 262.50362 287.804364 
L 260.634228 288.305825 
L 258.764836 288.754502 
L 256.895443 289.150393 
L 255.026051 289.493498 
L 253.156658 289.783818 
L 251.287266 290.021353 
L 249.417873 290.206102 
L 247.548481 290.338065 
L 245.679089 290.417244 
L 243.809696 290.443636 
L 241.940304 290.417244 
L 240.070911 290.338065 
L 238.201519 290.206102 
L 236.332127 290.021353 
L 234.462734 289.783818 
L 232.593342 289.493498 
L 230.723949 289.150393 
L 228.854557 288.754502 
L 226.985164 288.305825 
L 225.115772 287.804364 
L 223.24638 287.250116 
L 221.376987 286.643084 
L 219.507595 285.983265 
L 217.638202 285.270662 
L 215.76881 284.505273 
L 213.899418 283.687098 
L 212.030025 282.816138 
L 210.160633 281.892393 
L 208.29124 280.915862 
L 206.421848 279.886545 
L 204.552455 278.804444 
L 202.683063 277.669556 
L 200.813671 276.481884 
L 198.944278 275.241425 
L 197.074886 273.948182 
L 195.205493 272.602153 
L 193.336101 271.203338 
L 191.466709 269.751738 
L 189.597316 268.247353 
L 187.727924 266.690182 
L 185.858531 265.080225 
L 183.989139 263.417484 
L 182.119746 261.701956 
L 180.250354 259.933644 
L 178.380962 258.112545 
L 176.511569 256.238662 
L 174.642177 254.311993 
L 172.772784 252.332538 
L 170.903392 250.300298 
L 169.034 248.215273 
L 167.164607 246.077462 
L 165.295215 243.886865 
L 163.425822 241.643484 
L 161.55643 239.347316 
L 159.687037 236.998364 
L 157.817645 234.596625 
L 155.948253 232.142102 
L 154.07886 229.634793 
L 152.209468 227.074698 
L 150.340075 224.461818 
L 148.470683 221.796153 
L 146.601291 219.077702 
L 144.731898 216.306465 
L 142.862506 213.482444 
L 140.993113 210.605636 
L 139.123721 207.676044 
L 137.254328 204.693665 
L 135.384936 201.658502 
L 133.515544 198.570553 
L 131.646151 195.429818 
L 129.776759 192.236298 
L 127.907366 188.989993 
L 126.037974 185.690902 
L 124.168582 182.339025 
L 122.299189 178.934364 
L 120.429797 175.476916 
L 118.560404 171.966684 
L 116.691012 168.403665 
L 114.821619 164.787862 
L 112.952227 161.119273 
L 111.082835 157.397898 
L 109.213442 153.623738 
L 107.34405 149.796793 
L 105.474657 145.917062 
L 103.605265 141.984545 
L 101.735873 137.999244 
L 99.86648 133.961156 
L 97.997088 129.870284 
L 96.127695 125.726625 
L 94.258303 121.530182 
L 92.38891 117.280953 
L 90.519518 112.978938 
L 88.650126 108.624138 
L 86.780733 104.216553 
L 84.911341 99.756182 
L 83.041948 95.243025 
L 81.172556 90.677084 
L 79.303164 86.058356 
L 77.433771 81.386844 
L 75.564379 76.662545 
L 73.694986 71.885462 
L 71.825594 67.055593 
L 69.956201 62.172938 
L 68.086809 57.237498 
L 66.217417 52.249273 
L 64.348024 47.208262 
L 62.478632 42.114465 
L 60.609239 36.967884 
L 58.739847 31.768516 
L 56.870455 26.516364 
z
" style="fill:#1f77b4;fill-opacity:0.5;"/>
   </g>
   <g id="matplotlib.axis_1">
    <g id="xtick_1">
     <g id="line2d_1">
      <defs>
       <path d="M 0 0 
L 0 3.5 
" id="mc0d9b727f7" style="stroke:#000000;stroke-width:0.8;"/>
      </defs>
      <g>
       <use style="stroke:#000000;stroke-width:0.8;" x="56.870455" xlink:href="#mc0d9b727f7" y="303.64"/>
      </g>
     </g>
     <g id="text_1">
      <!-- −3 -->
      <defs>
       <path d="M 10.59375 35.5 
L 73.1875 35.5 
L 73.1875 27.203125 
L 10.59375 27.203125 
z
" id="DejaVuSans-2212"/>
       <path d="M 40.578125 39.3125 
Q 47.65625 37.796875 51.625 33 
Q 55.609375 28.21875 55.609375 21.1875 
Q 55.609375 10.40625 48.1875 4.484375 
Q 40.765625 -1.421875 27.09375 -1.421875 
Q 22.515625 -1.421875 17.65625 -0.515625 
Q 12.796875 0.390625 7.625 2.203125 
L 7.625 11.71875 
Q 11.71875 9.328125 16.59375 8.109375 
Q 21.484375 6.890625 26.8125 6.890625 
Q 36.078125 6.890625 40.9375 10.546875 
Q 45.796875 14.203125 45.796875 21.1875 
Q 45.796875 27.640625 41.28125 31.265625 
Q 36.765625 34.90625 28.71875 34.90625 
L 20.21875 34.90625 
L 20.21875 43.015625 
L 29.109375 43.015625 
Q 36.375 43.015625 40.234375 45.921875 
Q 44.09375 48.828125 44.09375 54.296875 
Q 44.09375 59.90625 40.109375 62.90625 
Q 36.140625 65.921875 28.71875 65.921875 
Q 24.65625 65.921875 20.015625 65.03125 
Q 15.375 64.15625 9.8125 62.3125 
L 9.8125 71.09375 
Q 15.4375 72.65625 20.34375 73.4375 
Q 25.25 74.21875 29.59375 74.21875 
Q 40.828125 74.21875 47.359375 69.109375 
Q 53.90625 64.015625 53.90625 55.328125 
Q 53.90625 49.265625 50.4375 45.09375 
Q 46.96875 40.921875 40.578125 39.3125 
" id="DejaVuSans-33"/>
      </defs>
      <g transform="translate(49.499361 318.238437)scale(0.1 -0.1)">
       <use xlink:href="#DejaVuSans-2212"/>
       <use x="83.789062" xlink:href="#DejaVuSans-33"/>
      </g>
     </g>
    </g>
    <g id="xtick_2">
     <g id="line2d_2">
      <g>
       <use style="stroke:#000000;stroke-width:0.8;" x="119.183535" xlink:href="#mc0d9b727f7" y="303.64"/>
      </g>
     </g>
     <g id="text_2">
      <!-- −2 -->
      <defs>
       <path d="M 19.1875 8.296875 
L 53.609375 8.296875 
L 53.609375 0 
L 7.328125 0 
L 7.328125 8.296875 
Q 12.9375 14.109375 22.625 23.890625 
Q 32.328125 33.6875 34.8125 36.53125 
Q 39.546875 41.84375 41.421875 45.53125 
Q 43.3125 49.21875 43.3125 52.78125 
Q 43.3125 58.59375 39.234375 62.25 
Q 35.15625 65.921875 28.609375 65.921875 
Q 23.96875 65.921875 18.8125 64.3125 
Q 13.671875 62.703125 7.8125 59.421875 
L 7.8125 69.390625 
Q 13.765625 71.78125 18.9375 73 
Q 24.125 74.21875 28.421875 74.21875 
Q 39.75 74.21875 46.484375 68.546875 
Q 53.21875 62.890625 53.21875 53.421875 
Q 53.21875 48.921875 51.53125 44.890625 
Q 49.859375 40.875 45.40625 35.40625 
Q 44.1875 33.984375 37.640625 27.21875 
Q 31.109375 20.453125 19.1875 8.296875 
" id="DejaVuSans-32"/>
      </defs>
      <g transform="translate(111.812441 318.238437)scale(0.1 -0.1)">
       <use xlink:href="#DejaVuSans-2212"/>
       <use x="83.789062" xlink:href="#DejaVuSans-32"/>
      </g>
     </g>
    </g>
    <g id="xtick_3">
     <g id="line2d_3">
      <g>
       <use style="stroke:#000000;stroke-width:0.8;" x="181.496616" xlink:href="#mc0d9b727f7" y="303.64"/>
      </g>
     </g>
     <g id="text_3">
      <!-- −1 -->
      <defs>
       <path d="M 12.40625 8.296875 
L 28.515625 8.296875 
L 28.515625 63.921875 
L 10.984375 60.40625 
L 10.984375 69.390625 
L 28.421875 72.90625 
L 38.28125 72.90625 
L 38.28125 8.296875 
L 54.390625 8.296875 
L 54.390625 0 
L 12.40625 0 
z
" id="DejaVuSans-31"/>
      </defs>
      <g transform="translate(174.125522 318.238437)scale(0.1 -0.1)">
       <use xlink:href="#DejaVuSans-2212"/>
       <use x="83.789062" xlink:href="#DejaVuSans-31"/>
      </g>
     </g>
    </g>
    <g id="xtick_4">
     <g id="line2d_4">
      <g>
       <use style="stroke:#000000;stroke-width:0.8;" x="243.809696" xlink:href="#mc0d9b727f7" y="303.64"/>
      </g>
     </g>
     <g id="text_4">
      <!-- 0 -->
      <defs>
       <path d="M 31.78125 66.40625 
Q 24.171875 66.40625 20.328125 58.90625 
Q 16.5 51.421875 16.5 36.375 
Q 16.5 21.390625 20.328125 13.890625 
Q 24.171875 6.390625 31.78125 6.390625 
Q 39.453125 6.390625 43.28125 13.890625 
Q 47.125 21.390625 47.125 36.375 
Q 47.125 51.421875 43.28125 58.90625 
Q 39.453125 66.40625 31.78125 66.40625 
M 31.78125 74.21875 
Q 44.046875 74.21875 50.515625 64.515625 
Q 56.984375 54.828125 56.984375 36.375 
Q 56.984375 17.96875 50.515625 8.265625 
Q 44.046875 -1.421875 31.78125 -1.421875 
Q 19.53125 -1.421875 13.0625 8.265625 
Q 6.59375 17.96875 6.59375 36.375 
Q 6.59375 54.828125 13.0625 64.515625 
Q 19.53125 74.21875 31.78125 74.21875 
" id="DejaVuSans-30"/>
      </defs>
      <g transform="translate(240.628446 318.238437)scale(0.1 -0.1)">
       <use xlink:href="#DejaVuSans-30"/>
      </g>
     </g>
    </g>
    <g id="xtick_5">
     <g id="line2d_5">
      <g>
       <use style="stroke:#000000;stroke-width:0.8;" x="306.122777" xlink:href="#mc0d9b727f7" y="303.64"/>
      </g>
     </g>
     <g id="text_5">
      <!-- 1 -->
      <g transform="translate(302.941527 318.238437)scale(0.1 -0.1)">
       <use xlink:href="#DejaVuSans-31"/>
      </g>
     </g>
    </g>
    <g id="xtick_6">
     <g id="line2d_6">
      <g>
       <use style="stroke:#000000;stroke-width:0.8;" x="368.435857" xlink:href="#mc0d9b727f7" y="303.64"/>
      </g>
     </g>
     <g id="text_6">
      <!-- 2 -->
      <g transform="translate(365.254607 318.238437)scale(0.1 -0.1)">
       <use xlink:href="#DejaVuSans-32"/>
      </g>
     </g>
    </g>
    <g id="xtick_7">
     <g id="line2d_7">
      <g>
       <use style="stroke:#000000;stroke-width:0.8;" x="430.748938" xlink:href="#mc0d9b727f7" y="303.64"/>
      </g>
     </g>
     <g id="text_7">
      <!-- 3 -->
      <g transform="translate(427.567688 318.238437)scale(0.1 -0.1)">
       <use xlink:href="#DejaVuSans-33"/>
      </g>
     </g>
    </g>
    <g id="text_8">
     <!-- Position -->
     <defs>
      <path d="M 19.671875 64.796875 
L 19.671875 37.40625 
L 32.078125 37.40625 
Q 38.96875 37.40625 42.71875 40.96875 
Q 46.484375 44.53125 46.484375 51.125 
Q 46.484375 57.671875 42.71875 61.234375 
Q 38.96875 64.796875 32.078125 64.796875 
z
M 9.8125 72.90625 
L 32.078125 72.90625 
Q 44.34375 72.90625 50.609375 67.359375 
Q 56.890625 61.8125 56.890625 51.125 
Q 56.890625 40.328125 50.609375 34.8125 
Q 44.34375 29.296875 32.078125 29.296875 
L 19.671875 29.296875 
L 19.671875 0 
L 9.8125 0 
z
" id="DejaVuSans-50"/>
      <path d="M 30.609375 48.390625 
Q 23.390625 48.390625 19.1875 42.75 
Q 14.984375 37.109375 14.984375 27.296875 
Q 14.984375 17.484375 19.15625 11.84375 
Q 23.34375 6.203125 30.609375 6.203125 
Q 37.796875 6.203125 41.984375 11.859375 
Q 46.1875 17.53125 46.1875 27.296875 
Q 46.1875 37.015625 41.984375 42.703125 
Q 37.796875 48.390625 30.609375 48.390625 
M 30.609375 56 
Q 42.328125 56 49.015625 48.375 
Q 55.71875 40.765625 55.71875 27.296875 
Q 55.71875 13.875 49.015625 6.21875 
Q 42.328125 -1.421875 30.609375 -1.421875 
Q 18.84375 -1.421875 12.171875 6.21875 
Q 5.515625 13.875 5.515625 27.296875 
Q 5.515625 40.765625 12.171875 48.375 
Q 18.84375 56 30.609375 56 
" id="DejaVuSans-6f"/>
      <path d="M 44.28125 53.078125 
L 44.28125 44.578125 
Q 40.484375 46.53125 36.375 47.5 
Q 32.28125 48.484375 27.875 48.484375 
Q 21.1875 48.484375 17.84375 46.4375 
Q 14.5 44.390625 14.5 40.28125 
Q 14.5 37.15625 16.890625 35.375 
Q 19.28125 33.59375 26.515625 31.984375 
L 29.59375 31.296875 
Q 39.15625 29.25 43.1875 25.515625 
Q 47.21875 21.78125 47.21875 15.09375 
Q 47.21875 7.46875 41.1875 3.015625 
Q 35.15625 -1.421875 24.609375 -1.421875 
Q 20.21875 -1.421875 15.453125 -0.5625 
Q 10.6875 0.296875 5.421875 2 
L 5.421875 11.28125 
Q 10.40625 8.6875 15.234375 7.390625 
Q 20.0625 6.109375 24.8125 6.109375 
Q 31.15625 6.109375 34.5625 8.28125 
Q 37.984375 10.453125 37.984375 14.40625 
Q 37.984375 18.0625 35.515625 20.015625 
Q 33.0625 21.96875 24.703125 23.78125 
L 21.578125 24.515625 
Q 13.234375 26.265625 9.515625 29.90625 
Q 5.8125 33.546875 5.8125 39.890625 
Q 5.8125 47.609375 11.28125 51.796875 
Q 16.75 56 26.8125 56 
Q 31.78125 56 36.171875 55.265625 
Q 40.578125 54.546875 44.28125 53.078125 
" id="DejaVuSans-73"/>
      <path d="M 9.421875 54.6875 
L 18.40625 54.6875 
L 18.40625 0 
L 9.421875 0 
z
M 9.421875 75.984375 
L 18.40625 75.984375 
L 18.40625 64.59375 
L 9.421875 64.59375 
z
" id="DejaVuSans-69"/>
      <path d="M 18.3125 70.21875 
L 18.3125 54.6875 
L 36.8125 54.6875 
L 36.8125 47.703125 
L 18.3125 47.703125 
L 18.3125 18.015625 
Q 18.3125 11.328125 20.140625 9.421875 
Q 21.96875 7.515625 27.59375 7.515625 
L 36.8125 7.515625 
L 36.8125 0 
L 27.59375 0 
Q 17.1875 0 13.234375 3.875 
Q 9.28125 7.765625 9.28125 18.015625 
L 9.28125 47.703125 
L 2.6875 47.703125 
L 2.6875 54.6875 
L 9.28125 54.6875 
L 9.28125 70.21875 
z
" id="DejaVuSans-74"/>
      <path d="M 54.890625 33.015625 
L 54.890625 0 
L 45.90625 0 
L 45.90625 32.71875 
Q 45.90625 40.484375 42.875 44.328125 
Q 39.84375 48.1875 33.796875 48.1875 
Q 26.515625 48.1875 22.3125 43.546875 
Q 18.109375 38.921875 18.109375 30.90625 
L 18.109375 0 
L 9.078125 0 
L 9.078125 54.6875 
L 18.109375 54.6875 
L 18.109375 46.1875 
Q 21.34375 51.125 25.703125 53.5625 
Q 30.078125 56 35.796875 56 
Q 45.21875 56 50.046875 50.171875 
Q 54.890625 44.34375 54.890625 33.015625 
" id="DejaVuSans-6e"/>
     </defs>
     <g transform="translate(223.232031 331.916562)scale(0.1 -0.1)">
      <use xlink:href="#DejaVuSans-50"/>
      <use x="60.255859" xlink:href="#DejaVuSans-6f"/>
      <use x="121.4375" xlink:href="#DejaVuSans-73"/>
      <use x="173.537109" xlink:href="#DejaVuSans-69"/>
      <use x="201.320312" xlink:href="#DejaVuSans-74"/>
      <use x="240.529297" xlink:href="#DejaVuSans-69"/>
      <use x="268.3125" xlink:href="#DejaVuSans-6f"/>
      <use x="329.494141" xlink:href="#DejaVuSans-6e"/>
     </g>
    </g>
   </g>
   <g id="matplotlib.axis_2">
    <g id="ytick_1">
     <g id="line2d_8">
      <defs>
       <path d="M 0 0 
L -3.5 0 
" id="mc43a42db5f" style="stroke:#000000;stroke-width:0.8;"/>
      </defs>
      <g>
       <use style="stroke:#000000;stroke-width:0.8;" x="38.27" xlink:href="#mc43a42db5f" y="290.443636"/>
      </g>
     </g>
     <g id="text_9">
      <!-- 0 -->
      <g transform="translate(24.9075 294.242855)scale(0.1 -0.1)">
       <use xlink:href="#DejaVuSans-30"/>
      </g>
     </g>
    </g>
    <g id="ytick_2">
     <g id="line2d_9">
      <g>
       <use style="stroke:#000000;stroke-width:0.8;" x="38.27" xlink:href="#mc43a42db5f" y="231.793131"/>
      </g>
     </g>
     <g id="text_10">
      <!-- 2 -->
      <g transform="translate(24.9075 235.59235)scale(0.1 -0.1)">
       <use xlink:href="#DejaVuSans-32"/>
      </g>
     </g>
    </g>
    <g id="ytick_3">
     <g id="line2d_10">
      <g>
       <use style="stroke:#000000;stroke-width:0.8;" x="38.27" xlink:href="#mc43a42db5f" y="173.142626"/>
      </g>
     </g>
     <g id="text_11">
      <!-- 4 -->
      <defs>
       <path d="M 37.796875 64.3125 
L 12.890625 25.390625 
L 37.796875 25.390625 
z
M 35.203125 72.90625 
L 47.609375 72.90625 
L 47.609375 25.390625 
L 58.015625 25.390625 
L 58.015625 17.1875 
L 47.609375 17.1875 
L 47.609375 0 
L 37.796875 0 
L 37.796875 17.1875 
L 4.890625 17.1875 
L 4.890625 26.703125 
z
" id="DejaVuSans-34"/>
      </defs>
      <g transform="translate(24.9075 176.941845)scale(0.1 -0.1)">
       <use xlink:href="#DejaVuSans-34"/>
      </g>
     </g>
    </g>
    <g id="ytick_4">
     <g id="line2d_11">
      <g>
       <use style="stroke:#000000;stroke-width:0.8;" x="38.27" xlink:href="#mc43a42db5f" y="114.492121"/>
      </g>
     </g>
     <g id="text_12">
      <!-- 6 -->
      <defs>
       <path d="M 33.015625 40.375 
Q 26.375 40.375 22.484375 35.828125 
Q 18.609375 31.296875 18.609375 23.390625 
Q 18.609375 15.53125 22.484375 10.953125 
Q 26.375 6.390625 33.015625 6.390625 
Q 39.65625 6.390625 43.53125 10.953125 
Q 47.40625 15.53125 47.40625 23.390625 
Q 47.40625 31.296875 43.53125 35.828125 
Q 39.65625 40.375 33.015625 40.375 
M 52.59375 71.296875 
L 52.59375 62.3125 
Q 48.875 64.0625 45.09375 64.984375 
Q 41.3125 65.921875 37.59375 65.921875 
Q 27.828125 65.921875 22.671875 59.328125 
Q 17.53125 52.734375 16.796875 39.40625 
Q 19.671875 43.65625 24.015625 45.921875 
Q 28.375 48.1875 33.59375 48.1875 
Q 44.578125 48.1875 50.953125 41.515625 
Q 57.328125 34.859375 57.328125 23.390625 
Q 57.328125 12.15625 50.6875 5.359375 
Q 44.046875 -1.421875 33.015625 -1.421875 
Q 20.359375 -1.421875 13.671875 8.265625 
Q 6.984375 17.96875 6.984375 36.375 
Q 6.984375 53.65625 15.1875 63.9375 
Q 23.390625 74.21875 37.203125 74.21875 
Q 40.921875 74.21875 44.703125 73.484375 
Q 48.484375 72.75 52.59375 71.296875 
" id="DejaVuSans-36"/>
      </defs>
      <g transform="translate(24.9075 118.29134)scale(0.1 -0.1)">
       <use xlink:href="#DejaVuSans-36"/>
      </g>
     </g>
    </g>
    <g id="ytick_5">
     <g id="line2d_12">
      <g>
       <use style="stroke:#000000;stroke-width:0.8;" x="38.27" xlink:href="#mc43a42db5f" y="55.841616"/>
      </g>
     </g>
     <g id="text_13">
      <!-- 8 -->
      <defs>
       <path d="M 31.78125 34.625 
Q 24.75 34.625 20.71875 30.859375 
Q 16.703125 27.09375 16.703125 20.515625 
Q 16.703125 13.921875 20.71875 10.15625 
Q 24.75 6.390625 31.78125 6.390625 
Q 38.8125 6.390625 42.859375 10.171875 
Q 46.921875 13.96875 46.921875 20.515625 
Q 46.921875 27.09375 42.890625 30.859375 
Q 38.875 34.625 31.78125 34.625 
M 21.921875 38.8125 
Q 15.578125 40.375 12.03125 44.71875 
Q 8.5 49.078125 8.5 55.328125 
Q 8.5 64.0625 14.71875 69.140625 
Q 20.953125 74.21875 31.78125 74.21875 
Q 42.671875 74.21875 48.875 69.140625 
Q 55.078125 64.0625 55.078125 55.328125 
Q 55.078125 49.078125 51.53125 44.71875 
Q 48 40.375 41.703125 38.8125 
Q 48.828125 37.15625 52.796875 32.3125 
Q 56.78125 27.484375 56.78125 20.515625 
Q 56.78125 9.90625 50.3125 4.234375 
Q 43.84375 -1.421875 31.78125 -1.421875 
Q 19.734375 -1.421875 13.25 4.234375 
Q 6.78125 9.90625 6.78125 20.515625 
Q 6.78125 27.484375 10.78125 32.3125 
Q 14.796875 37.15625 21.921875 38.8125 
M 18.3125 54.390625 
Q 18.3125 48.734375 21.84375 45.5625 
Q 25.390625 42.390625 31.78125 42.390625 
Q 38.140625 42.390625 41.71875 45.5625 
Q 45.3125 48.734375 45.3125 54.390625 
Q 45.3125 60.0625 41.71875 63.234375 
Q 38.140625 66.40625 31.78125 66.40625 
Q 25.390625 66.40625 21.84375 63.234375 
Q 18.3125 60.0625 18.3125 54.390625 
" id="DejaVuSans-38"/>
      </defs>
      <g transform="translate(24.9075 59.640835)scale(0.1 -0.1)">
       <use xlink:href="#DejaVuSans-38"/>
      </g>
     </g>
    </g>
    <g id="text_14">
     <!-- Energy -->
     <defs>
      <path d="M 9.8125 72.90625 
L 55.90625 72.90625 
L 55.90625 64.59375 
L 19.671875 64.59375 
L 19.671875 43.015625 
L 54.390625 43.015625 
L 54.390625 34.71875 
L 19.671875 34.71875 
L 19.671875 8.296875 
L 56.78125 8.296875 
L 56.78125 0 
L 9.8125 0 
z
" id="DejaVuSans-45"/>
      <path d="M 56.203125 29.59375 
L 56.203125 25.203125 
L 14.890625 25.203125 
Q 15.484375 15.921875 20.484375 11.0625 
Q 25.484375 6.203125 34.421875 6.203125 
Q 39.59375 6.203125 44.453125 7.46875 
Q 49.3125 8.734375 54.109375 11.28125 
L 54.109375 2.78125 
Q 49.265625 0.734375 44.1875 -0.34375 
Q 39.109375 -1.421875 33.890625 -1.421875 
Q 20.796875 -1.421875 13.15625 6.1875 
Q 5.515625 13.8125 5.515625 26.8125 
Q 5.515625 40.234375 12.765625 48.109375 
Q 20.015625 56 32.328125 56 
Q 43.359375 56 49.78125 48.890625 
Q 56.203125 41.796875 56.203125 29.59375 
M 47.21875 32.234375 
Q 47.125 39.59375 43.09375 43.984375 
Q 39.0625 48.390625 32.421875 48.390625 
Q 24.90625 48.390625 20.390625 44.140625 
Q 15.875 39.890625 15.1875 32.171875 
z
" id="DejaVuSans-65"/>
      <path d="M 41.109375 46.296875 
Q 39.59375 47.171875 37.8125 47.578125 
Q 36.03125 48 33.890625 48 
Q 26.265625 48 22.1875 43.046875 
Q 18.109375 38.09375 18.109375 28.8125 
L 18.109375 0 
L 9.078125 0 
L 9.078125 54.6875 
L 18.109375 54.6875 
L 18.109375 46.1875 
Q 20.953125 51.171875 25.484375 53.578125 
Q 30.03125 56 36.53125 56 
Q 37.453125 56 38.578125 55.875 
Q 39.703125 55.765625 41.0625 55.515625 
z
" id="DejaVuSans-72"/>
      <path d="M 45.40625 27.984375 
Q 45.40625 37.75 41.375 43.109375 
Q 37.359375 48.484375 30.078125 48.484375 
Q 22.859375 48.484375 18.828125 43.109375 
Q 14.796875 37.75 14.796875 27.984375 
Q 14.796875 18.265625 18.828125 12.890625 
Q 22.859375 7.515625 30.078125 7.515625 
Q 37.359375 7.515625 41.375 12.890625 
Q 45.40625 18.265625 45.40625 27.984375 
M 54.390625 6.78125 
Q 54.390625 -7.171875 48.1875 -13.984375 
Q 42 -20.796875 29.203125 -20.796875 
Q 24.46875 -20.796875 20.265625 -20.09375 
Q 16.0625 -19.390625 12.109375 -17.921875 
L 12.109375 -9.1875 
Q 16.0625 -11.328125 19.921875 -12.34375 
Q 23.78125 -13.375 27.78125 -13.375 
Q 36.625 -13.375 41.015625 -8.765625 
Q 45.40625 -4.15625 45.40625 5.171875 
L 45.40625 9.625 
Q 42.625 4.78125 38.28125 2.390625 
Q 33.9375 0 27.875 0 
Q 17.828125 0 11.671875 7.65625 
Q 5.515625 15.328125 5.515625 27.984375 
Q 5.515625 40.671875 11.671875 48.328125 
Q 17.828125 56 27.875 56 
Q 33.9375 56 38.28125 53.609375 
Q 42.625 51.21875 45.40625 46.390625 
L 45.40625 54.6875 
L 54.390625 54.6875 
z
" id="DejaVuSans-67"/>
      <path d="M 32.171875 -5.078125 
Q 28.375 -14.84375 24.75 -17.8125 
Q 21.140625 -20.796875 15.09375 -20.796875 
L 7.90625 -20.796875 
L 7.90625 -13.28125 
L 13.1875 -13.28125 
Q 16.890625 -13.28125 18.9375 -11.515625 
Q 21 -9.765625 23.484375 -3.21875 
L 25.09375 0.875 
L 2.984375 54.6875 
L 12.5 54.6875 
L 29.59375 11.921875 
L 46.6875 54.6875 
L 56.203125 54.6875 
z
" id="DejaVuSans-79"/>
     </defs>
     <g transform="translate(18.827813 176.072969)rotate(-90)scale(0.1 -0.1)">
      <use xlink:href="#DejaVuSans-45"/>
      <use x="63.183594" xlink:href="#DejaVuSans-6e"/>
      <use x="126.5625" xlink:href="#DejaVuSans-65"/>
      <use x="188.085938" xlink:href="#DejaVuSans-72"/>
      <use x="229.183594" xlink:href="#DejaVuSans-67"/>
      <use x="292.660156" xlink:href="#DejaVuSans-79"/>
     </g>
    </g>
   </g>
   <g id="line2d_13">
    <path clip-path="url(#p10f91039d2)" d="M 56.870455 26.516364 
L 64.348024 47.208262 
L 71.825594 67.055593 
L 77.433771 81.386844 
L 83.041948 95.243025 
L 88.650126 108.624138 
L 94.258303 121.530182 
L 99.86648 133.961156 
L 105.474657 145.917062 
L 111.082835 157.397898 
L 116.691012 168.403665 
L 122.299189 178.934364 
L 127.907366 188.989993 
L 133.515544 198.570553 
L 139.123721 207.676044 
L 144.731898 216.306465 
L 150.340075 224.461818 
L 155.948253 232.142102 
L 161.55643 239.347316 
L 167.164607 246.077462 
L 172.772784 252.332538 
L 178.380962 258.112545 
L 182.119746 261.701956 
L 185.858531 265.080225 
L 189.597316 268.247353 
L 193.336101 271.203338 
L 197.074886 273.948182 
L 200.813671 276.481884 
L 204.552455 278.804444 
L 208.29124 280.915862 
L 212.030025 282.816138 
L 215.76881 284.505273 
L 219.507595 285.983265 
L 223.24638 287.250116 
L 226.985164 288.305825 
L 230.723949 289.150393 
L 234.462734 289.783818 
L 238.201519 290.206102 
L 241.940304 290.417244 
L 245.679089 290.417244 
L 249.417873 290.206102 
L 253.156658 289.783818 
L 256.895443 289.150393 
L 260.634228 288.305825 
L 264.373013 287.250116 
L 268.111798 285.983265 
L 271.850582 284.505273 
L 275.589367 282.816138 
L 279.328152 280.915862 
L 283.066937 278.804444 
L 286.805722 276.481884 
L 290.544507 273.948182 
L 294.283291 271.203338 
L 298.022076 268.247353 
L 301.760861 265.080225 
L 305.499646 261.701956 
L 309.238431 258.112545 
L 312.977216 254.311993 
L 318.585393 248.215273 
L 324.19357 241.643484 
L 329.801747 234.596625 
L 335.409925 227.074698 
L 341.018102 219.077702 
L 346.626279 210.605636 
L 352.234456 201.658502 
L 357.842634 192.236298 
L 363.450811 182.339025 
L 369.058988 171.966684 
L 374.667165 161.119273 
L 380.275343 149.796793 
L 385.88352 137.999244 
L 391.491697 125.726625 
L 397.099874 112.978938 
L 402.708052 99.756182 
L 408.316229 86.058356 
L 413.924406 71.885462 
L 419.532583 57.237498 
L 425.140761 42.114465 
L 428.879545 31.768516 
L 428.879545 31.768516 
" style="fill:none;stroke:#1f77b4;stroke-linecap:square;stroke-width:1.5;"/>
   </g>
   <g id="line2d_14">
    <path clip-path="url(#p10f91039d2)" d="M 56.870455 269.707551 
L 154.07886 269.612825 
L 163.425822 269.405911 
L 170.903392 269.01236 
L 176.511569 268.474874 
L 180.250354 267.9471 
L 183.989139 267.24404 
L 187.727924 266.329699 
L 191.466709 265.169363 
L 195.205493 263.733347 
L 198.944278 262.001473 
L 202.683063 259.967921 
L 206.421848 257.645886 
L 210.160633 255.07137 
L 215.76881 250.876456 
L 223.24638 245.16888 
L 226.985164 242.538632 
L 230.723949 240.232848 
L 232.593342 239.241135 
L 234.462734 238.375976 
L 236.332127 237.649875 
L 238.201519 237.073517 
L 240.070911 236.655499 
L 241.940304 236.402122 
L 243.809696 236.317233 
L 245.679089 236.402122 
L 247.548481 236.655499 
L 249.417873 237.073517 
L 251.287266 237.649875 
L 253.156658 238.375976 
L 255.026051 239.241135 
L 258.764836 241.337087 
L 262.50362 243.821415 
L 268.111798 247.991271 
L 277.45876 255.07137 
L 281.197545 257.645886 
L 284.936329 259.967921 
L 288.675114 262.001473 
L 292.413899 263.733347 
L 296.152684 265.169363 
L 299.891469 266.329699 
L 303.630254 267.24404 
L 307.369038 267.9471 
L 311.107823 268.474874 
L 316.716 269.01236 
L 322.324178 269.333044 
L 331.67114 269.58691 
L 346.626279 269.692437 
L 408.316229 269.707551 
L 428.879545 269.707551 
L 428.879545 269.707551 
" style="fill:none;stroke:#ff7f0e;stroke-linecap:square;stroke-width:1.5;"/>
   </g>
   <g id="line2d_15">
    <path clip-path="url(#p10f91039d2)" d="M 56.870455 228.235382 
L 135.384936 228.126167 
L 144.731898 227.8608 
L 150.340075 227.503325 
L 155.948253 226.878597 
L 159.687037 226.248563 
L 163.425822 225.395868 
L 167.164607 224.27621 
L 170.903392 222.852049 
L 174.642177 221.100833 
L 178.380962 219.024612 
L 182.119746 216.659869 
L 187.727924 212.757888 
L 193.336101 208.860822 
L 197.074886 206.590272 
L 198.944278 205.637205 
L 200.813671 204.84342 
L 202.683063 204.235708 
L 204.552455 203.838378 
L 206.421848 203.672192 
L 208.29124 203.753333 
L 210.160633 204.092433 
L 212.030025 204.693737 
L 213.899418 205.554417 
L 215.76881 206.664117 
L 217.638202 208.004742 
L 219.507595 209.55053 
L 223.24638 213.118789 
L 232.593342 222.651433 
L 234.462734 224.247523 
L 236.332127 225.624005 
L 238.201519 226.740073 
L 240.070911 227.562287 
L 241.940304 228.065818 
L 243.809696 228.235382 
L 245.679089 228.065818 
L 247.548481 227.562287 
L 249.417873 226.740073 
L 251.287266 225.624005 
L 253.156658 224.247523 
L 255.026051 222.651433 
L 258.764836 218.991297 
L 266.242405 211.268432 
L 268.111798 209.55053 
L 269.98119 208.004742 
L 271.850582 206.664117 
L 273.719975 205.554417 
L 275.589367 204.693737 
L 277.45876 204.092433 
L 279.328152 203.753333 
L 281.197545 203.672192 
L 283.066937 203.838378 
L 284.936329 204.235708 
L 286.805722 204.84342 
L 288.675114 205.637205 
L 290.544507 206.590272 
L 294.283291 208.860822 
L 299.891469 212.757888 
L 305.499646 216.659869 
L 309.238431 219.024612 
L 312.977216 221.100833 
L 316.716 222.852049 
L 320.454785 224.27621 
L 324.19357 225.395868 
L 327.932355 226.248563 
L 331.67114 226.878597 
L 335.409925 227.330806 
L 341.018102 227.764314 
L 348.495672 228.053469 
L 359.712026 228.198607 
L 389.622305 228.235187 
L 428.879545 228.235381 
L 428.879545 228.235381 
" style="fill:none;stroke:#2ca02c;stroke-linecap:square;stroke-width:1.5;"/>
   </g>
   <g id="line2d_16">
    <path clip-path="url(#p10f91039d2)" d="M 56.870455 186.763213 
L 118.560404 186.676332 
L 127.907366 186.439197 
L 133.515544 186.101264 
L 137.254328 185.731206 
L 140.993113 185.196011 
L 144.731898 184.446232 
L 148.470683 183.430387 
L 152.209468 182.102069 
L 155.948253 180.430212 
L 159.687037 178.412005 
L 163.425822 176.086925 
L 176.511569 167.447569 
L 178.380962 166.513232 
L 180.250354 165.754825 
L 182.119746 165.205858 
L 183.989139 164.89663 
L 185.858531 164.852549 
L 187.727924 165.092445 
L 189.597316 165.626979 
L 191.466709 166.457252 
L 193.336101 167.573707 
L 195.205493 168.955435 
L 197.074886 170.569967 
L 200.813671 174.312495 
L 206.421848 180.284504 
L 208.29124 182.08705 
L 210.160633 183.675709 
L 212.030025 184.985859 
L 213.899418 185.962586 
L 215.76881 186.563849 
L 217.638202 186.763168 
L 219.507595 186.551632 
L 221.376987 185.939078 
L 223.24638 184.954323 
L 225.115772 183.644372 
L 226.985164 182.072613 
L 230.723949 178.461674 
L 234.462734 174.831501 
L 236.332127 173.239395 
L 238.201519 171.90725 
L 240.070911 170.903431 
L 241.940304 170.279634 
L 243.809696 170.068057 
L 245.679089 170.279634 
L 247.548481 170.903431 
L 249.417873 171.90725 
L 251.287266 173.239395 
L 253.156658 174.831501 
L 256.895443 178.461674 
L 260.634228 182.072613 
L 262.50362 183.644372 
L 264.373013 184.954323 
L 266.242405 185.939078 
L 268.111798 186.551632 
L 269.98119 186.763168 
L 271.850582 186.563849 
L 273.719975 185.962586 
L 275.589367 184.985859 
L 277.45876 183.675709 
L 279.328152 182.08705 
L 283.066937 178.338943 
L 288.675114 172.373629 
L 290.544507 170.569967 
L 292.413899 168.955435 
L 294.283291 167.573707 
L 296.152684 166.457252 
L 298.022076 165.626979 
L 299.891469 165.092445 
L 301.760861 164.852549 
L 303.630254 164.89663 
L 305.499646 165.205858 
L 307.369038 165.754825 
L 309.238431 166.513232 
L 311.107823 167.447569 
L 314.846608 169.703438 
L 327.932355 178.412005 
L 331.67114 180.430212 
L 335.409925 182.102069 
L 339.148709 183.430387 
L 342.887494 184.446232 
L 346.626279 185.196011 
L 350.365064 185.731206 
L 355.973241 186.23819 
L 361.581418 186.511073 
L 370.928381 186.697663 
L 389.622305 186.760395 
L 428.879545 186.763213 
L 428.879545 186.763213 
" style="fill:none;stroke:#d62728;stroke-linecap:square;stroke-width:1.5;"/>
   </g>
   <g id="line2d_17">
    <path clip-path="url(#p10f91039d2)" d="M 56.870455 145.291008 
L 105.474657 145.206201 
L 114.821619 144.959278 
L 120.429797 144.597223 
L 124.168582 144.194993 
L 127.907366 143.60809 
L 131.646151 142.781155 
L 135.384936 141.658495 
L 139.123721 140.19401 
L 142.862506 138.365198 
L 146.601291 136.190163 
L 150.340075 133.744953 
L 157.817645 128.708049 
L 159.687037 127.598207 
L 161.55643 126.623534 
L 163.425822 125.824273 
L 165.295215 125.239499 
L 167.164607 124.90507 
L 169.034 124.851428 
L 170.903392 125.101335 
L 172.772784 125.667696 
L 174.642177 126.551611 
L 176.511569 127.740836 
L 178.380962 129.208799 
L 180.250354 130.914325 
L 183.989139 134.804646 
L 187.727924 138.83458 
L 189.597316 140.689657 
L 191.466709 142.323231 
L 193.336101 143.656503 
L 195.205493 144.622644 
L 197.074886 145.171536 
L 198.944278 145.273854 
L 200.813671 144.92411 
L 202.683063 144.142379 
L 204.552455 142.974451 
L 206.421848 141.490281 
L 210.160633 137.952564 
L 213.899418 134.4092 
L 215.76881 132.926617 
L 217.638202 131.775134 
L 219.507595 131.034887 
L 221.376987 130.759615 
L 223.24638 130.972275 
L 225.115772 131.662727 
L 226.985164 132.787727 
L 228.854557 134.27333 
L 232.593342 137.907244 
L 236.332127 141.583766 
L 238.201519 143.116033 
L 240.070911 144.295025 
L 241.940304 145.037524 
L 243.809696 145.291008 
L 245.679089 145.037524 
L 247.548481 144.295025 
L 249.417873 143.116033 
L 251.287266 141.583766 
L 255.026051 137.907244 
L 258.764836 134.27333 
L 260.634228 132.787727 
L 262.50362 131.662727 
L 264.373013 130.972275 
L 266.242405 130.759615 
L 268.111798 131.034887 
L 269.98119 131.775134 
L 271.850582 132.926617 
L 273.719975 134.4092 
L 277.45876 137.952564 
L 281.197545 141.490281 
L 283.066937 142.974451 
L 284.936329 144.142379 
L 286.805722 144.92411 
L 288.675114 145.273854 
L 290.544507 145.171536 
L 292.413899 144.622644 
L 294.283291 143.656503 
L 296.152684 142.323231 
L 298.022076 140.689657 
L 301.760861 136.84371 
L 305.499646 132.802202 
L 307.369038 130.914325 
L 309.238431 129.208799 
L 311.107823 127.740836 
L 312.977216 126.551611 
L 314.846608 125.667696 
L 316.716 125.101335 
L 318.585393 124.851428 
L 320.454785 124.90507 
L 322.324178 125.239499 
L 324.19357 125.824273 
L 326.062963 126.623534 
L 327.932355 127.598207 
L 331.67114 129.913439 
L 341.018102 136.190163 
L 344.756887 138.365198 
L 348.495672 140.19401 
L 352.234456 141.658495 
L 355.973241 142.781155 
L 359.712026 143.60809 
L 363.450811 144.194993 
L 367.189596 144.597223 
L 372.797773 144.959278 
L 380.275343 145.178128 
L 393.36109 145.277684 
L 428.879545 145.291006 
L 428.879545 145.291006 
" style="fill:none;stroke:#9467bd;stroke-linecap:square;stroke-width:1.5;"/>
   </g>
   <g id="line2d_18">
    <path clip-path="url(#p10f91039d2)" d="M 56.870455 103.818987 
L 94.258303 103.730703 
L 101.735873 103.545383 
L 107.34405 103.225656 
L 111.082835 102.86048 
L 114.821619 102.316282 
L 118.560404 101.534642 
L 122.299189 100.455203 
L 126.037974 99.026423 
L 129.776759 97.221397 
L 133.515544 95.05768 
L 137.254328 92.617974 
L 142.862506 88.823057 
L 146.601291 86.593384 
L 148.470683 85.692664 
L 150.340075 84.993329 
L 152.209468 84.537178 
L 154.07886 84.36123 
L 155.948253 84.494967 
L 157.817645 84.95758 
L 159.687037 85.755402 
L 161.55643 86.879746 
L 163.425822 88.305392 
L 165.295215 89.989922 
L 169.034 93.883487 
L 172.772784 97.921875 
L 174.642177 99.757056 
L 176.511569 101.340833 
L 178.380962 102.586425 
L 180.250354 103.422621 
L 182.119746 103.799777 
L 183.989139 103.694813 
L 185.858531 103.1147 
L 187.727924 102.097985 
L 189.597316 100.714041 
L 191.466709 99.059867 
L 197.074886 93.728139 
L 198.944278 92.27788 
L 200.813671 91.196766 
L 202.683063 90.575029 
L 204.552455 90.468513 
L 206.421848 90.892859 
L 208.29124 91.820835 
L 210.160633 93.183211 
L 212.030025 94.873314 
L 217.638202 100.469138 
L 219.507595 101.989276 
L 221.376987 103.103948 
L 223.24638 103.716725 
L 225.115772 103.774157 
L 226.985164 103.27128 
L 228.854557 102.252801 
L 230.723949 100.809735 
L 234.462734 97.195543 
L 236.332127 95.35121 
L 238.201519 93.706323 
L 240.070911 92.410764 
L 241.940304 91.58281 
L 243.809696 91.298146 
L 245.679089 91.58281 
L 247.548481 92.410764 
L 249.417873 93.706323 
L 251.287266 95.35121 
L 256.895443 100.809735 
L 258.764836 102.252801 
L 260.634228 103.27128 
L 262.50362 103.774157 
L 264.373013 103.716725 
L 266.242405 103.103948 
L 268.111798 101.989276 
L 269.98119 100.469138 
L 273.719975 96.755034 
L 275.589367 94.873314 
L 277.45876 93.183211 
L 279.328152 91.820835 
L 281.197545 90.892859 
L 283.066937 90.468513 
L 284.936329 90.575029 
L 286.805722 91.196766 
L 288.675114 92.27788 
L 290.544507 93.728139 
L 294.283291 97.254485 
L 298.022076 100.714041 
L 299.891469 102.097985 
L 301.760861 103.1147 
L 303.630254 103.694813 
L 305.499646 103.799777 
L 307.369038 103.422621 
L 309.238431 102.586425 
L 311.107823 101.340833 
L 312.977216 99.757056 
L 316.716 95.931168 
L 320.454785 91.874109 
L 322.324178 89.989922 
L 324.19357 88.305392 
L 326.062963 86.879746 
L 327.932355 85.755402 
L 329.801747 84.95758 
L 331.67114 84.494967 
L 333.540532 84.36123 
L 335.409925 84.537178 
L 337.279317 84.993329 
L 339.148709 85.692664 
L 341.018102 86.593384 
L 344.756887 88.823057 
L 355.973241 96.18096 
L 359.712026 98.171135 
L 363.450811 99.786958 
L 367.189596 101.035737 
L 370.928381 101.95897 
L 374.667165 102.614274 
L 378.40595 103.062063 
L 384.014127 103.462291 
L 391.491697 103.70062 
L 404.577444 103.805854 
L 428.879545 103.818976 
L 428.879545 103.818976 
" style="fill:none;stroke:#8c564b;stroke-linecap:square;stroke-width:1.5;"/>
   </g>
   <g id="patch_3">
    <path d="M 38.27 303.64 
L 38.27 13.32 
" style="fill:none;stroke:#000000;stroke-linecap:square;stroke-linejoin:miter;stroke-width:0.8;"/>
   </g>
   <g id="patch_4">
    <path d="M 447.48 303.64 
L 447.48 13.32 
" style="fill:none;stroke:#000000;stroke-linecap:square;stroke-linejoin:miter;stroke-width:0.8;"/>
   </g>
   <g id="patch_5">
    <path d="M 38.27 303.64 
L 447.48 303.64 
" style="fill:none;stroke:#000000;stroke-linecap:square;stroke-linejoin:miter;stroke-width:0.8;"/>
   </g>
   <g id="patch_6">
    <path d="M 38.27 13.32 
L 447.48 13.32 
" style="fill:none;stroke:#000000;stroke-linecap:square;stroke-linejoin:miter;stroke-width:0.8;"/>
   </g>
  </g>
 </g>
 <defs>
  <clipPath id="p10f91039d2">
   <rect height="290.32" width="409.21" x="38.27" y="13.32"/>
  </clipPath>
 </defs>
</svg>
