<?xml version="1.0" encoding="utf-8" standalone="no"?>
<!DOCTYPE svg PUBLIC "-//W3C//DTD SVG 1.1//EN"
  "http://www.w3.org/Graphics/SVG/1.1/DTD/svg11.dtd">
<!-- Created with matplotlib (http://matplotlib.org/) -->
<svg height="345pt" version="1.1" viewBox="0 0 460 345" width="460pt" xmlns="http://www.w3.org/2000/svg" xmlns:xlink="http://www.w3.org/1999/xlink">
 <defs>
  <style type="text/css">
*{stroke-linecap:butt;stroke-linejoin:round;}
  </style>
 </defs>
 <g id="figure_1">
  <g id="patch_1">
   <path d="M 0 345.6 
L 460.8 345.6 
L 460.8 0 
L 0 0 
z
" style="fill:#ffffff;"/>
  </g>
  <g id="axes_1">
   <g id="patch_2">
    <path d="M 38.225 303.64 
L 448.74 303.64 
L 448.74 12.06 
L 38.225 12.06 
z
" style="fill:#ffffff;"/>
   </g>
   <g id="PolyCollection_1">
    <path clip-path="url(#p1160030c99)" d="M 56.884773 25.313636 
L 56.884773 290.386364 
L 58.760127 290.386364 
L 60.635481 290.386364 
L 62.510835 290.386364 
L 64.386189 290.386364 
L 66.261543 290.386364 
L 68.136897 290.386364 
L 70.012251 290.386364 
L 71.887605 290.386364 
L 73.762959 290.386364 
L 75.638313 290.386364 
L 77.513667 290.386364 
L 79.389021 290.386364 
L 81.264375 290.386364 
L 83.139729 290.386364 
L 85.015083 290.386364 
L 86.890437 290.386364 
L 88.765791 290.386364 
L 90.641146 290.386364 
L 92.5165 290.386364 
L 94.391854 290.386364 
L 96.267208 290.386364 
L 98.142562 290.386364 
L 100.017916 290.386364 
L 101.89327 290.386364 
L 103.768624 290.386364 
L 105.643978 290.386364 
L 107.519332 290.386364 
L 109.394686 290.386364 
L 111.27004 290.386364 
L 113.145394 290.386364 
L 115.020748 290.386364 
L 116.896102 290.386364 
L 118.771456 290.386364 
L 120.64681 290.386364 
L 122.522164 290.386364 
L 124.397518 290.386364 
L 126.272872 290.386364 
L 128.148226 290.386364 
L 130.02358 290.386364 
L 131.898934 290.386364 
L 133.774288 290.386364 
L 135.649643 290.386364 
L 137.524997 290.386364 
L 139.400351 290.386364 
L 141.275705 290.386364 
L 143.151059 290.386364 
L 145.026413 290.386364 
L 146.901767 290.386364 
L 148.777121 290.386364 
L 150.652475 290.386364 
L 152.527829 290.386364 
L 154.403183 290.386364 
L 156.278537 290.386364 
L 158.153891 290.386364 
L 160.029245 290.386364 
L 161.904599 290.386364 
L 163.779953 290.386364 
L 165.655307 290.386364 
L 167.530661 290.386364 
L 169.406015 290.386364 
L 171.281369 290.386364 
L 173.156723 290.386364 
L 175.032077 290.386364 
L 176.907431 290.386364 
L 178.782786 290.386364 
L 180.65814 290.386364 
L 182.533494 290.386364 
L 184.408848 290.386364 
L 186.284202 290.386364 
L 188.159556 290.386364 
L 190.03491 290.386364 
L 191.910264 290.386364 
L 193.785618 290.386364 
L 195.660972 290.386364 
L 197.536326 290.386364 
L 199.41168 290.386364 
L 201.287034 290.386364 
L 203.162388 290.386364 
L 205.037742 290.386364 
L 206.913096 290.386364 
L 208.78845 290.386364 
L 210.663804 290.386364 
L 212.539158 290.386364 
L 214.414512 290.386364 
L 216.289866 290.386364 
L 218.16522 290.386364 
L 220.040574 290.386364 
L 221.915929 290.386364 
L 223.791283 290.386364 
L 225.666637 290.386364 
L 227.541991 290.386364 
L 229.417345 290.386364 
L 231.292699 290.386364 
L 233.168053 290.386364 
L 235.043407 290.386364 
L 236.918761 290.386364 
L 238.794115 290.386364 
L 240.669469 290.386364 
L 242.544823 290.386364 
L 244.420177 290.386364 
L 246.295531 290.386364 
L 248.170885 290.386364 
L 250.046239 290.386364 
L 251.921593 290.386364 
L 253.796947 290.386364 
L 255.672301 290.386364 
L 257.547655 290.386364 
L 259.423009 290.386364 
L 261.298363 290.386364 
L 263.173717 290.386364 
L 265.049071 290.386364 
L 266.924426 290.386364 
L 268.79978 290.386364 
L 270.675134 290.386364 
L 272.550488 290.386364 
L 274.425842 290.386364 
L 276.301196 290.386364 
L 278.17655 290.386364 
L 280.051904 290.386364 
L 281.927258 290.386364 
L 283.802612 290.386364 
L 285.677966 290.386364 
L 287.55332 290.386364 
L 289.428674 290.386364 
L 291.304028 290.386364 
L 293.179382 290.386364 
L 295.054736 290.386364 
L 296.93009 290.386364 
L 298.805444 290.386364 
L 300.680798 290.386364 
L 302.556152 290.386364 
L 304.431506 290.386364 
L 306.30686 290.386364 
L 308.182214 290.386364 
L 310.057569 290.386364 
L 311.932923 290.386364 
L 313.808277 290.386364 
L 315.683631 290.386364 
L 317.558985 290.386364 
L 319.434339 290.386364 
L 321.309693 290.386364 
L 323.185047 290.386364 
L 325.060401 290.386364 
L 326.935755 290.386364 
L 328.811109 290.386364 
L 330.686463 290.386364 
L 332.561817 290.386364 
L 334.437171 290.386364 
L 336.312525 290.386364 
L 338.187879 290.386364 
L 340.063233 290.386364 
L 341.938587 290.386364 
L 343.813941 290.386364 
L 345.689295 290.386364 
L 347.564649 290.386364 
L 349.440003 290.386364 
L 351.315357 290.386364 
L 353.190712 290.386364 
L 355.066066 290.386364 
L 356.94142 290.386364 
L 358.816774 290.386364 
L 360.692128 290.386364 
L 362.567482 290.386364 
L 364.442836 290.386364 
L 366.31819 290.386364 
L 368.193544 290.386364 
L 370.068898 290.386364 
L 371.944252 290.386364 
L 373.819606 290.386364 
L 375.69496 290.386364 
L 377.570314 290.386364 
L 379.445668 290.386364 
L 381.321022 290.386364 
L 383.196376 290.386364 
L 385.07173 290.386364 
L 386.947084 290.386364 
L 388.822438 290.386364 
L 390.697792 290.386364 
L 392.573146 290.386364 
L 394.4485 290.386364 
L 396.323854 290.386364 
L 398.199209 290.386364 
L 400.074563 290.386364 
L 401.949917 290.386364 
L 403.825271 290.386364 
L 405.700625 290.386364 
L 407.575979 290.386364 
L 409.451333 290.386364 
L 411.326687 290.386364 
L 413.202041 290.386364 
L 415.077395 290.386364 
L 416.952749 290.386364 
L 418.828103 290.386364 
L 420.703457 290.386364 
L 422.578811 290.386364 
L 424.454165 290.386364 
L 426.329519 290.386364 
L 428.204873 290.386364 
L 430.080227 290.386364 
L 430.080227 30.588584 
L 430.080227 30.588584 
L 428.204873 35.810516 
L 426.329519 40.979435 
L 424.454165 46.095338 
L 422.578811 51.158227 
L 420.703457 56.168102 
L 418.828103 61.124962 
L 416.952749 66.028807 
L 415.077395 70.879638 
L 413.202041 75.677455 
L 411.326687 80.422256 
L 409.451333 85.114044 
L 407.575979 89.752816 
L 405.700625 94.338575 
L 403.825271 98.871318 
L 401.949917 103.351047 
L 400.074563 107.777762 
L 398.199209 112.151462 
L 396.323854 116.472147 
L 394.4485 120.739818 
L 392.573146 124.954475 
L 390.697792 129.116116 
L 388.822438 133.224744 
L 386.947084 137.280356 
L 385.07173 141.282955 
L 383.196376 145.232538 
L 381.321022 149.129107 
L 379.445668 152.972662 
L 377.570314 156.763202 
L 375.69496 160.500727 
L 373.819606 164.185238 
L 371.944252 167.816735 
L 370.068898 171.395216 
L 368.193544 174.920684 
L 366.31819 178.393136 
L 364.442836 181.812575 
L 362.567482 185.178998 
L 360.692128 188.492407 
L 358.816774 191.752802 
L 356.94142 194.960182 
L 355.066066 198.114547 
L 353.190712 201.215898 
L 351.315357 204.264235 
L 349.440003 207.259556 
L 347.564649 210.201864 
L 345.689295 213.091156 
L 343.813941 215.927435 
L 341.938587 218.710698 
L 340.063233 221.440947 
L 338.187879 224.118182 
L 336.312525 226.742402 
L 334.437171 229.313607 
L 332.561817 231.831798 
L 330.686463 234.296975 
L 328.811109 236.709136 
L 326.935755 239.068284 
L 325.060401 241.374416 
L 323.185047 243.627535 
L 321.309693 245.827638 
L 319.434339 247.974727 
L 317.558985 250.068802 
L 315.683631 252.109862 
L 313.808277 254.097907 
L 311.932923 256.032938 
L 310.057569 257.914955 
L 308.182214 259.743956 
L 306.30686 261.519944 
L 304.431506 263.242916 
L 302.556152 264.912875 
L 300.680798 266.529818 
L 298.805444 268.093747 
L 296.93009 269.604662 
L 295.054736 271.062562 
L 293.179382 272.467447 
L 291.304028 273.819318 
L 289.428674 275.118175 
L 287.55332 276.364016 
L 285.677966 277.556844 
L 283.802612 278.696656 
L 281.927258 279.783455 
L 280.051904 280.817238 
L 278.17655 281.798007 
L 276.301196 282.725762 
L 274.425842 283.600502 
L 272.550488 284.422227 
L 270.675134 285.190938 
L 268.79978 285.906635 
L 266.924426 286.569316 
L 265.049071 287.178984 
L 263.173717 287.735636 
L 261.298363 288.239275 
L 259.423009 288.689898 
L 257.547655 289.087507 
L 255.672301 289.432102 
L 253.796947 289.723682 
L 251.921593 289.962247 
L 250.046239 290.147798 
L 248.170885 290.280335 
L 246.295531 290.359856 
L 244.420177 290.386364 
L 242.544823 290.359856 
L 240.669469 290.280335 
L 238.794115 290.147798 
L 236.918761 289.962247 
L 235.043407 289.723682 
L 233.168053 289.432102 
L 231.292699 289.087507 
L 229.417345 288.689898 
L 227.541991 288.239275 
L 225.666637 287.735636 
L 223.791283 287.178984 
L 221.915929 286.569316 
L 220.040574 285.906635 
L 218.16522 285.190938 
L 216.289866 284.422227 
L 214.414512 283.600502 
L 212.539158 282.725762 
L 210.663804 281.798007 
L 208.78845 280.817238 
L 206.913096 279.783455 
L 205.037742 278.696656 
L 203.162388 277.556844 
L 201.287034 276.364016 
L 199.41168 275.118175 
L 197.536326 273.819318 
L 195.660972 272.467447 
L 193.785618 271.062562 
L 191.910264 269.604662 
L 190.03491 268.093747 
L 188.159556 266.529818 
L 186.284202 264.912875 
L 184.408848 263.242916 
L 182.533494 261.519944 
L 180.65814 259.743956 
L 178.782786 257.914955 
L 176.907431 256.032938 
L 175.032077 254.097907 
L 173.156723 252.109862 
L 171.281369 250.068802 
L 169.406015 247.974727 
L 167.530661 245.827638 
L 165.655307 243.627535 
L 163.779953 241.374416 
L 161.904599 239.068284 
L 160.029245 236.709136 
L 158.153891 234.296975 
L 156.278537 231.831798 
L 154.403183 229.313607 
L 152.527829 226.742402 
L 150.652475 224.118182 
L 148.777121 221.440947 
L 146.901767 218.710698 
L 145.026413 215.927435 
L 143.151059 213.091156 
L 141.275705 210.201864 
L 139.400351 207.259556 
L 137.524997 204.264235 
L 135.649643 201.215898 
L 133.774288 198.114547 
L 131.898934 194.960182 
L 130.02358 191.752802 
L 128.148226 188.492407 
L 126.272872 185.178998 
L 124.397518 181.812575 
L 122.522164 178.393136 
L 120.64681 174.920684 
L 118.771456 171.395216 
L 116.896102 167.816735 
L 115.020748 164.185238 
L 113.145394 160.500727 
L 111.27004 156.763202 
L 109.394686 152.972662 
L 107.519332 149.129107 
L 105.643978 145.232538 
L 103.768624 141.282955 
L 101.89327 137.280356 
L 100.017916 133.224744 
L 98.142562 129.116116 
L 96.267208 124.954475 
L 94.391854 120.739818 
L 92.5165 116.472147 
L 90.641146 112.151462 
L 88.765791 107.777762 
L 86.890437 103.351047 
L 85.015083 98.871318 
L 83.139729 94.338575 
L 81.264375 89.752816 
L 79.389021 85.114044 
L 77.513667 80.422256 
L 75.638313 75.677455 
L 73.762959 70.879638 
L 71.887605 66.028807 
L 70.012251 61.124962 
L 68.136897 56.168102 
L 66.261543 51.158227 
L 64.386189 46.095338 
L 62.510835 40.979435 
L 60.635481 35.810516 
L 58.760127 30.588584 
L 56.884773 25.313636 
z
" style="fill:#1f77b4;fill-opacity:0.5;"/>
   </g>
   <g id="matplotlib.axis_1">
    <g id="xtick_1">
     <g id="line2d_1">
      <defs>
       <path d="M 0 0 
L 0 3.5 
" id="mff90599bdb" style="stroke:#000000;stroke-width:0.8;"/>
      </defs>
      <g>
       <use style="stroke:#000000;stroke-width:0.8;" x="56.884773" xlink:href="#mff90599bdb" y="303.64"/>
      </g>
     </g>
     <g id="text_1">
      <!-- −3 -->
      <defs>
       <path d="M 10.59375 35.5 
L 73.1875 35.5 
L 73.1875 27.203125 
L 10.59375 27.203125 
z
" id="DejaVuSans-2212"/>
       <path d="M 40.578125 39.3125 
Q 47.65625 37.796875 51.625 33 
Q 55.609375 28.21875 55.609375 21.1875 
Q 55.609375 10.40625 48.1875 4.484375 
Q 40.765625 -1.421875 27.09375 -1.421875 
Q 22.515625 -1.421875 17.65625 -0.515625 
Q 12.796875 0.390625 7.625 2.203125 
L 7.625 11.71875 
Q 11.71875 9.328125 16.59375 8.109375 
Q 21.484375 6.890625 26.8125 6.890625 
Q 36.078125 6.890625 40.9375 10.546875 
Q 45.796875 14.203125 45.796875 21.1875 
Q 45.796875 27.640625 41.28125 31.265625 
Q 36.765625 34.90625 28.71875 34.90625 
L 20.21875 34.90625 
L 20.21875 43.015625 
L 29.109375 43.015625 
Q 36.375 43.015625 40.234375 45.921875 
Q 44.09375 48.828125 44.09375 54.296875 
Q 44.09375 59.90625 40.109375 62.90625 
Q 36.140625 65.921875 28.71875 65.921875 
Q 24.65625 65.921875 20.015625 65.03125 
Q 15.375 64.15625 9.8125 62.3125 
L 9.8125 71.09375 
Q 15.4375 72.65625 20.34375 73.4375 
Q 25.25 74.21875 29.59375 74.21875 
Q 40.828125 74.21875 47.359375 69.109375 
Q 53.90625 64.015625 53.90625 55.328125 
Q 53.90625 49.265625 50.4375 45.09375 
Q 46.96875 40.921875 40.578125 39.3125 
" id="DejaVuSans-33"/>
      </defs>
      <g transform="translate(49.513679 318.238437)scale(0.1 -0.1)">
       <use xlink:href="#DejaVuSans-2212"/>
       <use x="83.789062" xlink:href="#DejaVuSans-33"/>
      </g>
     </g>
    </g>
    <g id="xtick_2">
     <g id="line2d_2">
      <g>
       <use style="stroke:#000000;stroke-width:0.8;" x="119.396574" xlink:href="#mff90599bdb" y="303.64"/>
      </g>
     </g>
     <g id="text_2">
      <!-- −2 -->
      <defs>
       <path d="M 19.1875 8.296875 
L 53.609375 8.296875 
L 53.609375 0 
L 7.328125 0 
L 7.328125 8.296875 
Q 12.9375 14.109375 22.625 23.890625 
Q 32.328125 33.6875 34.8125 36.53125 
Q 39.546875 41.84375 41.421875 45.53125 
Q 43.3125 49.21875 43.3125 52.78125 
Q 43.3125 58.59375 39.234375 62.25 
Q 35.15625 65.921875 28.609375 65.921875 
Q 23.96875 65.921875 18.8125 64.3125 
Q 13.671875 62.703125 7.8125 59.421875 
L 7.8125 69.390625 
Q 13.765625 71.78125 18.9375 73 
Q 24.125 74.21875 28.421875 74.21875 
Q 39.75 74.21875 46.484375 68.546875 
Q 53.21875 62.890625 53.21875 53.421875 
Q 53.21875 48.921875 51.53125 44.890625 
Q 49.859375 40.875 45.40625 35.40625 
Q 44.1875 33.984375 37.640625 27.21875 
Q 31.109375 20.453125 19.1875 8.296875 
" id="DejaVuSans-32"/>
      </defs>
      <g transform="translate(112.02548 318.238437)scale(0.1 -0.1)">
       <use xlink:href="#DejaVuSans-2212"/>
       <use x="83.789062" xlink:href="#DejaVuSans-32"/>
      </g>
     </g>
    </g>
    <g id="xtick_3">
     <g id="line2d_3">
      <g>
       <use style="stroke:#000000;stroke-width:0.8;" x="181.908376" xlink:href="#mff90599bdb" y="303.64"/>
      </g>
     </g>
     <g id="text_3">
      <!-- −1 -->
      <defs>
       <path d="M 12.40625 8.296875 
L 28.515625 8.296875 
L 28.515625 63.921875 
L 10.984375 60.40625 
L 10.984375 69.390625 
L 28.421875 72.90625 
L 38.28125 72.90625 
L 38.28125 8.296875 
L 54.390625 8.296875 
L 54.390625 0 
L 12.40625 0 
z
" id="DejaVuSans-31"/>
      </defs>
      <g transform="translate(174.537282 318.238437)scale(0.1 -0.1)">
       <use xlink:href="#DejaVuSans-2212"/>
       <use x="83.789062" xlink:href="#DejaVuSans-31"/>
      </g>
     </g>
    </g>
    <g id="xtick_4">
     <g id="line2d_4">
      <g>
       <use style="stroke:#000000;stroke-width:0.8;" x="244.420177" xlink:href="#mff90599bdb" y="303.64"/>
      </g>
     </g>
     <g id="text_4">
      <!-- 0 -->
      <defs>
       <path d="M 31.78125 66.40625 
Q 24.171875 66.40625 20.328125 58.90625 
Q 16.5 51.421875 16.5 36.375 
Q 16.5 21.390625 20.328125 13.890625 
Q 24.171875 6.390625 31.78125 6.390625 
Q 39.453125 6.390625 43.28125 13.890625 
Q 47.125 21.390625 47.125 36.375 
Q 47.125 51.421875 43.28125 58.90625 
Q 39.453125 66.40625 31.78125 66.40625 
M 31.78125 74.21875 
Q 44.046875 74.21875 50.515625 64.515625 
Q 56.984375 54.828125 56.984375 36.375 
Q 56.984375 17.96875 50.515625 8.265625 
Q 44.046875 -1.421875 31.78125 -1.421875 
Q 19.53125 -1.421875 13.0625 8.265625 
Q 6.59375 17.96875 6.59375 36.375 
Q 6.59375 54.828125 13.0625 64.515625 
Q 19.53125 74.21875 31.78125 74.21875 
" id="DejaVuSans-30"/>
      </defs>
      <g transform="translate(241.238927 318.238437)scale(0.1 -0.1)">
       <use xlink:href="#DejaVuSans-30"/>
      </g>
     </g>
    </g>
    <g id="xtick_5">
     <g id="line2d_5">
      <g>
       <use style="stroke:#000000;stroke-width:0.8;" x="306.931978" xlink:href="#mff90599bdb" y="303.64"/>
      </g>
     </g>
     <g id="text_5">
      <!-- 1 -->
      <g transform="translate(303.750728 318.238437)scale(0.1 -0.1)">
       <use xlink:href="#DejaVuSans-31"/>
      </g>
     </g>
    </g>
    <g id="xtick_6">
     <g id="line2d_6">
      <g>
       <use style="stroke:#000000;stroke-width:0.8;" x="369.44378" xlink:href="#mff90599bdb" y="303.64"/>
      </g>
     </g>
     <g id="text_6">
      <!-- 2 -->
      <g transform="translate(366.26253 318.238437)scale(0.1 -0.1)">
       <use xlink:href="#DejaVuSans-32"/>
      </g>
     </g>
    </g>
    <g id="xtick_7">
     <g id="line2d_7">
      <g>
       <use style="stroke:#000000;stroke-width:0.8;" x="431.955581" xlink:href="#mff90599bdb" y="303.64"/>
      </g>
     </g>
     <g id="text_7">
      <!-- 3 -->
      <g transform="translate(428.774331 318.238437)scale(0.1 -0.1)">
       <use xlink:href="#DejaVuSans-33"/>
      </g>
     </g>
    </g>
    <g id="text_8">
     <!-- Position -->
     <defs>
      <path d="M 19.671875 64.796875 
L 19.671875 37.40625 
L 32.078125 37.40625 
Q 38.96875 37.40625 42.71875 40.96875 
Q 46.484375 44.53125 46.484375 51.125 
Q 46.484375 57.671875 42.71875 61.234375 
Q 38.96875 64.796875 32.078125 64.796875 
z
M 9.8125 72.90625 
L 32.078125 72.90625 
Q 44.34375 72.90625 50.609375 67.359375 
Q 56.890625 61.8125 56.890625 51.125 
Q 56.890625 40.328125 50.609375 34.8125 
Q 44.34375 29.296875 32.078125 29.296875 
L 19.671875 29.296875 
L 19.671875 0 
L 9.8125 0 
z
" id="DejaVuSans-50"/>
      <path d="M 30.609375 48.390625 
Q 23.390625 48.390625 19.1875 42.75 
Q 14.984375 37.109375 14.984375 27.296875 
Q 14.984375 17.484375 19.15625 11.84375 
Q 23.34375 6.203125 30.609375 6.203125 
Q 37.796875 6.203125 41.984375 11.859375 
Q 46.1875 17.53125 46.1875 27.296875 
Q 46.1875 37.015625 41.984375 42.703125 
Q 37.796875 48.390625 30.609375 48.390625 
M 30.609375 56 
Q 42.328125 56 49.015625 48.375 
Q 55.71875 40.765625 55.71875 27.296875 
Q 55.71875 13.875 49.015625 6.21875 
Q 42.328125 -1.421875 30.609375 -1.421875 
Q 18.84375 -1.421875 12.171875 6.21875 
Q 5.515625 13.875 5.515625 27.296875 
Q 5.515625 40.765625 12.171875 48.375 
Q 18.84375 56 30.609375 56 
" id="DejaVuSans-6f"/>
      <path d="M 44.28125 53.078125 
L 44.28125 44.578125 
Q 40.484375 46.53125 36.375 47.5 
Q 32.28125 48.484375 27.875 48.484375 
Q 21.1875 48.484375 17.84375 46.4375 
Q 14.5 44.390625 14.5 40.28125 
Q 14.5 37.15625 16.890625 35.375 
Q 19.28125 33.59375 26.515625 31.984375 
L 29.59375 31.296875 
Q 39.15625 29.25 43.1875 25.515625 
Q 47.21875 21.78125 47.21875 15.09375 
Q 47.21875 7.46875 41.1875 3.015625 
Q 35.15625 -1.421875 24.609375 -1.421875 
Q 20.21875 -1.421875 15.453125 -0.5625 
Q 10.6875 0.296875 5.421875 2 
L 5.421875 11.28125 
Q 10.40625 8.6875 15.234375 7.390625 
Q 20.0625 6.109375 24.8125 6.109375 
Q 31.15625 6.109375 34.5625 8.28125 
Q 37.984375 10.453125 37.984375 14.40625 
Q 37.984375 18.0625 35.515625 20.015625 
Q 33.0625 21.96875 24.703125 23.78125 
L 21.578125 24.515625 
Q 13.234375 26.265625 9.515625 29.90625 
Q 5.8125 33.546875 5.8125 39.890625 
Q 5.8125 47.609375 11.28125 51.796875 
Q 16.75 56 26.8125 56 
Q 31.78125 56 36.171875 55.265625 
Q 40.578125 54.546875 44.28125 53.078125 
" id="DejaVuSans-73"/>
      <path d="M 9.421875 54.6875 
L 18.40625 54.6875 
L 18.40625 0 
L 9.421875 0 
z
M 9.421875 75.984375 
L 18.40625 75.984375 
L 18.40625 64.59375 
L 9.421875 64.59375 
z
" id="DejaVuSans-69"/>
      <path d="M 18.3125 70.21875 
L 18.3125 54.6875 
L 36.8125 54.6875 
L 36.8125 47.703125 
L 18.3125 47.703125 
L 18.3125 18.015625 
Q 18.3125 11.328125 20.140625 9.421875 
Q 21.96875 7.515625 27.59375 7.515625 
L 36.8125 7.515625 
L 36.8125 0 
L 27.59375 0 
Q 17.1875 0 13.234375 3.875 
Q 9.28125 7.765625 9.28125 18.015625 
L 9.28125 47.703125 
L 2.6875 47.703125 
L 2.6875 54.6875 
L 9.28125 54.6875 
L 9.28125 70.21875 
z
" id="DejaVuSans-74"/>
      <path d="M 54.890625 33.015625 
L 54.890625 0 
L 45.90625 0 
L 45.90625 32.71875 
Q 45.90625 40.484375 42.875 44.328125 
Q 39.84375 48.1875 33.796875 48.1875 
Q 26.515625 48.1875 22.3125 43.546875 
Q 18.109375 38.921875 18.109375 30.90625 
L 18.109375 0 
L 9.078125 0 
L 9.078125 54.6875 
L 18.109375 54.6875 
L 18.109375 46.1875 
Q 21.34375 51.125 25.703125 53.5625 
Q 30.078125 56 35.796875 56 
Q 45.21875 56 50.046875 50.171875 
Q 54.890625 44.34375 54.890625 33.015625 
" id="DejaVuSans-6e"/>
     </defs>
     <g transform="translate(223.839531 331.916562)scale(0.1 -0.1)">
      <use xlink:href="#DejaVuSans-50"/>
      <use x="60.255859" xlink:href="#DejaVuSans-6f"/>
      <use x="121.4375" xlink:href="#DejaVuSans-73"/>
      <use x="173.537109" xlink:href="#DejaVuSans-69"/>
      <use x="201.320312" xlink:href="#DejaVuSans-74"/>
      <use x="240.529297" xlink:href="#DejaVuSans-69"/>
      <use x="268.3125" xlink:href="#DejaVuSans-6f"/>
      <use x="329.494141" xlink:href="#DejaVuSans-6e"/>
     </g>
    </g>
   </g>
   <g id="matplotlib.axis_2">
    <g id="ytick_1">
     <g id="line2d_8">
      <defs>
       <path d="M 0 0 
L -3.5 0 
" id="m8a997ec421" style="stroke:#000000;stroke-width:0.8;"/>
      </defs>
      <g>
       <use style="stroke:#000000;stroke-width:0.8;" x="38.225" xlink:href="#m8a997ec421" y="290.386364"/>
      </g>
     </g>
     <g id="text_9">
      <!-- 0 -->
      <g transform="translate(24.8625 294.185582)scale(0.1 -0.1)">
       <use xlink:href="#DejaVuSans-30"/>
      </g>
     </g>
    </g>
    <g id="ytick_2">
     <g id="line2d_9">
      <g>
       <use style="stroke:#000000;stroke-width:0.8;" x="38.225" xlink:href="#m8a997ec421" y="231.481313"/>
      </g>
     </g>
     <g id="text_10">
      <!-- 2 -->
      <g transform="translate(24.8625 235.280532)scale(0.1 -0.1)">
       <use xlink:href="#DejaVuSans-32"/>
      </g>
     </g>
    </g>
    <g id="ytick_3">
     <g id="line2d_10">
      <g>
       <use style="stroke:#000000;stroke-width:0.8;" x="38.225" xlink:href="#m8a997ec421" y="172.576263"/>
      </g>
     </g>
     <g id="text_11">
      <!-- 4 -->
      <defs>
       <path d="M 37.796875 64.3125 
L 12.890625 25.390625 
L 37.796875 25.390625 
z
M 35.203125 72.90625 
L 47.609375 72.90625 
L 47.609375 25.390625 
L 58.015625 25.390625 
L 58.015625 17.1875 
L 47.609375 17.1875 
L 47.609375 0 
L 37.796875 0 
L 37.796875 17.1875 
L 4.890625 17.1875 
L 4.890625 26.703125 
z
" id="DejaVuSans-34"/>
      </defs>
      <g transform="translate(24.8625 176.375481)scale(0.1 -0.1)">
       <use xlink:href="#DejaVuSans-34"/>
      </g>
     </g>
    </g>
    <g id="ytick_4">
     <g id="line2d_11">
      <g>
       <use style="stroke:#000000;stroke-width:0.8;" x="38.225" xlink:href="#m8a997ec421" y="113.671212"/>
      </g>
     </g>
     <g id="text_12">
      <!-- 6 -->
      <defs>
       <path d="M 33.015625 40.375 
Q 26.375 40.375 22.484375 35.828125 
Q 18.609375 31.296875 18.609375 23.390625 
Q 18.609375 15.53125 22.484375 10.953125 
Q 26.375 6.390625 33.015625 6.390625 
Q 39.65625 6.390625 43.53125 10.953125 
Q 47.40625 15.53125 47.40625 23.390625 
Q 47.40625 31.296875 43.53125 35.828125 
Q 39.65625 40.375 33.015625 40.375 
M 52.59375 71.296875 
L 52.59375 62.3125 
Q 48.875 64.0625 45.09375 64.984375 
Q 41.3125 65.921875 37.59375 65.921875 
Q 27.828125 65.921875 22.671875 59.328125 
Q 17.53125 52.734375 16.796875 39.40625 
Q 19.671875 43.65625 24.015625 45.921875 
Q 28.375 48.1875 33.59375 48.1875 
Q 44.578125 48.1875 50.953125 41.515625 
Q 57.328125 34.859375 57.328125 23.390625 
Q 57.328125 12.15625 50.6875 5.359375 
Q 44.046875 -1.421875 33.015625 -1.421875 
Q 20.359375 -1.421875 13.671875 8.265625 
Q 6.984375 17.96875 6.984375 36.375 
Q 6.984375 53.65625 15.1875 63.9375 
Q 23.390625 74.21875 37.203125 74.21875 
Q 40.921875 74.21875 44.703125 73.484375 
Q 48.484375 72.75 52.59375 71.296875 
" id="DejaVuSans-36"/>
      </defs>
      <g transform="translate(24.8625 117.470431)scale(0.1 -0.1)">
       <use xlink:href="#DejaVuSans-36"/>
      </g>
     </g>
    </g>
    <g id="ytick_5">
     <g id="line2d_12">
      <g>
       <use style="stroke:#000000;stroke-width:0.8;" x="38.225" xlink:href="#m8a997ec421" y="54.766162"/>
      </g>
     </g>
     <g id="text_13">
      <!-- 8 -->
      <defs>
       <path d="M 31.78125 34.625 
Q 24.75 34.625 20.71875 30.859375 
Q 16.703125 27.09375 16.703125 20.515625 
Q 16.703125 13.921875 20.71875 10.15625 
Q 24.75 6.390625 31.78125 6.390625 
Q 38.8125 6.390625 42.859375 10.171875 
Q 46.921875 13.96875 46.921875 20.515625 
Q 46.921875 27.09375 42.890625 30.859375 
Q 38.875 34.625 31.78125 34.625 
M 21.921875 38.8125 
Q 15.578125 40.375 12.03125 44.71875 
Q 8.5 49.078125 8.5 55.328125 
Q 8.5 64.0625 14.71875 69.140625 
Q 20.953125 74.21875 31.78125 74.21875 
Q 42.671875 74.21875 48.875 69.140625 
Q 55.078125 64.0625 55.078125 55.328125 
Q 55.078125 49.078125 51.53125 44.71875 
Q 48 40.375 41.703125 38.8125 
Q 48.828125 37.15625 52.796875 32.3125 
Q 56.78125 27.484375 56.78125 20.515625 
Q 56.78125 9.90625 50.3125 4.234375 
Q 43.84375 -1.421875 31.78125 -1.421875 
Q 19.734375 -1.421875 13.25 4.234375 
Q 6.78125 9.90625 6.78125 20.515625 
Q 6.78125 27.484375 10.78125 32.3125 
Q 14.796875 37.15625 21.921875 38.8125 
M 18.3125 54.390625 
Q 18.3125 48.734375 21.84375 45.5625 
Q 25.390625 42.390625 31.78125 42.390625 
Q 38.140625 42.390625 41.71875 45.5625 
Q 45.3125 48.734375 45.3125 54.390625 
Q 45.3125 60.0625 41.71875 63.234375 
Q 38.140625 66.40625 31.78125 66.40625 
Q 25.390625 66.40625 21.84375 63.234375 
Q 18.3125 60.0625 18.3125 54.390625 
" id="DejaVuSans-38"/>
      </defs>
      <g transform="translate(24.8625 58.56538)scale(0.1 -0.1)">
       <use xlink:href="#DejaVuSans-38"/>
      </g>
     </g>
    </g>
    <g id="text_14">
     <!-- Energy -->
     <defs>
      <path d="M 9.8125 72.90625 
L 55.90625 72.90625 
L 55.90625 64.59375 
L 19.671875 64.59375 
L 19.671875 43.015625 
L 54.390625 43.015625 
L 54.390625 34.71875 
L 19.671875 34.71875 
L 19.671875 8.296875 
L 56.78125 8.296875 
L 56.78125 0 
L 9.8125 0 
z
" id="DejaVuSans-45"/>
      <path d="M 56.203125 29.59375 
L 56.203125 25.203125 
L 14.890625 25.203125 
Q 15.484375 15.921875 20.484375 11.0625 
Q 25.484375 6.203125 34.421875 6.203125 
Q 39.59375 6.203125 44.453125 7.46875 
Q 49.3125 8.734375 54.109375 11.28125 
L 54.109375 2.78125 
Q 49.265625 0.734375 44.1875 -0.34375 
Q 39.109375 -1.421875 33.890625 -1.421875 
Q 20.796875 -1.421875 13.15625 6.1875 
Q 5.515625 13.8125 5.515625 26.8125 
Q 5.515625 40.234375 12.765625 48.109375 
Q 20.015625 56 32.328125 56 
Q 43.359375 56 49.78125 48.890625 
Q 56.203125 41.796875 56.203125 29.59375 
M 47.21875 32.234375 
Q 47.125 39.59375 43.09375 43.984375 
Q 39.0625 48.390625 32.421875 48.390625 
Q 24.90625 48.390625 20.390625 44.140625 
Q 15.875 39.890625 15.1875 32.171875 
z
" id="DejaVuSans-65"/>
      <path d="M 41.109375 46.296875 
Q 39.59375 47.171875 37.8125 47.578125 
Q 36.03125 48 33.890625 48 
Q 26.265625 48 22.1875 43.046875 
Q 18.109375 38.09375 18.109375 28.8125 
L 18.109375 0 
L 9.078125 0 
L 9.078125 54.6875 
L 18.109375 54.6875 
L 18.109375 46.1875 
Q 20.953125 51.171875 25.484375 53.578125 
Q 30.03125 56 36.53125 56 
Q 37.453125 56 38.578125 55.875 
Q 39.703125 55.765625 41.0625 55.515625 
z
" id="DejaVuSans-72"/>
      <path d="M 45.40625 27.984375 
Q 45.40625 37.75 41.375 43.109375 
Q 37.359375 48.484375 30.078125 48.484375 
Q 22.859375 48.484375 18.828125 43.109375 
Q 14.796875 37.75 14.796875 27.984375 
Q 14.796875 18.265625 18.828125 12.890625 
Q 22.859375 7.515625 30.078125 7.515625 
Q 37.359375 7.515625 41.375 12.890625 
Q 45.40625 18.265625 45.40625 27.984375 
M 54.390625 6.78125 
Q 54.390625 -7.171875 48.1875 -13.984375 
Q 42 -20.796875 29.203125 -20.796875 
Q 24.46875 -20.796875 20.265625 -20.09375 
Q 16.0625 -19.390625 12.109375 -17.921875 
L 12.109375 -9.1875 
Q 16.0625 -11.328125 19.921875 -12.34375 
Q 23.78125 -13.375 27.78125 -13.375 
Q 36.625 -13.375 41.015625 -8.765625 
Q 45.40625 -4.15625 45.40625 5.171875 
L 45.40625 9.625 
Q 42.625 4.78125 38.28125 2.390625 
Q 33.9375 0 27.875 0 
Q 17.828125 0 11.671875 7.65625 
Q 5.515625 15.328125 5.515625 27.984375 
Q 5.515625 40.671875 11.671875 48.328125 
Q 17.828125 56 27.875 56 
Q 33.9375 56 38.28125 53.609375 
Q 42.625 51.21875 45.40625 46.390625 
L 45.40625 54.6875 
L 54.390625 54.6875 
z
" id="DejaVuSans-67"/>
      <path d="M 32.171875 -5.078125 
Q 28.375 -14.84375 24.75 -17.8125 
Q 21.140625 -20.796875 15.09375 -20.796875 
L 7.90625 -20.796875 
L 7.90625 -13.28125 
L 13.1875 -13.28125 
Q 16.890625 -13.28125 18.9375 -11.515625 
Q 21 -9.765625 23.484375 -3.21875 
L 25.09375 0.875 
L 2.984375 54.6875 
L 12.5 54.6875 
L 29.59375 11.921875 
L 46.6875 54.6875 
L 56.203125 54.6875 
z
" id="DejaVuSans-79"/>
     </defs>
     <g transform="translate(18.782813 175.442969)rotate(-90)scale(0.1 -0.1)">
      <use xlink:href="#DejaVuSans-45"/>
      <use x="63.183594" xlink:href="#DejaVuSans-6e"/>
      <use x="126.5625" xlink:href="#DejaVuSans-65"/>
      <use x="188.085938" xlink:href="#DejaVuSans-72"/>
      <use x="229.183594" xlink:href="#DejaVuSans-67"/>
      <use x="292.660156" xlink:href="#DejaVuSans-79"/>
     </g>
    </g>
   </g>
   <g id="line2d_13">
    <path clip-path="url(#p1160030c99)" d="M 56.884773 25.313636 
L 64.386189 46.095338 
L 71.887605 66.028807 
L 77.513667 80.422256 
L 83.139729 94.338575 
L 88.765791 107.777762 
L 94.391854 120.739818 
L 100.017916 133.224744 
L 105.643978 145.232538 
L 111.27004 156.763202 
L 116.896102 167.816735 
L 122.522164 178.393136 
L 128.148226 188.492407 
L 133.774288 198.114547 
L 139.400351 207.259556 
L 145.026413 215.927435 
L 150.652475 224.118182 
L 156.278537 231.831798 
L 161.904599 239.068284 
L 167.530661 245.827638 
L 173.156723 252.109862 
L 178.782786 257.914955 
L 182.533494 261.519944 
L 186.284202 264.912875 
L 190.03491 268.093747 
L 193.785618 271.062562 
L 197.536326 273.819318 
L 201.287034 276.364016 
L 205.037742 278.696656 
L 208.78845 280.817238 
L 212.539158 282.725762 
L 216.289866 284.422227 
L 220.040574 285.906635 
L 223.791283 287.178984 
L 227.541991 288.239275 
L 231.292699 289.087507 
L 235.043407 289.723682 
L 238.794115 290.147798 
L 242.544823 290.359856 
L 246.295531 290.359856 
L 250.046239 290.147798 
L 253.796947 289.723682 
L 257.547655 289.087507 
L 261.298363 288.239275 
L 265.049071 287.178984 
L 268.79978 285.906635 
L 272.550488 284.422227 
L 276.301196 282.725762 
L 280.051904 280.817238 
L 283.802612 278.696656 
L 287.55332 276.364016 
L 291.304028 273.819318 
L 295.054736 271.062562 
L 298.805444 268.093747 
L 302.556152 264.912875 
L 306.30686 261.519944 
L 310.057569 257.914955 
L 313.808277 254.097907 
L 319.434339 247.974727 
L 325.060401 241.374416 
L 330.686463 234.296975 
L 336.312525 226.742402 
L 341.938587 218.710698 
L 347.564649 210.201864 
L 353.190712 201.215898 
L 358.816774 191.752802 
L 364.442836 181.812575 
L 370.068898 171.395216 
L 375.69496 160.500727 
L 381.321022 149.129107 
L 386.947084 137.280356 
L 392.573146 124.954475 
L 398.199209 112.151462 
L 403.825271 98.871318 
L 409.451333 85.114044 
L 415.077395 70.879638 
L 420.703457 56.168102 
L 426.329519 40.979435 
L 430.080227 30.588584 
L 430.080227 30.588584 
" style="fill:none;stroke:#1f77b4;stroke-linecap:square;stroke-width:1.5;"/>
   </g>
   <g id="line2d_14">
    <path clip-path="url(#p1160030c99)" d="M 56.884773 269.560283 
L 154.403183 269.465146 
L 163.779953 269.257334 
L 171.281369 268.862075 
L 176.907431 268.322256 
L 180.65814 267.792191 
L 184.408848 267.086081 
L 188.159556 266.167771 
L 191.910264 265.002399 
L 195.660972 263.560151 
L 199.41168 261.820761 
L 203.162388 259.778383 
L 206.913096 257.44627 
L 210.663804 254.86058 
L 216.289866 250.64746 
L 223.791283 244.915113 
L 227.541991 242.273449 
L 231.292699 239.957659 
L 233.168053 238.961642 
L 235.043407 238.092727 
L 236.918761 237.363476 
L 238.794115 236.784616 
L 240.669469 236.364784 
L 242.544823 236.110307 
L 244.420177 236.025049 
L 246.295531 236.110307 
L 248.170885 236.364784 
L 250.046239 236.784616 
L 251.921593 237.363476 
L 253.796947 238.092727 
L 255.672301 238.961642 
L 259.423009 241.06669 
L 263.173717 243.5618 
L 268.79978 247.749753 
L 278.17655 254.86058 
L 281.927258 257.44627 
L 285.677966 259.778383 
L 289.428674 261.820761 
L 293.179382 263.560151 
L 296.93009 265.002399 
L 300.680798 266.167771 
L 304.431506 267.086081 
L 308.182214 267.792191 
L 311.932923 268.322256 
L 317.558985 268.862075 
L 323.185047 269.184151 
L 332.561817 269.439118 
L 347.564649 269.545104 
L 409.451333 269.560283 
L 430.080227 269.560283 
L 430.080227 269.560283 
" style="fill:none;stroke:#ff7f0e;stroke-linecap:square;stroke-width:1.5;"/>
   </g>
   <g id="line2d_15">
    <path clip-path="url(#p1160030c99)" d="M 56.884773 227.908123 
L 135.649643 227.798434 
L 145.026413 227.531915 
L 150.652475 227.172888 
L 156.278537 226.54545 
L 160.029245 225.912681 
L 163.779953 225.056285 
L 167.530661 223.931768 
L 171.281369 222.501426 
L 175.032077 220.74261 
L 178.782786 218.657378 
L 182.533494 216.282372 
L 188.159556 212.363456 
L 193.785618 208.449476 
L 197.536326 206.169072 
L 199.41168 205.211869 
L 201.287034 204.414639 
L 203.162388 203.80429 
L 205.037742 203.405235 
L 206.913096 203.238328 
L 208.78845 203.319821 
L 210.663804 203.660393 
L 212.539158 204.264306 
L 214.414512 205.128722 
L 216.289866 206.243238 
L 218.16522 207.589681 
L 220.040574 209.142178 
L 223.791283 212.725923 
L 233.168053 222.29994 
L 235.043407 223.902957 
L 236.918761 225.285412 
L 238.794115 226.406324 
L 240.669469 227.232107 
L 242.544823 227.737823 
L 244.420177 227.908123 
L 246.295531 227.737823 
L 248.170885 227.232107 
L 250.046239 226.406324 
L 251.921593 225.285412 
L 253.796947 223.902957 
L 255.672301 222.29994 
L 259.423009 218.623918 
L 266.924426 210.867536 
L 268.79978 209.142178 
L 270.675134 207.589681 
L 272.550488 206.243238 
L 274.425842 205.128722 
L 276.301196 204.264306 
L 278.17655 203.660393 
L 280.051904 203.319821 
L 281.927258 203.238328 
L 283.802612 203.405235 
L 285.677966 203.80429 
L 287.55332 204.414639 
L 289.428674 205.211869 
L 291.304028 206.169072 
L 295.054736 208.449476 
L 300.680798 212.363456 
L 306.30686 216.282372 
L 310.057569 218.657378 
L 313.808277 220.74261 
L 317.558985 222.501426 
L 321.309693 223.931768 
L 325.060401 225.056285 
L 328.811109 225.912681 
L 332.561817 226.54545 
L 336.312525 226.999621 
L 341.938587 227.435011 
L 349.440003 227.725421 
L 360.692128 227.871188 
L 390.697792 227.907927 
L 430.080227 227.908123 
L 430.080227 227.908123 
" style="fill:none;stroke:#2ca02c;stroke-linecap:square;stroke-width:1.5;"/>
   </g>
   <g id="line2d_16">
    <path clip-path="url(#p1160030c99)" d="M 56.884773 186.255963 
L 118.771456 186.168705 
L 128.148226 185.930541 
L 133.774288 185.591141 
L 137.524997 185.219477 
L 141.275705 184.68196 
L 145.026413 183.928927 
L 148.777121 182.908673 
L 152.527829 181.57459 
L 156.278537 179.895477 
L 160.029245 177.86851 
L 163.779953 175.53334 
L 176.907431 166.856488 
L 178.782786 165.918096 
L 180.65814 165.156398 
L 182.533494 164.605048 
L 184.408848 164.294479 
L 186.284202 164.250207 
L 188.159556 164.491143 
L 190.03491 165.027997 
L 191.910264 165.861874 
L 193.785618 166.983174 
L 195.660972 168.370899 
L 197.536326 169.992438 
L 201.287034 173.751209 
L 206.913096 179.749136 
L 208.78845 181.559506 
L 210.663804 183.155059 
L 212.539158 184.470895 
L 214.414512 185.451861 
L 216.289866 186.055734 
L 218.16522 186.255918 
L 220.040574 186.043464 
L 221.915929 185.428252 
L 223.791283 184.439223 
L 225.666637 183.123586 
L 227.541991 181.545005 
L 231.292699 177.918396 
L 235.043407 174.272467 
L 236.918761 172.673452 
L 238.794115 171.335525 
L 240.669469 170.327349 
L 242.544823 169.700845 
L 244.420177 169.48835 
L 246.295531 169.700845 
L 248.170885 170.327349 
L 250.046239 171.335525 
L 251.921593 172.673452 
L 253.796947 174.272467 
L 257.547655 177.918396 
L 261.298363 181.545005 
L 263.173717 183.123586 
L 265.049071 184.439223 
L 266.924426 185.428252 
L 268.79978 186.043464 
L 270.675134 186.255918 
L 272.550488 186.055734 
L 274.425842 185.451861 
L 276.301196 184.470895 
L 278.17655 183.155059 
L 280.051904 181.559506 
L 283.802612 177.795132 
L 289.428674 171.803928 
L 291.304028 169.992438 
L 293.179382 168.370899 
L 295.054736 166.983174 
L 296.93009 165.861874 
L 298.805444 165.027997 
L 300.680798 164.491143 
L 302.556152 164.250207 
L 304.431506 164.294479 
L 306.30686 164.605048 
L 308.182214 165.156398 
L 310.057569 165.918096 
L 311.932923 166.856488 
L 315.683631 169.122148 
L 328.811109 177.86851 
L 332.561817 179.895477 
L 336.312525 181.57459 
L 340.063233 182.908673 
L 343.813941 183.928927 
L 347.564649 184.68196 
L 351.315357 185.219477 
L 356.94142 185.728661 
L 362.567482 186.002729 
L 371.944252 186.190129 
L 390.697792 186.253133 
L 430.080227 186.255963 
L 430.080227 186.255963 
" style="fill:none;stroke:#d62728;stroke-linecap:square;stroke-width:1.5;"/>
   </g>
   <g id="line2d_17">
    <path clip-path="url(#p1160030c99)" d="M 56.884773 144.603767 
L 105.643978 144.518592 
L 115.020748 144.270598 
L 120.64681 143.906971 
L 124.397518 143.502995 
L 128.148226 142.913545 
L 131.898934 142.083022 
L 135.649643 140.955489 
L 139.400351 139.484648 
L 143.151059 137.647899 
L 146.901767 135.463424 
L 150.652475 133.007602 
L 158.153891 127.948838 
L 160.029245 126.834179 
L 161.904599 125.855275 
L 163.779953 125.052546 
L 165.655307 124.465234 
L 167.530661 124.129353 
L 169.406015 124.075479 
L 171.281369 124.326471 
L 173.156723 124.895289 
L 175.032077 125.78304 
L 176.907431 126.977427 
L 178.782786 128.451761 
L 180.65814 130.164689 
L 184.408848 134.071894 
L 188.159556 138.119319 
L 190.03491 139.982446 
L 191.910264 141.62311 
L 193.785618 142.962169 
L 195.660972 143.932502 
L 197.536326 144.483777 
L 199.41168 144.586539 
L 201.287034 144.235277 
L 203.162388 143.450153 
L 205.037742 142.277156 
L 206.913096 140.786545 
L 210.663804 137.233475 
L 214.414512 133.674732 
L 216.289866 132.185715 
L 218.16522 131.029234 
L 220.040574 130.285775 
L 221.915929 130.009307 
L 223.791283 130.22289 
L 225.666637 130.916339 
L 227.541991 132.046222 
L 229.417345 133.538273 
L 233.168053 137.187958 
L 236.918761 140.880436 
L 238.794115 142.419352 
L 240.669469 143.603461 
L 242.544823 144.349183 
L 244.420177 144.603767 
L 246.295531 144.349183 
L 248.170885 143.603461 
L 250.046239 142.419352 
L 251.921593 140.880436 
L 255.672301 137.187958 
L 259.423009 133.538273 
L 261.298363 132.046222 
L 263.173717 130.916339 
L 265.049071 130.22289 
L 266.924426 130.009307 
L 268.79978 130.285775 
L 270.675134 131.029234 
L 272.550488 132.185715 
L 274.425842 133.674732 
L 278.17655 137.233475 
L 281.927258 140.786545 
L 283.802612 142.277156 
L 285.677966 143.450153 
L 287.55332 144.235277 
L 289.428674 144.586539 
L 291.304028 144.483777 
L 293.179382 143.932502 
L 295.054736 142.962169 
L 296.93009 141.62311 
L 298.805444 139.982446 
L 302.556152 136.119808 
L 306.30686 132.06076 
L 308.182214 130.164689 
L 310.057569 128.451761 
L 311.932923 126.977427 
L 313.808277 125.78304 
L 315.683631 124.895289 
L 317.558985 124.326471 
L 319.434339 124.075479 
L 321.309693 124.129353 
L 323.185047 124.465234 
L 325.060401 125.052546 
L 326.935755 125.855275 
L 328.811109 126.834179 
L 332.561817 129.159459 
L 341.938587 135.463424 
L 345.689295 137.647899 
L 349.440003 139.484648 
L 353.190712 140.955489 
L 356.94142 142.083022 
L 360.692128 142.913545 
L 364.442836 143.502995 
L 368.193544 143.906971 
L 373.819606 144.270598 
L 381.321022 144.490397 
L 394.4485 144.590385 
L 430.080227 144.603766 
L 430.080227 144.603766 
" style="fill:none;stroke:#9467bd;stroke-linecap:square;stroke-width:1.5;"/>
   </g>
   <g id="line2d_18">
    <path clip-path="url(#p1160030c99)" d="M 56.884773 102.951756 
L 94.391854 102.863089 
L 101.89327 102.676965 
L 107.519332 102.35585 
L 111.27004 101.98909 
L 115.020748 101.44253 
L 118.771456 100.657497 
L 122.522164 99.573374 
L 126.272872 98.138393 
L 130.02358 96.325532 
L 133.774288 94.152424 
L 137.524997 91.70213 
L 143.151059 87.890743 
L 146.901767 85.651393 
L 148.777121 84.746765 
L 150.652475 84.044394 
L 152.527829 83.586263 
L 154.403183 83.409551 
L 156.278537 83.543869 
L 158.153891 84.00849 
L 160.029245 84.809774 
L 161.904599 85.938998 
L 163.779953 87.370831 
L 165.655307 89.062672 
L 169.406015 92.973135 
L 173.156723 97.02905 
L 175.032077 98.872197 
L 176.907431 100.462847 
L 178.782786 101.713844 
L 180.65814 102.55367 
L 182.533494 102.932463 
L 184.408848 102.827044 
L 186.284202 102.244412 
L 188.159556 101.223285 
L 190.03491 99.833335 
L 191.910264 98.171981 
L 197.536326 92.817114 
L 199.41168 91.360561 
L 201.287034 90.274754 
L 203.162388 89.650319 
L 205.037742 89.54334 
L 206.913096 89.969528 
L 208.78845 90.901531 
L 210.663804 92.26982 
L 212.539158 93.967258 
L 218.16522 99.587369 
L 220.040574 101.114105 
L 221.915929 102.233613 
L 223.791283 102.84905 
L 225.666637 102.906732 
L 227.541991 102.401672 
L 229.417345 101.378773 
L 231.292699 99.929444 
L 235.043407 96.299566 
L 236.918761 94.447228 
L 238.794115 92.795203 
L 240.669469 91.494021 
L 242.544823 90.662474 
L 244.420177 90.376574 
L 246.295531 90.662474 
L 248.170885 91.494021 
L 250.046239 92.795203 
L 251.921593 94.447228 
L 257.547655 99.929444 
L 259.423009 101.378773 
L 261.298363 102.401672 
L 263.173717 102.906732 
L 265.049071 102.84905 
L 266.924426 102.233613 
L 268.79978 101.114105 
L 270.675134 99.587369 
L 274.425842 95.857145 
L 276.301196 93.967258 
L 278.17655 92.26982 
L 280.051904 90.901531 
L 281.927258 89.969528 
L 283.802612 89.54334 
L 285.677966 89.650319 
L 287.55332 90.274754 
L 289.428674 91.360561 
L 291.304028 92.817114 
L 295.054736 96.358764 
L 298.805444 99.833335 
L 300.680798 101.223285 
L 302.556152 102.244412 
L 304.431506 102.827044 
L 306.30686 102.932463 
L 308.182214 102.55367 
L 310.057569 101.713844 
L 311.932923 100.462847 
L 313.808277 98.872197 
L 315.683631 97.02905 
L 323.185047 89.062672 
L 325.060401 87.370831 
L 326.935755 85.938998 
L 328.811109 84.809774 
L 330.686463 84.00849 
L 332.561817 83.543869 
L 334.437171 83.409551 
L 336.312525 83.586263 
L 338.187879 84.044394 
L 340.063233 84.746765 
L 341.938587 85.651393 
L 345.689295 87.890743 
L 356.94142 95.280579 
L 360.692128 97.279392 
L 364.442836 98.902228 
L 368.193544 100.156426 
L 371.944252 101.083667 
L 375.69496 101.741814 
L 379.445668 102.191547 
L 385.07173 102.593512 
L 392.573146 102.832876 
L 405.700625 102.938566 
L 430.080227 102.951745 
L 430.080227 102.951745 
" style="fill:none;stroke:#8c564b;stroke-linecap:square;stroke-width:1.5;"/>
   </g>
   <g id="patch_3">
    <path d="M 38.225 303.64 
L 38.225 12.06 
" style="fill:none;stroke:#000000;stroke-linecap:square;stroke-linejoin:miter;stroke-width:0.8;"/>
   </g>
   <g id="patch_4">
    <path d="M 448.74 303.64 
L 448.74 12.06 
" style="fill:none;stroke:#000000;stroke-linecap:square;stroke-linejoin:miter;stroke-width:0.8;"/>
   </g>
   <g id="patch_5">
    <path d="M 38.225 303.64 
L 448.74 303.64 
" style="fill:none;stroke:#000000;stroke-linecap:square;stroke-linejoin:miter;stroke-width:0.8;"/>
   </g>
   <g id="patch_6">
    <path d="M 38.225 12.06 
L 448.74 12.06 
" style="fill:none;stroke:#000000;stroke-linecap:square;stroke-linejoin:miter;stroke-width:0.8;"/>
   </g>
  </g>
 </g>
 <defs>
  <clipPath id="p1160030c99">
   <rect height="291.58" width="410.515" x="38.225" y="12.06"/>
  </clipPath>
 </defs>
</svg>
