<?xml version="1.0" encoding="utf-8" standalone="no"?>
<!DOCTYPE svg PUBLIC "-//W3C//DTD SVG 1.1//EN"
  "http://www.w3.org/Graphics/SVG/1.1/DTD/svg11.dtd">
<!-- Created with matplotlib (http://matplotlib.org/) -->
<svg height="345pt" version="1.1" viewBox="0 0 460 345" width="460pt" xmlns="http://www.w3.org/2000/svg" xmlns:xlink="http://www.w3.org/1999/xlink">
 <defs>
  <style type="text/css">
*{stroke-linecap:butt;stroke-linejoin:round;}
  </style>
 </defs>
 <g id="figure_1">
  <g id="patch_1">
   <path d="M 0 345.6 
L 460.8 345.6 
L 460.8 0 
L 0 0 
z
" style="fill:#ffffff;"/>
  </g>
  <g id="axes_1">
   <g id="patch_2">
    <path d="M 73.505 136.24 
L 448.74 136.24 
L 448.74 12.06 
L 73.505 12.06 
z
" style="fill:#ffffff;"/>
   </g>
   <g id="matplotlib.axis_1">
    <g id="xtick_1">
     <g id="line2d_1">
      <defs>
       <path d="M 0 0 
L 0 3.5 
" id="m89f1fe9aec" style="stroke:#000000;stroke-width:0.8;"/>
      </defs>
      <g>
       <use style="stroke:#000000;stroke-width:0.8;" x="90.561136" xlink:href="#m89f1fe9aec" y="136.24"/>
      </g>
     </g>
     <g id="text_1">
      <!-- 0 -->
      <defs>
       <path d="M 31.78125 66.40625 
Q 24.171875 66.40625 20.328125 58.90625 
Q 16.5 51.421875 16.5 36.375 
Q 16.5 21.390625 20.328125 13.890625 
Q 24.171875 6.390625 31.78125 6.390625 
Q 39.453125 6.390625 43.28125 13.890625 
Q 47.125 21.390625 47.125 36.375 
Q 47.125 51.421875 43.28125 58.90625 
Q 39.453125 66.40625 31.78125 66.40625 
M 31.78125 74.21875 
Q 44.046875 74.21875 50.515625 64.515625 
Q 56.984375 54.828125 56.984375 36.375 
Q 56.984375 17.96875 50.515625 8.265625 
Q 44.046875 -1.421875 31.78125 -1.421875 
Q 19.53125 -1.421875 13.0625 8.265625 
Q 6.59375 17.96875 6.59375 36.375 
Q 6.59375 54.828125 13.0625 64.515625 
Q 19.53125 74.21875 31.78125 74.21875 
" id="DejaVuSans-30"/>
      </defs>
      <g transform="translate(87.379886 150.838437)scale(0.1 -0.1)">
       <use xlink:href="#DejaVuSans-30"/>
      </g>
     </g>
    </g>
    <g id="xtick_2">
     <g id="line2d_2">
      <g>
       <use style="stroke:#000000;stroke-width:0.8;" x="158.785682" xlink:href="#m89f1fe9aec" y="136.24"/>
      </g>
     </g>
     <g id="text_2">
      <!-- 1 -->
      <defs>
       <path d="M 12.40625 8.296875 
L 28.515625 8.296875 
L 28.515625 63.921875 
L 10.984375 60.40625 
L 10.984375 69.390625 
L 28.421875 72.90625 
L 38.28125 72.90625 
L 38.28125 8.296875 
L 54.390625 8.296875 
L 54.390625 0 
L 12.40625 0 
z
" id="DejaVuSans-31"/>
      </defs>
      <g transform="translate(155.604432 150.838437)scale(0.1 -0.1)">
       <use xlink:href="#DejaVuSans-31"/>
      </g>
     </g>
    </g>
    <g id="xtick_3">
     <g id="line2d_3">
      <g>
       <use style="stroke:#000000;stroke-width:0.8;" x="227.010227" xlink:href="#m89f1fe9aec" y="136.24"/>
      </g>
     </g>
     <g id="text_3">
      <!-- 2 -->
      <defs>
       <path d="M 19.1875 8.296875 
L 53.609375 8.296875 
L 53.609375 0 
L 7.328125 0 
L 7.328125 8.296875 
Q 12.9375 14.109375 22.625 23.890625 
Q 32.328125 33.6875 34.8125 36.53125 
Q 39.546875 41.84375 41.421875 45.53125 
Q 43.3125 49.21875 43.3125 52.78125 
Q 43.3125 58.59375 39.234375 62.25 
Q 35.15625 65.921875 28.609375 65.921875 
Q 23.96875 65.921875 18.8125 64.3125 
Q 13.671875 62.703125 7.8125 59.421875 
L 7.8125 69.390625 
Q 13.765625 71.78125 18.9375 73 
Q 24.125 74.21875 28.421875 74.21875 
Q 39.75 74.21875 46.484375 68.546875 
Q 53.21875 62.890625 53.21875 53.421875 
Q 53.21875 48.921875 51.53125 44.890625 
Q 49.859375 40.875 45.40625 35.40625 
Q 44.1875 33.984375 37.640625 27.21875 
Q 31.109375 20.453125 19.1875 8.296875 
" id="DejaVuSans-32"/>
      </defs>
      <g transform="translate(223.828977 150.838437)scale(0.1 -0.1)">
       <use xlink:href="#DejaVuSans-32"/>
      </g>
     </g>
    </g>
    <g id="xtick_4">
     <g id="line2d_4">
      <g>
       <use style="stroke:#000000;stroke-width:0.8;" x="295.234773" xlink:href="#m89f1fe9aec" y="136.24"/>
      </g>
     </g>
     <g id="text_4">
      <!-- 3 -->
      <defs>
       <path d="M 40.578125 39.3125 
Q 47.65625 37.796875 51.625 33 
Q 55.609375 28.21875 55.609375 21.1875 
Q 55.609375 10.40625 48.1875 4.484375 
Q 40.765625 -1.421875 27.09375 -1.421875 
Q 22.515625 -1.421875 17.65625 -0.515625 
Q 12.796875 0.390625 7.625 2.203125 
L 7.625 11.71875 
Q 11.71875 9.328125 16.59375 8.109375 
Q 21.484375 6.890625 26.8125 6.890625 
Q 36.078125 6.890625 40.9375 10.546875 
Q 45.796875 14.203125 45.796875 21.1875 
Q 45.796875 27.640625 41.28125 31.265625 
Q 36.765625 34.90625 28.71875 34.90625 
L 20.21875 34.90625 
L 20.21875 43.015625 
L 29.109375 43.015625 
Q 36.375 43.015625 40.234375 45.921875 
Q 44.09375 48.828125 44.09375 54.296875 
Q 44.09375 59.90625 40.109375 62.90625 
Q 36.140625 65.921875 28.71875 65.921875 
Q 24.65625 65.921875 20.015625 65.03125 
Q 15.375 64.15625 9.8125 62.3125 
L 9.8125 71.09375 
Q 15.4375 72.65625 20.34375 73.4375 
Q 25.25 74.21875 29.59375 74.21875 
Q 40.828125 74.21875 47.359375 69.109375 
Q 53.90625 64.015625 53.90625 55.328125 
Q 53.90625 49.265625 50.4375 45.09375 
Q 46.96875 40.921875 40.578125 39.3125 
" id="DejaVuSans-33"/>
      </defs>
      <g transform="translate(292.053523 150.838437)scale(0.1 -0.1)">
       <use xlink:href="#DejaVuSans-33"/>
      </g>
     </g>
    </g>
    <g id="xtick_5">
     <g id="line2d_5">
      <g>
       <use style="stroke:#000000;stroke-width:0.8;" x="363.459318" xlink:href="#m89f1fe9aec" y="136.24"/>
      </g>
     </g>
     <g id="text_5">
      <!-- 4 -->
      <defs>
       <path d="M 37.796875 64.3125 
L 12.890625 25.390625 
L 37.796875 25.390625 
z
M 35.203125 72.90625 
L 47.609375 72.90625 
L 47.609375 25.390625 
L 58.015625 25.390625 
L 58.015625 17.1875 
L 47.609375 17.1875 
L 47.609375 0 
L 37.796875 0 
L 37.796875 17.1875 
L 4.890625 17.1875 
L 4.890625 26.703125 
z
" id="DejaVuSans-34"/>
      </defs>
      <g transform="translate(360.278068 150.838437)scale(0.1 -0.1)">
       <use xlink:href="#DejaVuSans-34"/>
      </g>
     </g>
    </g>
    <g id="xtick_6">
     <g id="line2d_6">
      <g>
       <use style="stroke:#000000;stroke-width:0.8;" x="431.683864" xlink:href="#m89f1fe9aec" y="136.24"/>
      </g>
     </g>
     <g id="text_6">
      <!-- 5 -->
      <defs>
       <path d="M 10.796875 72.90625 
L 49.515625 72.90625 
L 49.515625 64.59375 
L 19.828125 64.59375 
L 19.828125 46.734375 
Q 21.96875 47.46875 24.109375 47.828125 
Q 26.265625 48.1875 28.421875 48.1875 
Q 40.625 48.1875 47.75 41.5 
Q 54.890625 34.8125 54.890625 23.390625 
Q 54.890625 11.625 47.5625 5.09375 
Q 40.234375 -1.421875 26.90625 -1.421875 
Q 22.3125 -1.421875 17.546875 -0.640625 
Q 12.796875 0.140625 7.71875 1.703125 
L 7.71875 11.625 
Q 12.109375 9.234375 16.796875 8.0625 
Q 21.484375 6.890625 26.703125 6.890625 
Q 35.15625 6.890625 40.078125 11.328125 
Q 45.015625 15.765625 45.015625 23.390625 
Q 45.015625 31 40.078125 35.4375 
Q 35.15625 39.890625 26.703125 39.890625 
Q 22.75 39.890625 18.8125 39.015625 
Q 14.890625 38.140625 10.796875 36.28125 
z
" id="DejaVuSans-35"/>
      </defs>
      <g transform="translate(428.502614 150.838437)scale(0.1 -0.1)">
       <use xlink:href="#DejaVuSans-35"/>
      </g>
     </g>
    </g>
    <g id="text_7">
     <!-- $\tau$ -->
     <defs>
      <path d="M 32.859375 9.96875 
Q 34.1875 7.625 39.453125 7.625 
L 43.75 7.625 
L 42.28125 0 
L 36.921875 0 
Q 28.125 0 25 4.6875 
Q 21.921875 9.46875 23.96875 19.828125 
L 29 45.703125 
L 8.453125 45.703125 
L 10.203125 54.6875 
L 60.640625 54.6875 
L 58.890625 45.703125 
L 38.1875 45.703125 
L 33.015625 19.28125 
Q 31.640625 12.203125 32.859375 9.96875 
" id="DejaVuSans-Oblique-3c4"/>
     </defs>
     <g transform="translate(258.0725 164.516562)scale(0.1 -0.1)">
      <use transform="translate(0 0.3125)" xlink:href="#DejaVuSans-Oblique-3c4"/>
     </g>
    </g>
   </g>
   <g id="matplotlib.axis_2">
    <g id="ytick_1">
     <g id="line2d_7">
      <defs>
       <path d="M 0 0 
L -3.5 0 
" id="m3f0a14f52e" style="stroke:#000000;stroke-width:0.8;"/>
      </defs>
      <g>
       <use style="stroke:#000000;stroke-width:0.8;" x="73.505" xlink:href="#m3f0a14f52e" y="127.300742"/>
      </g>
     </g>
     <g id="text_8">
      <!-- −2 -->
      <defs>
       <path d="M 10.59375 35.5 
L 73.1875 35.5 
L 73.1875 27.203125 
L 10.59375 27.203125 
z
" id="DejaVuSans-2212"/>
      </defs>
      <g transform="translate(51.762813 131.099961)scale(0.1 -0.1)">
       <use xlink:href="#DejaVuSans-2212"/>
       <use x="83.789062" xlink:href="#DejaVuSans-32"/>
      </g>
     </g>
    </g>
    <g id="ytick_2">
     <g id="line2d_8">
      <g>
       <use style="stroke:#000000;stroke-width:0.8;" x="73.505" xlink:href="#m3f0a14f52e" y="105.463812"/>
      </g>
     </g>
     <g id="text_9">
      <!-- −1 -->
      <g transform="translate(51.762813 109.263031)scale(0.1 -0.1)">
       <use xlink:href="#DejaVuSans-2212"/>
       <use x="83.789062" xlink:href="#DejaVuSans-31"/>
      </g>
     </g>
    </g>
    <g id="ytick_3">
     <g id="line2d_9">
      <g>
       <use style="stroke:#000000;stroke-width:0.8;" x="73.505" xlink:href="#m3f0a14f52e" y="83.626882"/>
      </g>
     </g>
     <g id="text_10">
      <!-- 0 -->
      <g transform="translate(60.1425 87.426101)scale(0.1 -0.1)">
       <use xlink:href="#DejaVuSans-30"/>
      </g>
     </g>
    </g>
    <g id="ytick_4">
     <g id="line2d_10">
      <g>
       <use style="stroke:#000000;stroke-width:0.8;" x="73.505" xlink:href="#m3f0a14f52e" y="61.789952"/>
      </g>
     </g>
     <g id="text_11">
      <!-- 1 -->
      <g transform="translate(60.1425 65.58917)scale(0.1 -0.1)">
       <use xlink:href="#DejaVuSans-31"/>
      </g>
     </g>
    </g>
    <g id="ytick_5">
     <g id="line2d_11">
      <g>
       <use style="stroke:#000000;stroke-width:0.8;" x="73.505" xlink:href="#m3f0a14f52e" y="39.953021"/>
      </g>
     </g>
     <g id="text_12">
      <!-- 2 -->
      <g transform="translate(60.1425 43.75224)scale(0.1 -0.1)">
       <use xlink:href="#DejaVuSans-32"/>
      </g>
     </g>
    </g>
    <g id="ytick_6">
     <g id="line2d_12">
      <g>
       <use style="stroke:#000000;stroke-width:0.8;" x="73.505" xlink:href="#m3f0a14f52e" y="18.116091"/>
      </g>
     </g>
     <g id="text_13">
      <!-- 3 -->
      <g transform="translate(60.1425 21.91531)scale(0.1 -0.1)">
       <use xlink:href="#DejaVuSans-33"/>
      </g>
     </g>
    </g>
    <g id="text_14">
     <!-- $\langle \sigma_+(\tau) \sigma_-(0)\rangle$ -->
     <defs>
      <path d="M 8.9375 31.34375 
L 22.703125 75.875 
L 31 75.875 
L 17.234375 31.34375 
L 31 -13.1875 
L 22.703125 -13.1875 
z
" id="DejaVuSans-27e8"/>
      <path d="M 34.671875 47.5625 
Q 27.25 47.5625 22.21875 42.1875 
Q 16.890625 36.578125 15.140625 27.296875 
Q 13.1875 17.484375 16.3125 11.8125 
Q 19.390625 6.203125 26.65625 6.203125 
Q 33.84375 6.203125 39.109375 11.859375 
Q 44.4375 17.53125 46.34375 27.296875 
Q 48.046875 36.234375 45.015625 42.1875 
Q 42.1875 47.5625 34.671875 47.5625 
M 36.078125 54.734375 
L 65.921875 54.6875 
L 64.15625 45.703125 
L 54.109375 45.703125 
Q 57.90625 38.09375 55.859375 27.296875 
Q 53.21875 13.875 45.0625 6.25 
Q 36.859375 -1.421875 25.140625 -1.421875 
Q 13.375 -1.421875 8.203125 6.25 
Q 3.03125 13.875 5.671875 27.296875 
Q 8.25 40.765625 16.40625 48.390625 
Q 23.1875 54.734375 36.078125 54.734375 
" id="DejaVuSans-Oblique-3c3"/>
      <path d="M 46 62.703125 
L 46 35.5 
L 73.1875 35.5 
L 73.1875 27.203125 
L 46 27.203125 
L 46 0 
L 37.796875 0 
L 37.796875 27.203125 
L 10.59375 27.203125 
L 10.59375 35.5 
L 37.796875 35.5 
L 37.796875 62.703125 
z
" id="DejaVuSans-2b"/>
      <path d="M 31 75.875 
Q 24.46875 64.65625 21.28125 53.65625 
Q 18.109375 42.671875 18.109375 31.390625 
Q 18.109375 20.125 21.3125 9.0625 
Q 24.515625 -2 31 -13.1875 
L 23.1875 -13.1875 
Q 15.875 -1.703125 12.234375 9.375 
Q 8.59375 20.453125 8.59375 31.390625 
Q 8.59375 42.28125 12.203125 53.3125 
Q 15.828125 64.359375 23.1875 75.875 
z
" id="DejaVuSans-28"/>
      <path d="M 8.015625 75.875 
L 15.828125 75.875 
Q 23.140625 64.359375 26.78125 53.3125 
Q 30.421875 42.28125 30.421875 31.390625 
Q 30.421875 20.453125 26.78125 9.375 
Q 23.140625 -1.703125 15.828125 -13.1875 
L 8.015625 -13.1875 
Q 14.5 -2 17.703125 9.0625 
Q 20.90625 20.125 20.90625 31.390625 
Q 20.90625 42.671875 17.703125 53.65625 
Q 14.5 64.65625 8.015625 75.875 
" id="DejaVuSans-29"/>
      <path d="M 30.078125 31.34375 
L 16.3125 -13.1875 
L 8.015625 -13.1875 
L 21.78125 31.34375 
L 8.015625 75.875 
L 16.3125 75.875 
z
" id="DejaVuSans-27e9"/>
     </defs>
     <g transform="translate(45.683125 107.25)rotate(-90)scale(0.1 -0.1)">
      <use transform="translate(0 0.125)" xlink:href="#DejaVuSans-27e8"/>
      <use transform="translate(39.013672 0.125)" xlink:href="#DejaVuSans-Oblique-3c3"/>
      <use transform="translate(116.030273 -16.28125)scale(0.7)" xlink:href="#DejaVuSans-2b"/>
      <use transform="translate(191.054688 0.125)" xlink:href="#DejaVuSans-28"/>
      <use transform="translate(230.068359 0.125)" xlink:href="#DejaVuSans-Oblique-3c4"/>
      <use transform="translate(290.273438 0.125)" xlink:href="#DejaVuSans-29"/>
      <use transform="translate(329.287109 0.125)" xlink:href="#DejaVuSans-Oblique-3c3"/>
      <use transform="translate(406.303711 -16.28125)scale(0.7)" xlink:href="#DejaVuSans-2212"/>
      <use transform="translate(481.328125 0.125)" xlink:href="#DejaVuSans-28"/>
      <use transform="translate(520.341797 0.125)" xlink:href="#DejaVuSans-30"/>
      <use transform="translate(583.964844 0.125)" xlink:href="#DejaVuSans-29"/>
      <use transform="translate(622.978516 0.125)" xlink:href="#DejaVuSans-27e9"/>
     </g>
    </g>
   </g>
   <g id="line2d_13">
    <path clip-path="url(#p1245222107)" d="M 90.561136 18.116091 
L 92.26675 17.704545 
L 93.972364 18.114045 
L 95.677977 19.341581 
L 97.383591 21.368043 
L 99.089205 24.159316 
L 100.794818 27.667652 
L 102.500432 31.833277 
L 104.206045 36.586156 
L 105.911659 41.847866 
L 109.322886 53.553648 
L 114.439727 72.697964 
L 119.556568 91.577329 
L 122.967795 102.936589 
L 124.673409 108.047666 
L 126.379023 112.709067 
L 128.084636 116.878603 
L 129.79025 120.523017 
L 131.495864 123.617945 
L 133.201477 126.147837 
L 134.907091 128.105645 
L 136.612705 129.492494 
L 138.318318 130.317138 
L 140.023932 130.595455 
L 141.729545 130.349731 
L 143.435159 129.608037 
L 145.140773 128.403425 
L 146.846386 126.773214 
L 148.552 124.758191 
L 150.257614 122.401842 
L 151.963227 119.749614 
L 155.374455 113.74457 
L 158.785682 107.118376 
L 167.31375 90.14607 
L 170.724977 83.986963 
L 174.136205 78.537802 
L 175.841818 76.130205 
L 177.547432 73.953663 
L 179.253045 72.018446 
L 180.958659 70.331351 
L 182.664273 68.89583 
L 184.369886 67.71216 
L 186.0755 66.777684 
L 187.781114 66.086985 
L 189.486727 65.632197 
L 191.192341 65.403206 
L 192.897955 65.38796 
L 194.603568 65.572737 
L 196.309182 65.942389 
L 198.014795 66.480685 
L 199.720409 67.170486 
L 203.131636 68.933477 
L 206.542864 71.086917 
L 211.659705 74.738674 
L 218.482159 79.720055 
L 221.893386 82.017131 
L 225.304614 84.076339 
L 228.715841 85.841536 
L 232.127068 87.27678 
L 235.538295 88.365182 
L 238.949523 89.10706 
L 242.36075 89.517576 
L 245.771977 89.624065 
L 249.183205 89.463191 
L 252.594432 89.07809 
L 257.711273 88.182859 
L 264.533727 86.64549 
L 274.767409 84.284878 
L 279.88425 83.31108 
L 285.001091 82.560261 
L 290.117932 82.056576 
L 295.234773 81.796697 
L 300.351614 81.755627 
L 307.174068 81.970727 
L 315.702136 82.509365 
L 332.758273 83.686803 
L 341.286341 84.049271 
L 349.814409 84.200521 
L 360.048091 84.149117 
L 378.809841 83.755325 
L 395.865977 83.487895 
L 412.922114 83.46294 
L 431.683864 83.58253 
L 431.683864 83.58253 
" style="fill:none;stroke:#1f77b4;stroke-linecap:square;stroke-width:1.5;"/>
   </g>
   <g id="patch_3">
    <path d="M 73.505 136.24 
L 73.505 12.06 
" style="fill:none;stroke:#000000;stroke-linecap:square;stroke-linejoin:miter;stroke-width:0.8;"/>
   </g>
   <g id="patch_4">
    <path d="M 448.74 136.24 
L 448.74 12.06 
" style="fill:none;stroke:#000000;stroke-linecap:square;stroke-linejoin:miter;stroke-width:0.8;"/>
   </g>
   <g id="patch_5">
    <path d="M 73.505 136.24 
L 448.74 136.24 
" style="fill:none;stroke:#000000;stroke-linecap:square;stroke-linejoin:miter;stroke-width:0.8;"/>
   </g>
   <g id="patch_6">
    <path d="M 73.505 12.06 
L 448.74 12.06 
" style="fill:none;stroke:#000000;stroke-linecap:square;stroke-linejoin:miter;stroke-width:0.8;"/>
   </g>
  </g>
  <g id="axes_2">
   <g id="patch_7">
    <path d="M 73.505 303.64 
L 448.74 303.64 
L 448.74 179.46 
L 73.505 179.46 
z
" style="fill:#ffffff;"/>
   </g>
   <g id="matplotlib.axis_3">
    <g id="xtick_7">
     <g id="line2d_14">
      <g>
       <use style="stroke:#000000;stroke-width:0.8;" x="90.561136" xlink:href="#m89f1fe9aec" y="303.64"/>
      </g>
     </g>
     <g id="text_15">
      <!-- −5 -->
      <g transform="translate(83.190043 318.238437)scale(0.1 -0.1)">
       <use xlink:href="#DejaVuSans-2212"/>
       <use x="83.789062" xlink:href="#DejaVuSans-35"/>
      </g>
     </g>
    </g>
    <g id="xtick_8">
     <g id="line2d_15">
      <g>
       <use style="stroke:#000000;stroke-width:0.8;" x="147.414924" xlink:href="#m89f1fe9aec" y="303.64"/>
      </g>
     </g>
     <g id="text_16">
      <!-- 0 -->
      <g transform="translate(144.233674 318.238437)scale(0.1 -0.1)">
       <use xlink:href="#DejaVuSans-30"/>
      </g>
     </g>
    </g>
    <g id="xtick_9">
     <g id="line2d_16">
      <g>
       <use style="stroke:#000000;stroke-width:0.8;" x="204.268712" xlink:href="#m89f1fe9aec" y="303.64"/>
      </g>
     </g>
     <g id="text_17">
      <!-- 5 -->
      <g transform="translate(201.087462 318.238437)scale(0.1 -0.1)">
       <use xlink:href="#DejaVuSans-35"/>
      </g>
     </g>
    </g>
    <g id="xtick_10">
     <g id="line2d_17">
      <g>
       <use style="stroke:#000000;stroke-width:0.8;" x="261.1225" xlink:href="#m89f1fe9aec" y="303.64"/>
      </g>
     </g>
     <g id="text_18">
      <!-- 10 -->
      <g transform="translate(254.76 318.238437)scale(0.1 -0.1)">
       <use xlink:href="#DejaVuSans-31"/>
       <use x="63.623047" xlink:href="#DejaVuSans-30"/>
      </g>
     </g>
    </g>
    <g id="xtick_11">
     <g id="line2d_18">
      <g>
       <use style="stroke:#000000;stroke-width:0.8;" x="317.976288" xlink:href="#m89f1fe9aec" y="303.64"/>
      </g>
     </g>
     <g id="text_19">
      <!-- 15 -->
      <g transform="translate(311.613788 318.238437)scale(0.1 -0.1)">
       <use xlink:href="#DejaVuSans-31"/>
       <use x="63.623047" xlink:href="#DejaVuSans-35"/>
      </g>
     </g>
    </g>
    <g id="xtick_12">
     <g id="line2d_19">
      <g>
       <use style="stroke:#000000;stroke-width:0.8;" x="374.830076" xlink:href="#m89f1fe9aec" y="303.64"/>
      </g>
     </g>
     <g id="text_20">
      <!-- 20 -->
      <g transform="translate(368.467576 318.238437)scale(0.1 -0.1)">
       <use xlink:href="#DejaVuSans-32"/>
       <use x="63.623047" xlink:href="#DejaVuSans-30"/>
      </g>
     </g>
    </g>
    <g id="xtick_13">
     <g id="line2d_20">
      <g>
       <use style="stroke:#000000;stroke-width:0.8;" x="431.683864" xlink:href="#m89f1fe9aec" y="303.64"/>
      </g>
     </g>
     <g id="text_21">
      <!-- 25 -->
      <g transform="translate(425.321364 318.238437)scale(0.1 -0.1)">
       <use xlink:href="#DejaVuSans-32"/>
       <use x="63.623047" xlink:href="#DejaVuSans-35"/>
      </g>
     </g>
    </g>
    <g id="text_22">
     <!-- $\omega$ -->
     <defs>
      <path d="M 21.390625 -1.421875 
Q 1.125 -1.421875 6.78125 27.59375 
Q 8.984375 39.0625 19.625 54.6875 
L 29.296875 54.6875 
Q 19.234375 39.0625 17 27.34375 
Q 12.796875 6.203125 23.734375 6.203125 
Q 33.84375 6.203125 38.71875 32.46875 
L 47.015625 32.46875 
Q 41.703125 6.0625 51.8125 6.203125 
Q 62.703125 6.296875 66.796875 27.34375 
Q 69.046875 39.0625 65.140625 54.6875 
L 74.8125 54.6875 
Q 79.296875 39.0625 77.09375 27.59375 
Q 71.53125 -1.46875 51.21875 -1.421875 
Q 37.9375 -1.375 39.109375 13.1875 
Q 34.28125 -1.421875 21.390625 -1.421875 
" id="DejaVuSans-Oblique-3c9"/>
     </defs>
     <g transform="translate(256.9225 331.916562)scale(0.1 -0.1)">
      <use transform="translate(0 0.3125)" xlink:href="#DejaVuSans-Oblique-3c9"/>
     </g>
    </g>
   </g>
   <g id="matplotlib.axis_4">
    <g id="ytick_7">
     <g id="line2d_21">
      <g>
       <use style="stroke:#000000;stroke-width:0.8;" x="73.505" xlink:href="#m3f0a14f52e" y="292.780825"/>
      </g>
     </g>
     <g id="text_23">
      <!-- 0.00001 -->
      <defs>
       <path d="M 10.6875 12.40625 
L 21 12.40625 
L 21 0 
L 10.6875 0 
z
" id="DejaVuSans-2e"/>
      </defs>
      <g transform="translate(25.151875 296.580044)scale(0.1 -0.1)">
       <use xlink:href="#DejaVuSans-30"/>
       <use x="63.623047" xlink:href="#DejaVuSans-2e"/>
       <use x="95.410156" xlink:href="#DejaVuSans-30"/>
       <use x="159.033203" xlink:href="#DejaVuSans-30"/>
       <use x="222.65625" xlink:href="#DejaVuSans-30"/>
       <use x="286.279297" xlink:href="#DejaVuSans-30"/>
       <use x="349.902344" xlink:href="#DejaVuSans-31"/>
      </g>
     </g>
    </g>
    <g id="ytick_8">
     <g id="line2d_22">
      <g>
       <use style="stroke:#000000;stroke-width:0.8;" x="73.505" xlink:href="#m3f0a14f52e" y="269.8188"/>
      </g>
     </g>
     <g id="text_24">
      <!-- 0.00002 -->
      <g transform="translate(25.151875 273.618019)scale(0.1 -0.1)">
       <use xlink:href="#DejaVuSans-30"/>
       <use x="63.623047" xlink:href="#DejaVuSans-2e"/>
       <use x="95.410156" xlink:href="#DejaVuSans-30"/>
       <use x="159.033203" xlink:href="#DejaVuSans-30"/>
       <use x="222.65625" xlink:href="#DejaVuSans-30"/>
       <use x="286.279297" xlink:href="#DejaVuSans-30"/>
       <use x="349.902344" xlink:href="#DejaVuSans-32"/>
      </g>
     </g>
    </g>
    <g id="ytick_9">
     <g id="line2d_23">
      <g>
       <use style="stroke:#000000;stroke-width:0.8;" x="73.505" xlink:href="#m3f0a14f52e" y="246.856774"/>
      </g>
     </g>
     <g id="text_25">
      <!-- 0.00003 -->
      <g transform="translate(25.151875 250.655993)scale(0.1 -0.1)">
       <use xlink:href="#DejaVuSans-30"/>
       <use x="63.623047" xlink:href="#DejaVuSans-2e"/>
       <use x="95.410156" xlink:href="#DejaVuSans-30"/>
       <use x="159.033203" xlink:href="#DejaVuSans-30"/>
       <use x="222.65625" xlink:href="#DejaVuSans-30"/>
       <use x="286.279297" xlink:href="#DejaVuSans-30"/>
       <use x="349.902344" xlink:href="#DejaVuSans-33"/>
      </g>
     </g>
    </g>
    <g id="ytick_10">
     <g id="line2d_24">
      <g>
       <use style="stroke:#000000;stroke-width:0.8;" x="73.505" xlink:href="#m3f0a14f52e" y="223.894749"/>
      </g>
     </g>
     <g id="text_26">
      <!-- 0.00004 -->
      <g transform="translate(25.151875 227.693968)scale(0.1 -0.1)">
       <use xlink:href="#DejaVuSans-30"/>
       <use x="63.623047" xlink:href="#DejaVuSans-2e"/>
       <use x="95.410156" xlink:href="#DejaVuSans-30"/>
       <use x="159.033203" xlink:href="#DejaVuSans-30"/>
       <use x="222.65625" xlink:href="#DejaVuSans-30"/>
       <use x="286.279297" xlink:href="#DejaVuSans-30"/>
       <use x="349.902344" xlink:href="#DejaVuSans-34"/>
      </g>
     </g>
    </g>
    <g id="ytick_11">
     <g id="line2d_25">
      <g>
       <use style="stroke:#000000;stroke-width:0.8;" x="73.505" xlink:href="#m3f0a14f52e" y="200.932724"/>
      </g>
     </g>
     <g id="text_27">
      <!-- 0.00005 -->
      <g transform="translate(25.151875 204.731942)scale(0.1 -0.1)">
       <use xlink:href="#DejaVuSans-30"/>
       <use x="63.623047" xlink:href="#DejaVuSans-2e"/>
       <use x="95.410156" xlink:href="#DejaVuSans-30"/>
       <use x="159.033203" xlink:href="#DejaVuSans-30"/>
       <use x="222.65625" xlink:href="#DejaVuSans-30"/>
       <use x="286.279297" xlink:href="#DejaVuSans-30"/>
       <use x="349.902344" xlink:href="#DejaVuSans-35"/>
      </g>
     </g>
    </g>
    <g id="text_28">
     <!-- $S(\omega)$ -->
     <defs>
      <path d="M 60.296875 70.515625 
L 58.40625 60.890625 
Q 53.46875 63.53125 48.609375 64.875 
Q 43.75 66.21875 39.203125 66.21875 
Q 30.375 66.21875 25.140625 62.359375 
Q 19.921875 58.5 19.921875 52.09375 
Q 19.921875 48.578125 21.84375 46.703125 
Q 23.78125 44.828125 31.78125 42.671875 
L 37.703125 41.21875 
Q 47.703125 38.625 51.609375 34.640625 
Q 55.515625 30.671875 55.515625 23.484375 
Q 55.515625 12.453125 46.84375 5.515625 
Q 38.1875 -1.421875 24.03125 -1.421875 
Q 18.21875 -1.421875 12.359375 -0.265625 
Q 6.5 0.875 0.59375 3.21875 
L 2.59375 13.375 
Q 8.015625 10.015625 13.453125 8.296875 
Q 18.890625 6.59375 24.3125 6.59375 
Q 33.546875 6.59375 39.109375 10.6875 
Q 44.671875 14.796875 44.671875 21.390625 
Q 44.671875 25.78125 42.453125 28.046875 
Q 40.234375 30.328125 32.90625 32.171875 
L 27 33.6875 
Q 16.890625 36.328125 13.203125 39.765625 
Q 9.515625 43.21875 9.515625 49.421875 
Q 9.515625 60.296875 17.890625 67.25 
Q 26.265625 74.21875 39.703125 74.21875 
Q 44.921875 74.21875 50.046875 73.28125 
Q 55.171875 72.359375 60.296875 70.515625 
" id="DejaVuSans-Oblique-53"/>
     </defs>
     <g transform="translate(19.072188 252.85)rotate(-90)scale(0.1 -0.1)">
      <use transform="translate(0 0.125)" xlink:href="#DejaVuSans-Oblique-53"/>
      <use transform="translate(63.476562 0.125)" xlink:href="#DejaVuSans-28"/>
      <use transform="translate(102.490234 0.125)" xlink:href="#DejaVuSans-Oblique-3c9"/>
      <use transform="translate(186.230469 0.125)" xlink:href="#DejaVuSans-29"/>
     </g>
    </g>
   </g>
   <g id="line2d_26">
    <path clip-path="url(#pdcceed9ce5)" d="M 90.561136 295.740077 
L 107.048735 296.03132 
L 108.185811 296.084671 
L 109.322886 296.150368 
L 111.0285 296.142978 
L 134.338553 296.171311 
L 134.907091 296.503081 
L 135.475629 296.063569 
L 136.612705 296.36905 
L 137.74978 296.278247 
L 151.963227 296.192233 
L 155.374455 296.026215 
L 159.35422 296.182553 
L 161.059833 295.997569 
L 161.628371 295.907346 
L 162.196909 296.107925 
L 162.765447 296.844334 
L 163.333985 297.995455 
L 163.902523 295.212583 
L 164.471061 295.716732 
L 165.039598 295.849948 
L 165.608136 295.782717 
L 166.176674 295.94246 
L 167.882288 295.93516 
L 172.430591 295.963913 
L 175.27328 295.794219 
L 178.684508 295.7083 
L 179.821583 295.80171 
L 181.527197 295.648569 
L 182.664273 295.742805 
L 183.801348 295.764833 
L 184.369886 295.819122 
L 186.0755 295.529535 
L 187.212576 295.731236 
L 188.349652 295.470247 
L 190.055265 295.564334 
L 190.623803 295.446064 
L 191.192341 295.529809 
L 191.760879 295.810513 
L 192.329417 294.619841 
L 192.897955 295.364282 
L 193.466492 295.283554 
L 194.03503 295.353111 
L 194.603568 295.250474 
L 196.309182 295.196989 
L 205.974326 294.844666 
L 209.954091 294.608522 
L 212.228242 294.480825 
L 220.187773 294.034033 
L 220.756311 293.566092 
L 221.324848 294.002223 
L 221.893386 293.849218 
L 223.030462 293.754975 
L 229.284379 292.989589 
L 232.127068 292.813031 
L 234.40122 292.451467 
L 240.086598 291.383175 
L 243.497826 290.858007 
L 245.771977 290.317271 
L 248.614667 289.471424 
L 249.183205 289.124501 
L 249.751742 289.306099 
L 250.32028 289.078065 
L 251.457356 288.766432 
L 254.300045 287.858617 
L 255.437121 287.412572 
L 256.574197 287.004792 
L 262.828114 284.020005 
L 264.533727 282.978855 
L 267.376417 281.020683 
L 270.219106 278.770032 
L 272.493258 276.580566 
L 277.610098 270.721448 
L 278.178636 266.976014 
L 278.747174 268.39988 
L 280.452788 265.725444 
L 282.158402 262.434075 
L 284.432553 257.334117 
L 286.706705 251.482905 
L 288.412318 246.52353 
L 290.117932 240.983082 
L 291.823545 234.633439 
L 294.097697 225.362046 
L 299.214538 203.647173 
L 302.057227 193.212183 
L 303.194303 190.294955 
L 304.331379 187.728878 
L 304.899917 186.956883 
L 306.036992 186.169611 
L 306.60553 185.104545 
L 307.174068 186.019382 
L 307.742606 186.346611 
L 308.879682 187.925808 
L 310.016758 189.966433 
L 311.153833 192.725516 
L 312.290909 196.103337 
L 313.996523 202.41466 
L 315.702136 210.010654 
L 319.113364 225.762598 
L 320.818977 232.4072 
L 322.524591 238.225475 
L 327.641432 254.219349 
L 329.347045 258.694645 
L 331.052659 262.364668 
L 332.758273 265.309967 
L 333.895348 267.1813 
L 335.600962 269.410198 
L 336.738038 271.542553 
L 338.443652 273.786928 
L 339.580727 275.271088 
L 341.854879 277.621647 
L 344.12903 279.472705 
L 350.382947 283.91475 
L 353.794174 285.583109 
L 359.479553 287.890094 
L 361.753705 288.584425 
L 363.459318 288.783048 
L 364.027856 289.206274 
L 364.596394 289.777558 
L 365.164932 289.88873 
L 365.73347 289.783089 
L 366.302008 289.893255 
L 366.870545 290.185099 
L 367.439083 290.348879 
L 368.576159 290.304774 
L 369.713235 290.913079 
L 370.281773 290.952776 
L 370.850311 290.843971 
L 371.418848 290.881915 
L 372.555924 291.226353 
L 373.693 291.489517 
L 374.261538 291.680271 
L 375.398614 291.723926 
L 375.967152 291.760757 
L 377.672765 292.1282 
L 378.809841 292.216145 
L 380.515455 292.544162 
L 387.906447 293.296156 
L 389.612061 293.579016 
L 393.023288 293.809642 
L 393.591826 294.183813 
L 394.728902 294.187542 
L 397.003053 294.153228 
L 414.627727 295.273376 
L 417.470417 295.352995 
L 420.313106 295.384246 
L 420.881644 295.209206 
L 421.450182 295.727674 
L 422.01872 295.456096 
L 423.724333 295.545665 
L 431.683864 295.730587 
L 431.683864 295.730587 
" style="fill:none;stroke:#1f77b4;stroke-linecap:square;stroke-width:1.5;"/>
   </g>
   <g id="patch_8">
    <path d="M 73.505 303.64 
L 73.505 179.46 
" style="fill:none;stroke:#000000;stroke-linecap:square;stroke-linejoin:miter;stroke-width:0.8;"/>
   </g>
   <g id="patch_9">
    <path d="M 448.74 303.64 
L 448.74 179.46 
" style="fill:none;stroke:#000000;stroke-linecap:square;stroke-linejoin:miter;stroke-width:0.8;"/>
   </g>
   <g id="patch_10">
    <path d="M 73.505 303.64 
L 448.74 303.64 
" style="fill:none;stroke:#000000;stroke-linecap:square;stroke-linejoin:miter;stroke-width:0.8;"/>
   </g>
   <g id="patch_11">
    <path d="M 73.505 179.46 
L 448.74 179.46 
" style="fill:none;stroke:#000000;stroke-linecap:square;stroke-linejoin:miter;stroke-width:0.8;"/>
   </g>
  </g>
 </g>
 <defs>
  <clipPath id="p1245222107">
   <rect height="124.18" width="375.235" x="73.505" y="12.06"/>
  </clipPath>
  <clipPath id="pdcceed9ce5">
   <rect height="124.18" width="375.235" x="73.505" y="179.46"/>
  </clipPath>
 </defs>
</svg>
