<?xml version="1.0" encoding="utf-8" standalone="no"?>
<!DOCTYPE svg PUBLIC "-//W3C//DTD SVG 1.1//EN"
  "http://www.w3.org/Graphics/SVG/1.1/DTD/svg11.dtd">
<!-- Created with matplotlib (http://matplotlib.org/) -->
<svg height="345pt" version="1.1" viewBox="0 0 460 345" width="460pt" xmlns="http://www.w3.org/2000/svg" xmlns:xlink="http://www.w3.org/1999/xlink">
 <defs>
  <style type="text/css">
*{stroke-linecap:butt;stroke-linejoin:round;}
  </style>
 </defs>
 <g id="figure_1">
  <g id="patch_1">
   <path d="M 0 345.6 
L 460.8 345.6 
L 460.8 0 
L 0 0 
z
" style="fill:#ffffff;"/>
  </g>
  <g id="axes_1">
   <g id="patch_2">
    <path d="M 74.81 136.24 
L 447.48 136.24 
L 447.48 13.32 
L 74.81 13.32 
z
" style="fill:#ffffff;"/>
   </g>
   <g id="matplotlib.axis_1">
    <g id="xtick_1">
     <g id="line2d_1">
      <defs>
       <path d="M 0 0 
L 0 3.5 
" id="md7b58022ae" style="stroke:#000000;stroke-width:0.8;"/>
      </defs>
      <g>
       <use style="stroke:#000000;stroke-width:0.8;" x="91.749545" xlink:href="#md7b58022ae" y="136.24"/>
      </g>
     </g>
     <g id="text_1">
      <!-- 0 -->
      <defs>
       <path d="M 31.78125 66.40625 
Q 24.171875 66.40625 20.328125 58.90625 
Q 16.5 51.421875 16.5 36.375 
Q 16.5 21.390625 20.328125 13.890625 
Q 24.171875 6.390625 31.78125 6.390625 
Q 39.453125 6.390625 43.28125 13.890625 
Q 47.125 21.390625 47.125 36.375 
Q 47.125 51.421875 43.28125 58.90625 
Q 39.453125 66.40625 31.78125 66.40625 
M 31.78125 74.21875 
Q 44.046875 74.21875 50.515625 64.515625 
Q 56.984375 54.828125 56.984375 36.375 
Q 56.984375 17.96875 50.515625 8.265625 
Q 44.046875 -1.421875 31.78125 -1.421875 
Q 19.53125 -1.421875 13.0625 8.265625 
Q 6.59375 17.96875 6.59375 36.375 
Q 6.59375 54.828125 13.0625 64.515625 
Q 19.53125 74.21875 31.78125 74.21875 
" id="DejaVuSans-30"/>
      </defs>
      <g transform="translate(88.568295 150.838437)scale(0.1 -0.1)">
       <use xlink:href="#DejaVuSans-30"/>
      </g>
     </g>
    </g>
    <g id="xtick_2">
     <g id="line2d_2">
      <g>
       <use style="stroke:#000000;stroke-width:0.8;" x="159.507727" xlink:href="#md7b58022ae" y="136.24"/>
      </g>
     </g>
     <g id="text_2">
      <!-- 1 -->
      <defs>
       <path d="M 12.40625 8.296875 
L 28.515625 8.296875 
L 28.515625 63.921875 
L 10.984375 60.40625 
L 10.984375 69.390625 
L 28.421875 72.90625 
L 38.28125 72.90625 
L 38.28125 8.296875 
L 54.390625 8.296875 
L 54.390625 0 
L 12.40625 0 
z
" id="DejaVuSans-31"/>
      </defs>
      <g transform="translate(156.326477 150.838437)scale(0.1 -0.1)">
       <use xlink:href="#DejaVuSans-31"/>
      </g>
     </g>
    </g>
    <g id="xtick_3">
     <g id="line2d_3">
      <g>
       <use style="stroke:#000000;stroke-width:0.8;" x="227.265909" xlink:href="#md7b58022ae" y="136.24"/>
      </g>
     </g>
     <g id="text_3">
      <!-- 2 -->
      <defs>
       <path d="M 19.1875 8.296875 
L 53.609375 8.296875 
L 53.609375 0 
L 7.328125 0 
L 7.328125 8.296875 
Q 12.9375 14.109375 22.625 23.890625 
Q 32.328125 33.6875 34.8125 36.53125 
Q 39.546875 41.84375 41.421875 45.53125 
Q 43.3125 49.21875 43.3125 52.78125 
Q 43.3125 58.59375 39.234375 62.25 
Q 35.15625 65.921875 28.609375 65.921875 
Q 23.96875 65.921875 18.8125 64.3125 
Q 13.671875 62.703125 7.8125 59.421875 
L 7.8125 69.390625 
Q 13.765625 71.78125 18.9375 73 
Q 24.125 74.21875 28.421875 74.21875 
Q 39.75 74.21875 46.484375 68.546875 
Q 53.21875 62.890625 53.21875 53.421875 
Q 53.21875 48.921875 51.53125 44.890625 
Q 49.859375 40.875 45.40625 35.40625 
Q 44.1875 33.984375 37.640625 27.21875 
Q 31.109375 20.453125 19.1875 8.296875 
" id="DejaVuSans-32"/>
      </defs>
      <g transform="translate(224.084659 150.838437)scale(0.1 -0.1)">
       <use xlink:href="#DejaVuSans-32"/>
      </g>
     </g>
    </g>
    <g id="xtick_4">
     <g id="line2d_4">
      <g>
       <use style="stroke:#000000;stroke-width:0.8;" x="295.024091" xlink:href="#md7b58022ae" y="136.24"/>
      </g>
     </g>
     <g id="text_4">
      <!-- 3 -->
      <defs>
       <path d="M 40.578125 39.3125 
Q 47.65625 37.796875 51.625 33 
Q 55.609375 28.21875 55.609375 21.1875 
Q 55.609375 10.40625 48.1875 4.484375 
Q 40.765625 -1.421875 27.09375 -1.421875 
Q 22.515625 -1.421875 17.65625 -0.515625 
Q 12.796875 0.390625 7.625 2.203125 
L 7.625 11.71875 
Q 11.71875 9.328125 16.59375 8.109375 
Q 21.484375 6.890625 26.8125 6.890625 
Q 36.078125 6.890625 40.9375 10.546875 
Q 45.796875 14.203125 45.796875 21.1875 
Q 45.796875 27.640625 41.28125 31.265625 
Q 36.765625 34.90625 28.71875 34.90625 
L 20.21875 34.90625 
L 20.21875 43.015625 
L 29.109375 43.015625 
Q 36.375 43.015625 40.234375 45.921875 
Q 44.09375 48.828125 44.09375 54.296875 
Q 44.09375 59.90625 40.109375 62.90625 
Q 36.140625 65.921875 28.71875 65.921875 
Q 24.65625 65.921875 20.015625 65.03125 
Q 15.375 64.15625 9.8125 62.3125 
L 9.8125 71.09375 
Q 15.4375 72.65625 20.34375 73.4375 
Q 25.25 74.21875 29.59375 74.21875 
Q 40.828125 74.21875 47.359375 69.109375 
Q 53.90625 64.015625 53.90625 55.328125 
Q 53.90625 49.265625 50.4375 45.09375 
Q 46.96875 40.921875 40.578125 39.3125 
" id="DejaVuSans-33"/>
      </defs>
      <g transform="translate(291.842841 150.838437)scale(0.1 -0.1)">
       <use xlink:href="#DejaVuSans-33"/>
      </g>
     </g>
    </g>
    <g id="xtick_5">
     <g id="line2d_5">
      <g>
       <use style="stroke:#000000;stroke-width:0.8;" x="362.782273" xlink:href="#md7b58022ae" y="136.24"/>
      </g>
     </g>
     <g id="text_5">
      <!-- 4 -->
      <defs>
       <path d="M 37.796875 64.3125 
L 12.890625 25.390625 
L 37.796875 25.390625 
z
M 35.203125 72.90625 
L 47.609375 72.90625 
L 47.609375 25.390625 
L 58.015625 25.390625 
L 58.015625 17.1875 
L 47.609375 17.1875 
L 47.609375 0 
L 37.796875 0 
L 37.796875 17.1875 
L 4.890625 17.1875 
L 4.890625 26.703125 
z
" id="DejaVuSans-34"/>
      </defs>
      <g transform="translate(359.601023 150.838437)scale(0.1 -0.1)">
       <use xlink:href="#DejaVuSans-34"/>
      </g>
     </g>
    </g>
    <g id="xtick_6">
     <g id="line2d_6">
      <g>
       <use style="stroke:#000000;stroke-width:0.8;" x="430.540455" xlink:href="#md7b58022ae" y="136.24"/>
      </g>
     </g>
     <g id="text_6">
      <!-- 5 -->
      <defs>
       <path d="M 10.796875 72.90625 
L 49.515625 72.90625 
L 49.515625 64.59375 
L 19.828125 64.59375 
L 19.828125 46.734375 
Q 21.96875 47.46875 24.109375 47.828125 
Q 26.265625 48.1875 28.421875 48.1875 
Q 40.625 48.1875 47.75 41.5 
Q 54.890625 34.8125 54.890625 23.390625 
Q 54.890625 11.625 47.5625 5.09375 
Q 40.234375 -1.421875 26.90625 -1.421875 
Q 22.3125 -1.421875 17.546875 -0.640625 
Q 12.796875 0.140625 7.71875 1.703125 
L 7.71875 11.625 
Q 12.109375 9.234375 16.796875 8.0625 
Q 21.484375 6.890625 26.703125 6.890625 
Q 35.15625 6.890625 40.078125 11.328125 
Q 45.015625 15.765625 45.015625 23.390625 
Q 45.015625 31 40.078125 35.4375 
Q 35.15625 39.890625 26.703125 39.890625 
Q 22.75 39.890625 18.8125 39.015625 
Q 14.890625 38.140625 10.796875 36.28125 
z
" id="DejaVuSans-35"/>
      </defs>
      <g transform="translate(427.359205 150.838437)scale(0.1 -0.1)">
       <use xlink:href="#DejaVuSans-35"/>
      </g>
     </g>
    </g>
    <g id="text_7">
     <!-- $\tau$ -->
     <defs>
      <path d="M 32.859375 9.96875 
Q 34.1875 7.625 39.453125 7.625 
L 43.75 7.625 
L 42.28125 0 
L 36.921875 0 
Q 28.125 0 25 4.6875 
Q 21.921875 9.46875 23.96875 19.828125 
L 29 45.703125 
L 8.453125 45.703125 
L 10.203125 54.6875 
L 60.640625 54.6875 
L 58.890625 45.703125 
L 38.1875 45.703125 
L 33.015625 19.28125 
Q 31.640625 12.203125 32.859375 9.96875 
" id="DejaVuSans-Oblique-3c4"/>
     </defs>
     <g transform="translate(258.095 164.516562)scale(0.1 -0.1)">
      <use transform="translate(0 0.3125)" xlink:href="#DejaVuSans-Oblique-3c4"/>
     </g>
    </g>
   </g>
   <g id="matplotlib.axis_2">
    <g id="ytick_1">
     <g id="line2d_7">
      <defs>
       <path d="M 0 0 
L -3.5 0 
" id="m79c300e4e7" style="stroke:#000000;stroke-width:0.8;"/>
      </defs>
      <g>
       <use style="stroke:#000000;stroke-width:0.8;" x="74.81" xlink:href="#m79c300e4e7" y="127.391445"/>
      </g>
     </g>
     <g id="text_8">
      <!-- −2 -->
      <defs>
       <path d="M 10.59375 35.5 
L 73.1875 35.5 
L 73.1875 27.203125 
L 10.59375 27.203125 
z
" id="DejaVuSans-2212"/>
      </defs>
      <g transform="translate(53.067813 131.190664)scale(0.1 -0.1)">
       <use xlink:href="#DejaVuSans-2212"/>
       <use x="83.789062" xlink:href="#DejaVuSans-32"/>
      </g>
     </g>
    </g>
    <g id="ytick_2">
     <g id="line2d_8">
      <g>
       <use style="stroke:#000000;stroke-width:0.8;" x="74.81" xlink:href="#m79c300e4e7" y="105.776085"/>
      </g>
     </g>
     <g id="text_9">
      <!-- −1 -->
      <g transform="translate(53.067813 109.575303)scale(0.1 -0.1)">
       <use xlink:href="#DejaVuSans-2212"/>
       <use x="83.789062" xlink:href="#DejaVuSans-31"/>
      </g>
     </g>
    </g>
    <g id="ytick_3">
     <g id="line2d_9">
      <g>
       <use style="stroke:#000000;stroke-width:0.8;" x="74.81" xlink:href="#m79c300e4e7" y="84.160724"/>
      </g>
     </g>
     <g id="text_10">
      <!-- 0 -->
      <g transform="translate(61.4475 87.959943)scale(0.1 -0.1)">
       <use xlink:href="#DejaVuSans-30"/>
      </g>
     </g>
    </g>
    <g id="ytick_4">
     <g id="line2d_10">
      <g>
       <use style="stroke:#000000;stroke-width:0.8;" x="74.81" xlink:href="#m79c300e4e7" y="62.545364"/>
      </g>
     </g>
     <g id="text_11">
      <!-- 1 -->
      <g transform="translate(61.4475 66.344582)scale(0.1 -0.1)">
       <use xlink:href="#DejaVuSans-31"/>
      </g>
     </g>
    </g>
    <g id="ytick_5">
     <g id="line2d_11">
      <g>
       <use style="stroke:#000000;stroke-width:0.8;" x="74.81" xlink:href="#m79c300e4e7" y="40.930003"/>
      </g>
     </g>
     <g id="text_12">
      <!-- 2 -->
      <g transform="translate(61.4475 44.729222)scale(0.1 -0.1)">
       <use xlink:href="#DejaVuSans-32"/>
      </g>
     </g>
    </g>
    <g id="ytick_6">
     <g id="line2d_12">
      <g>
       <use style="stroke:#000000;stroke-width:0.8;" x="74.81" xlink:href="#m79c300e4e7" y="19.314643"/>
      </g>
     </g>
     <g id="text_13">
      <!-- 3 -->
      <g transform="translate(61.4475 23.113861)scale(0.1 -0.1)">
       <use xlink:href="#DejaVuSans-33"/>
      </g>
     </g>
    </g>
    <g id="text_14">
     <!-- $\langle \sigma_+(\tau) \sigma_-(0)\rangle$ -->
     <defs>
      <path d="M 8.9375 31.34375 
L 22.703125 75.875 
L 31 75.875 
L 17.234375 31.34375 
L 31 -13.1875 
L 22.703125 -13.1875 
z
" id="DejaVuSans-27e8"/>
      <path d="M 34.671875 47.5625 
Q 27.25 47.5625 22.21875 42.1875 
Q 16.890625 36.578125 15.140625 27.296875 
Q 13.1875 17.484375 16.3125 11.8125 
Q 19.390625 6.203125 26.65625 6.203125 
Q 33.84375 6.203125 39.109375 11.859375 
Q 44.4375 17.53125 46.34375 27.296875 
Q 48.046875 36.234375 45.015625 42.1875 
Q 42.1875 47.5625 34.671875 47.5625 
M 36.078125 54.734375 
L 65.921875 54.6875 
L 64.15625 45.703125 
L 54.109375 45.703125 
Q 57.90625 38.09375 55.859375 27.296875 
Q 53.21875 13.875 45.0625 6.25 
Q 36.859375 -1.421875 25.140625 -1.421875 
Q 13.375 -1.421875 8.203125 6.25 
Q 3.03125 13.875 5.671875 27.296875 
Q 8.25 40.765625 16.40625 48.390625 
Q 23.1875 54.734375 36.078125 54.734375 
" id="DejaVuSans-Oblique-3c3"/>
      <path d="M 46 62.703125 
L 46 35.5 
L 73.1875 35.5 
L 73.1875 27.203125 
L 46 27.203125 
L 46 0 
L 37.796875 0 
L 37.796875 27.203125 
L 10.59375 27.203125 
L 10.59375 35.5 
L 37.796875 35.5 
L 37.796875 62.703125 
z
" id="DejaVuSans-2b"/>
      <path d="M 31 75.875 
Q 24.46875 64.65625 21.28125 53.65625 
Q 18.109375 42.671875 18.109375 31.390625 
Q 18.109375 20.125 21.3125 9.0625 
Q 24.515625 -2 31 -13.1875 
L 23.1875 -13.1875 
Q 15.875 -1.703125 12.234375 9.375 
Q 8.59375 20.453125 8.59375 31.390625 
Q 8.59375 42.28125 12.203125 53.3125 
Q 15.828125 64.359375 23.1875 75.875 
z
" id="DejaVuSans-28"/>
      <path d="M 8.015625 75.875 
L 15.828125 75.875 
Q 23.140625 64.359375 26.78125 53.3125 
Q 30.421875 42.28125 30.421875 31.390625 
Q 30.421875 20.453125 26.78125 9.375 
Q 23.140625 -1.703125 15.828125 -13.1875 
L 8.015625 -13.1875 
Q 14.5 -2 17.703125 9.0625 
Q 20.90625 20.125 20.90625 31.390625 
Q 20.90625 42.671875 17.703125 53.65625 
Q 14.5 64.65625 8.015625 75.875 
" id="DejaVuSans-29"/>
      <path d="M 30.078125 31.34375 
L 16.3125 -13.1875 
L 8.015625 -13.1875 
L 21.78125 31.34375 
L 8.015625 75.875 
L 16.3125 75.875 
z
" id="DejaVuSans-27e9"/>
     </defs>
     <g transform="translate(46.988125 107.88)rotate(-90)scale(0.1 -0.1)">
      <use transform="translate(0 0.125)" xlink:href="#DejaVuSans-27e8"/>
      <use transform="translate(39.013672 0.125)" xlink:href="#DejaVuSans-Oblique-3c3"/>
      <use transform="translate(116.030273 -16.28125)scale(0.7)" xlink:href="#DejaVuSans-2b"/>
      <use transform="translate(191.054688 0.125)" xlink:href="#DejaVuSans-28"/>
      <use transform="translate(230.068359 0.125)" xlink:href="#DejaVuSans-Oblique-3c4"/>
      <use transform="translate(290.273438 0.125)" xlink:href="#DejaVuSans-29"/>
      <use transform="translate(329.287109 0.125)" xlink:href="#DejaVuSans-Oblique-3c3"/>
      <use transform="translate(406.303711 -16.28125)scale(0.7)" xlink:href="#DejaVuSans-2212"/>
      <use transform="translate(481.328125 0.125)" xlink:href="#DejaVuSans-28"/>
      <use transform="translate(520.341797 0.125)" xlink:href="#DejaVuSans-30"/>
      <use transform="translate(583.964844 0.125)" xlink:href="#DejaVuSans-29"/>
      <use transform="translate(622.978516 0.125)" xlink:href="#DejaVuSans-27e9"/>
     </g>
    </g>
   </g>
   <g id="line2d_13">
    <path clip-path="url(#p591670aca9)" d="M 91.749545 19.314643 
L 93.4435 18.907273 
L 95.137455 19.312617 
L 96.831409 20.527698 
L 98.525364 22.533598 
L 100.219318 25.296549 
L 101.913273 28.769288 
L 103.607227 32.892646 
L 105.301182 37.5973 
L 106.995136 42.805622 
L 110.383045 54.39263 
L 115.464909 73.342697 
L 120.546773 92.030502 
L 123.934682 103.274505 
L 125.628636 108.333721 
L 127.322591 112.947825 
L 129.016545 117.075055 
L 130.7105 120.682491 
L 132.404455 123.746016 
L 134.098409 126.250238 
L 135.792364 128.18818 
L 137.486318 129.560958 
L 139.180273 130.377234 
L 140.874227 130.652727 
L 142.568182 130.409497 
L 144.262136 129.675329 
L 145.956091 128.482939 
L 147.650045 126.869269 
L 149.344 124.874692 
L 151.037955 122.542251 
L 152.731909 119.916935 
L 156.119818 113.972822 
L 159.507727 107.41386 
L 167.9775 90.613765 
L 171.365409 84.517152 
L 174.753318 79.123281 
L 176.447273 76.740113 
L 178.141227 74.585655 
L 179.835182 72.670074 
L 181.529136 71.000097 
L 183.223091 69.579141 
L 184.917045 68.407482 
L 186.611 67.482487 
L 188.304955 66.798797 
L 189.998909 66.348623 
L 191.692864 66.121956 
L 193.386818 66.106864 
L 195.080773 66.289767 
L 196.774727 66.655668 
L 198.468682 67.188503 
L 200.162636 67.871304 
L 203.550545 69.616407 
L 206.938455 71.747997 
L 212.020318 75.362701 
L 218.796136 80.293539 
L 222.184045 82.567306 
L 225.571955 84.605621 
L 228.959864 86.352907 
L 232.347773 87.773589 
L 235.735682 88.850947 
L 239.123591 89.585297 
L 242.5115 89.991648 
L 245.899409 90.097057 
L 249.287318 89.937815 
L 252.675227 89.556621 
L 257.757091 88.670473 
L 264.532909 87.148704 
L 274.696636 84.812044 
L 279.7785 83.848126 
L 284.860364 83.104926 
L 289.942227 82.606351 
L 295.024091 82.349109 
L 300.105955 82.308456 
L 306.881773 82.521373 
L 315.351545 83.054546 
L 333.985045 84.308248 
L 342.454818 84.625194 
L 350.924591 84.735348 
L 361.088318 84.651586 
L 405.131136 83.983372 
L 428.8465 84.105193 
L 430.540455 84.116822 
L 430.540455 84.116822 
" style="fill:none;stroke:#1f77b4;stroke-linecap:square;stroke-width:1.5;"/>
   </g>
   <g id="patch_3">
    <path d="M 74.81 136.24 
L 74.81 13.32 
" style="fill:none;stroke:#000000;stroke-linecap:square;stroke-linejoin:miter;stroke-width:0.8;"/>
   </g>
   <g id="patch_4">
    <path d="M 447.48 136.24 
L 447.48 13.32 
" style="fill:none;stroke:#000000;stroke-linecap:square;stroke-linejoin:miter;stroke-width:0.8;"/>
   </g>
   <g id="patch_5">
    <path d="M 74.81 136.24 
L 447.48 136.24 
" style="fill:none;stroke:#000000;stroke-linecap:square;stroke-linejoin:miter;stroke-width:0.8;"/>
   </g>
   <g id="patch_6">
    <path d="M 74.81 13.32 
L 447.48 13.32 
" style="fill:none;stroke:#000000;stroke-linecap:square;stroke-linejoin:miter;stroke-width:0.8;"/>
   </g>
  </g>
  <g id="axes_2">
   <g id="patch_7">
    <path d="M 74.81 303.64 
L 447.48 303.64 
L 447.48 180.72 
L 74.81 180.72 
z
" style="fill:#ffffff;"/>
   </g>
   <g id="matplotlib.axis_3">
    <g id="xtick_7">
     <g id="line2d_14">
      <g>
       <use style="stroke:#000000;stroke-width:0.8;" x="91.749545" xlink:href="#md7b58022ae" y="303.64"/>
      </g>
     </g>
     <g id="text_15">
      <!-- −5 -->
      <g transform="translate(84.378452 318.238438)scale(0.1 -0.1)">
       <use xlink:href="#DejaVuSans-2212"/>
       <use x="83.789062" xlink:href="#DejaVuSans-35"/>
      </g>
     </g>
    </g>
    <g id="xtick_8">
     <g id="line2d_15">
      <g>
       <use style="stroke:#000000;stroke-width:0.8;" x="148.214697" xlink:href="#md7b58022ae" y="303.64"/>
      </g>
     </g>
     <g id="text_16">
      <!-- 0 -->
      <g transform="translate(145.033447 318.238438)scale(0.1 -0.1)">
       <use xlink:href="#DejaVuSans-30"/>
      </g>
     </g>
    </g>
    <g id="xtick_9">
     <g id="line2d_16">
      <g>
       <use style="stroke:#000000;stroke-width:0.8;" x="204.679848" xlink:href="#md7b58022ae" y="303.64"/>
      </g>
     </g>
     <g id="text_17">
      <!-- 5 -->
      <g transform="translate(201.498598 318.238438)scale(0.1 -0.1)">
       <use xlink:href="#DejaVuSans-35"/>
      </g>
     </g>
    </g>
    <g id="xtick_10">
     <g id="line2d_17">
      <g>
       <use style="stroke:#000000;stroke-width:0.8;" x="261.145" xlink:href="#md7b58022ae" y="303.64"/>
      </g>
     </g>
     <g id="text_18">
      <!-- 10 -->
      <g transform="translate(254.7825 318.238438)scale(0.1 -0.1)">
       <use xlink:href="#DejaVuSans-31"/>
       <use x="63.623047" xlink:href="#DejaVuSans-30"/>
      </g>
     </g>
    </g>
    <g id="xtick_11">
     <g id="line2d_18">
      <g>
       <use style="stroke:#000000;stroke-width:0.8;" x="317.610152" xlink:href="#md7b58022ae" y="303.64"/>
      </g>
     </g>
     <g id="text_19">
      <!-- 15 -->
      <g transform="translate(311.247652 318.238438)scale(0.1 -0.1)">
       <use xlink:href="#DejaVuSans-31"/>
       <use x="63.623047" xlink:href="#DejaVuSans-35"/>
      </g>
     </g>
    </g>
    <g id="xtick_12">
     <g id="line2d_19">
      <g>
       <use style="stroke:#000000;stroke-width:0.8;" x="374.075303" xlink:href="#md7b58022ae" y="303.64"/>
      </g>
     </g>
     <g id="text_20">
      <!-- 20 -->
      <g transform="translate(367.712803 318.238438)scale(0.1 -0.1)">
       <use xlink:href="#DejaVuSans-32"/>
       <use x="63.623047" xlink:href="#DejaVuSans-30"/>
      </g>
     </g>
    </g>
    <g id="xtick_13">
     <g id="line2d_20">
      <g>
       <use style="stroke:#000000;stroke-width:0.8;" x="430.540455" xlink:href="#md7b58022ae" y="303.64"/>
      </g>
     </g>
     <g id="text_21">
      <!-- 25 -->
      <g transform="translate(424.177955 318.238438)scale(0.1 -0.1)">
       <use xlink:href="#DejaVuSans-32"/>
       <use x="63.623047" xlink:href="#DejaVuSans-35"/>
      </g>
     </g>
    </g>
    <g id="text_22">
     <!-- $\omega$ -->
     <defs>
      <path d="M 21.390625 -1.421875 
Q 1.125 -1.421875 6.78125 27.59375 
Q 8.984375 39.0625 19.625 54.6875 
L 29.296875 54.6875 
Q 19.234375 39.0625 17 27.34375 
Q 12.796875 6.203125 23.734375 6.203125 
Q 33.84375 6.203125 38.71875 32.46875 
L 47.015625 32.46875 
Q 41.703125 6.0625 51.8125 6.203125 
Q 62.703125 6.296875 66.796875 27.34375 
Q 69.046875 39.0625 65.140625 54.6875 
L 74.8125 54.6875 
Q 79.296875 39.0625 77.09375 27.59375 
Q 71.53125 -1.46875 51.21875 -1.421875 
Q 37.9375 -1.375 39.109375 13.1875 
Q 34.28125 -1.421875 21.390625 -1.421875 
" id="DejaVuSans-Oblique-3c9"/>
     </defs>
     <g transform="translate(256.945 331.916562)scale(0.1 -0.1)">
      <use transform="translate(0 0.3125)" xlink:href="#DejaVuSans-Oblique-3c9"/>
     </g>
    </g>
   </g>
   <g id="matplotlib.axis_4">
    <g id="ytick_7">
     <g id="line2d_21">
      <g>
       <use style="stroke:#000000;stroke-width:0.8;" x="74.81" xlink:href="#m79c300e4e7" y="292.891009"/>
      </g>
     </g>
     <g id="text_23">
      <!-- 0.00001 -->
      <defs>
       <path d="M 10.6875 12.40625 
L 21 12.40625 
L 21 0 
L 10.6875 0 
z
" id="DejaVuSans-2e"/>
      </defs>
      <g transform="translate(26.456875 296.690227)scale(0.1 -0.1)">
       <use xlink:href="#DejaVuSans-30"/>
       <use x="63.623047" xlink:href="#DejaVuSans-2e"/>
       <use x="95.410156" xlink:href="#DejaVuSans-30"/>
       <use x="159.033203" xlink:href="#DejaVuSans-30"/>
       <use x="222.65625" xlink:href="#DejaVuSans-30"/>
       <use x="286.279297" xlink:href="#DejaVuSans-30"/>
       <use x="349.902344" xlink:href="#DejaVuSans-31"/>
      </g>
     </g>
    </g>
    <g id="ytick_8">
     <g id="line2d_22">
      <g>
       <use style="stroke:#000000;stroke-width:0.8;" x="74.81" xlink:href="#m79c300e4e7" y="270.161969"/>
      </g>
     </g>
     <g id="text_24">
      <!-- 0.00002 -->
      <g transform="translate(26.456875 273.961188)scale(0.1 -0.1)">
       <use xlink:href="#DejaVuSans-30"/>
       <use x="63.623047" xlink:href="#DejaVuSans-2e"/>
       <use x="95.410156" xlink:href="#DejaVuSans-30"/>
       <use x="159.033203" xlink:href="#DejaVuSans-30"/>
       <use x="222.65625" xlink:href="#DejaVuSans-30"/>
       <use x="286.279297" xlink:href="#DejaVuSans-30"/>
       <use x="349.902344" xlink:href="#DejaVuSans-32"/>
      </g>
     </g>
    </g>
    <g id="ytick_9">
     <g id="line2d_23">
      <g>
       <use style="stroke:#000000;stroke-width:0.8;" x="74.81" xlink:href="#m79c300e4e7" y="247.432929"/>
      </g>
     </g>
     <g id="text_25">
      <!-- 0.00003 -->
      <g transform="translate(26.456875 251.232148)scale(0.1 -0.1)">
       <use xlink:href="#DejaVuSans-30"/>
       <use x="63.623047" xlink:href="#DejaVuSans-2e"/>
       <use x="95.410156" xlink:href="#DejaVuSans-30"/>
       <use x="159.033203" xlink:href="#DejaVuSans-30"/>
       <use x="222.65625" xlink:href="#DejaVuSans-30"/>
       <use x="286.279297" xlink:href="#DejaVuSans-30"/>
       <use x="349.902344" xlink:href="#DejaVuSans-33"/>
      </g>
     </g>
    </g>
    <g id="ytick_10">
     <g id="line2d_24">
      <g>
       <use style="stroke:#000000;stroke-width:0.8;" x="74.81" xlink:href="#m79c300e4e7" y="224.703889"/>
      </g>
     </g>
     <g id="text_26">
      <!-- 0.00004 -->
      <g transform="translate(26.456875 228.503108)scale(0.1 -0.1)">
       <use xlink:href="#DejaVuSans-30"/>
       <use x="63.623047" xlink:href="#DejaVuSans-2e"/>
       <use x="95.410156" xlink:href="#DejaVuSans-30"/>
       <use x="159.033203" xlink:href="#DejaVuSans-30"/>
       <use x="222.65625" xlink:href="#DejaVuSans-30"/>
       <use x="286.279297" xlink:href="#DejaVuSans-30"/>
       <use x="349.902344" xlink:href="#DejaVuSans-34"/>
      </g>
     </g>
    </g>
    <g id="ytick_11">
     <g id="line2d_25">
      <g>
       <use style="stroke:#000000;stroke-width:0.8;" x="74.81" xlink:href="#m79c300e4e7" y="201.974849"/>
      </g>
     </g>
     <g id="text_27">
      <!-- 0.00005 -->
      <g transform="translate(26.456875 205.774068)scale(0.1 -0.1)">
       <use xlink:href="#DejaVuSans-30"/>
       <use x="63.623047" xlink:href="#DejaVuSans-2e"/>
       <use x="95.410156" xlink:href="#DejaVuSans-30"/>
       <use x="159.033203" xlink:href="#DejaVuSans-30"/>
       <use x="222.65625" xlink:href="#DejaVuSans-30"/>
       <use x="286.279297" xlink:href="#DejaVuSans-30"/>
       <use x="349.902344" xlink:href="#DejaVuSans-35"/>
      </g>
     </g>
    </g>
    <g id="text_28">
     <!-- $S(\omega)$ -->
     <defs>
      <path d="M 60.296875 70.515625 
L 58.40625 60.890625 
Q 53.46875 63.53125 48.609375 64.875 
Q 43.75 66.21875 39.203125 66.21875 
Q 30.375 66.21875 25.140625 62.359375 
Q 19.921875 58.5 19.921875 52.09375 
Q 19.921875 48.578125 21.84375 46.703125 
Q 23.78125 44.828125 31.78125 42.671875 
L 37.703125 41.21875 
Q 47.703125 38.625 51.609375 34.640625 
Q 55.515625 30.671875 55.515625 23.484375 
Q 55.515625 12.453125 46.84375 5.515625 
Q 38.1875 -1.421875 24.03125 -1.421875 
Q 18.21875 -1.421875 12.359375 -0.265625 
Q 6.5 0.875 0.59375 3.21875 
L 2.59375 13.375 
Q 8.015625 10.015625 13.453125 8.296875 
Q 18.890625 6.59375 24.3125 6.59375 
Q 33.546875 6.59375 39.109375 10.6875 
Q 44.671875 14.796875 44.671875 21.390625 
Q 44.671875 25.78125 42.453125 28.046875 
Q 40.234375 30.328125 32.90625 32.171875 
L 27 33.6875 
Q 16.890625 36.328125 13.203125 39.765625 
Q 9.515625 43.21875 9.515625 49.421875 
Q 9.515625 60.296875 17.890625 67.25 
Q 26.265625 74.21875 39.703125 74.21875 
Q 44.921875 74.21875 50.046875 73.28125 
Q 55.171875 72.359375 60.296875 70.515625 
" id="DejaVuSans-Oblique-53"/>
     </defs>
     <g transform="translate(20.377188 253.48)rotate(-90)scale(0.1 -0.1)">
      <use transform="translate(0 0.125)" xlink:href="#DejaVuSans-Oblique-53"/>
      <use transform="translate(63.476562 0.125)" xlink:href="#DejaVuSans-28"/>
      <use transform="translate(102.490234 0.125)" xlink:href="#DejaVuSans-Oblique-3c9"/>
      <use transform="translate(186.230469 0.125)" xlink:href="#DejaVuSans-29"/>
     </g>
    </g>
   </g>
   <g id="line2d_26">
    <path clip-path="url(#pcdbcf21045)" d="M 91.749545 295.820235 
L 108.124439 296.108522 
L 109.253742 296.161332 
L 110.383045 296.226362 
L 112.077 296.219047 
L 135.227712 296.247092 
L 135.792364 296.575496 
L 136.357015 296.140444 
L 137.486318 296.442825 
L 138.615621 296.352943 
L 152.731909 296.267803 
L 156.119818 296.103469 
L 160.072379 296.258221 
L 161.766333 296.075113 
L 162.330985 295.985806 
L 162.895636 296.184349 
L 163.460288 296.913287 
L 164.024939 298.052727 
L 164.589591 295.298092 
L 165.154242 295.797126 
L 165.718894 295.92899 
L 166.283545 295.862441 
L 166.848197 296.020564 
L 168.542152 296.013337 
L 173.059364 296.041799 
L 178.141227 295.842284 
L 179.27053 295.78878 
L 180.399833 295.881241 
L 182.093788 295.729655 
L 183.223091 295.822934 
L 184.352394 295.844739 
L 184.917045 295.898477 
L 186.611 295.611828 
L 187.740303 295.811483 
L 188.869606 295.553142 
L 190.563561 295.646274 
L 191.128212 295.529204 
L 191.692864 295.6121 
L 192.257515 295.889955 
L 192.822167 294.711364 
L 193.386818 295.448252 
L 193.95147 295.368343 
L 194.516121 295.437195 
L 195.080773 295.335598 
L 196.774727 295.282657 
L 206.373803 294.933909 
L 210.326364 294.70016 
L 212.58497 294.573759 
L 220.490091 294.131501 
L 221.054742 293.668308 
L 221.619394 294.100014 
L 222.184045 293.94856 
L 223.313348 293.855274 
L 229.524515 293.097654 
L 232.347773 292.922888 
L 234.606379 292.564992 
L 240.252894 291.50754 
L 243.640803 290.9877 
L 245.899409 290.452451 
L 248.722667 289.615186 
L 249.287318 289.271784 
L 249.85197 289.451539 
L 250.416621 289.225819 
L 251.545924 288.917348 
L 254.369182 288.018744 
L 255.498485 287.577225 
L 256.627788 287.173583 
L 263.403606 283.906701 
L 266.226864 282.068071 
L 269.614773 279.51275 
L 271.873379 277.440025 
L 273.567333 275.572765 
L 277.519894 271.055458 
L 278.084545 267.348028 
L 278.649197 268.757446 
L 280.343152 266.110146 
L 282.037106 262.852173 
L 284.295712 257.803963 
L 287.11897 250.437215 
L 288.812924 245.346652 
L 290.506879 239.615346 
L 292.765485 230.913134 
L 296.718045 214.158745 
L 299.541303 202.514767 
L 302.364561 192.769717 
L 304.058515 188.904977 
L 304.623167 188.140816 
L 305.75247 187.361532 
L 306.317121 186.307273 
L 306.881773 187.212827 
L 307.446424 187.536735 
L 308.575727 189.099909 
L 309.70503 191.119829 
L 310.834333 193.850916 
L 311.963636 197.194464 
L 313.657591 203.441749 
L 315.351545 210.96067 
L 318.739455 226.552786 
L 320.433409 233.129968 
L 322.127364 238.889208 
L 327.209227 254.720799 
L 328.903182 259.150685 
L 330.597136 262.783471 
L 332.291091 265.698885 
L 333.420394 267.55123 
L 335.114348 269.757513 
L 336.243652 271.868232 
L 337.937606 274.089834 
L 339.066909 275.558935 
L 341.325515 277.885644 
L 343.584121 279.71792 
L 349.795288 284.114893 
L 353.183197 285.766325 
L 359.394364 288.232033 
L 361.65297 288.835771 
L 362.782273 288.933795 
L 363.346924 289.352727 
L 363.911576 289.918214 
L 364.476227 290.028258 
L 365.040879 289.923689 
L 365.60553 290.032737 
L 366.170182 290.32162 
L 366.734833 290.483738 
L 367.864136 290.440081 
L 368.993439 291.042213 
L 369.558091 291.081508 
L 370.122742 290.973807 
L 370.687394 291.011366 
L 371.816697 291.352309 
L 372.946 291.612803 
L 374.075303 291.873453 
L 375.204606 291.881291 
L 376.898561 292.245005 
L 378.027864 292.332058 
L 379.721818 292.656747 
L 387.062288 293.40111 
L 388.756242 293.6811 
L 392.144152 293.909386 
L 392.708803 294.279761 
L 393.838106 294.283452 
L 396.096712 294.249486 
L 413.600909 295.358268 
L 416.424167 295.437079 
L 419.247424 295.468014 
L 419.812076 295.29475 
L 420.376727 295.807957 
L 420.941379 295.539134 
L 422.635333 295.627794 
L 430.540455 295.810841 
L 430.540455 295.810841 
" style="fill:none;stroke:#1f77b4;stroke-linecap:square;stroke-width:1.5;"/>
   </g>
   <g id="patch_8">
    <path d="M 74.81 303.64 
L 74.81 180.72 
" style="fill:none;stroke:#000000;stroke-linecap:square;stroke-linejoin:miter;stroke-width:0.8;"/>
   </g>
   <g id="patch_9">
    <path d="M 447.48 303.64 
L 447.48 180.72 
" style="fill:none;stroke:#000000;stroke-linecap:square;stroke-linejoin:miter;stroke-width:0.8;"/>
   </g>
   <g id="patch_10">
    <path d="M 74.81 303.64 
L 447.48 303.64 
" style="fill:none;stroke:#000000;stroke-linecap:square;stroke-linejoin:miter;stroke-width:0.8;"/>
   </g>
   <g id="patch_11">
    <path d="M 74.81 180.72 
L 447.48 180.72 
" style="fill:none;stroke:#000000;stroke-linecap:square;stroke-linejoin:miter;stroke-width:0.8;"/>
   </g>
  </g>
 </g>
 <defs>
  <clipPath id="p591670aca9">
   <rect height="122.92" width="372.67" x="74.81" y="13.32"/>
  </clipPath>
  <clipPath id="pcdbcf21045">
   <rect height="122.92" width="372.67" x="74.81" y="180.72"/>
  </clipPath>
 </defs>
</svg>
