<?xml version="1.0" encoding="utf-8"?>
<!-- Generator: Adobe Illustrator 18.0.0, SVG Export Plug-In . SVG Version: 6.00 Build 0)  -->
<!DOCTYPE svg PUBLIC "-//W3C//DTD SVG 1.1//EN" "http://www.w3.org/Graphics/SVG/1.1/DTD/svg11.dtd">
<svg version="1.1" id="Ebene_1" xmlns="http://www.w3.org/2000/svg" xmlns:xlink="http://www.w3.org/1999/xlink" x="0px" y="0px"
	 viewBox="0 0 379 113" enable-background="new 0 0 379 113" xml:space="preserve">
<circle id="XMLID_2_" fill="none" stroke="#DDDDDD" stroke-width="7" stroke-miterlimit="10" cx="57.2" cy="53.9" r="45.8"/>
<circle id="XMLID_1_" fill="none" stroke="#DDDDDD" stroke-width="7" stroke-miterlimit="10" cx="56.6" cy="53.2" r="28.7"/>
<circle id="XMLID_3_" fill="#D66761" cx="57.2" cy="53.9" r="12.1"/>
<circle id="XMLID_5_" fill="#6CAC5B" stroke="#FFFFFF" stroke-width="2" stroke-miterlimit="10" cx="83.3" cy="93.7" r="8"/>
<circle id="XMLID_4_" fill="#A87DB6" stroke="#FFFFFF" stroke-width="2" stroke-miterlimit="10" cx="71.4" cy="78.6" r="9.6"/>
<g>
	<path d="M74.1,54.3c0,1.7-0.3,3.3-0.8,4.8C72.8,60.6,72,62,71,63.3l2.9,2.8l-3.3,3.3l-3-3c-1.2,0.8-2.6,1.5-4,2
		c-1.5,0.5-3,0.7-4.6,0.7c-2.1,0-4.1-0.4-5.9-1.2s-3.4-1.8-4.8-3.2c-1.4-1.4-2.5-2.9-3.3-4.7s-1.2-3.7-1.2-5.8c0-2.1,0.4-4,1.2-5.8
		s1.9-3.4,3.3-4.8c1.4-1.4,3-2.4,4.8-3.2c1.8-0.8,3.8-1.2,5.9-1.2s4.1,0.4,5.9,1.2c1.8,0.8,3.5,1.8,4.8,3.2c1.4,1.4,2.5,2.9,3.3,4.8
		S74.1,52.2,74.1,54.3z M68.7,54.3c0-1.3-0.3-2.6-0.8-3.7c-0.5-1.2-1.2-2.2-2.1-3.1c-0.9-0.9-1.9-1.6-3.1-2.1
		c-1.2-0.5-2.5-0.8-3.8-0.8c-1.3,0-2.6,0.3-3.8,0.8c-1.2,0.5-2.2,1.2-3.1,2.1c-0.9,0.9-1.6,1.9-2.1,3.1c-0.5,1.2-0.8,2.4-0.8,3.7
		c0,1.3,0.3,2.6,0.8,3.7c0.5,1.2,1.2,2.2,2.1,3.1c0.9,0.9,1.9,1.6,3.1,2.1c1.2,0.5,2.4,0.8,3.8,0.8c0.9,0,1.8-0.1,2.6-0.4
		c0.8-0.2,1.6-0.6,2.4-1L61.2,60l3.3-3.3l2.7,2.7C68.2,57.8,68.7,56.1,68.7,54.3z"/>
	<path d="M96.2,68.7H91v-1.6c-0.3,0.3-0.7,0.6-1.2,0.9c-0.4,0.3-0.9,0.5-1.4,0.6c-0.5,0.2-1,0.3-1.5,0.4c-0.5,0.1-1,0.1-1.5,0.1
		c-1.1,0-2.1-0.2-3-0.5c-1-0.3-1.8-0.9-2.6-1.5c-0.7-0.7-1.3-1.6-1.8-2.7c-0.4-1.1-0.7-2.4-0.7-3.9V47.9h5.2v12.4
		c0,0.7,0.1,1.4,0.3,2c0.2,0.6,0.5,1,0.9,1.4c0.4,0.4,0.8,0.6,1.3,0.8c0.5,0.2,1,0.3,1.5,0.3c1.7,0,3.1-0.6,4.4-1.7V47.9h5.2V68.7z"
		/>
	<path d="M117.4,68.7h-5.2v-1.1c-0.9,0.6-1.9,1.1-2.9,1.3c-1,0.2-2.1,0.4-3.1,0.4c-1,0-1.9-0.2-2.7-0.5c-0.8-0.3-1.5-0.7-2.1-1.3
		c-0.6-0.6-1.1-1.2-1.4-2c-0.3-0.8-0.5-1.6-0.5-2.6c0-1.2,0.3-2.2,0.8-3.1c0.5-0.9,1.2-1.6,2.1-2.2c0.9-0.6,1.9-1,3.1-1.3
		s2.5-0.4,3.8-0.4h3c0-1.2-0.4-2.2-1.2-2.9c-0.8-0.7-1.9-1.1-3.4-1.1c-0.7,0-1.5,0.1-2.2,0.4c-0.8,0.3-1.5,0.7-2.3,1.4l-3.1-3.1
		c1.1-1.1,2.4-1.9,3.8-2.4c1.5-0.6,2.9-0.9,4.5-0.9c1.4,0,2.7,0.2,3.8,0.7c1.1,0.5,2,1,2.7,1.8c0.9,0.9,1.5,1.9,1.9,3.1
		c0.4,1.1,0.6,2.6,0.6,4.3V68.7z M112.2,63.5v-3.9h-2.4c-0.7,0-1.4,0-2,0.1c-0.6,0.1-1.2,0.3-1.7,0.5c-0.5,0.2-0.8,0.5-1.1,0.9
		c-0.3,0.4-0.4,0.8-0.4,1.3c0,0.7,0.3,1.3,0.8,1.8c0.6,0.5,1.3,0.7,2.2,0.7c0.8,0,1.5-0.1,2.3-0.4C110.7,64.3,111.4,63.9,112.2,63.5
		z"/>
	<path d="M140.3,68.7h-5.2V56.2c0-0.7-0.1-1.4-0.3-2s-0.5-1-0.9-1.4c-0.4-0.4-0.8-0.6-1.3-0.8c-0.5-0.2-1-0.3-1.5-0.3
		c-0.8,0-1.6,0.1-2.4,0.4c-0.8,0.3-1.5,0.7-2.1,1.3v15.2h-5.2V47.9h5.2l0,1.5c0.3-0.3,0.7-0.6,1.2-0.9c0.5-0.3,0.9-0.5,1.4-0.7
		c0.5-0.2,1-0.3,1.5-0.4c0.5-0.1,1-0.1,1.5-0.1c1.1,0,2.1,0.2,3,0.5c1,0.3,1.8,0.9,2.6,1.5c0.8,0.7,1.4,1.6,1.8,2.7
		c0.5,1.1,0.7,2.4,0.7,3.9V68.7z"/>
	<path d="M155.9,68.2c-0.5,0.3-1.1,0.6-1.8,0.8c-0.7,0.2-1.4,0.3-2.1,0.3c-1.2,0-2.3-0.2-3.1-0.5c-0.8-0.3-1.5-0.8-2-1.4
		c-0.5-0.6-0.9-1.4-1.1-2.4c-0.2-1-0.3-2.1-0.3-3.4v-9.1h-2.7v-2.3c1.7-0.7,3-1.7,4.1-3.1c1-1.4,1.8-3.1,2.1-5.3h1.7v6.1h5.3v4.7
		h-5.3V62c0,0.5,0.1,1,0.2,1.3c0.1,0.3,0.3,0.6,0.5,0.8c0.2,0.2,0.5,0.3,0.7,0.4c0.3,0.1,0.6,0.1,0.9,0.1c0.4,0,0.9-0.1,1.5-0.2
		c0.6-0.1,1.1-0.4,1.5-0.7V68.2z"/>
	<path d="M177.4,68.7h-5.2v-1.6c-0.3,0.3-0.7,0.6-1.2,0.9c-0.4,0.3-0.9,0.5-1.4,0.6c-0.5,0.2-1,0.3-1.5,0.4c-0.5,0.1-1,0.1-1.5,0.1
		c-1.1,0-2.1-0.2-3-0.5c-1-0.3-1.8-0.9-2.6-1.5c-0.7-0.7-1.3-1.6-1.8-2.7c-0.4-1.1-0.7-2.4-0.7-3.9V47.9h5.2v12.4
		c0,0.7,0.1,1.4,0.3,2c0.2,0.6,0.5,1,0.9,1.4c0.4,0.4,0.8,0.6,1.3,0.8c0.5,0.2,1,0.3,1.5,0.3c1.7,0,3.1-0.6,4.4-1.7V47.9h5.2V68.7z"
		/>
	<path d="M212.5,68.7h-5.2V56.2c0-1.5-0.4-2.6-1.1-3.3c-0.7-0.8-1.6-1.1-2.6-1.1c-0.8,0-1.5,0.1-2.2,0.4c-0.7,0.3-1.4,0.7-2.1,1.2
		c0.2,0.8,0.3,1.8,0.3,2.8v12.4h-5.2V56.2c0-1.5-0.4-2.6-1.1-3.3s-1.6-1.1-2.6-1.1c-0.8,0-1.5,0.1-2.1,0.4c-0.6,0.3-1.2,0.7-1.9,1.3
		v15.2h-5.2V47.9h5.2l0,1.5c0.6-0.6,1.4-1.1,2.3-1.5c0.9-0.4,1.8-0.6,2.7-0.6c1,0,2,0.2,3,0.7c1,0.5,1.9,1.1,2.7,2
		c1.1-1,2.2-1.6,3.3-2.1s2.3-0.6,3.6-0.6c1.1,0,2.1,0.2,3.1,0.5c1,0.3,1.8,0.8,2.5,1.5c0.7,0.7,1.3,1.6,1.7,2.7s0.6,2.4,0.6,3.9
		V68.7z"/>
	<path d="M246.6,54.3c0,2.1-0.4,4-1.2,5.8c-0.8,1.8-1.9,3.4-3.3,4.8c-1.4,1.3-3,2.4-4.9,3.2c-1.8,0.8-3.8,1.2-5.9,1.2
		c-2.1,0-4.1-0.4-5.9-1.2c-1.9-0.8-3.5-1.8-4.9-3.2c-1.4-1.3-2.5-2.9-3.3-4.7c-0.8-1.8-1.2-3.8-1.2-5.9s0.4-4,1.2-5.9
		c0.8-1.8,1.9-3.4,3.3-4.8c1.4-1.3,3-2.4,4.9-3.2c1.9-0.8,3.8-1.2,5.9-1.2c2.1,0,4.1,0.4,5.9,1.2c1.8,0.8,3.5,1.8,4.9,3.2
		c1.4,1.4,2.5,2.9,3.3,4.8C246.2,50.2,246.6,52.2,246.6,54.3z M241,54.3c0-1.3-0.3-2.6-0.8-3.7c-0.5-1.2-1.2-2.2-2.1-3.1
		c-0.9-0.9-1.9-1.6-3.1-2.1s-2.4-0.8-3.8-0.8c-1.3,0-2.6,0.3-3.8,0.8s-2.2,1.2-3.1,2.1c-0.9,0.9-1.6,1.9-2.1,3.1
		c-0.5,1.2-0.8,2.4-0.8,3.7c0,1.3,0.3,2.5,0.8,3.7c0.5,1.2,1.2,2.2,2.1,3.1c0.9,0.9,1.9,1.6,3.1,2.1s2.4,0.8,3.8,0.8
		c1.3,0,2.6-0.3,3.8-0.8s2.2-1.2,3.1-2.1c0.9-0.9,1.6-1.9,2.1-3.1C240.8,56.8,241,55.6,241,54.3z"/>
	<path d="M270.2,58.3c0,1.5-0.2,2.9-0.7,4.2c-0.5,1.3-1.2,2.5-2.1,3.5c-0.9,1-1.9,1.8-3.2,2.4c-1.2,0.6-2.6,0.9-4,0.9
		c-0.9,0-1.8-0.1-2.6-0.4c-0.8-0.3-1.5-0.7-2.2-1.2l0,10.1h-5.2V47.8h5.2l0,1.1c0.6-0.5,1.3-0.9,2.1-1.2c0.8-0.3,1.7-0.4,2.6-0.4
		c1.3,0,2.5,0.3,3.7,0.8c1.2,0.6,2.3,1.3,3.2,2.3c0.9,1,1.7,2.1,2.2,3.5C270,55.3,270.2,56.7,270.2,58.3z M264.9,58.3
		c0-1-0.1-1.9-0.4-2.7s-0.7-1.5-1.2-2c-0.5-0.6-1.1-1-1.8-1.3c-0.7-0.3-1.5-0.4-2.4-0.4c-0.6,0-1.2,0.1-1.9,0.3
		c-0.7,0.2-1.3,0.5-1.8,0.9v10c1.1,1,2.4,1.5,3.8,1.5c0.8,0,1.6-0.2,2.3-0.5c0.7-0.3,1.3-0.8,1.8-1.3s0.9-1.2,1.2-2
		C264.8,60.1,264.9,59.2,264.9,58.3z"/>
	<path d="M285.1,68.2c-0.5,0.3-1.1,0.6-1.8,0.8c-0.7,0.2-1.4,0.3-2.1,0.3c-1.2,0-2.3-0.2-3.1-0.5c-0.8-0.3-1.5-0.8-2-1.4
		c-0.5-0.6-0.9-1.4-1.1-2.4c-0.2-1-0.3-2.1-0.3-3.4v-9.1h-2.7v-2.3c1.7-0.7,3-1.7,4.1-3.1c1-1.4,1.8-3.1,2.1-5.3h1.7v6.1h5.3v4.7
		h-5.3V62c0,0.5,0.1,1,0.2,1.3c0.1,0.3,0.3,0.6,0.5,0.8c0.2,0.2,0.5,0.3,0.7,0.4c0.3,0.1,0.6,0.1,0.9,0.1c0.4,0,0.9-0.1,1.5-0.2
		c0.6-0.1,1.1-0.4,1.5-0.7V68.2z"/>
	<path d="M293.5,44.2h-5.4v-5.4h5.4V44.2z M293.5,68.7h-5.3V47.8h5.3V68.7z"/>
	<path d="M317,65.5c-1.1,1.2-2.3,2.1-3.8,2.7s-3,0.9-4.7,0.9c-1.5,0-2.9-0.3-4.3-0.8s-2.5-1.3-3.5-2.3c-1-1-1.8-2.1-2.3-3.5
		c-0.6-1.3-0.9-2.8-0.9-4.4c0-1.5,0.3-3,0.9-4.3s1.3-2.5,2.3-3.5c1-1,2.1-1.8,3.5-2.3c1.3-0.6,2.8-0.8,4.3-0.8
		c1.6,0,3.1,0.3,4.5,0.9c1.4,0.6,2.7,1.5,3.7,2.6l-3.5,3.6c-0.5-0.7-1.2-1.3-1.9-1.7c-0.8-0.5-1.7-0.7-2.8-0.7
		c-0.8,0-1.5,0.2-2.2,0.5c-0.7,0.3-1.3,0.8-1.9,1.4c-0.5,0.6-1,1.2-1.3,2c-0.3,0.8-0.5,1.6-0.5,2.4c0,0.9,0.2,1.7,0.5,2.4
		c0.3,0.8,0.7,1.4,1.3,2c0.5,0.6,1.2,1,1.9,1.4c0.7,0.3,1.5,0.5,2.3,0.5c1,0,2-0.2,2.8-0.7c0.8-0.5,1.5-1.1,2-1.9L317,65.5z"/>
	<path d="M334.8,62.8c0,1-0.2,2-0.7,2.8c-0.5,0.8-1.1,1.5-1.9,2s-1.6,0.9-2.6,1.2c-1,0.3-1.9,0.4-2.9,0.4c-1.6,0-3-0.3-4.4-0.9
		c-1.3-0.6-2.5-1.5-3.5-2.8l3.1-3.2c0.6,0.8,1.3,1.4,2.2,1.9c0.8,0.4,1.7,0.7,2.6,0.7c0.8,0,1.5-0.1,2-0.5c0.5-0.3,0.8-0.8,0.8-1.4
		c0-0.6-0.4-1.1-1.2-1.6c-0.8-0.4-1.8-0.8-3.2-1.2c-0.8-0.2-1.6-0.5-2.4-0.9c-0.8-0.4-1.5-0.8-2.1-1.4c-0.6-0.5-1.1-1.2-1.4-1.9
		c-0.4-0.7-0.5-1.5-0.5-2.4c0-1,0.2-1.9,0.7-2.7c0.5-0.8,1.1-1.5,1.8-2s1.6-1,2.6-1.2s1.9-0.4,2.9-0.4c3.2,0,5.8,1.2,7.8,3.6
		l-3.1,3.1c-0.6-0.7-1.3-1.3-2.1-1.8c-0.8-0.4-1.6-0.6-2.5-0.6c-0.3,0-0.6,0-1,0.1c-0.3,0.1-0.7,0.2-1,0.4c-0.3,0.2-0.5,0.4-0.7,0.6
		c-0.2,0.3-0.3,0.5-0.3,0.8c0,0.6,0.4,1,1.1,1.4c0.7,0.4,1.8,0.8,3.2,1.2c0.9,0.3,1.7,0.6,2.5,1c0.8,0.4,1.5,0.9,2.1,1.4
		c0.6,0.5,1.1,1.2,1.4,1.8C334.6,61.2,334.8,62,334.8,62.8z"/>
	<path d="M343.5,68.7H338v-5.5h5.5V68.7z"/>
	<path d="M352.9,69.7c0,1.4-0.2,2.6-0.6,3.7c-0.4,1.1-0.9,1.9-1.6,2.6c-0.7,0.7-1.5,1.2-2.5,1.4s-2.1,0.3-3.3,0.1l-1.7-4.9
		c0.5,0.2,1.1,0.3,1.6,0.3s1-0.1,1.4-0.3c0.4-0.2,0.8-0.5,1-1c0.3-0.5,0.4-1.2,0.4-2V47.8h5.3V69.7z M352.9,44.2h-5.4v-5.4h5.4V44.2
		z"/>
	<path d="M366.4,68.6c-0.4,0.2-0.9,0.3-1.4,0.5c-0.5,0.1-1,0.2-1.6,0.2c-0.8,0-1.5-0.1-2.2-0.3c-0.7-0.2-1.3-0.5-1.9-1
		c-0.5-0.5-0.9-1-1.3-1.8c-0.3-0.7-0.5-1.6-0.5-2.6V38.8h5.3v23.8c0,0.9,0.2,1.5,0.5,1.8c0.3,0.3,0.8,0.5,1.2,0.5
		c0.6,0,1.2-0.2,1.7-0.5V68.6z"/>
</g>
</svg>
