<?xml version="1.0" encoding="utf-8" standalone="no"?>
<!DOCTYPE svg PUBLIC "-//W3C//DTD SVG 1.1//EN"
  "http://www.w3.org/Graphics/SVG/1.1/DTD/svg11.dtd">
<!-- Created with matplotlib (http://matplotlib.org/) -->
<svg height="345pt" version="1.1" viewBox="0 0 460 345" width="460pt" xmlns="http://www.w3.org/2000/svg" xmlns:xlink="http://www.w3.org/1999/xlink">
 <defs>
  <style type="text/css">
*{stroke-linecap:butt;stroke-linejoin:round;}
  </style>
 </defs>
 <g id="figure_1">
  <g id="patch_1">
   <path d="M 0 345.6 
L 460.8 345.6 
L 460.8 0 
L 0 0 
z
" style="fill:#ffffff;"/>
  </g>
  <g id="axes_1">
   <g id="patch_2">
    <path d="M 42.1 317.72 
L 447.48 317.72 
L 447.48 13.32 
L 42.1 13.32 
z
" style="fill:#ffffff;"/>
   </g>
   <g id="matplotlib.axis_1">
    <g id="xtick_1">
     <g id="line2d_1">
      <defs>
       <path d="M 0 0 
L 0 3.5 
" id="m228049ded5" style="stroke:#000000;stroke-width:0.8;"/>
      </defs>
      <g>
       <use style="stroke:#000000;stroke-width:0.8;" x="73.758807" xlink:href="#m228049ded5" y="317.72"/>
      </g>
     </g>
     <g id="text_1">
      <!-- −1.0 -->
      <defs>
       <path d="M 10.59375 35.5 
L 73.1875 35.5 
L 73.1875 27.203125 
L 10.59375 27.203125 
z
" id="DejaVuSans-2212"/>
       <path d="M 12.40625 8.296875 
L 28.515625 8.296875 
L 28.515625 63.921875 
L 10.984375 60.40625 
L 10.984375 69.390625 
L 28.421875 72.90625 
L 38.28125 72.90625 
L 38.28125 8.296875 
L 54.390625 8.296875 
L 54.390625 0 
L 12.40625 0 
z
" id="DejaVuSans-31"/>
       <path d="M 10.6875 12.40625 
L 21 12.40625 
L 21 0 
L 10.6875 0 
z
" id="DejaVuSans-2e"/>
       <path d="M 31.78125 66.40625 
Q 24.171875 66.40625 20.328125 58.90625 
Q 16.5 51.421875 16.5 36.375 
Q 16.5 21.390625 20.328125 13.890625 
Q 24.171875 6.390625 31.78125 6.390625 
Q 39.453125 6.390625 43.28125 13.890625 
Q 47.125 21.390625 47.125 36.375 
Q 47.125 51.421875 43.28125 58.90625 
Q 39.453125 66.40625 31.78125 66.40625 
M 31.78125 74.21875 
Q 44.046875 74.21875 50.515625 64.515625 
Q 56.984375 54.828125 56.984375 36.375 
Q 56.984375 17.96875 50.515625 8.265625 
Q 44.046875 -1.421875 31.78125 -1.421875 
Q 19.53125 -1.421875 13.0625 8.265625 
Q 6.59375 17.96875 6.59375 36.375 
Q 6.59375 54.828125 13.0625 64.515625 
Q 19.53125 74.21875 31.78125 74.21875 
" id="DejaVuSans-30"/>
      </defs>
      <g transform="translate(61.617401 332.318437)scale(0.1 -0.1)">
       <use xlink:href="#DejaVuSans-2212"/>
       <use x="83.789062" xlink:href="#DejaVuSans-31"/>
       <use x="147.412109" xlink:href="#DejaVuSans-2e"/>
       <use x="179.199219" xlink:href="#DejaVuSans-30"/>
      </g>
     </g>
    </g>
    <g id="xtick_2">
     <g id="line2d_2">
      <g>
       <use style="stroke:#000000;stroke-width:0.8;" x="132.854032" xlink:href="#m228049ded5" y="317.72"/>
      </g>
     </g>
     <g id="text_2">
      <!-- −0.5 -->
      <defs>
       <path d="M 10.796875 72.90625 
L 49.515625 72.90625 
L 49.515625 64.59375 
L 19.828125 64.59375 
L 19.828125 46.734375 
Q 21.96875 47.46875 24.109375 47.828125 
Q 26.265625 48.1875 28.421875 48.1875 
Q 40.625 48.1875 47.75 41.5 
Q 54.890625 34.8125 54.890625 23.390625 
Q 54.890625 11.625 47.5625 5.09375 
Q 40.234375 -1.421875 26.90625 -1.421875 
Q 22.3125 -1.421875 17.546875 -0.640625 
Q 12.796875 0.140625 7.71875 1.703125 
L 7.71875 11.625 
Q 12.109375 9.234375 16.796875 8.0625 
Q 21.484375 6.890625 26.703125 6.890625 
Q 35.15625 6.890625 40.078125 11.328125 
Q 45.015625 15.765625 45.015625 23.390625 
Q 45.015625 31 40.078125 35.4375 
Q 35.15625 39.890625 26.703125 39.890625 
Q 22.75 39.890625 18.8125 39.015625 
Q 14.890625 38.140625 10.796875 36.28125 
z
" id="DejaVuSans-35"/>
      </defs>
      <g transform="translate(120.712626 332.318437)scale(0.1 -0.1)">
       <use xlink:href="#DejaVuSans-2212"/>
       <use x="83.789062" xlink:href="#DejaVuSans-30"/>
       <use x="147.412109" xlink:href="#DejaVuSans-2e"/>
       <use x="179.199219" xlink:href="#DejaVuSans-35"/>
      </g>
     </g>
    </g>
    <g id="xtick_3">
     <g id="line2d_3">
      <g>
       <use style="stroke:#000000;stroke-width:0.8;" x="191.949257" xlink:href="#m228049ded5" y="317.72"/>
      </g>
     </g>
     <g id="text_3">
      <!-- 0.0 -->
      <g transform="translate(183.997695 332.318437)scale(0.1 -0.1)">
       <use xlink:href="#DejaVuSans-30"/>
       <use x="63.623047" xlink:href="#DejaVuSans-2e"/>
       <use x="95.410156" xlink:href="#DejaVuSans-30"/>
      </g>
     </g>
    </g>
    <g id="xtick_4">
     <g id="line2d_4">
      <g>
       <use style="stroke:#000000;stroke-width:0.8;" x="251.044482" xlink:href="#m228049ded5" y="317.72"/>
      </g>
     </g>
     <g id="text_4">
      <!-- 0.5 -->
      <g transform="translate(243.09292 332.318437)scale(0.1 -0.1)">
       <use xlink:href="#DejaVuSans-30"/>
       <use x="63.623047" xlink:href="#DejaVuSans-2e"/>
       <use x="95.410156" xlink:href="#DejaVuSans-35"/>
      </g>
     </g>
    </g>
    <g id="xtick_5">
     <g id="line2d_5">
      <g>
       <use style="stroke:#000000;stroke-width:0.8;" x="310.139707" xlink:href="#m228049ded5" y="317.72"/>
      </g>
     </g>
     <g id="text_5">
      <!-- 1.0 -->
      <g transform="translate(302.188145 332.318437)scale(0.1 -0.1)">
       <use xlink:href="#DejaVuSans-31"/>
       <use x="63.623047" xlink:href="#DejaVuSans-2e"/>
       <use x="95.410156" xlink:href="#DejaVuSans-30"/>
      </g>
     </g>
    </g>
    <g id="xtick_6">
     <g id="line2d_6">
      <g>
       <use style="stroke:#000000;stroke-width:0.8;" x="369.234932" xlink:href="#m228049ded5" y="317.72"/>
      </g>
     </g>
     <g id="text_6">
      <!-- 1.5 -->
      <g transform="translate(361.28337 332.318437)scale(0.1 -0.1)">
       <use xlink:href="#DejaVuSans-31"/>
       <use x="63.623047" xlink:href="#DejaVuSans-2e"/>
       <use x="95.410156" xlink:href="#DejaVuSans-35"/>
      </g>
     </g>
    </g>
    <g id="xtick_7">
     <g id="line2d_7">
      <g>
       <use style="stroke:#000000;stroke-width:0.8;" x="428.330157" xlink:href="#m228049ded5" y="317.72"/>
      </g>
     </g>
     <g id="text_7">
      <!-- 2.0 -->
      <defs>
       <path d="M 19.1875 8.296875 
L 53.609375 8.296875 
L 53.609375 0 
L 7.328125 0 
L 7.328125 8.296875 
Q 12.9375 14.109375 22.625 23.890625 
Q 32.328125 33.6875 34.8125 36.53125 
Q 39.546875 41.84375 41.421875 45.53125 
Q 43.3125 49.21875 43.3125 52.78125 
Q 43.3125 58.59375 39.234375 62.25 
Q 35.15625 65.921875 28.609375 65.921875 
Q 23.96875 65.921875 18.8125 64.3125 
Q 13.671875 62.703125 7.8125 59.421875 
L 7.8125 69.390625 
Q 13.765625 71.78125 18.9375 73 
Q 24.125 74.21875 28.421875 74.21875 
Q 39.75 74.21875 46.484375 68.546875 
Q 53.21875 62.890625 53.21875 53.421875 
Q 53.21875 48.921875 51.53125 44.890625 
Q 49.859375 40.875 45.40625 35.40625 
Q 44.1875 33.984375 37.640625 27.21875 
Q 31.109375 20.453125 19.1875 8.296875 
" id="DejaVuSans-32"/>
      </defs>
      <g transform="translate(420.378595 332.318437)scale(0.1 -0.1)">
       <use xlink:href="#DejaVuSans-32"/>
       <use x="63.623047" xlink:href="#DejaVuSans-2e"/>
       <use x="95.410156" xlink:href="#DejaVuSans-30"/>
      </g>
     </g>
    </g>
   </g>
   <g id="matplotlib.axis_2">
    <g id="ytick_1">
     <g id="line2d_8">
      <defs>
       <path d="M 0 0 
L -3.5 0 
" id="mb86f60ccc2" style="stroke:#000000;stroke-width:0.8;"/>
      </defs>
      <g>
       <use style="stroke:#000000;stroke-width:0.8;" x="42.1" xlink:href="#mb86f60ccc2" y="308.017528"/>
      </g>
     </g>
     <g id="text_8">
      <!-- −1.5 -->
      <g transform="translate(10.817188 311.816747)scale(0.1 -0.1)">
       <use xlink:href="#DejaVuSans-2212"/>
       <use x="83.789062" xlink:href="#DejaVuSans-31"/>
       <use x="147.412109" xlink:href="#DejaVuSans-2e"/>
       <use x="179.199219" xlink:href="#DejaVuSans-35"/>
      </g>
     </g>
    </g>
    <g id="ytick_2">
     <g id="line2d_9">
      <g>
       <use style="stroke:#000000;stroke-width:0.8;" x="42.1" xlink:href="#mb86f60ccc2" y="251.845295"/>
      </g>
     </g>
     <g id="text_9">
      <!-- −1.0 -->
      <g transform="translate(10.817188 255.644514)scale(0.1 -0.1)">
       <use xlink:href="#DejaVuSans-2212"/>
       <use x="83.789062" xlink:href="#DejaVuSans-31"/>
       <use x="147.412109" xlink:href="#DejaVuSans-2e"/>
       <use x="179.199219" xlink:href="#DejaVuSans-30"/>
      </g>
     </g>
    </g>
    <g id="ytick_3">
     <g id="line2d_10">
      <g>
       <use style="stroke:#000000;stroke-width:0.8;" x="42.1" xlink:href="#mb86f60ccc2" y="195.673062"/>
      </g>
     </g>
     <g id="text_10">
      <!-- −0.5 -->
      <g transform="translate(10.817188 199.472281)scale(0.1 -0.1)">
       <use xlink:href="#DejaVuSans-2212"/>
       <use x="83.789062" xlink:href="#DejaVuSans-30"/>
       <use x="147.412109" xlink:href="#DejaVuSans-2e"/>
       <use x="179.199219" xlink:href="#DejaVuSans-35"/>
      </g>
     </g>
    </g>
    <g id="ytick_4">
     <g id="line2d_11">
      <g>
       <use style="stroke:#000000;stroke-width:0.8;" x="42.1" xlink:href="#mb86f60ccc2" y="139.500829"/>
      </g>
     </g>
     <g id="text_11">
      <!-- 0.0 -->
      <g transform="translate(19.196875 143.300048)scale(0.1 -0.1)">
       <use xlink:href="#DejaVuSans-30"/>
       <use x="63.623047" xlink:href="#DejaVuSans-2e"/>
       <use x="95.410156" xlink:href="#DejaVuSans-30"/>
      </g>
     </g>
    </g>
    <g id="ytick_5">
     <g id="line2d_12">
      <g>
       <use style="stroke:#000000;stroke-width:0.8;" x="42.1" xlink:href="#mb86f60ccc2" y="83.328596"/>
      </g>
     </g>
     <g id="text_12">
      <!-- 0.5 -->
      <g transform="translate(19.196875 87.127815)scale(0.1 -0.1)">
       <use xlink:href="#DejaVuSans-30"/>
       <use x="63.623047" xlink:href="#DejaVuSans-2e"/>
       <use x="95.410156" xlink:href="#DejaVuSans-35"/>
      </g>
     </g>
    </g>
    <g id="ytick_6">
     <g id="line2d_13">
      <g>
       <use style="stroke:#000000;stroke-width:0.8;" x="42.1" xlink:href="#mb86f60ccc2" y="27.156364"/>
      </g>
     </g>
     <g id="text_13">
      <!-- 1.0 -->
      <g transform="translate(19.196875 30.955582)scale(0.1 -0.1)">
       <use xlink:href="#DejaVuSans-31"/>
       <use x="63.623047" xlink:href="#DejaVuSans-2e"/>
       <use x="95.410156" xlink:href="#DejaVuSans-30"/>
      </g>
     </g>
    </g>
   </g>
   <g id="line2d_14">
    <path clip-path="url(#pe9be54f901)" d="M 428.330157 27.156364 
L 428.84642 36.896017 
L 429.052581 46.528261 
L 428.955874 56.045708 
L 428.563669 65.441262 
L 427.883465 74.708126 
L 426.922881 83.839801 
L 425.689643 92.83008 
L 424.191572 101.673054 
L 422.436576 110.363109 
L 420.432639 118.894921 
L 418.187813 127.263461 
L 415.710202 135.463986 
L 413.00796 143.492045 
L 410.089276 151.343468 
L 406.962367 159.014372 
L 403.635468 166.50115 
L 400.116822 173.800476 
L 396.414675 180.909296 
L 392.537263 187.824826 
L 388.492807 194.544548 
L 384.289503 201.066211 
L 379.935514 207.38782 
L 375.438963 213.507634 
L 370.807927 219.424165 
L 366.050426 225.13617 
L 361.174422 230.642649 
L 356.187803 235.942835 
L 351.098388 241.036197 
L 345.91391 245.922429 
L 340.642018 250.601446 
L 335.290266 255.073381 
L 329.866109 259.338577 
L 324.3769 263.397584 
L 318.82988 267.25115 
L 313.232179 270.900219 
L 307.590806 274.345926 
L 301.912649 277.589585 
L 296.204465 280.63269 
L 290.472884 283.476907 
L 284.724399 286.124067 
L 278.965366 288.576162 
L 273.201996 290.835336 
L 267.440359 292.903883 
L 261.686377 294.784238 
L 255.945819 296.478975 
L 250.224306 297.990794 
L 244.5273 299.322522 
L 236.978566 300.823127 
L 229.494961 302.016109 
L 222.088122 302.909092 
L 214.769171 303.510001 
L 207.548719 303.827049 
L 200.436854 303.868704 
L 193.443147 303.643669 
L 186.576644 303.160859 
L 179.845872 302.429376 
L 173.258836 301.45849 
L 166.823025 300.25761 
L 160.545408 298.83627 
L 154.432445 297.204102 
L 148.490087 295.37082 
L 142.723785 293.346192 
L 137.13849 291.14003 
L 131.738666 288.762163 
L 126.528294 286.222422 
L 121.510881 283.530622 
L 116.689469 280.696542 
L 112.066644 277.729912 
L 107.644545 274.640392 
L 103.424876 271.437562 
L 99.408914 268.130903 
L 95.597523 264.729784 
L 91.991166 261.243447 
L 88.589913 257.680998 
L 85.393459 254.051391 
L 82.40113 250.363418 
L 79.611902 246.625696 
L 77.024411 242.84666 
L 74.636966 239.034552 
L 72.447564 235.197412 
L 69.985775 230.37769 
L 67.824692 225.545881 
L 65.95854 220.71624 
L 64.380934 215.902453 
L 63.08492 211.117615 
L 62.063017 206.374219 
L 61.307258 201.684147 
L 60.809235 197.058653 
L 60.560138 192.508362 
L 60.550797 188.043264 
L 60.771723 183.672709 
L 61.213146 179.405405 
L 61.865057 175.249421 
L 62.717241 171.212189 
L 63.75932 167.300506 
L 64.980786 163.520543 
L 66.371035 159.877848 
L 67.919406 156.37736 
L 69.615207 153.023415 
L 71.447752 149.819759 
L 73.812312 146.178176 
L 76.340165 142.761953 
L 79.013228 139.574367 
L 81.813683 136.617606 
L 84.724036 133.892809 
L 87.727174 131.400114 
L 90.806416 129.138704 
L 93.94556 127.106852 
L 97.12893 125.301977 
L 100.341412 123.720691 
L 103.568489 122.358855 
L 106.796273 121.211625 
L 110.011534 120.273512 
L 113.730134 119.4352 
L 117.395901 118.862631 
L 120.99143 118.544329 
L 124.500664 118.468043 
L 127.908911 118.620856 
L 131.202848 118.98929 
L 134.370518 119.55942 
L 137.401327 120.316967 
L 140.28602 121.247402 
L 143.016663 122.336038 
L 145.940302 123.754982 
L 148.646189 125.3393 
L 151.128479 127.067195 
L 153.383308 128.917201 
L 155.408693 130.868321 
L 157.204428 132.900143 
L 158.771978 134.992956 
L 160.11436 137.127847 
L 161.236024 139.286785 
L 162.241293 141.723115 
L 162.984533 144.145541 
L 163.477415 146.533031 
L 163.733062 148.866348 
L 163.765829 151.128101 
L 163.59109 153.30277 
L 163.173259 155.600411 
L 162.542278 157.757757 
L 161.721778 159.761626 
L 160.735672 161.601575 
L 159.607859 163.269805 
L 158.231775 164.9003 
L 156.743502 166.312989 
L 155.172636 167.507426 
L 153.397842 168.564577 
L 151.592574 169.371962 
L 149.788451 169.939837 
L 147.868454 170.300039 
L 146.015696 170.414432 
L 144.257994 170.305451 
L 142.497973 169.966245 
L 140.898292 169.42829 
L 139.476199 168.724475 
L 138.162638 167.823738 
L 137.073643 166.81002 
L 136.160707 165.646819 
L 135.498712 164.440949 
L 135.075611 163.231217 
L 134.868462 161.979806 
L 134.893193 160.730631 
L 135.13455 159.591957 
L 135.5825 158.537228 
L 135.668428 158.385881 
L 135.668428 158.385881 
" style="fill:none;stroke:#1f77b4;stroke-linecap:square;stroke-width:1.5;"/>
   </g>
   <g id="line2d_15">
    <defs>
     <path d="M 0 3 
C 0.795609 3 1.55874 2.683901 2.12132 2.12132 
C 2.683901 1.55874 3 0.795609 3 0 
C 3 -0.795609 2.683901 -1.55874 2.12132 -2.12132 
C 1.55874 -2.683901 0.795609 -3 0 -3 
C -0.795609 -3 -1.55874 -2.683901 -2.12132 -2.12132 
C -2.683901 -1.55874 -3 -0.795609 -3 0 
C -3 0.795609 -2.683901 1.55874 -2.12132 2.12132 
C -1.55874 2.683901 -0.795609 3 0 3 
z
" id="me7bf39b094" style="stroke:#1f77b4;"/>
    </defs>
    <g clip-path="url(#pe9be54f901)">
     <use style="fill:#1f77b4;stroke:#1f77b4;" x="428.330157" xlink:href="#me7bf39b094" y="27.156364"/>
     <use style="fill:#1f77b4;stroke:#1f77b4;" x="401.3105" xlink:href="#me7bf39b094" y="171.38839"/>
     <use style="fill:#1f77b4;stroke:#1f77b4;" x="322.533962" xlink:href="#me7bf39b094" y="264.70489"/>
     <use style="fill:#1f77b4;stroke:#1f77b4;" x="227.635611" xlink:href="#me7bf39b094" y="302.267175"/>
     <use style="fill:#1f77b4;stroke:#1f77b4;" x="144.148576" xlink:href="#me7bf39b094" y="293.869752"/>
     <use style="fill:#1f77b4;stroke:#1f77b4;" x="87.77162" xlink:href="#me7bf39b094" y="256.779546"/>
     <use style="fill:#1f77b4;stroke:#1f77b4;" x="62.643701" xlink:href="#me7bf39b094" y="209.214604"/>
     <use style="fill:#1f77b4;stroke:#1f77b4;" x="64.226972" xlink:href="#me7bf39b094" y="165.77239"/>
     <use style="fill:#1f77b4;stroke:#1f77b4;" x="83.256201" xlink:href="#me7bf39b094" y="135.22618"/>
     <use style="fill:#1f77b4;stroke:#1f77b4;" x="109.477068" xlink:href="#me7bf39b094" y="120.415593"/>
     <use style="fill:#1f77b4;stroke:#1f77b4;" x="134.370518" xlink:href="#me7bf39b094" y="119.55942"/>
     <use style="fill:#1f77b4;stroke:#1f77b4;" x="152.564569" xlink:href="#me7bf39b094" y="128.210484"/>
     <use style="fill:#1f77b4;stroke:#1f77b4;" x="162.040924" xlink:href="#me7bf39b094" y="141.182135"/>
     <use style="fill:#1f77b4;stroke:#1f77b4;" x="163.489507" xlink:href="#me7bf39b094" y="154.005896"/>
     <use style="fill:#1f77b4;stroke:#1f77b4;" x="159.245426" xlink:href="#me7bf39b094" y="163.735936"/>
     <use style="fill:#1f77b4;stroke:#1f77b4;" x="152.195705" xlink:href="#me7bf39b094" y="169.130016"/>
     <use style="fill:#1f77b4;stroke:#1f77b4;" x="144.921201" xlink:href="#me7bf39b094" y="170.372284"/>
     <use style="fill:#1f77b4;stroke:#1f77b4;" x="139.195784" xlink:href="#me7bf39b094" y="168.55525"/>
     <use style="fill:#1f77b4;stroke:#1f77b4;" x="135.840784" xlink:href="#me7bf39b094" y="165.122113"/>
     <use style="fill:#1f77b4;stroke:#1f77b4;" x="134.850382" xlink:href="#me7bf39b094" y="161.412907"/>
     <use style="fill:#1f77b4;stroke:#1f77b4;" x="135.668428" xlink:href="#me7bf39b094" y="158.385881"/>
    </g>
   </g>
   <g id="patch_3">
    <path d="M 42.1 317.72 
L 42.1 13.32 
" style="fill:none;stroke:#000000;stroke-linecap:square;stroke-linejoin:miter;stroke-width:0.8;"/>
   </g>
   <g id="patch_4">
    <path d="M 447.48 317.72 
L 447.48 13.32 
" style="fill:none;stroke:#000000;stroke-linecap:square;stroke-linejoin:miter;stroke-width:0.8;"/>
   </g>
   <g id="patch_5">
    <path d="M 42.1 317.72 
L 447.48 317.72 
" style="fill:none;stroke:#000000;stroke-linecap:square;stroke-linejoin:miter;stroke-width:0.8;"/>
   </g>
   <g id="patch_6">
    <path d="M 42.1 13.32 
L 447.48 13.32 
" style="fill:none;stroke:#000000;stroke-linecap:square;stroke-linejoin:miter;stroke-width:0.8;"/>
   </g>
  </g>
 </g>
 <defs>
  <clipPath id="pe9be54f901">
   <rect height="304.4" width="405.38" x="42.1" y="13.32"/>
  </clipPath>
 </defs>
</svg>
