<?xml version="1.0" encoding="utf-8" standalone="no"?>
<!DOCTYPE svg PUBLIC "-//W3C//DTD SVG 1.1//EN"
  "http://www.w3.org/Graphics/SVG/1.1/DTD/svg11.dtd">
<!-- Created with matplotlib (http://matplotlib.org/) -->
<svg height="345pt" version="1.1" viewBox="0 0 460 345" width="460pt" xmlns="http://www.w3.org/2000/svg" xmlns:xlink="http://www.w3.org/1999/xlink">
 <defs>
  <style type="text/css">
*{stroke-linecap:butt;stroke-linejoin:round;}
  </style>
 </defs>
 <g id="figure_1">
  <g id="patch_1">
   <path d="M 0 345.6 
L 460.8 345.6 
L 460.8 0 
L 0 0 
z
" style="fill:#ffffff;"/>
  </g>
  <g id="axes_1">
   <g id="patch_2">
    <path d="M 32.56 317.72 
L 447.48 317.72 
L 447.48 13.32 
L 32.56 13.32 
z
" style="fill:#ffffff;"/>
   </g>
   <g id="matplotlib.axis_1">
    <g id="xtick_1">
     <g id="line2d_1">
      <defs>
       <path d="M 0 0 
L 0 3.5 
" id="m4ede7d94cb" style="stroke:#000000;stroke-width:0.8;"/>
      </defs>
      <g>
       <use style="stroke:#000000;stroke-width:0.8;" x="51.42" xlink:href="#m4ede7d94cb" y="317.72"/>
      </g>
     </g>
     <g id="text_1">
      <!-- 0 -->
      <defs>
       <path d="M 31.78125 66.40625 
Q 24.171875 66.40625 20.328125 58.90625 
Q 16.5 51.421875 16.5 36.375 
Q 16.5 21.390625 20.328125 13.890625 
Q 24.171875 6.390625 31.78125 6.390625 
Q 39.453125 6.390625 43.28125 13.890625 
Q 47.125 21.390625 47.125 36.375 
Q 47.125 51.421875 43.28125 58.90625 
Q 39.453125 66.40625 31.78125 66.40625 
M 31.78125 74.21875 
Q 44.046875 74.21875 50.515625 64.515625 
Q 56.984375 54.828125 56.984375 36.375 
Q 56.984375 17.96875 50.515625 8.265625 
Q 44.046875 -1.421875 31.78125 -1.421875 
Q 19.53125 -1.421875 13.0625 8.265625 
Q 6.59375 17.96875 6.59375 36.375 
Q 6.59375 54.828125 13.0625 64.515625 
Q 19.53125 74.21875 31.78125 74.21875 
" id="DejaVuSans-30"/>
      </defs>
      <g transform="translate(48.23875 332.318437)scale(0.1 -0.1)">
       <use xlink:href="#DejaVuSans-30"/>
      </g>
     </g>
    </g>
    <g id="xtick_2">
     <g id="line2d_2">
      <g>
       <use style="stroke:#000000;stroke-width:0.8;" x="111.772" xlink:href="#m4ede7d94cb" y="317.72"/>
      </g>
     </g>
     <g id="text_2">
      <!-- 2 -->
      <defs>
       <path d="M 19.1875 8.296875 
L 53.609375 8.296875 
L 53.609375 0 
L 7.328125 0 
L 7.328125 8.296875 
Q 12.9375 14.109375 22.625 23.890625 
Q 32.328125 33.6875 34.8125 36.53125 
Q 39.546875 41.84375 41.421875 45.53125 
Q 43.3125 49.21875 43.3125 52.78125 
Q 43.3125 58.59375 39.234375 62.25 
Q 35.15625 65.921875 28.609375 65.921875 
Q 23.96875 65.921875 18.8125 64.3125 
Q 13.671875 62.703125 7.8125 59.421875 
L 7.8125 69.390625 
Q 13.765625 71.78125 18.9375 73 
Q 24.125 74.21875 28.421875 74.21875 
Q 39.75 74.21875 46.484375 68.546875 
Q 53.21875 62.890625 53.21875 53.421875 
Q 53.21875 48.921875 51.53125 44.890625 
Q 49.859375 40.875 45.40625 35.40625 
Q 44.1875 33.984375 37.640625 27.21875 
Q 31.109375 20.453125 19.1875 8.296875 
" id="DejaVuSans-32"/>
      </defs>
      <g transform="translate(108.59075 332.318437)scale(0.1 -0.1)">
       <use xlink:href="#DejaVuSans-32"/>
      </g>
     </g>
    </g>
    <g id="xtick_3">
     <g id="line2d_3">
      <g>
       <use style="stroke:#000000;stroke-width:0.8;" x="172.124" xlink:href="#m4ede7d94cb" y="317.72"/>
      </g>
     </g>
     <g id="text_3">
      <!-- 4 -->
      <defs>
       <path d="M 37.796875 64.3125 
L 12.890625 25.390625 
L 37.796875 25.390625 
z
M 35.203125 72.90625 
L 47.609375 72.90625 
L 47.609375 25.390625 
L 58.015625 25.390625 
L 58.015625 17.1875 
L 47.609375 17.1875 
L 47.609375 0 
L 37.796875 0 
L 37.796875 17.1875 
L 4.890625 17.1875 
L 4.890625 26.703125 
z
" id="DejaVuSans-34"/>
      </defs>
      <g transform="translate(168.94275 332.318437)scale(0.1 -0.1)">
       <use xlink:href="#DejaVuSans-34"/>
      </g>
     </g>
    </g>
    <g id="xtick_4">
     <g id="line2d_4">
      <g>
       <use style="stroke:#000000;stroke-width:0.8;" x="232.476" xlink:href="#m4ede7d94cb" y="317.72"/>
      </g>
     </g>
     <g id="text_4">
      <!-- 6 -->
      <defs>
       <path d="M 33.015625 40.375 
Q 26.375 40.375 22.484375 35.828125 
Q 18.609375 31.296875 18.609375 23.390625 
Q 18.609375 15.53125 22.484375 10.953125 
Q 26.375 6.390625 33.015625 6.390625 
Q 39.65625 6.390625 43.53125 10.953125 
Q 47.40625 15.53125 47.40625 23.390625 
Q 47.40625 31.296875 43.53125 35.828125 
Q 39.65625 40.375 33.015625 40.375 
M 52.59375 71.296875 
L 52.59375 62.3125 
Q 48.875 64.0625 45.09375 64.984375 
Q 41.3125 65.921875 37.59375 65.921875 
Q 27.828125 65.921875 22.671875 59.328125 
Q 17.53125 52.734375 16.796875 39.40625 
Q 19.671875 43.65625 24.015625 45.921875 
Q 28.375 48.1875 33.59375 48.1875 
Q 44.578125 48.1875 50.953125 41.515625 
Q 57.328125 34.859375 57.328125 23.390625 
Q 57.328125 12.15625 50.6875 5.359375 
Q 44.046875 -1.421875 33.015625 -1.421875 
Q 20.359375 -1.421875 13.671875 8.265625 
Q 6.984375 17.96875 6.984375 36.375 
Q 6.984375 53.65625 15.1875 63.9375 
Q 23.390625 74.21875 37.203125 74.21875 
Q 40.921875 74.21875 44.703125 73.484375 
Q 48.484375 72.75 52.59375 71.296875 
" id="DejaVuSans-36"/>
      </defs>
      <g transform="translate(229.29475 332.318437)scale(0.1 -0.1)">
       <use xlink:href="#DejaVuSans-36"/>
      </g>
     </g>
    </g>
    <g id="xtick_5">
     <g id="line2d_5">
      <g>
       <use style="stroke:#000000;stroke-width:0.8;" x="292.828" xlink:href="#m4ede7d94cb" y="317.72"/>
      </g>
     </g>
     <g id="text_5">
      <!-- 8 -->
      <defs>
       <path d="M 31.78125 34.625 
Q 24.75 34.625 20.71875 30.859375 
Q 16.703125 27.09375 16.703125 20.515625 
Q 16.703125 13.921875 20.71875 10.15625 
Q 24.75 6.390625 31.78125 6.390625 
Q 38.8125 6.390625 42.859375 10.171875 
Q 46.921875 13.96875 46.921875 20.515625 
Q 46.921875 27.09375 42.890625 30.859375 
Q 38.875 34.625 31.78125 34.625 
M 21.921875 38.8125 
Q 15.578125 40.375 12.03125 44.71875 
Q 8.5 49.078125 8.5 55.328125 
Q 8.5 64.0625 14.71875 69.140625 
Q 20.953125 74.21875 31.78125 74.21875 
Q 42.671875 74.21875 48.875 69.140625 
Q 55.078125 64.0625 55.078125 55.328125 
Q 55.078125 49.078125 51.53125 44.71875 
Q 48 40.375 41.703125 38.8125 
Q 48.828125 37.15625 52.796875 32.3125 
Q 56.78125 27.484375 56.78125 20.515625 
Q 56.78125 9.90625 50.3125 4.234375 
Q 43.84375 -1.421875 31.78125 -1.421875 
Q 19.734375 -1.421875 13.25 4.234375 
Q 6.78125 9.90625 6.78125 20.515625 
Q 6.78125 27.484375 10.78125 32.3125 
Q 14.796875 37.15625 21.921875 38.8125 
M 18.3125 54.390625 
Q 18.3125 48.734375 21.84375 45.5625 
Q 25.390625 42.390625 31.78125 42.390625 
Q 38.140625 42.390625 41.71875 45.5625 
Q 45.3125 48.734375 45.3125 54.390625 
Q 45.3125 60.0625 41.71875 63.234375 
Q 38.140625 66.40625 31.78125 66.40625 
Q 25.390625 66.40625 21.84375 63.234375 
Q 18.3125 60.0625 18.3125 54.390625 
" id="DejaVuSans-38"/>
      </defs>
      <g transform="translate(289.64675 332.318437)scale(0.1 -0.1)">
       <use xlink:href="#DejaVuSans-38"/>
      </g>
     </g>
    </g>
    <g id="xtick_6">
     <g id="line2d_6">
      <g>
       <use style="stroke:#000000;stroke-width:0.8;" x="353.18" xlink:href="#m4ede7d94cb" y="317.72"/>
      </g>
     </g>
     <g id="text_6">
      <!-- 10 -->
      <defs>
       <path d="M 12.40625 8.296875 
L 28.515625 8.296875 
L 28.515625 63.921875 
L 10.984375 60.40625 
L 10.984375 69.390625 
L 28.421875 72.90625 
L 38.28125 72.90625 
L 38.28125 8.296875 
L 54.390625 8.296875 
L 54.390625 0 
L 12.40625 0 
z
" id="DejaVuSans-31"/>
      </defs>
      <g transform="translate(346.8175 332.318437)scale(0.1 -0.1)">
       <use xlink:href="#DejaVuSans-31"/>
       <use x="63.623047" xlink:href="#DejaVuSans-30"/>
      </g>
     </g>
    </g>
    <g id="xtick_7">
     <g id="line2d_7">
      <g>
       <use style="stroke:#000000;stroke-width:0.8;" x="413.532" xlink:href="#m4ede7d94cb" y="317.72"/>
      </g>
     </g>
     <g id="text_7">
      <!-- 12 -->
      <g transform="translate(407.1695 332.318437)scale(0.1 -0.1)">
       <use xlink:href="#DejaVuSans-31"/>
       <use x="63.623047" xlink:href="#DejaVuSans-32"/>
      </g>
     </g>
    </g>
   </g>
   <g id="matplotlib.axis_2">
    <g id="ytick_1">
     <g id="line2d_8">
      <defs>
       <path d="M 0 0 
L -3.5 0 
" id="mae72715570" style="stroke:#000000;stroke-width:0.8;"/>
      </defs>
      <g>
       <use style="stroke:#000000;stroke-width:0.8;" x="32.56" xlink:href="#mae72715570" y="276.249141"/>
      </g>
     </g>
     <g id="text_8">
      <!-- −4 -->
      <defs>
       <path d="M 10.59375 35.5 
L 73.1875 35.5 
L 73.1875 27.203125 
L 10.59375 27.203125 
z
" id="DejaVuSans-2212"/>
      </defs>
      <g transform="translate(10.817813 280.048359)scale(0.1 -0.1)">
       <use xlink:href="#DejaVuSans-2212"/>
       <use x="83.789062" xlink:href="#DejaVuSans-34"/>
      </g>
     </g>
    </g>
    <g id="ytick_2">
     <g id="line2d_9">
      <g>
       <use style="stroke:#000000;stroke-width:0.8;" x="32.56" xlink:href="#mae72715570" y="220.89519"/>
      </g>
     </g>
     <g id="text_9">
      <!-- −2 -->
      <g transform="translate(10.817813 224.694409)scale(0.1 -0.1)">
       <use xlink:href="#DejaVuSans-2212"/>
       <use x="83.789062" xlink:href="#DejaVuSans-32"/>
      </g>
     </g>
    </g>
    <g id="ytick_3">
     <g id="line2d_10">
      <g>
       <use style="stroke:#000000;stroke-width:0.8;" x="32.56" xlink:href="#mae72715570" y="165.54124"/>
      </g>
     </g>
     <g id="text_10">
      <!-- 0 -->
      <g transform="translate(19.1975 169.340459)scale(0.1 -0.1)">
       <use xlink:href="#DejaVuSans-30"/>
      </g>
     </g>
    </g>
    <g id="ytick_4">
     <g id="line2d_11">
      <g>
       <use style="stroke:#000000;stroke-width:0.8;" x="32.56" xlink:href="#mae72715570" y="110.187289"/>
      </g>
     </g>
     <g id="text_11">
      <!-- 2 -->
      <g transform="translate(19.1975 113.986508)scale(0.1 -0.1)">
       <use xlink:href="#DejaVuSans-32"/>
      </g>
     </g>
    </g>
    <g id="ytick_5">
     <g id="line2d_12">
      <g>
       <use style="stroke:#000000;stroke-width:0.8;" x="32.56" xlink:href="#mae72715570" y="54.833339"/>
      </g>
     </g>
     <g id="text_12">
      <!-- 4 -->
      <g transform="translate(19.1975 58.632558)scale(0.1 -0.1)">
       <use xlink:href="#DejaVuSans-34"/>
      </g>
     </g>
    </g>
   </g>
   <g id="line2d_13">
    <path clip-path="url(#p1042c1acf5)" d="M 51.42 27.156364 
L 54.4376 27.847712 
L 57.4552 29.914848 
L 60.4728 33.337118 
L 63.4904 38.080329 
L 66.508 44.097086 
L 69.5256 51.327273 
L 72.5432 59.698649 
L 75.5608 69.127569 
L 78.5784 79.519822 
L 81.596 90.771572 
L 84.6136 102.770397 
L 87.6312 115.396407 
L 90.6488 128.523448 
L 93.6664 142.020358 
L 96.684 155.752281 
L 99.7016 169.582012 
L 102.7192 183.371369 
L 105.7368 196.982573 
L 108.7544 210.279626 
L 111.772 223.129668 
L 114.7896 235.404305 
L 117.8072 246.980894 
L 120.8248 257.743764 
L 123.8424 267.585377 
L 126.86 276.407399 
L 129.8776 284.121683 
L 132.8952 290.65115 
L 135.9128 295.930561 
L 138.9304 299.907164 
L 141.948 302.541228 
L 144.9656 303.806433 
L 147.9832 303.690138 
L 151.0008 302.193505 
L 154.0184 299.331487 
L 157.036 295.132682 
L 160.0536 289.639041 
L 163.0712 282.905457 
L 166.0888 274.999208 
L 169.1064 265.999291 
L 172.124 255.995631 
L 175.1416 245.08818 
L 178.1592 233.385922 
L 181.1768 221.005783 
L 184.1944 208.071461 
L 187.212 194.71219 
L 190.2296 181.061453 
L 193.2472 167.255643 
L 196.2648 153.432704 
L 199.2824 139.730749 
L 202.3 126.286684 
L 205.3176 113.234837 
L 208.3352 100.705619 
L 211.3528 88.824216 
L 214.3704 77.709345 
L 217.388 67.472062 
L 220.4056 58.214653 
L 223.4232 50.029615 
L 226.4408 42.998732 
L 229.4584 37.192253 
L 232.476 32.668195 
L 235.4936 29.47176 
L 238.5112 27.634886 
L 241.5288 27.175927 
L 244.5464 28.099469 
L 247.564 30.396283 
L 250.5816 34.043421 
L 253.5992 39.004442 
L 256.6168 45.229777 
L 259.6344 52.657224 
L 262.652 61.212571 
L 265.6696 70.810335 
L 268.6872 81.354619 
L 271.7048 92.740068 
L 274.7224 104.852923 
L 277.74 117.572155 
L 280.7576 130.770678 
L 283.7752 144.316617 
L 286.7928 158.074626 
L 289.8104 171.907238 
L 292.828 185.676244 
L 295.8456 199.244067 
L 298.8632 212.475143 
L 301.8808 225.237271 
L 304.8984 237.402935 
L 307.916 248.850582 
L 310.9336 259.465829 
L 313.9512 269.142612 
L 316.9688 277.784245 
L 319.9864 285.304383 
L 323.004 291.627887 
L 326.0216 296.691575 
L 329.0392 300.444852 
L 332.0568 302.850217 
L 335.0744 303.883636 
L 338.092 303.534784 
L 341.1096 301.807146 
L 344.1272 298.717983 
L 347.1448 294.298163 
L 350.1624 288.591846 
L 353.18 281.656048 
L 356.1976 273.56007 
L 359.2152 264.384803 
L 362.2328 254.221923 
L 365.2504 243.172976 
L 368.268 231.348358 
L 371.2856 218.866217 
L 374.3032 205.851271 
L 377.3208 192.43356 
L 380.3384 178.747149 
L 383.356 164.92879 
L 386.3736 151.11655 
L 389.3912 137.448437 
L 392.4088 124.061018 
L 395.4264 111.088055 
L 398.444 98.659171 
L 401.4616 86.89855 
L 404.4792 75.923702 
L 407.4968 65.844281 
L 410.5144 56.761 
L 413.532 48.764615 
L 416.5496 41.935024 
L 419.5672 36.340465 
L 422.5848 32.036837 
L 425.6024 29.067142 
L 428.62 27.46105 
" style="fill:none;stroke:#1f77b4;stroke-linecap:square;stroke-width:1.5;"/>
   </g>
   <g id="line2d_14">
    <path clip-path="url(#p1042c1acf5)" d="M 51.42 165.54124 
L 54.4376 179.356675 
L 57.4552 193.03407 
L 60.4728 206.436767 
L 63.4904 219.430849 
L 66.508 231.886483 
L 69.5256 243.679218 
L 72.5432 254.691224 
L 75.5608 264.812473 
L 78.5784 273.941837 
L 81.596 281.988097 
L 84.6136 288.870859 
L 87.6312 294.521353 
L 90.6488 298.883119 
L 93.6664 301.912578 
L 96.684 303.579459 
L 99.7016 303.867109 
L 102.7192 302.772651 
L 105.7368 300.307023 
L 108.7544 296.49486 
L 111.772 291.374251 
L 114.7896 284.996361 
L 117.8072 277.424914 
L 120.8248 268.735563 
L 123.8424 259.015128 
L 126.86 248.360733 
L 129.8776 236.878833 
L 132.8952 224.684152 
L 135.9128 211.898533 
L 138.9304 198.649729 
L 141.948 185.070115 
L 144.9656 171.295375 
L 147.9832 157.463142 
L 151.0008 143.711622 
L 154.0184 130.178217 
L 157.036 116.998147 
L 160.0536 104.303104 
L 163.0712 92.219932 
L 166.0888 80.869362 
L 169.1064 70.364806 
L 172.124 60.811221 
L 175.1416 52.304064 
L 178.1592 44.928336 
L 181.1768 38.757731 
L 184.1944 33.853906 
L 187.212 30.265857 
L 190.2296 28.029435 
L 193.2472 27.166985 
L 196.2648 27.687125 
L 199.2824 29.584659 
L 202.3 32.840624 
L 205.3176 37.422491 
L 208.3352 43.284479 
L 211.3528 50.368014 
L 214.3704 58.602324 
L 217.388 67.905131 
L 220.4056 78.183486 
L 223.4232 89.334691 
L 226.4408 101.247326 
L 229.4584 113.802365 
L 232.476 126.874362 
L 235.4936 140.332705 
L 238.5112 154.042924 
L 241.5288 167.86803 
L 244.5464 181.669888 
L 247.564 195.310594 
L 250.5816 208.653853 
L 253.5992 221.566347 
L 256.6168 233.919055 
L 259.6344 245.588556 
L 262.652 256.458249 
L 265.6696 266.41953 
L 268.6872 275.372869 
L 271.7048 283.228806 
L 274.7224 289.908849 
L 277.74 295.346251 
L 280.7576 299.486684 
L 283.7752 302.288779 
L 286.7928 303.724537 
L 289.8104 303.779614 
L 292.828 302.453458 
L 295.8456 299.759321 
L 298.8632 295.724122 
L 301.8808 290.388177 
L 304.8984 283.804804 
L 307.916 276.03978 
L 310.9336 267.170691 
L 313.9512 257.286155 
L 316.9688 246.484933 
L 319.9864 234.87495 
L 323.004 222.572206 
L 326.0216 209.699628 
L 329.0392 196.385834 
L 332.0568 182.763851 
L 335.0744 168.969785 
L 338.092 155.141463 
L 341.1096 141.417051 
L 344.1272 127.933681 
L 347.1448 114.826073 
L 350.1624 102.225194 
L 353.18 90.256948 
L 356.1976 79.040918 
L 359.2152 68.689171 
L 362.2328 59.305137 
L 365.2504 50.982579 
L 368.268 43.804654 
L 371.2856 37.84308 
L 374.3032 33.157425 
L 377.3208 29.794504 
L 380.3384 27.78792 
L 383.356 27.157722 
L 386.3736 27.910206 
L 389.3912 30.037854 
L 392.4088 33.519407 
L 395.4264 38.320078 
L 398.444 44.391902 
L 401.4616 51.674209 
L 404.4792 60.094239 
L 407.4968 69.567859 
L 410.5144 80.000415 
L 413.532 91.287666 
L 416.5496 103.316833 
L 419.5672 115.967728 
L 422.5848 129.113943 
L 425.6024 142.624128 
L 428.62 156.363294 
" style="fill:none;stroke:#ff7f0e;stroke-linecap:square;stroke-width:1.5;"/>
   </g>
   <g id="patch_3">
    <path d="M 32.56 317.72 
L 32.56 13.32 
" style="fill:none;stroke:#000000;stroke-linecap:square;stroke-linejoin:miter;stroke-width:0.8;"/>
   </g>
   <g id="patch_4">
    <path d="M 447.48 317.72 
L 447.48 13.32 
" style="fill:none;stroke:#000000;stroke-linecap:square;stroke-linejoin:miter;stroke-width:0.8;"/>
   </g>
   <g id="patch_5">
    <path d="M 32.56 317.72 
L 447.48 317.72 
" style="fill:none;stroke:#000000;stroke-linecap:square;stroke-linejoin:miter;stroke-width:0.8;"/>
   </g>
   <g id="patch_6">
    <path d="M 32.56 13.32 
L 447.48 13.32 
" style="fill:none;stroke:#000000;stroke-linecap:square;stroke-linejoin:miter;stroke-width:0.8;"/>
   </g>
  </g>
 </g>
 <defs>
  <clipPath id="p1042c1acf5">
   <rect height="304.4" width="414.92" x="32.56" y="13.32"/>
  </clipPath>
 </defs>
</svg>
