<?xml version="1.0" encoding="UTF-8" standalone="no"?>
<!-- Created with Inkscape (http://www.inkscape.org/) -->

<svg
   xmlns:dc="http://purl.org/dc/elements/1.1/"
   xmlns:cc="http://creativecommons.org/ns#"
   xmlns:rdf="http://www.w3.org/1999/02/22-rdf-syntax-ns#"
   xmlns:svg="http://www.w3.org/2000/svg"
   xmlns="http://www.w3.org/2000/svg"
   xmlns:xlink="http://www.w3.org/1999/xlink"
   xmlns:sodipodi="http://sodipodi.sourceforge.net/DTD/sodipodi-0.dtd"
   xmlns:inkscape="http://www.inkscape.org/namespaces/inkscape"
   sodipodi:docname="benchmarks_jaynescummings.svg"
   inkscape:version="0.91 r13725"
   version="1.1"
   id="svg2"
   viewBox="0 0 425.19684 318.89763"
   height="90mm"
   width="120mm">
  <sodipodi:namedview
     inkscape:window-maximized="1"
     inkscape:window-y="0"
     inkscape:window-x="0"
     inkscape:window-height="1029"
     inkscape:window-width="1920"
     inkscape:object-nodes="true"
     showgrid="true"
     inkscape:current-layer="layer1"
     inkscape:document-units="px"
     inkscape:cy="200.49817"
     inkscape:cx="386.46576"
     inkscape:zoom="1.4142136"
     inkscape:pageshadow="2"
     inkscape:pageopacity="0.0"
     borderopacity="1.0"
     bordercolor="#666666"
     pagecolor="#ffffff"
     id="base">
    <inkscape:grid
       type="xygrid"
       id="grid4138" />
  </sodipodi:namedview>
  <defs
     id="defs4">
    <marker
       inkscape:isstock="true"
       style="overflow:visible;"
       id="marker5411"
       refX="0.0"
       refY="0.0"
       orient="auto"
       inkscape:stockid="Arrow1Send">
      <path
         transform="scale(0.2) rotate(180) translate(6,0)"
         style="fill-rule:evenodd;stroke:#000000;stroke-width:1pt;stroke-opacity:1;fill:#000000;fill-opacity:1"
         d="M 0.0,0.0 L 5.0,-5.0 L -12.5,0.0 L 5.0,5.0 L 0.0,0.0 z "
         id="path5413" />
    </marker>
    <linearGradient
       id="linearGradient7191"
       inkscape:collect="always">
      <stop
         id="stop7193"
         offset="0"
         style="stop-color:#d66761;stop-opacity:1;" />
      <stop
         id="stop7195"
         offset="1"
         style="stop-color:#d66761;stop-opacity:0.692" />
    </linearGradient>
    <marker
       inkscape:stockid="Arrow1Send"
       orient="auto"
       refY="0.0"
       refX="0.0"
       id="Arrow1Send"
       style="overflow:visible;"
       inkscape:isstock="true"
       inkscape:collect="always">
      <path
         id="path4832"
         d="M 0.0,0.0 L 5.0,-5.0 L -12.5,0.0 L 5.0,5.0 L 0.0,0.0 z "
         style="fill-rule:evenodd;stroke:#000000;stroke-width:1pt;stroke-opacity:1;fill:#000000;fill-opacity:1"
         transform="scale(0.2) rotate(180) translate(6,0)" />
    </marker>
    <marker
       inkscape:stockid="Arrow2Sstart"
       orient="auto"
       refY="0.0"
       refX="0.0"
       id="Arrow2Sstart"
       style="overflow:visible"
       inkscape:isstock="true">
      <path
         id="path4847"
         style="fill-rule:evenodd;stroke-width:0.625;stroke-linejoin:round;stroke:#000000;stroke-opacity:1;fill:#000000;fill-opacity:1"
         d="M 8.7185878,4.0337352 L -2.2072895,0.016013256 L 8.7185884,-4.0017078 C 6.9730900,-1.6296469 6.9831476,1.6157441 8.7185878,4.0337352 z "
         transform="scale(0.3) translate(-2.3,0)" />
    </marker>
    <marker
       inkscape:stockid="DotS"
       orient="auto"
       refY="0.0"
       refX="0.0"
       id="DotS"
       style="overflow:visible"
       inkscape:isstock="true">
      <path
         id="path4884"
         d="M -2.5,-1.0 C -2.5,1.7600000 -4.7400000,4.0 -7.5,4.0 C -10.260000,4.0 -12.5,1.7600000 -12.5,-1.0 C -12.5,-3.7600000 -10.260000,-6.0 -7.5,-6.0 C -4.7400000,-6.0 -2.5,-3.7600000 -2.5,-1.0 z "
         style="fill-rule:evenodd;stroke:#000000;stroke-width:1pt;stroke-opacity:1;fill:#000000;fill-opacity:1"
         transform="scale(0.2) translate(7.4, 1)" />
    </marker>
    <marker
       inkscape:stockid="Arrow2Mend"
       orient="auto"
       refY="0.0"
       refX="0.0"
       id="Arrow2Mend"
       style="overflow:visible;"
       inkscape:isstock="true">
      <path
         id="path4844"
         style="fill-rule:evenodd;stroke-width:0.625;stroke-linejoin:round;stroke:#000000;stroke-opacity:1;fill:#000000;fill-opacity:1"
         d="M 8.7185878,4.0337352 L -2.2072895,0.016013256 L 8.7185884,-4.0017078 C 6.9730900,-1.6296469 6.9831476,1.6157441 8.7185878,4.0337352 z "
         transform="scale(0.6) rotate(180) translate(0,0)" />
    </marker>
    <marker
       inkscape:stockid="Arrow1Lend"
       orient="auto"
       refY="0.0"
       refX="0.0"
       id="marker5073"
       style="overflow:visible;"
       inkscape:isstock="true">
      <path
         id="path4820"
         d="M 0.0,0.0 L 5.0,-5.0 L -12.5,0.0 L 5.0,5.0 L 0.0,0.0 z "
         style="fill-rule:evenodd;stroke:#000000;stroke-width:1pt;stroke-opacity:1;fill:#000000;fill-opacity:1"
         transform="scale(0.8) rotate(180) translate(12.5,0)" />
    </marker>
    <marker
       inkscape:isstock="true"
       style="overflow:visible"
       id="Arrow1Lend"
       refX="0"
       refY="0"
       orient="auto"
       inkscape:stockid="Arrow1Lend">
      <path
         inkscape:connector-curvature="0"
         transform="matrix(-0.8,0,0,-0.8,-10,0)"
         style="fill:#ffb338;fill-opacity:1;fill-rule:evenodd;stroke:none;stroke-width:1pt;stroke-opacity:1"
         d="M 0,0 5,-5 -12.5,0 5,5 0,0 Z"
         id="path5609" />
    </marker>
    <marker
       inkscape:stockid="Arrow1Mend"
       orient="auto"
       refY="0"
       refX="0"
       id="marker4297"
       style="overflow:visible"
       inkscape:isstock="true">
      <path
         id="path4299"
         d="M 0,0 5,-5 -12.5,0 5,5 0,0 Z"
         style="fill:#000000;fill-opacity:1;fill-rule:evenodd;stroke:#000000;stroke-width:1pt;stroke-opacity:1"
         transform="matrix(-0.4,0,0,-0.4,-4,0)"
         inkscape:connector-curvature="0" />
    </marker>
    <clipPath
       clipPathUnits="userSpaceOnUse"
       id="clipPath4807">
      <rect
         style="opacity:1;fill:#bf7e7d;fill-opacity:1;stroke:#000000;stroke-width:1.5;stroke-linecap:round;stroke-linejoin:round;stroke-miterlimit:4;stroke-dasharray:none;stroke-dashoffset:0.82599998;stroke-opacity:1"
         id="rect4809"
         width="105"
         height="55"
         x="345"
         y="852.36218" />
    </clipPath>
    <marker
       inkscape:stockid="Arrow1Mend"
       orient="auto"
       refY="0"
       refX="0"
       id="Arrow1Mend"
       style="overflow:visible"
       inkscape:isstock="true"
       inkscape:collect="always">
      <path
         id="path5615"
         d="M 0,0 5,-5 -12.5,0 5,5 0,0 Z"
         style="fill:#000000;fill-opacity:1;fill-rule:evenodd;stroke:#000000;stroke-width:1pt;stroke-opacity:1"
         transform="matrix(-0.4,0,0,-0.4,-4,0)"
         inkscape:connector-curvature="0" />
    </marker>
    <radialGradient
       gradientUnits="userSpaceOnUse"
       gradientTransform="matrix(1.1858975,0,0,0.60187686,-84.915014,360.88646)"
       r="110.28388"
       fy="879.8622"
       fx="204.06752"
       cy="879.8622"
       cx="204.06752"
       id="radialGradient7197"
       xlink:href="#linearGradient7191"
       inkscape:collect="always" />
  </defs>
  <metadata
     id="metadata7">
    <rdf:RDF>
      <cc:Work
         rdf:about="">
        <dc:format>image/svg+xml</dc:format>
        <dc:type
           rdf:resource="http://purl.org/dc/dcmitype/StillImage" />
        <dc:title />
      </cc:Work>
    </rdf:RDF>
  </metadata>
  <g
     inkscape:label="Layer 1"
     inkscape:groupmode="layer"
     id="layer1"
     transform="translate(0,-733.46456)">
    <path
       style="opacity:1;fill:url(#radialGradient7197);fill-opacity:1;fill-rule:evenodd;stroke:none;stroke-width:1px;stroke-linecap:butt;stroke-linejoin:miter;stroke-opacity:1"
       d="m 43.322071,824.07784 c 0,0 37.456988,15.93665 56.883049,20.42379 18.69909,4.31921 37.84726,6.12714 56.88303,6.12714 19.03578,0 38.18394,-1.80793 56.88304,-6.12714 19.42605,-4.48714 56.88305,-20.42379 56.88305,-20.42379 0,0 12.25934,21.37257 15.16881,33.18866 2.62998,10.68102 1.68542,22.04228 1.68542,33.18865 0,11.14637 0.94456,22.50763 -1.68542,33.18866 -2.90947,11.81608 -15.16881,33.18866 -15.16881,33.18866 0,0 -37.457,-15.93665 -56.88305,-20.42379 -18.6991,-4.31923 -37.84726,-6.12714 -56.88304,-6.12714 -19.03577,0 -38.18394,1.80791 -56.88303,6.12714 -19.426061,4.48714 -56.883049,20.42379 -56.883049,20.42379 0,0 -12.259345,-21.37258 -15.168814,-33.18866 -2.629977,-10.68103 -1.685422,-22.04229 -1.685422,-33.18866 0,-11.14637 -0.944555,-22.50763 1.685422,-33.18865 2.909469,-11.81609 15.168814,-33.18866 15.168814,-33.18866 z"
       id="path4147"
       inkscape:connector-curvature="0"
       sodipodi:nodetypes="cssscssscssscsssc" />
    <path
       style="fill:#6296b0;fill-opacity:1;fill-rule:evenodd;stroke:#000000;stroke-width:2;stroke-linecap:butt;stroke-linejoin:miter;stroke-miterlimit:4;stroke-dasharray:none;stroke-opacity:1"
       d="m 9.613599,797.3622 0,185 50.562709,0 c 0,0 -20.968838,-28.61975 -26.966776,-45.95352 -4.9647,-14.34775 -6.741697,-30.39551 -6.741697,-45.95353 0,-15.55802 1.777008,-31.60579 6.741697,-45.95352 5.997938,-17.33378 26.966776,-45.95353 26.966776,-45.95353 l -50.219522,0"
       id="path4140"
       inkscape:connector-curvature="0"
       sodipodi:nodetypes="cccssscc" />
    <path
       sodipodi:nodetypes="cccssscc"
       inkscape:connector-curvature="0"
       id="path4145"
       d="m 304.56271,797.3622 0,185 -50.56271,0 c 0,0 20.96884,-28.61975 26.96678,-45.95352 4.96468,-14.34775 6.74169,-30.39551 6.74169,-45.95353 0,-15.55802 -1.77701,-31.60579 -6.74169,-45.95352 C 274.96884,827.16785 254,798.5481 254,798.5481 l 50.05937,0"
       style="fill:#6296b0;fill-opacity:1;fill-rule:evenodd;stroke:#000000;stroke-width:2;stroke-linecap:butt;stroke-linejoin:miter;stroke-miterlimit:4;stroke-dasharray:none;stroke-opacity:1" />
    <g
       id="g7098"
       transform="matrix(1.1858975,0,0,1.1858975,-87.286809,-148.22764)">
      <path
         inkscape:connector-curvature="0"
         style="fill:none;fill-opacity:1;stroke:#000000;stroke-width:1.2648648;stroke-linecap:round;stroke-miterlimit:4;stroke-dasharray:none;stroke-dashoffset:0;stroke-opacity:1"
         d="m 331,878.3622 c 1.99612,-1.17394 3.96036,-2.31171 5.1837,-2.6092 1.22341,-0.29754 1.67285,0.28266 1.39705,1.68548 -0.27545,1.40237 -1.2438,3.59061 -2.15034,5.7087 -0.90702,2.11869 -1.68873,4.09523 -1.68749,5.18379 10e-4,1.08854 0.81133,1.25978 2.29455,0.66755 1.48248,-0.59137 3.59895,-1.9018 5.56152,-3.03764 1.9626,-1.13593 3.70905,-2.02666 4.64019,-1.99274 0.92955,0.0358 1.0241,1.01842 0.50965,2.69187 -0.51528,1.67439 -1.59819,3.99254 -2.43767,6.0346 -0.83901,2.04154 -1.3731,3.73722 -1.06898,4.4823 0.30328,0.746 1.46206,0.52177 3.16103,-0.31517 1.69897,-0.83691 3.8924,-2.23462 5.7547,-3.25676 1.86192,-1.02168 3.33452,-1.60191 3.95462,-1.21519 0.61845,0.38855 0.38151,1.74723 -0.32488,3.63839 -0.70643,1.89114 -1.82788,4.25299 -2.53511,6.14509 -0.70683,1.89159 -0.94375,3.25027 -0.32489,3.63841 0.61848,0.38849 2.09314,-0.19411 3.95505,-1.21573 1.86145,-1.02119 4.05449,-2.41843 5.75471,-3.25676 1.69975,-0.83781 2.85442,-1.05739 3.16056,-0.31462 0.30744,0.7413 -0.23017,2.44113 -1.06898,4.4823 -0.83858,2.04102 -1.92117,4.35885 -2.43767,6.03457 -0.51687,1.67619 -0.41944,2.65567 0.51007,2.69144 0.92954,0.0358 2.67764,-0.8569 4.6398,-1.99231 1.96217,-1.13538 4.07778,-2.44485 5.56149,-3.03763 1.48369,-0.59273 2.29207,-0.41959 2.29459,0.66754 0.003,1.08718 -0.78087,3.06555 -1.68706,5.18327 -0.90654,2.11812 -1.87371,4.305 -2.15075,5.7092 -0.27718,1.40417 0.17508,1.9812 1.39693,1.68556 1.22179,-0.2957 3.18765,-1.43529 5.18419,-2.6097"
         title="t sin(t*5)"
         id="path5730" />
      <path
         inkscape:connector-curvature="0"
         id="path5754"
         d="m 378.19348,919.89299 10.80651,9.5283"
         style="fill:none;fill-rule:evenodd;stroke:#000000;stroke-width:1.68648648;stroke-linecap:round;stroke-linejoin:miter;stroke-miterlimit:4;stroke-dasharray:none;stroke-opacity:1;marker-end:url(#Arrow1Mend)" />
    </g>
    <g
       id="g4218"
       transform="matrix(-1.1858975,0,0,1.1858975,769.05695,-233.61226)">
      <path
         id="path4220"
         title="t sin(t*5)"
         d="m 331,878.3622 c 1.99612,-1.17394 3.96036,-2.31171 5.1837,-2.6092 1.22341,-0.29754 1.67285,0.28266 1.39705,1.68548 -0.27545,1.40237 -1.2438,3.59061 -2.15034,5.7087 -0.90702,2.11869 -1.68873,4.09523 -1.68749,5.18379 10e-4,1.08854 0.81133,1.25978 2.29455,0.66755 1.48248,-0.59137 3.59895,-1.9018 5.56152,-3.03764 1.9626,-1.13593 3.70905,-2.02666 4.64019,-1.99274 0.92955,0.0358 1.0241,1.01842 0.50965,2.69187 -0.51528,1.67439 -1.59819,3.99254 -2.43767,6.0346 -0.83901,2.04154 -1.3731,3.73722 -1.06898,4.4823 0.30328,0.746 1.46206,0.52177 3.16103,-0.31517 1.69897,-0.83691 3.8924,-2.23462 5.7547,-3.25676 1.86192,-1.02168 3.33452,-1.60191 3.95462,-1.21519 0.61845,0.38855 0.38151,1.74723 -0.32488,3.63839 -0.70643,1.89114 -1.82788,4.25299 -2.53511,6.14509 -0.70683,1.89159 -0.94375,3.25027 -0.32489,3.63841 0.61848,0.38849 2.09314,-0.19411 3.95505,-1.21573 1.86145,-1.02119 4.05449,-2.41843 5.75471,-3.25676 1.69975,-0.83781 2.85442,-1.05739 3.16056,-0.31462 0.30744,0.7413 -0.23017,2.44113 -1.06898,4.4823 -0.83858,2.04102 -1.92117,4.35885 -2.43767,6.03457 -0.51687,1.67619 -0.41944,2.65567 0.51007,2.69144 0.92954,0.0358 2.67764,-0.8569 4.6398,-1.99231 1.96217,-1.13538 4.07778,-2.44485 5.56149,-3.03763 1.48369,-0.59273 2.29207,-0.41959 2.29459,0.66754 0.003,1.08718 -0.78087,3.06555 -1.68706,5.18327 -0.90654,2.11812 -1.87371,4.305 -2.15075,5.7092 -0.27718,1.40417 0.17508,1.9812 1.39693,1.68556 1.22179,-0.2957 3.18765,-1.43529 5.18419,-2.6097"
         style="fill:none;fill-opacity:1;stroke:#000000;stroke-width:1.2648648;stroke-linecap:round;stroke-miterlimit:4;stroke-dasharray:none;stroke-dashoffset:0;stroke-opacity:1"
         inkscape:connector-curvature="0" />
      <path
         style="fill:none;fill-rule:evenodd;stroke:#000000;stroke-width:1.68648648;stroke-linecap:round;stroke-linejoin:miter;stroke-miterlimit:4;stroke-dasharray:none;stroke-opacity:1;marker-end:url(#Arrow1Mend)"
         d="m 378.19348,919.89299 10.80651,9.5283"
         id="path4222"
         inkscape:connector-curvature="0" />
    </g>
    <path
       style="fill:none;fill-rule:evenodd;stroke:#000000;stroke-width:3;stroke-linecap:round;stroke-linejoin:miter;stroke-miterlimit:4;stroke-dasharray:none;stroke-opacity:1"
       d="m 119,923.3622 75,0"
       id="path4274"
       inkscape:connector-curvature="0" />
    <path
       inkscape:connector-curvature="0"
       id="path4276"
       d="m 119,857.3622 75,0"
       style="fill:none;fill-rule:evenodd;stroke:#000000;stroke-width:3;stroke-linecap:round;stroke-linejoin:miter;stroke-miterlimit:4;stroke-dasharray:none;stroke-opacity:1" />
    <g
       id="g6748"
       transform="matrix(0.95494061,0,0,0.95494061,-8.2226471,40.038533)">
      <path
         sodipodi:open="true"
         d="M 164.34796,920.06698 A 31.5,31.5 0 0 1 141.03074,891.01433 31.5,31.5 0 0 1 161.72713,860.04"
         sodipodi:end="4.3633231"
         sodipodi:start="1.8325957"
         sodipodi:ry="31.5"
         sodipodi:rx="31.5"
         sodipodi:cy="889.64032"
         sodipodi:cx="172.50076"
         sodipodi:type="arc"
         id="path4284"
         style="opacity:1;fill:none;fill-opacity:1;stroke:#000000;stroke-width:2;stroke-linecap:butt;stroke-linejoin:round;stroke-miterlimit:4;stroke-dasharray:none;stroke-dashoffset:0.82599998;stroke-opacity:1;marker-end:url(#Arrow1Send)" />
      <path
         transform="scale(-1,-1)"
         style="opacity:1;fill:none;fill-opacity:1;stroke:#000000;stroke-width:2;stroke-linecap:butt;stroke-linejoin:round;stroke-miterlimit:4;stroke-dasharray:none;stroke-dashoffset:0.82599998;stroke-opacity:1;marker-end:url(#marker5411)"
         id="path5409"
         sodipodi:type="arc"
         sodipodi:cx="-172.70374"
         sodipodi:cy="-891.0614"
         sodipodi:rx="31.5"
         sodipodi:ry="31.5"
         sodipodi:start="1.8325957"
         sodipodi:end="4.3633231"
         d="m -180.85653,-860.63474 a 31.5,31.5 0 0 1 -23.31722,-29.05265 31.5,31.5 0 0 1 20.69638,-30.97433"
         sodipodi:open="true" />
    </g>
    <g
       transform="matrix(0,-0.78940199,-0.78940199,0,830.38087,1117.6543)"
       id="g5925">
      <path
         inkscape:connector-curvature="0"
         style="fill:none;fill-opacity:1;stroke:#000000;stroke-width:1.2648648;stroke-linecap:round;stroke-miterlimit:4;stroke-dasharray:none;stroke-dashoffset:0;stroke-opacity:1"
         d="m 331,878.3622 c 1.99612,-1.17394 3.96036,-2.31171 5.1837,-2.6092 1.22341,-0.29754 1.67285,0.28266 1.39705,1.68548 -0.27545,1.40237 -1.2438,3.59061 -2.15034,5.7087 -0.90702,2.11869 -1.68873,4.09523 -1.68749,5.18379 10e-4,1.08854 0.81133,1.25978 2.29455,0.66755 1.48248,-0.59137 3.59895,-1.9018 5.56152,-3.03764 1.9626,-1.13593 3.70905,-2.02666 4.64019,-1.99274 0.92955,0.0358 1.0241,1.01842 0.50965,2.69187 -0.51528,1.67439 -1.59819,3.99254 -2.43767,6.0346 -0.83901,2.04154 -1.3731,3.73722 -1.06898,4.4823 0.30328,0.746 1.46206,0.52177 3.16103,-0.31517 1.69897,-0.83691 3.8924,-2.23462 5.7547,-3.25676 1.86192,-1.02168 3.33452,-1.60191 3.95462,-1.21519 0.61845,0.38855 0.38151,1.74723 -0.32488,3.63839 -0.70643,1.89114 -1.82788,4.25299 -2.53511,6.14509 -0.70683,1.89159 -0.94375,3.25027 -0.32489,3.63841 0.61848,0.38849 2.09314,-0.19411 3.95505,-1.21573 1.86145,-1.02119 4.05449,-2.41843 5.75471,-3.25676 1.69975,-0.83781 2.85442,-1.05739 3.16056,-0.31462 0.30744,0.7413 -0.23017,2.44113 -1.06898,4.4823 -0.83858,2.04102 -1.92117,4.35885 -2.43767,6.03457 -0.51687,1.67619 -0.41944,2.65567 0.51007,2.69144 0.92954,0.0358 2.67764,-0.8569 4.6398,-1.99231 1.96217,-1.13538 4.07778,-2.44485 5.56149,-3.03763 1.48369,-0.59273 2.29207,-0.41959 2.29459,0.66754 0.003,1.08718 -0.78087,3.06555 -1.68706,5.18327 -0.90654,2.11812 -1.87371,4.305 -2.15075,5.7092 -0.27718,1.40417 0.17508,1.9812 1.39693,1.68556 1.22179,-0.2957 3.18765,-1.43529 5.18419,-2.6097"
         title="t sin(t*5)"
         id="path5927" />
      <path
         inkscape:connector-curvature="0"
         id="path5929"
         d="m 378.19348,919.89299 10.80651,9.5283"
         style="fill:none;fill-rule:evenodd;stroke:#000000;stroke-width:1.68648648;stroke-linecap:round;stroke-linejoin:miter;stroke-miterlimit:4;stroke-dasharray:none;stroke-opacity:1;marker-end:url(#Arrow1Mend)" />
    </g>
    <g
       transform="matrix(1.4071004,0,0,1.4071005,154.85765,611.74564)"
       id="g5977">
      <g
         style="font-style:normal;font-variant:normal;font-weight:normal;font-stretch:normal;letter-spacing:normal;word-spacing:normal;text-anchor:start;fill:none;fill-opacity:1;fill-rule:evenodd;stroke:#000000;stroke-linecap:butt;stroke-linejoin:miter;stroke-miterlimit:10.43299961;stroke-dasharray:none;stroke-dashoffset:0;stroke-opacity:1"
         id="content"
         transform="matrix(0.45556805,0,0,-0.45556805,-79.724409,318.89764)"
         xml:space="preserve"
         stroke-miterlimit="10.433"
         font-style="normal"
         font-variant="normal"
         font-weight="normal"
         font-stretch="normal"
         font-size-adjust="none"
         letter-spacing="normal"
         word-spacing="normal"><polygon
           style="fill:#000000;stroke-width:0"
           points="461.44,435.39 461.44,433.84 479.42,433.84 479.42,435.39 "
           id="polygon5980" /><path
           style="fill:#000000;stroke-width:0"
           inkscape:connector-curvature="0"
           d="m 460.38,408.94 -0.01,-0.07 -0.02,-0.08 -0.01,-0.07 -0.02,-0.08 -0.03,-0.16 -0.04,-0.16 -0.04,-0.16 -0.03,-0.16 -0.04,-0.16 -0.04,-0.16 -0.01,-0.08 -0.02,-0.07 -0.02,-0.07 -0.01,-0.07 -0.02,-0.07 -0.01,-0.07 -0.01,-0.06 -0.02,-0.06 -0.01,-0.05 -0.01,-0.06 -0.01,-0.05 0,-0.04 -0.01,-0.04 0,-0.04 -0.01,-0.03 0,-0.02 c 0,-0.9 0.7,-1.35 1.45,-1.35 0.6,0 1.5,0.4 1.84,1.4 0.05,0.1 0.65,2.44 0.95,3.68 l 1.1,4.49 c 0.29,1.09 0.59,2.19 0.84,3.34 0.2,0.84 0.6,2.28 0.65,2.48 0.75,1.55 3.39,6.08 8.12,6.08 2.24,0 2.69,-1.84 2.69,-3.49 0,-3.08 -2.44,-9.46 -3.24,-11.6 -0.45,-1.15 -0.5,-1.74 -0.5,-2.29 0,-2.34 1.75,-4.09 4.09,-4.09 4.68,0 6.52,7.28 6.52,7.67 0,0.5 -0.44,0.5 -0.6,0.5 -0.49,0 -0.49,-0.15 -0.74,-0.89 -1,-3.39 -2.64,-6.18 -5.08,-6.18 -0.85,0 -1.2,0.5 -1.2,1.64 0,1.25 0.45,2.44 0.9,3.54 0.94,2.64 3.04,8.12 3.04,10.96 0,3.33 -2.15,5.33 -5.73,5.33 -4.48,0 -6.92,-3.19 -7.77,-4.34 -0.25,2.79 -2.3,4.34 -4.58,4.34 -2.3,0 -3.24,-1.95 -3.74,-2.84 -0.8,-1.7 -1.49,-4.63 -1.49,-4.83 0,-0.5 0.49,-0.5 0.59,-0.5 0.5,0 0.55,0.05 0.85,1.14 0.84,3.54 1.84,5.93 3.64,5.93 0.99,0 1.54,-0.65 1.54,-2.29 0,-1.04 -0.15,-1.59 -0.8,-4.18 z"
           id="path5982" /><path
           style="fill:#000000;stroke-width:0"
           inkscape:connector-curvature="0"
           d="m 488.94,407.94 -0.01,-0.03 -0.01,-0.03 -0.01,-0.03 -0.01,-0.03 -0.01,-0.06 -0.02,-0.05 -0.01,-0.05 -0.01,-0.05 -0.02,-0.05 -0.01,-0.04 -0.01,-0.04 -0.01,-0.04 -0.01,-0.04 0,-0.03 -0.01,-0.04 -0.01,-0.03 0,-0.03 -0.01,-0.03 0,-0.03 -0.01,-0.03 0,-0.02 0,-0.03 -0.01,-0.05 0,-0.06 0,-0.05 0,-0.05 0,-0.03 0,-0.03 0,-0.03 0,-0.03 c 0,-0.9 0.7,-1.35 1.44,-1.35 1.5,0 1.8,1.2 2.2,2.79 0.5,1.8 0.19,0.85 2.34,9.22 4.18,-0.15 8.51,-1 8.51,-4.24 0,-0.34 0,-0.6 -0.09,-1.09 -0.2,-0.8 -0.25,-1.35 -0.25,-1.75 0,-2.93 1.99,-4.93 4.58,-4.93 1.59,0 2.89,0.9 3.89,2.59 1.24,2.09 1.84,4.98 1.84,5.08 0,0.5 -0.45,0.5 -0.6,0.5 -0.5,0 -0.55,-0.2 -0.7,-0.89 -0.94,-3.44 -2.09,-6.18 -4.33,-6.18 -1.05,0 -1.59,0.65 -1.59,2.39 0,0.75 0.2,1.94 0.4,2.79 0.09,0.45 0.24,1.09 0.24,1.64 0,4.68 -6.87,5.03 -9.66,5.13 1.64,0.9 3.24,2.25 4.58,3.39 2.29,1.94 3.74,3.14 5.73,3.99 -0.1,-0.26 -0.25,-0.85 -0.25,-1.1 0,-0.6 0.35,-1.74 1.89,-1.74 1.6,0 2.7,1.44 2.7,2.69 0,0.45 -0.2,1.74 -2,1.74 -3.04,0 -5.98,-2.49 -8.17,-4.33 -3.39,-2.89 -4.58,-3.64 -6.37,-4.24 0.14,0.55 0.74,3.04 0.99,3.89 0.3,1.29 0.9,3.63 0.9,3.88 0,0.85 -0.6,1.35 -1.44,1.35 -0.16,0 -1.55,0 -2,-1.8 z"
           id="path5984" /></g>    </g>
    <g
       transform="matrix(1.4071004,0,0,1.4071005,124.10069,791.88019)"
       id="g6086">
      <g
         style="font-style:normal;font-variant:normal;font-weight:normal;font-stretch:normal;letter-spacing:normal;word-spacing:normal;text-anchor:start;fill:none;fill-opacity:1;fill-rule:evenodd;stroke:#000000;stroke-linecap:butt;stroke-linejoin:miter;stroke-miterlimit:10.43299961;stroke-dasharray:none;stroke-dashoffset:0;stroke-opacity:1"
         word-spacing="normal"
         letter-spacing="normal"
         font-size-adjust="none"
         font-stretch="normal"
         font-weight="normal"
         font-variant="normal"
         font-style="normal"
         stroke-miterlimit="10.433"
         xml:space="preserve"
         transform="matrix(0.45556805,0,0,-0.45556805,-79.724409,318.89764)"
         id="g6088"><path
           style="fill:#000000;stroke-width:0"
           inkscape:connector-curvature="0"
           id="path6090"
           d="m 472.49,394.04 0,0.03 0,0.03 -0.01,0.01 0,0.02 0,0.01 -0.01,0.02 0,0.02 -0.01,0.01 -0.01,0.02 -0.01,0.02 -0.01,0.03 -0.01,0.02 -0.02,0.02 -0.02,0.03 -0.02,0.03 -0.02,0.03 -0.03,0.03 -0.03,0.04 -0.01,0.02 -0.02,0.02 -0.02,0.02 -0.02,0.02 -0.02,0.02 -0.02,0.03 -0.02,0.02 -0.02,0.02 -0.02,0.03 -0.03,0.02 -0.02,0.03 -0.03,0.03 -0.02,0.03 -0.03,0.03 -0.03,0.03 -0.03,0.03 -0.03,0.03 -0.03,0.03 -0.04,0.04 -0.03,0.03 -0.04,0.04 -0.03,0.03 -0.04,0.04 -0.04,0.04 c -6.23,6.28 -7.82,15.69 -7.82,23.31 0,8.67 1.89,17.34 8.02,23.57 0.65,0.59 0.65,0.69 0.65,0.84 0,0.35 -0.2,0.5 -0.5,0.5 -0.5,0 -4.98,-3.39 -7.92,-9.72 -2.54,-5.47 -3.14,-11 -3.14,-15.19 0,-3.88 0.55,-9.91 3.29,-15.54 2.99,-6.12 7.27,-9.36 7.77,-9.36 0.3,0 0.5,0.15 0.5,0.49 z" /><polygon
           style="fill:#000000;stroke-width:0"
           id="polygon6092"
           points="480.44,435.39 480.44,433.84 498.42,433.84 498.42,435.39 " /><path
           style="fill:#000000;stroke-width:0"
           inkscape:connector-curvature="0"
           id="path6094"
           d="m 479.38,408.94 -0.01,-0.07 -0.02,-0.08 -0.01,-0.07 -0.02,-0.08 -0.03,-0.16 -0.04,-0.16 -0.04,-0.16 -0.03,-0.16 -0.04,-0.16 -0.04,-0.16 -0.01,-0.08 -0.02,-0.07 -0.02,-0.07 -0.01,-0.07 -0.02,-0.07 -0.01,-0.07 -0.01,-0.06 -0.02,-0.06 -0.01,-0.05 -0.01,-0.06 -0.01,-0.05 0,-0.04 -0.01,-0.04 0,-0.04 -0.01,-0.03 0,-0.02 c 0,-0.9 0.7,-1.35 1.45,-1.35 0.6,0 1.5,0.4 1.84,1.4 0.05,0.1 0.65,2.44 0.95,3.68 l 1.1,4.49 c 0.29,1.09 0.59,2.19 0.84,3.34 0.2,0.84 0.6,2.28 0.65,2.48 0.75,1.55 3.39,6.08 8.12,6.08 2.24,0 2.69,-1.84 2.69,-3.49 0,-3.08 -2.44,-9.46 -3.24,-11.6 -0.45,-1.15 -0.5,-1.74 -0.5,-2.29 0,-2.34 1.75,-4.09 4.09,-4.09 4.68,0 6.52,7.28 6.52,7.67 0,0.5 -0.44,0.5 -0.6,0.5 -0.49,0 -0.49,-0.15 -0.74,-0.89 -1,-3.39 -2.64,-6.18 -5.08,-6.18 -0.85,0 -1.2,0.5 -1.2,1.64 0,1.25 0.45,2.44 0.9,3.54 0.94,2.64 3.04,8.12 3.04,10.96 0,3.33 -2.15,5.33 -5.73,5.33 -4.48,0 -6.92,-3.19 -7.77,-4.34 -0.25,2.79 -2.3,4.34 -4.58,4.34 -2.3,0 -3.24,-1.95 -3.74,-2.84 -0.8,-1.7 -1.49,-4.63 -1.49,-4.83 0,-0.5 0.49,-0.5 0.59,-0.5 0.5,0 0.55,0.05 0.85,1.14 0.84,3.54 1.84,5.93 3.64,5.93 0.99,0 1.54,-0.65 1.54,-2.29 0,-1.04 -0.15,-1.59 -0.8,-4.18 z" /><path
           style="fill:#000000;stroke-width:0"
           inkscape:connector-curvature="0"
           id="path6096"
           d="m 536.38,417.46 13.89,0 c 0.7,0 1.64,0 1.64,0.99 0,1 -0.94,1 -1.64,1 l -13.89,0 0,13.95 c 0,0.69 0,1.64 -1,1.64 -1,0 -1,-0.95 -1,-1.64 l 0,-13.95 -13.95,0 c -0.7,0 -1.64,0 -1.64,-1 0,-0.99 0.94,-0.99 1.64,-0.99 l 13.95,0 0,-13.95 c 0,-0.7 0,-1.64 1,-1.64 1,0 1,0.94 1,1.64 z" /><path
           style="fill:#000000;stroke-width:0"
           inkscape:connector-curvature="0"
           id="path6098"
           d="m 580.65,437.88 0,0.05 -0.01,0.06 0,0.05 0,0.05 0,0.05 0,0.05 0,0.04 0,0.05 0,0.04 0,0.04 0,0.04 0,0.04 0,0.04 -0.01,0.04 0,0.03 0,0.04 -0.01,0.03 0,0.03 -0.01,0.06 -0.01,0.05 -0.02,0.05 -0.01,0.05 -0.02,0.04 -0.02,0.04 -0.03,0.04 -0.03,0.03 -0.03,0.02 -0.03,0.03 -0.04,0.02 -0.05,0.02 -0.02,0.01 -0.03,0.01 -0.02,0 -0.03,0.01 -0.03,0.01 -0.03,0 -0.03,0.01 -0.03,0 -0.03,0.01 -0.04,0 -0.04,0 -0.03,0 -0.04,0.01 -0.04,0 -0.04,0 -0.05,0 -0.04,0 -0.05,0 -0.05,0.01 -0.05,0 -0.05,0 -0.05,0 c -3.09,-3.19 -7.47,-3.19 -9.07,-3.19 l 0,-1.55 c 1,0 3.94,0 6.53,1.3 l 0,-25.81 c 0,-1.79 -0.15,-2.39 -4.63,-2.39 l -1.6,0 0,-1.54 16.14,0 0,1.54 -1.59,0 c -4.49,0 -4.63,0.55 -4.63,2.39 z" /><path
           style="fill:#000000;stroke-width:0"
           inkscape:connector-curvature="0"
           id="path6100"
           d="m 605.4,418.45 -0.01,0.37 0,0.39 -0.01,0.39 -0.01,0.41 -0.04,0.84 -0.06,0.88 -0.09,0.92 -0.1,0.94 -0.14,0.98 -0.16,1 -0.2,1.02 -0.23,1.04 -0.27,1.05 -0.3,1.06 -0.35,1.06 -0.39,1.07 -0.22,0.53 -0.22,0.54 -0.24,0.53 -0.25,0.53 c -2.99,6.12 -7.27,9.36 -7.77,9.36 -0.3,0 -0.5,-0.2 -0.5,-0.5 0,-0.15 0,-0.25 0.94,-1.15 4.89,-4.92 7.73,-12.85 7.73,-23.26 0,-8.52 -1.85,-17.28 -8.02,-23.56 -0.65,-0.6 -0.65,-0.69 -0.65,-0.85 0,-0.29 0.2,-0.49 0.5,-0.49 0.5,0 4.98,3.38 7.92,9.71 2.54,5.48 3.14,11.01 3.14,15.19 z" /><path
           style="fill:#000000;stroke-width:0"
           inkscape:connector-curvature="0"
           id="path6102"
           d="m 612.94,407.94 -0.01,-0.03 -0.01,-0.03 -0.01,-0.03 -0.01,-0.03 -0.01,-0.06 -0.02,-0.05 -0.01,-0.05 -0.01,-0.05 -0.02,-0.05 -0.01,-0.04 -0.01,-0.04 -0.01,-0.04 -0.01,-0.04 0,-0.03 -0.01,-0.04 -0.01,-0.03 0,-0.03 -0.01,-0.03 0,-0.03 -0.01,-0.03 0,-0.02 0,-0.03 -0.01,-0.05 0,-0.06 0,-0.05 0,-0.05 0,-0.03 0,-0.03 0,-0.03 0,-0.03 c 0,-0.9 0.7,-1.35 1.44,-1.35 1.5,0 1.8,1.2 2.2,2.79 0.5,1.8 0.19,0.85 2.34,9.22 4.18,-0.15 8.51,-1 8.51,-4.24 0,-0.34 0,-0.6 -0.09,-1.09 -0.2,-0.8 -0.25,-1.35 -0.25,-1.75 0,-2.93 1.99,-4.93 4.58,-4.93 1.59,0 2.89,0.9 3.88,2.59 1.25,2.09 1.85,4.98 1.85,5.08 0,0.5 -0.45,0.5 -0.6,0.5 -0.5,0 -0.55,-0.2 -0.7,-0.89 -0.94,-3.44 -2.09,-6.18 -4.33,-6.18 -1.05,0 -1.59,0.65 -1.59,2.39 0,0.75 0.2,1.94 0.4,2.79 0.09,0.45 0.24,1.09 0.24,1.64 0,4.68 -6.87,5.03 -9.66,5.13 1.64,0.9 3.24,2.25 4.58,3.39 2.29,1.94 3.74,3.14 5.73,3.99 -0.1,-0.26 -0.25,-0.85 -0.25,-1.1 0,-0.6 0.35,-1.74 1.89,-1.74 1.6,0 2.69,1.44 2.69,2.69 0,0.45 -0.19,1.74 -1.99,1.74 -3.04,0 -5.98,-2.49 -8.17,-4.33 -3.39,-2.89 -4.58,-3.64 -6.37,-4.24 0.15,0.55 0.74,3.04 0.99,3.89 0.3,1.29 0.9,3.63 0.9,3.88 0,0.85 -0.6,1.35 -1.44,1.35 -0.16,0 -1.55,0 -2,-1.8 z" /></g>    </g>
    <g
       transform="matrix(1.4071005,0,0,1.4071004,-31.695668,705.31113)"
       id="g6222">
      <g
         style="font-style:normal;font-variant:normal;font-weight:normal;font-stretch:normal;letter-spacing:normal;word-spacing:normal;text-anchor:start;fill:none;fill-opacity:1;fill-rule:evenodd;stroke:#000000;stroke-linecap:butt;stroke-linejoin:miter;stroke-miterlimit:10.43299961;stroke-dasharray:none;stroke-dashoffset:0;stroke-opacity:1"
         id="g6224"
         transform="matrix(0.45556805,0,0,-0.45556805,-79.724409,318.89764)"
         xml:space="preserve"
         stroke-miterlimit="10.433"
         font-style="normal"
         font-variant="normal"
         font-weight="normal"
         font-stretch="normal"
         font-size-adjust="none"
         letter-spacing="normal"
         word-spacing="normal"><path
           style="fill:#000000;stroke-width:0"
           inkscape:connector-curvature="0"
           d="m 479.46,424.78 0.01,0.06 0.01,0.05 0.01,0.05 0.02,0.06 0.02,0.1 0.01,0.06 0.02,0.05 0.01,0.05 0.01,0.06 0.01,0.05 0.01,0.06 0,0.06 0.01,0.06 0,0.03 0,0.03 0,0.03 0,0.04 c 0,0.84 -0.59,1.34 -1.44,1.34 -0.5,0 -1.85,-0.35 -2.05,-2.14 -0.89,1.84 -2.64,3.14 -4.63,3.14 l 0.05,-1.1 c 3.29,0 3.99,-4.03 3.99,-4.28 0,-0.25 -0.1,-0.55 -0.15,-0.75 l -2.4,-9.51 c -0.29,-1.3 -1.44,-2.54 -2.53,-3.49 -1.05,-0.9 -2.59,-1.79 -4.04,-1.79 -2.49,0 -3.24,2.59 -3.24,4.58 0,2.39 1.45,8.27 2.79,10.81 1.35,2.44 3.49,4.43 5.58,4.43 l -0.05,1.1 c -5.68,0 -11.85,-6.98 -11.85,-14.15 0,-4.93 3.04,-7.87 6.62,-7.87 2.94,0 5.28,2.34 5.78,2.89 l 0.05,-0.05 c -1.05,-4.43 -1.64,-6.48 -1.64,-6.57 -0.2,-0.45 -1.9,-5.39 -7.18,-5.39 -0.94,0 -2.59,0.05 -3.98,0.5 1.49,0.45 2.04,1.74 2.04,2.59 0,0.8 -0.55,1.74 -1.89,1.74 -1.1,0 -2.69,-0.89 -2.69,-2.88 0,-2.04 1.84,-3.04 6.62,-3.04 6.23,0 9.81,3.88 10.56,6.87 z"
           id="path6226" /></g>    </g>
    <g
       transform="translate(68.377279,729.62975)"
       id="g6352">
      <g
         style="font-style:normal;font-variant:normal;font-weight:normal;font-stretch:normal;letter-spacing:normal;word-spacing:normal;text-anchor:start;fill:none;fill-opacity:1;fill-rule:evenodd;stroke:#000000;stroke-linecap:butt;stroke-linejoin:miter;stroke-miterlimit:10.43299961;stroke-dasharray:none;stroke-dashoffset:0;stroke-opacity:1"
         word-spacing="normal"
         letter-spacing="normal"
         font-size-adjust="none"
         font-stretch="normal"
         font-weight="normal"
         font-variant="normal"
         font-style="normal"
         stroke-miterlimit="10.433"
         xml:space="preserve"
         transform="matrix(0.45556805,0,0,-0.45556805,-79.724409,318.89764)"
         id="g6354"><path
           style="fill:#000000;stroke-width:0"
           inkscape:connector-curvature="0"
           id="path6356"
           d="m 463.92,441.57 0,0.16 0,0.17 0,0.17 -0.01,0.08 0,0.08 -0.01,0.07 -0.01,0.08 -0.01,0.08 -0.01,0.07 -0.01,0.07 -0.02,0.07 -0.02,0.07 -0.02,0.06 -0.03,0.06 -0.03,0.06 -0.03,0.06 -0.03,0.05 -0.04,0.05 -0.04,0.04 -0.05,0.05 -0.05,0.04 -0.05,0.03 -0.03,0.02 -0.03,0.01 -0.03,0.01 -0.04,0.02 -0.03,0.01 -0.04,0.01 -0.03,0.01 -0.04,0.01 -0.04,0 -0.04,0.01 -0.04,0 -0.04,0.01 -0.05,0 -0.04,0 c -1,0 -1,-0.9 -1,-1.79 l 0,-46.23 c 0,-0.89 0,-1.79 1,-1.79 0.99,0 0.99,0.9 0.99,1.79 z" /><path
           style="fill:#000000;stroke-width:0"
           inkscape:connector-curvature="0"
           id="path6358"
           d="m 487.66976,433.64 0.23,-0.34 0.23,-0.34 0.23,-0.33 0.24,-0.31 0.24,-0.3 0.24,-0.3 0.24,-0.28 0.25,-0.27 0.24,-0.25 0.25,-0.25 0.24,-0.24 0.25,-0.22 0.24,-0.22 0.24,-0.2 0.24,-0.19 0.24,-0.19 c 3.03,-2.29 6.07,-2.79 6.17,-2.79 0.6,0 0.6,0.55 0.6,0.95 0,0.8 -0.05,0.84 -1.15,1.2 -3.38,0.94 -5.32,2.73 -6.47,3.98 -2.54,2.74 -3.14,5.73 -3.44,7.32 -0.05,0.25 -0.25,0.45 -0.55,0.45 -0.45,0 -0.49,-0.3 -0.59,-0.9 -1.15,-5.53 -4.69,-9.41 -10.16,-10.96 -0.75,-0.25 -0.85,-0.25 -0.85,-1.09 0,-0.4 0,-0.95 0.6,-0.95 0.14,0 3.08,0.55 5.92,2.59 1.65,1.25 2.99,2.74 4.09,4.43 l 0,-35.51 c 0,-0.9 0,-1.79 0.99,-1.79 1,0 1,0.89 1,1.79 z" /><path
           style="fill:#000000;stroke-width:0"
           inkscape:connector-curvature="0"
           id="path6360"
           d="m 512.81976,417.61 0,1.69 -8.72,22.91 c -0.3,0.85 -0.6,1.15 -1.15,1.15 -0.54,0 -0.99,-0.45 -0.99,-1 0,-0.15 0,-0.25 0.25,-0.79 l 8.81,-23.12 -8.81,-23.01 c -0.25,-0.55 -0.25,-0.65 -0.25,-0.9 0,-0.54 0.45,-0.99 0.99,-0.99 0.65,0 0.85,0.49 1.05,0.99 z" /></g>    </g>
    <g
       transform="translate(67.464228,795.17694)"
       id="g6496">
      <g
         style="font-style:normal;font-variant:normal;font-weight:normal;font-stretch:normal;letter-spacing:normal;word-spacing:normal;text-anchor:start;fill:none;fill-opacity:1;fill-rule:evenodd;stroke:#000000;stroke-linecap:butt;stroke-linejoin:miter;stroke-miterlimit:10.43299961;stroke-dasharray:none;stroke-dashoffset:0;stroke-opacity:1"
         id="g6498"
         transform="matrix(0.45556805,0,0,-0.45556805,-79.724409,318.89764)"
         xml:space="preserve"
         stroke-miterlimit="10.433"
         font-style="normal"
         font-variant="normal"
         font-weight="normal"
         font-stretch="normal"
         font-size-adjust="none"
         letter-spacing="normal"
         word-spacing="normal"><path
           style="fill:#000000;stroke-width:0"
           inkscape:connector-curvature="0"
           d="m 463.92,441.57 0,0.16 0,0.17 0,0.17 -0.01,0.08 0,0.08 -0.01,0.07 -0.01,0.08 -0.01,0.08 -0.01,0.07 -0.01,0.07 -0.02,0.07 -0.02,0.07 -0.02,0.06 -0.03,0.06 -0.03,0.06 -0.03,0.06 -0.03,0.05 -0.04,0.05 -0.04,0.04 -0.05,0.05 -0.05,0.04 -0.05,0.03 -0.03,0.02 -0.03,0.01 -0.03,0.01 -0.04,0.02 -0.03,0.01 -0.04,0.01 -0.03,0.01 -0.04,0.01 -0.04,0 -0.04,0.01 -0.04,0 -0.04,0.01 -0.05,0 -0.04,0 c -1,0 -1,-0.9 -1,-1.79 l 0,-46.23 c 0,-0.89 0,-1.79 1,-1.79 0.99,0 0.99,0.9 0.99,1.79 z"
           id="path6500" /><path
           style="fill:#000000;stroke-width:0"
           inkscape:connector-curvature="0"
           d="m 487.66976,438.78 0,0.16 0,0.17 -0.01,0.16 0,0.09 -0.01,0.07 0,0.08 -0.01,0.08 -0.01,0.07 -0.01,0.08 -0.02,0.07 -0.01,0.07 -0.02,0.06 -0.03,0.07 -0.02,0.06 -0.03,0.06 -0.03,0.06 -0.03,0.05 -0.04,0.05 -0.04,0.04 -0.05,0.05 -0.05,0.04 -0.06,0.03 -0.02,0.02 -0.04,0.01 -0.03,0.01 -0.03,0.02 -0.03,0.01 -0.04,0.01 -0.03,0.01 -0.04,0.01 -0.04,0 -0.04,0.01 -0.04,0 -0.05,0.01 -0.04,0 -0.05,0 c -0.99,0 -0.99,-0.9 -0.99,-1.79 l 0,-35.52 c -1.2,1.89 -2.59,3.29 -3.84,4.24 -3.04,2.29 -6.08,2.79 -6.17,2.79 -0.6,0 -0.6,-0.56 -0.6,-0.95 0,-0.8 0.05,-0.85 1.14,-1.2 3.39,-0.94 5.33,-2.74 6.48,-3.98 2.54,-2.74 3.14,-5.73 3.44,-7.28 0.05,-0.24 0.2,-0.49 0.54,-0.49 0.45,0 0.5,0.34 0.6,0.79 1.1,5.63 4.68,9.52 10.16,11.06 0.75,0.25 0.85,0.25 0.85,1.1 0,0.39 0,0.95 -0.6,0.95 -0.15,0 -3.08,-0.56 -5.92,-2.59 -1.65,-1.25 -2.99,-2.75 -4.09,-4.44 z"
           id="path6502" /><path
           style="fill:#000000;stroke-width:0"
           inkscape:connector-curvature="0"
           d="m 512.81976,417.61 0,1.69 -8.72,22.91 c -0.3,0.85 -0.6,1.15 -1.15,1.15 -0.54,0 -0.99,-0.45 -0.99,-1 0,-0.15 0,-0.25 0.25,-0.79 l 8.81,-23.12 -8.81,-23.01 c -0.25,-0.55 -0.25,-0.65 -0.25,-0.9 0,-0.54 0.45,-0.99 0.99,-0.99 0.65,0 0.85,0.49 1.05,0.99 z"
           id="path6504" /></g>    </g>
    <g
       id="g6650"
       transform="matrix(1.4071004,0,0,1.4071005,-62.411519,635.71355)">
      <g
         word-spacing="normal"
         letter-spacing="normal"
         font-size-adjust="none"
         font-stretch="normal"
         font-weight="normal"
         font-variant="normal"
         font-style="normal"
         stroke-miterlimit="10.433"
         xml:space="preserve"
         transform="matrix(0.45556805,0,0,-0.45556805,-79.724409,318.89764)"
         id="g6652"
         style="font-style:normal;font-variant:normal;font-weight:normal;font-stretch:normal;letter-spacing:normal;word-spacing:normal;text-anchor:start;fill:none;fill-opacity:1;fill-rule:evenodd;stroke:#000000;stroke-linecap:butt;stroke-linejoin:miter;stroke-miterlimit:10.43299961;stroke-dasharray:none;stroke-dashoffset:0;stroke-opacity:1"><path
           id="path6654"
           d="m 458.04,418.65 0.1,0.27 0.09,0.25 0.11,0.25 0.11,0.24 0.11,0.23 0.11,0.23 0.12,0.22 0.13,0.21 0.13,0.2 0.13,0.19 0.13,0.19 0.14,0.18 0.28,0.35 0.29,0.31 0.3,0.29 0.31,0.27 0.31,0.25 0.32,0.22 0.31,0.2 0.32,0.18 0.32,0.17 0.31,0.14 0.32,0.13 0.3,0.11 0.3,0.1 0.29,0.08 0.28,0.07 0.26,0.06 0.26,0.05 0.24,0.04 0.22,0.03 0.2,0.03 0.19,0.02 0.16,0.01 0.15,0 0.11,0.01 0.1,0 0.06,0 c 7.52,0 8.07,-8.72 8.07,-12.65 0,-3.04 -0.24,-3.89 -0.6,-4.88 -1.09,-3.64 -2.59,-9.42 -2.59,-10.71 0,-0.55 0.25,-0.9 0.65,-0.9 0.65,0 1.05,1.1 1.6,2.99 1.14,4.18 1.64,7.02 1.84,8.57 0.1,0.65 0.2,1.29 0.4,1.94 1.59,4.93 4.78,12.35 6.77,16.29 0.35,0.6 0.95,1.69 0.95,1.89 0,0.5 -0.5,0.5 -0.6,0.5 -0.15,0 -0.45,0 -0.6,-0.35 -2.59,-4.73 -4.58,-9.71 -6.57,-14.74 -0.05,1.54 -0.1,5.33 -2.05,10.16 -1.19,3.04 -3.18,5.48 -6.62,5.48 -6.23,0 -9.71,-7.57 -9.71,-9.12 0,-0.5 0.44,-0.5 0.94,-0.5 z"
           inkscape:connector-curvature="0"
           style="fill:#000000;stroke-width:0" /></g>    </g>
  </g>
</svg>
